%TF.GenerationSoftware,KiCad,Pcbnew,6.0.5-a6ca702e91~116~ubuntu20.04.1*%
%TF.CreationDate,2022-05-11T20:42:01+02:00*%
%TF.ProjectId,uHoubolt_PCB_PMU,75486f75-626f-46c7-945f-5043425f504d,rev?*%
%TF.SameCoordinates,PX8583b00PY5f5e100*%
%TF.FileFunction,Paste,Top*%
%TF.FilePolarity,Positive*%
%FSLAX46Y46*%
G04 Gerber Fmt 4.6, Leading zero omitted, Abs format (unit mm)*
G04 Created by KiCad (PCBNEW 6.0.5-a6ca702e91~116~ubuntu20.04.1) date 2022-05-11 20:42:01*
%MOMM*%
%LPD*%
G01*
G04 APERTURE LIST*
G04 Aperture macros list*
%AMRoundRect*
0 Rectangle with rounded corners*
0 $1 Rounding radius*
0 $2 $3 $4 $5 $6 $7 $8 $9 X,Y pos of 4 corners*
0 Add a 4 corners polygon primitive as box body*
4,1,4,$2,$3,$4,$5,$6,$7,$8,$9,$2,$3,0*
0 Add four circle primitives for the rounded corners*
1,1,$1+$1,$2,$3*
1,1,$1+$1,$4,$5*
1,1,$1+$1,$6,$7*
1,1,$1+$1,$8,$9*
0 Add four rect primitives between the rounded corners*
20,1,$1+$1,$2,$3,$4,$5,0*
20,1,$1+$1,$4,$5,$6,$7,0*
20,1,$1+$1,$6,$7,$8,$9,0*
20,1,$1+$1,$8,$9,$2,$3,0*%
G04 Aperture macros list end*
%ADD10RoundRect,0.075000X-0.650000X-0.075000X0.650000X-0.075000X0.650000X0.075000X-0.650000X0.075000X0*%
%ADD11RoundRect,0.218750X-0.256250X0.218750X-0.256250X-0.218750X0.256250X-0.218750X0.256250X0.218750X0*%
%ADD12RoundRect,0.150000X-0.512500X-0.150000X0.512500X-0.150000X0.512500X0.150000X-0.512500X0.150000X0*%
%ADD13RoundRect,0.218750X0.218750X0.256250X-0.218750X0.256250X-0.218750X-0.256250X0.218750X-0.256250X0*%
%ADD14RoundRect,0.147500X-0.172500X0.147500X-0.172500X-0.147500X0.172500X-0.147500X0.172500X0.147500X0*%
%ADD15RoundRect,0.243750X0.456250X-0.243750X0.456250X0.243750X-0.456250X0.243750X-0.456250X-0.243750X0*%
%ADD16R,1.100000X1.100000*%
%ADD17R,1.000000X0.340000*%
%ADD18R,0.500000X1.640000*%
%ADD19R,1.710000X2.290000*%
%ADD20RoundRect,0.218750X0.256250X-0.218750X0.256250X0.218750X-0.256250X0.218750X-0.256250X-0.218750X0*%
%ADD21RoundRect,0.250000X-0.375000X-0.625000X0.375000X-0.625000X0.375000X0.625000X-0.375000X0.625000X0*%
%ADD22RoundRect,0.218750X-0.218750X-0.256250X0.218750X-0.256250X0.218750X0.256250X-0.218750X0.256250X0*%
%ADD23RoundRect,0.147500X0.172500X-0.147500X0.172500X0.147500X-0.172500X0.147500X-0.172500X-0.147500X0*%
%ADD24RoundRect,0.200000X0.200000X0.275000X-0.200000X0.275000X-0.200000X-0.275000X0.200000X-0.275000X0*%
%ADD25RoundRect,0.225000X-0.225000X-0.250000X0.225000X-0.250000X0.225000X0.250000X-0.225000X0.250000X0*%
%ADD26RoundRect,0.225000X-0.250000X0.225000X-0.250000X-0.225000X0.250000X-0.225000X0.250000X0.225000X0*%
%ADD27RoundRect,0.140000X0.170000X-0.140000X0.170000X0.140000X-0.170000X0.140000X-0.170000X-0.140000X0*%
%ADD28R,4.200000X2.000000*%
%ADD29RoundRect,0.200000X-0.275000X0.200000X-0.275000X-0.200000X0.275000X-0.200000X0.275000X0.200000X0*%
%ADD30RoundRect,0.232500X0.232500X-0.232500X0.232500X0.232500X-0.232500X0.232500X-0.232500X-0.232500X0*%
%ADD31RoundRect,0.075000X0.075000X-0.462500X0.075000X0.462500X-0.075000X0.462500X-0.075000X-0.462500X0*%
%ADD32RoundRect,0.075000X0.462500X-0.075000X0.462500X0.075000X-0.462500X0.075000X-0.462500X-0.075000X0*%
%ADD33RoundRect,0.250000X-0.475000X0.250000X-0.475000X-0.250000X0.475000X-0.250000X0.475000X0.250000X0*%
%ADD34RoundRect,0.200000X-0.200000X-0.275000X0.200000X-0.275000X0.200000X0.275000X-0.200000X0.275000X0*%
%ADD35R,1.400000X2.100000*%
%ADD36RoundRect,0.225000X0.225000X0.250000X-0.225000X0.250000X-0.225000X-0.250000X0.225000X-0.250000X0*%
%ADD37RoundRect,0.225000X0.250000X-0.225000X0.250000X0.225000X-0.250000X0.225000X-0.250000X-0.225000X0*%
%ADD38RoundRect,0.200000X0.275000X-0.200000X0.275000X0.200000X-0.275000X0.200000X-0.275000X-0.200000X0*%
%ADD39R,0.990000X0.405000*%
%ADD40R,0.760000X0.405000*%
%ADD41R,1.725000X2.245000*%
%ADD42RoundRect,0.150000X0.150000X-0.587500X0.150000X0.587500X-0.150000X0.587500X-0.150000X-0.587500X0*%
%ADD43RoundRect,0.250000X0.250000X0.475000X-0.250000X0.475000X-0.250000X-0.475000X0.250000X-0.475000X0*%
%ADD44RoundRect,0.140000X-0.140000X-0.170000X0.140000X-0.170000X0.140000X0.170000X-0.140000X0.170000X0*%
%ADD45R,1.000000X0.500000*%
%ADD46R,3.500000X4.500000*%
%ADD47RoundRect,0.190000X0.190000X0.190000X-0.190000X0.190000X-0.190000X-0.190000X0.190000X-0.190000X0*%
%ADD48RoundRect,0.062500X0.325000X0.062500X-0.325000X0.062500X-0.325000X-0.062500X0.325000X-0.062500X0*%
%ADD49RoundRect,0.062500X0.062500X0.325000X-0.062500X0.325000X-0.062500X-0.325000X0.062500X-0.325000X0*%
%ADD50RoundRect,0.250000X0.450000X-0.350000X0.450000X0.350000X-0.450000X0.350000X-0.450000X-0.350000X0*%
%ADD51R,4.200000X1.400000*%
%ADD52RoundRect,0.250000X0.475000X-0.250000X0.475000X0.250000X-0.475000X0.250000X-0.475000X-0.250000X0*%
%ADD53RoundRect,0.050000X0.150000X0.230000X-0.150000X0.230000X-0.150000X-0.230000X0.150000X-0.230000X0*%
%ADD54RoundRect,0.150000X-0.150000X-0.700000X0.150000X-0.700000X0.150000X0.700000X-0.150000X0.700000X0*%
%ADD55RoundRect,0.250000X-0.250000X-1.150000X0.250000X-1.150000X0.250000X1.150000X-0.250000X1.150000X0*%
%ADD56RoundRect,0.100000X0.100000X-0.175000X0.100000X0.175000X-0.100000X0.175000X-0.100000X-0.175000X0*%
%ADD57RoundRect,0.100000X0.175000X-0.100000X0.175000X0.100000X-0.175000X0.100000X-0.175000X-0.100000X0*%
%ADD58RoundRect,0.250000X-0.250000X-0.475000X0.250000X-0.475000X0.250000X0.475000X-0.250000X0.475000X0*%
%ADD59R,0.600000X1.000000*%
%ADD60R,0.650000X0.350000*%
%ADD61R,1.400000X4.200000*%
%ADD62RoundRect,0.140000X-0.170000X0.140000X-0.170000X-0.140000X0.170000X-0.140000X0.170000X0.140000X0*%
%ADD63R,0.405000X0.990000*%
%ADD64R,0.405000X0.760000*%
%ADD65R,2.245000X1.725000*%
%ADD66RoundRect,0.250000X0.350000X0.450000X-0.350000X0.450000X-0.350000X-0.450000X0.350000X-0.450000X0*%
%ADD67RoundRect,0.062500X-0.675000X-0.062500X0.675000X-0.062500X0.675000X0.062500X-0.675000X0.062500X0*%
%ADD68RoundRect,0.062500X-0.062500X-0.675000X0.062500X-0.675000X0.062500X0.675000X-0.062500X0.675000X0*%
%ADD69RoundRect,0.232500X-0.232500X-0.232500X0.232500X-0.232500X0.232500X0.232500X-0.232500X0.232500X0*%
%ADD70RoundRect,0.075000X-0.462500X-0.075000X0.462500X-0.075000X0.462500X0.075000X-0.462500X0.075000X0*%
%ADD71RoundRect,0.075000X-0.075000X-0.462500X0.075000X-0.462500X0.075000X0.462500X-0.075000X0.462500X0*%
%ADD72RoundRect,0.250000X0.450000X-0.262500X0.450000X0.262500X-0.450000X0.262500X-0.450000X-0.262500X0*%
%ADD73RoundRect,0.140000X0.140000X0.170000X-0.140000X0.170000X-0.140000X-0.170000X0.140000X-0.170000X0*%
%ADD74RoundRect,0.150000X0.150000X0.700000X-0.150000X0.700000X-0.150000X-0.700000X0.150000X-0.700000X0*%
%ADD75RoundRect,0.250000X0.250000X1.150000X-0.250000X1.150000X-0.250000X-1.150000X0.250000X-1.150000X0*%
%ADD76RoundRect,0.250000X-0.450000X0.350000X-0.450000X-0.350000X0.450000X-0.350000X0.450000X0.350000X0*%
%ADD77R,2.100000X1.400000*%
%ADD78R,1.780000X1.500000*%
%ADD79R,1.000000X0.600000*%
%ADD80R,0.350000X0.650000*%
%ADD81R,1.400000X1.200000*%
%ADD82RoundRect,0.250000X0.262500X0.450000X-0.262500X0.450000X-0.262500X-0.450000X0.262500X-0.450000X0*%
%ADD83RoundRect,0.087500X0.087500X-0.187500X0.087500X0.187500X-0.087500X0.187500X-0.087500X-0.187500X0*%
%ADD84RoundRect,0.087500X0.187500X-0.087500X0.187500X0.087500X-0.187500X0.087500X-0.187500X-0.087500X0*%
G04 APERTURE END LIST*
D10*
%TO.C,U1*%
X19000000Y26150000D03*
X19000000Y25650000D03*
X19000000Y25150000D03*
X19000000Y24650000D03*
X19000000Y24150000D03*
X23400000Y24150000D03*
X23400000Y24650000D03*
X23400000Y25150000D03*
X23400000Y25650000D03*
X23400000Y26150000D03*
%TD*%
D11*
%TO.C,R9*%
X25175000Y24050000D03*
X25175000Y22475000D03*
%TD*%
D12*
%TO.C,U2*%
X17237500Y34100000D03*
X17237500Y33150000D03*
X17237500Y32200000D03*
X19512500Y32200000D03*
X19512500Y34100000D03*
%TD*%
D13*
%TO.C,C1*%
X23562500Y22550000D03*
X21987500Y22550000D03*
%TD*%
D14*
%TO.C,C3*%
X26575000Y24420000D03*
X26575000Y23450000D03*
%TD*%
D15*
%TO.C,C4*%
X26175000Y27650000D03*
X26175000Y29525000D03*
%TD*%
D16*
%TO.C,D1*%
X13225000Y27000000D03*
X10425000Y27000000D03*
%TD*%
D17*
%TO.C,Q1*%
X11690000Y31275000D03*
X11690000Y30625000D03*
X11690000Y29975000D03*
D18*
X11940000Y30625000D03*
D17*
X11690000Y29325000D03*
X14590000Y30625000D03*
D19*
X13435000Y30300000D03*
D17*
X14590000Y29325000D03*
X14590000Y31275000D03*
X14590000Y29975000D03*
%TD*%
D11*
%TO.C,R2*%
X15400000Y27737500D03*
X15400000Y26162500D03*
%TD*%
D20*
%TO.C,R5*%
X17100000Y26212500D03*
X17100000Y27787500D03*
%TD*%
D11*
%TO.C,R1*%
X10400000Y30837500D03*
X10400000Y29262500D03*
%TD*%
D21*
%TO.C,R6*%
X17075000Y29950000D03*
X19875000Y29950000D03*
%TD*%
D18*
%TO.C,Q2*%
X24285000Y28025000D03*
D17*
X24535000Y27375000D03*
X24535000Y28025000D03*
X24535000Y28675000D03*
X24535000Y29325000D03*
X21635000Y27375000D03*
X21635000Y28675000D03*
D19*
X22790000Y28350000D03*
D17*
X21635000Y29325000D03*
X21635000Y28025000D03*
%TD*%
D11*
%TO.C,R4*%
X17200000Y24487500D03*
X17200000Y22912500D03*
%TD*%
D22*
%TO.C,R7*%
X18587500Y27850000D03*
X20162500Y27850000D03*
%TD*%
D11*
%TO.C,R3*%
X15650000Y24487500D03*
X15650000Y22912500D03*
%TD*%
D23*
%TO.C,C19*%
X20975000Y33065000D03*
X20975000Y34035000D03*
%TD*%
D24*
%TO.C,R18*%
X-31725000Y-29750000D03*
X-33375000Y-29750000D03*
%TD*%
D25*
%TO.C,C25*%
X-45007500Y-10242500D03*
X-43457500Y-10242500D03*
%TD*%
D22*
%TO.C,D17*%
X13850000Y-39852500D03*
X15425000Y-39852500D03*
%TD*%
D20*
%TO.C,LED1*%
X-43700000Y-21287500D03*
X-43700000Y-19712500D03*
%TD*%
D26*
%TO.C,C8*%
X1850000Y37650000D03*
X1850000Y36100000D03*
%TD*%
D27*
%TO.C,C6*%
X-28300000Y-32680000D03*
X-28300000Y-31720000D03*
%TD*%
D22*
%TO.C,D12*%
X-15337500Y-39852500D03*
X-13762500Y-39852500D03*
%TD*%
D24*
%TO.C,R13*%
X-41622500Y-12232500D03*
X-43272500Y-12232500D03*
%TD*%
D28*
%TO.C,LS1*%
X-36300000Y-27300000D03*
X-36300000Y-19300000D03*
%TD*%
D29*
%TO.C,R45*%
X-48500000Y-16675000D03*
X-48500000Y-18325000D03*
%TD*%
D30*
%TO.C,U14*%
X27985000Y-33294651D03*
X29065000Y-33294651D03*
X27985000Y-32214651D03*
X29065000Y-32214651D03*
D31*
X27550000Y-34592151D03*
X28200000Y-34592151D03*
X28850000Y-34592151D03*
X29500000Y-34592151D03*
D32*
X30362500Y-33729651D03*
X30362500Y-33079651D03*
X30362500Y-32429651D03*
X30362500Y-31779651D03*
D31*
X29500000Y-30917151D03*
X28850000Y-30917151D03*
X28200000Y-30917151D03*
X27550000Y-30917151D03*
D32*
X26687500Y-31779651D03*
X26687500Y-32429651D03*
X26687500Y-33079651D03*
X26687500Y-33729651D03*
%TD*%
D33*
%TO.C,C5*%
X-26650000Y-30700000D03*
X-26650000Y-32600000D03*
%TD*%
D34*
%TO.C,R35*%
X-15375000Y-41452500D03*
X-13725000Y-41452500D03*
%TD*%
D35*
%TO.C,D22*%
X20325000Y-23400000D03*
X24725000Y-23400000D03*
%TD*%
D22*
%TO.C,D14*%
X3850000Y-39852500D03*
X5425000Y-39852500D03*
%TD*%
D36*
%TO.C,C41*%
X-48650000Y-9512500D03*
X-50200000Y-9512500D03*
%TD*%
D29*
%TO.C,R53*%
X30250000Y-27704651D03*
X30250000Y-29354651D03*
%TD*%
D37*
%TO.C,C57*%
X31950000Y-26304651D03*
X31950000Y-24754651D03*
%TD*%
D38*
%TO.C,R16*%
X-30300000Y-23125000D03*
X-30300000Y-21475000D03*
%TD*%
D39*
%TO.C,Q4*%
X-22180000Y-42642500D03*
D40*
X-19195000Y-41982500D03*
X-19195000Y-40662500D03*
D41*
X-20187500Y-41652500D03*
D40*
X-19195000Y-42642500D03*
X-19195000Y-41322500D03*
D39*
X-22180000Y-41982500D03*
X-22180000Y-40662500D03*
X-22180000Y-41322500D03*
%TD*%
D33*
%TO.C,C48*%
X-37050000Y21400000D03*
X-37050000Y19500000D03*
%TD*%
D27*
%TO.C,C15*%
X-33700000Y-33530000D03*
X-33700000Y-32570000D03*
%TD*%
D42*
%TO.C,U7*%
X-49812500Y14182500D03*
X-47912500Y14182500D03*
X-48862500Y16057500D03*
%TD*%
D43*
%TO.C,C60*%
X28500000Y-27029651D03*
X26600000Y-27029651D03*
%TD*%
D44*
%TO.C,C11*%
X2470000Y44400000D03*
X3430000Y44400000D03*
%TD*%
D25*
%TO.C,C40*%
X-41475000Y14437500D03*
X-39925000Y14437500D03*
%TD*%
D45*
%TO.C,U6*%
X-39737500Y-9967500D03*
X-39737500Y-11237500D03*
X-39737500Y-12507500D03*
X-39737500Y-13777500D03*
X-31737500Y-13777500D03*
X-31737500Y-12507500D03*
X-31737500Y-11237500D03*
X-31737500Y-9967500D03*
D46*
X-35737500Y-11872500D03*
%TD*%
D47*
%TO.C,U3*%
X-31440000Y-32260000D03*
X-30560000Y-32260000D03*
X-31440000Y-33140000D03*
X-30560000Y-33140000D03*
D48*
X-29537500Y-33450000D03*
X-29537500Y-32950000D03*
X-29537500Y-32450000D03*
X-29537500Y-31950000D03*
D49*
X-30250000Y-31237500D03*
X-30750000Y-31237500D03*
X-31250000Y-31237500D03*
X-31750000Y-31237500D03*
D48*
X-32462500Y-31950000D03*
X-32462500Y-32450000D03*
X-32462500Y-32950000D03*
X-32462500Y-33450000D03*
D49*
X-31750000Y-34162500D03*
X-31250000Y-34162500D03*
X-30750000Y-34162500D03*
X-30250000Y-34162500D03*
%TD*%
D20*
%TO.C,D4*%
X-1650000Y44965000D03*
X-1650000Y46540000D03*
%TD*%
D50*
%TO.C,F2*%
X22000000Y45325000D03*
X22000000Y47325000D03*
%TD*%
D29*
%TO.C,R36*%
X-16950000Y-41427500D03*
X-16950000Y-43077500D03*
%TD*%
%TO.C,R10*%
X-51700000Y-16675000D03*
X-51700000Y-18325000D03*
%TD*%
D51*
%TO.C,L2*%
X7875000Y47600000D03*
X7875000Y44800000D03*
%TD*%
D29*
%TO.C,R33*%
X-26950000Y-41427500D03*
X-26950000Y-43077500D03*
%TD*%
D43*
%TO.C,C52*%
X24950000Y-38300000D03*
X23050000Y-38300000D03*
%TD*%
D37*
%TO.C,C10*%
X4850000Y44575000D03*
X4850000Y46125000D03*
%TD*%
D26*
%TO.C,C35*%
X-43700000Y12412500D03*
X-43700000Y10862500D03*
%TD*%
D37*
%TO.C,C23*%
X-50700000Y-4325000D03*
X-50700000Y-2775000D03*
%TD*%
D51*
%TO.C,L1*%
X-31100000Y-35650000D03*
X-31100000Y-38450000D03*
%TD*%
%TO.C,L3*%
X-42450000Y19850000D03*
X-42450000Y17050000D03*
%TD*%
D20*
%TO.C,LED2*%
X-45300000Y-21287500D03*
X-45300000Y-19712500D03*
%TD*%
D37*
%TO.C,C42*%
X-51825000Y-7887500D03*
X-51825000Y-6337500D03*
%TD*%
D52*
%TO.C,C18*%
X11822500Y39350000D03*
X11822500Y41250000D03*
%TD*%
D29*
%TO.C,R11*%
X-43700000Y-16675000D03*
X-43700000Y-18325000D03*
%TD*%
D34*
%TO.C,R51*%
X26525000Y-36329651D03*
X28175000Y-36329651D03*
%TD*%
D53*
%TO.C,D8*%
X-48550000Y11100000D03*
X-49350000Y11100000D03*
%TD*%
D29*
%TO.C,R23*%
X-50000Y49625000D03*
X-50000Y47975000D03*
%TD*%
D25*
%TO.C,C2*%
X-53375000Y-1212500D03*
X-51825000Y-1212500D03*
%TD*%
D39*
%TO.C,Q5*%
X-12180000Y-42642500D03*
D41*
X-10187500Y-41652500D03*
D40*
X-9195000Y-42642500D03*
X-9195000Y-41982500D03*
X-9195000Y-41322500D03*
X-9195000Y-40662500D03*
D39*
X-12180000Y-41322500D03*
X-12180000Y-41982500D03*
X-12180000Y-40662500D03*
%TD*%
D26*
%TO.C,C31*%
X-46300000Y16075000D03*
X-46300000Y14525000D03*
%TD*%
D24*
%TO.C,R44*%
X-42725000Y25900000D03*
X-44375000Y25900000D03*
%TD*%
D34*
%TO.C,R40*%
X3825000Y-43052500D03*
X5475000Y-43052500D03*
%TD*%
D54*
%TO.C,J13*%
X-19675000Y48250000D03*
X-18425000Y48250000D03*
X-17175000Y48250000D03*
X-15925000Y48250000D03*
D55*
X-14075000Y51600000D03*
X-21525000Y51600000D03*
%TD*%
D56*
%TO.C,U11*%
X-49775000Y-8037500D03*
X-49175000Y-8037500D03*
D57*
X-48550000Y-7712500D03*
X-48550000Y-7112500D03*
X-48550000Y-6512500D03*
D56*
X-49175000Y-6187500D03*
X-49775000Y-6187500D03*
D57*
X-50400000Y-6512500D03*
X-50400000Y-7112500D03*
X-50400000Y-7712500D03*
%TD*%
D38*
%TO.C,R46*%
X-48500000Y-14225000D03*
X-48500000Y-12575000D03*
%TD*%
D27*
%TO.C,C38*%
X-29475000Y47495000D03*
X-29475000Y48455000D03*
%TD*%
D58*
%TO.C,C7*%
X15550000Y49950000D03*
X17450000Y49950000D03*
%TD*%
D59*
%TO.C,U9*%
X-27187500Y48800000D03*
X-27187500Y47600000D03*
X-26412500Y48800000D03*
X-26412500Y47600000D03*
D60*
X-28350000Y49175000D03*
X-28350000Y48525000D03*
X-28350000Y47875000D03*
X-28350000Y47225000D03*
X-25250000Y47225000D03*
X-25250000Y47875000D03*
X-25250000Y48525000D03*
X-25250000Y49175000D03*
%TD*%
D37*
%TO.C,C30*%
X-32747500Y-1675000D03*
X-32747500Y-125000D03*
%TD*%
D20*
%TO.C,D16*%
X-48500000Y-21275000D03*
X-48500000Y-19700000D03*
%TD*%
D33*
%TO.C,C16*%
X-27800000Y-35600000D03*
X-27800000Y-37500000D03*
%TD*%
D16*
%TO.C,D13*%
X-12150000Y-44852500D03*
X-9350000Y-44852500D03*
%TD*%
D26*
%TO.C,C13*%
X7825000Y36500000D03*
X7825000Y34950000D03*
%TD*%
D61*
%TO.C,L4*%
X22168750Y-27725000D03*
X24968750Y-27725000D03*
%TD*%
D34*
%TO.C,R37*%
X-15375000Y-43052500D03*
X-13725000Y-43052500D03*
%TD*%
D33*
%TO.C,C47*%
X-39050000Y21400000D03*
X-39050000Y19500000D03*
%TD*%
D47*
%TO.C,U13*%
X-42790000Y23390000D03*
X-41910000Y22510000D03*
X-42790000Y22510000D03*
X-41910000Y23390000D03*
D48*
X-40887500Y22200000D03*
X-40887500Y22700000D03*
X-40887500Y23200000D03*
X-40887500Y23700000D03*
D49*
X-41600000Y24412500D03*
X-42100000Y24412500D03*
X-42600000Y24412500D03*
X-43100000Y24412500D03*
D48*
X-43812500Y23700000D03*
X-43812500Y23200000D03*
X-43812500Y22700000D03*
X-43812500Y22200000D03*
D49*
X-43100000Y21487500D03*
X-42600000Y21487500D03*
X-42100000Y21487500D03*
X-41600000Y21487500D03*
%TD*%
D29*
%TO.C,R47*%
X-50000000Y-12575000D03*
X-50000000Y-14225000D03*
%TD*%
D34*
%TO.C,R38*%
X3825000Y-41452500D03*
X5475000Y-41452500D03*
%TD*%
D38*
%TO.C,R26*%
X6325000Y37900000D03*
X6325000Y39550000D03*
%TD*%
D29*
%TO.C,R48*%
X12250000Y-41427500D03*
X12250000Y-43077500D03*
%TD*%
D52*
%TO.C,C14*%
X9775000Y39350000D03*
X9775000Y41250000D03*
%TD*%
D34*
%TO.C,R15*%
X-33525000Y-16700000D03*
X-31875000Y-16700000D03*
%TD*%
D29*
%TO.C,R30*%
X-46900000Y-16675000D03*
X-46900000Y-18325000D03*
%TD*%
%TO.C,R8*%
X-49900000Y3575000D03*
X-49900000Y1925000D03*
%TD*%
D36*
%TO.C,C36*%
X-48257500Y12397500D03*
X-49807500Y12397500D03*
%TD*%
D20*
%TO.C,D9*%
X-46900000Y-21287500D03*
X-46900000Y-19712500D03*
%TD*%
D38*
%TO.C,R25*%
X7825000Y37900000D03*
X7825000Y39550000D03*
%TD*%
D34*
%TO.C,R42*%
X13825000Y-41452500D03*
X15475000Y-41452500D03*
%TD*%
D62*
%TO.C,C32*%
X-5400000Y37005000D03*
X-5400000Y36045000D03*
%TD*%
D63*
%TO.C,Q3*%
X-30090000Y-16970000D03*
D64*
X-28770000Y-19955000D03*
X-28110000Y-19955000D03*
D65*
X-29100000Y-18962500D03*
D64*
X-30090000Y-19955000D03*
X-29430000Y-19955000D03*
D63*
X-28770000Y-16970000D03*
X-28110000Y-16970000D03*
X-29430000Y-16970000D03*
%TD*%
D27*
%TO.C,C46*%
X-45300000Y22170000D03*
X-45300000Y23130000D03*
%TD*%
D22*
%TO.C,D25*%
X-7925000Y-36450000D03*
X-6350000Y-36450000D03*
%TD*%
D27*
%TO.C,C56*%
X25068750Y-33109651D03*
X25068750Y-32149651D03*
%TD*%
D66*
%TO.C,F3*%
X26250000Y-46650000D03*
X24250000Y-46650000D03*
%TD*%
D67*
%TO.C,U5*%
X-48087500Y4687500D03*
X-48087500Y4187500D03*
X-48087500Y3687500D03*
X-48087500Y3187500D03*
X-48087500Y2687500D03*
X-48087500Y2187500D03*
X-48087500Y1687500D03*
X-48087500Y1187500D03*
X-48087500Y687500D03*
X-48087500Y187500D03*
X-48087500Y-312500D03*
X-48087500Y-812500D03*
X-48087500Y-1312500D03*
X-48087500Y-1812500D03*
X-48087500Y-2312500D03*
X-48087500Y-2812500D03*
X-48087500Y-3312500D03*
X-48087500Y-3812500D03*
X-48087500Y-4312500D03*
X-48087500Y-4812500D03*
D68*
X-46150000Y-6750000D03*
X-45650000Y-6750000D03*
X-45150000Y-6750000D03*
X-44650000Y-6750000D03*
X-44150000Y-6750000D03*
X-43650000Y-6750000D03*
X-43150000Y-6750000D03*
X-42650000Y-6750000D03*
X-42150000Y-6750000D03*
X-41650000Y-6750000D03*
X-41150000Y-6750000D03*
X-40650000Y-6750000D03*
X-40150000Y-6750000D03*
X-39650000Y-6750000D03*
X-39150000Y-6750000D03*
X-38650000Y-6750000D03*
X-38150000Y-6750000D03*
X-37650000Y-6750000D03*
X-37150000Y-6750000D03*
X-36650000Y-6750000D03*
D67*
X-34712500Y-4812500D03*
X-34712500Y-4312500D03*
X-34712500Y-3812500D03*
X-34712500Y-3312500D03*
X-34712500Y-2812500D03*
X-34712500Y-2312500D03*
X-34712500Y-1812500D03*
X-34712500Y-1312500D03*
X-34712500Y-812500D03*
X-34712500Y-312500D03*
X-34712500Y187500D03*
X-34712500Y687500D03*
X-34712500Y1187500D03*
X-34712500Y1687500D03*
X-34712500Y2187500D03*
X-34712500Y2687500D03*
X-34712500Y3187500D03*
X-34712500Y3687500D03*
X-34712500Y4187500D03*
X-34712500Y4687500D03*
D68*
X-36650000Y6625000D03*
X-37150000Y6625000D03*
X-37650000Y6625000D03*
X-38150000Y6625000D03*
X-38650000Y6625000D03*
X-39150000Y6625000D03*
X-39650000Y6625000D03*
X-40150000Y6625000D03*
X-40650000Y6625000D03*
X-41150000Y6625000D03*
X-41650000Y6625000D03*
X-42150000Y6625000D03*
X-42650000Y6625000D03*
X-43150000Y6625000D03*
X-43650000Y6625000D03*
X-44150000Y6625000D03*
X-44650000Y6625000D03*
X-45150000Y6625000D03*
X-45650000Y6625000D03*
X-46150000Y6625000D03*
%TD*%
D34*
%TO.C,R50*%
X31900000Y-34229651D03*
X33550000Y-34229651D03*
%TD*%
D33*
%TO.C,C17*%
X-25800000Y-35600000D03*
X-25800000Y-37500000D03*
%TD*%
D39*
%TO.C,Q6*%
X7020000Y-42642500D03*
D40*
X10005000Y-42642500D03*
X10005000Y-41322500D03*
X10005000Y-41982500D03*
D41*
X9012500Y-41652500D03*
D40*
X10005000Y-40662500D03*
D39*
X7020000Y-41982500D03*
X7020000Y-40662500D03*
X7020000Y-41322500D03*
%TD*%
D69*
%TO.C,U4*%
X2210000Y40560000D03*
X3290000Y40560000D03*
X3290000Y41640000D03*
X2210000Y41640000D03*
D70*
X912500Y42075000D03*
X912500Y41425000D03*
X912500Y40775000D03*
X912500Y40125000D03*
D71*
X1775000Y39262500D03*
X2425000Y39262500D03*
X3075000Y39262500D03*
X3725000Y39262500D03*
D70*
X4587500Y40125000D03*
X4587500Y40775000D03*
X4587500Y41425000D03*
X4587500Y42075000D03*
D71*
X3725000Y42937500D03*
X3075000Y42937500D03*
X2425000Y42937500D03*
X1775000Y42937500D03*
%TD*%
D13*
%TO.C,D19*%
X31156250Y-36329651D03*
X29581250Y-36329651D03*
%TD*%
D37*
%TO.C,C54*%
X20300000Y-33375000D03*
X20300000Y-31825000D03*
%TD*%
D39*
%TO.C,Q7*%
X17020000Y-42642500D03*
D40*
X20005000Y-41982500D03*
X20005000Y-41322500D03*
X20005000Y-40662500D03*
D41*
X19012500Y-41652500D03*
D40*
X20005000Y-42642500D03*
D39*
X17020000Y-40662500D03*
X17020000Y-41322500D03*
X17020000Y-41982500D03*
%TD*%
D72*
%TO.C,R27*%
X7650000Y41087500D03*
X7650000Y42912500D03*
%TD*%
D37*
%TO.C,C22*%
X-31147500Y-1675000D03*
X-31147500Y-125000D03*
%TD*%
D34*
%TO.C,R31*%
X-3300000Y-33250000D03*
X-1650000Y-33250000D03*
%TD*%
D37*
%TO.C,C9*%
X3750000Y49500000D03*
X3750000Y51050000D03*
%TD*%
D13*
%TO.C,D20*%
X31156250Y-38050000D03*
X29581250Y-38050000D03*
%TD*%
D37*
%TO.C,C58*%
X30250000Y-26304651D03*
X30250000Y-24754651D03*
%TD*%
D35*
%TO.C,D21*%
X20300000Y-35700000D03*
X24700000Y-35700000D03*
%TD*%
D37*
%TO.C,C26*%
X-41947500Y-10267500D03*
X-41947500Y-8717500D03*
%TD*%
D16*
%TO.C,D18*%
X17050000Y-44852500D03*
X19850000Y-44852500D03*
%TD*%
D29*
%TO.C,R29*%
X-23800000Y49025000D03*
X-23800000Y47375000D03*
%TD*%
D34*
%TO.C,R17*%
X-30375000Y-29750000D03*
X-28725000Y-29750000D03*
%TD*%
D26*
%TO.C,C21*%
X-47657500Y8712500D03*
X-47657500Y7162500D03*
%TD*%
D73*
%TO.C,C37*%
X-7395000Y32750000D03*
X-8355000Y32750000D03*
%TD*%
D16*
%TO.C,D11*%
X-22150000Y-44852500D03*
X-19350000Y-44852500D03*
%TD*%
D22*
%TO.C,D10*%
X-25337500Y-39852500D03*
X-23762500Y-39852500D03*
%TD*%
D35*
%TO.C,D5*%
X5600000Y50300000D03*
X10000000Y50300000D03*
%TD*%
D74*
%TO.C,J15*%
X-15925000Y44750000D03*
X-17175000Y44750000D03*
X-18425000Y44750000D03*
X-19675000Y44750000D03*
D75*
X-21525000Y41400000D03*
X-14075000Y41400000D03*
%TD*%
D76*
%TO.C,F1*%
X-36050000Y25150000D03*
X-36050000Y23150000D03*
%TD*%
D34*
%TO.C,R56*%
X-7950000Y-34900000D03*
X-6300000Y-34900000D03*
%TD*%
D74*
%TO.C,J16*%
X-5925000Y44750000D03*
X-7175000Y44750000D03*
X-8425000Y44750000D03*
X-9675000Y44750000D03*
D75*
X-4075000Y41400000D03*
X-11525000Y41400000D03*
%TD*%
D35*
%TO.C,D23*%
X15425000Y47375000D03*
X19825000Y47375000D03*
%TD*%
D29*
%TO.C,R19*%
X-50100000Y-16675000D03*
X-50100000Y-18325000D03*
%TD*%
D26*
%TO.C,C20*%
X-49900000Y450000D03*
X-49900000Y-1100000D03*
%TD*%
D34*
%TO.C,R28*%
X-8650000Y38550000D03*
X-7000000Y38550000D03*
%TD*%
%TO.C,R43*%
X-41375000Y25900000D03*
X-39725000Y25900000D03*
%TD*%
D77*
%TO.C,D24*%
X24200000Y-40300000D03*
X24200000Y-44700000D03*
%TD*%
D78*
%TO.C,U12*%
X-1130000Y-35235000D03*
X-3670000Y-35235000D03*
X-3670000Y-44765000D03*
X-1130000Y-44765000D03*
%TD*%
D33*
%TO.C,C44*%
X-38050000Y24900000D03*
X-38050000Y23000000D03*
%TD*%
D29*
%TO.C,R21*%
X-53000000Y-12575000D03*
X-53000000Y-14225000D03*
%TD*%
D54*
%TO.C,J14*%
X-9675000Y48250000D03*
X-8425000Y48250000D03*
X-7175000Y48250000D03*
X-5925000Y48250000D03*
D55*
X-11525000Y51600000D03*
X-4075000Y51600000D03*
%TD*%
D79*
%TO.C,U8*%
X-7200000Y35987500D03*
X-8400000Y35987500D03*
X-8400000Y35212500D03*
X-7200000Y35212500D03*
D80*
X-8775000Y34050000D03*
X-8125000Y34050000D03*
X-7475000Y34050000D03*
X-6825000Y34050000D03*
X-6825000Y37150000D03*
X-7475000Y37150000D03*
X-8125000Y37150000D03*
X-8775000Y37150000D03*
%TD*%
D20*
%TO.C,D7*%
X-50100000Y-21287500D03*
X-50100000Y-19712500D03*
%TD*%
D24*
%TO.C,R14*%
X-44622500Y-12232500D03*
X-46272500Y-12232500D03*
%TD*%
D34*
%TO.C,R32*%
X-25375000Y-41452500D03*
X-23725000Y-41452500D03*
%TD*%
%TO.C,R49*%
X13825000Y-43052500D03*
X15475000Y-43052500D03*
%TD*%
D20*
%TO.C,D3*%
X-50000Y44965000D03*
X-50000Y46540000D03*
%TD*%
D36*
%TO.C,C27*%
X-31825000Y-7800000D03*
X-33375000Y-7800000D03*
%TD*%
D26*
%TO.C,C24*%
X-32700000Y-3537500D03*
X-32700000Y-5087500D03*
%TD*%
D29*
%TO.C,R54*%
X31950000Y-27704651D03*
X31950000Y-29354651D03*
%TD*%
D81*
%TO.C,X1*%
X-54870000Y487500D03*
X-52330000Y487500D03*
X-52330000Y2687500D03*
X-54870000Y2687500D03*
%TD*%
D34*
%TO.C,R41*%
X50775000Y14900000D03*
X52425000Y14900000D03*
%TD*%
D82*
%TO.C,R55*%
X28462500Y-29029651D03*
X26637500Y-29029651D03*
%TD*%
D34*
%TO.C,R34*%
X-25375000Y-43052500D03*
X-23725000Y-43052500D03*
%TD*%
D36*
%TO.C,C28*%
X-35325000Y8587500D03*
X-36875000Y8587500D03*
%TD*%
D26*
%TO.C,C12*%
X6325000Y36500000D03*
X6325000Y34950000D03*
%TD*%
D24*
%TO.C,R22*%
X250000Y37600000D03*
X-1400000Y37600000D03*
%TD*%
D37*
%TO.C,C39*%
X-42200000Y10862500D03*
X-42200000Y12412500D03*
%TD*%
D16*
%TO.C,D15*%
X7050000Y-44852500D03*
X9850000Y-44852500D03*
%TD*%
D27*
%TO.C,C45*%
X-39550000Y23470000D03*
X-39550000Y24430000D03*
%TD*%
D43*
%TO.C,C59*%
X28500000Y-25029651D03*
X26600000Y-25029651D03*
%TD*%
D73*
%TO.C,C33*%
X-25370000Y45875000D03*
X-26330000Y45875000D03*
%TD*%
D77*
%TO.C,D6*%
X11650000Y47500000D03*
X11650000Y43100000D03*
%TD*%
D29*
%TO.C,R12*%
X-45300000Y-16675000D03*
X-45300000Y-18325000D03*
%TD*%
D26*
%TO.C,C53*%
X26568750Y-39725000D03*
X26568750Y-41275000D03*
%TD*%
D34*
%TO.C,R52*%
X26525000Y-38050000D03*
X28175000Y-38050000D03*
%TD*%
D29*
%TO.C,R24*%
X-1650000Y49625000D03*
X-1650000Y47975000D03*
%TD*%
D20*
%TO.C,D2*%
X-51700000Y-21287500D03*
X-51700000Y-19712500D03*
%TD*%
D43*
%TO.C,C43*%
X31100000Y32550000D03*
X29200000Y32550000D03*
%TD*%
D25*
%TO.C,C29*%
X-51475000Y5387500D03*
X-49925000Y5387500D03*
%TD*%
D26*
%TO.C,C34*%
X-45200000Y12412500D03*
X-45200000Y10862500D03*
%TD*%
D38*
%TO.C,R20*%
X-51500000Y-14225000D03*
X-51500000Y-12575000D03*
%TD*%
D29*
%TO.C,R39*%
X2250000Y-41427500D03*
X2250000Y-43077500D03*
%TD*%
D36*
%TO.C,C55*%
X24975000Y-30825000D03*
X23425000Y-30825000D03*
%TD*%
D83*
%TO.C,U10*%
X-40700000Y10612500D03*
X-40200000Y10612500D03*
X-39700000Y10612500D03*
X-39200000Y10612500D03*
X-38700000Y10612500D03*
D84*
X-38475000Y11337500D03*
X-38475000Y11837500D03*
X-38475000Y12337500D03*
D83*
X-38700000Y13062500D03*
X-39200000Y13062500D03*
X-39700000Y13062500D03*
X-40200000Y13062500D03*
X-40700000Y13062500D03*
D84*
X-40925000Y12337500D03*
X-40925000Y11837500D03*
X-40925000Y11337500D03*
%TD*%
M02*
