%TF.GenerationSoftware,KiCad,Pcbnew,5.1.5+dfsg1-2build2*%
%TF.CreationDate,2021-12-22T23:08:46+01:00*%
%TF.ProjectId,uHoubolt_PCB_PMU,75486f75-626f-46c7-945f-5043425f504d,rev?*%
%TF.SameCoordinates,PX8583b00PY5f5e100*%
%TF.FileFunction,Profile,NP*%
%FSLAX46Y46*%
G04 Gerber Fmt 4.6, Leading zero omitted, Abs format (unit mm)*
G04 Created by KiCad (PCBNEW 5.1.5+dfsg1-2build2) date 2021-12-22 23:08:46*
%MOMM*%
%LPD*%
G04 APERTURE LIST*
%TA.AperFunction,Profile*%
%ADD10C,0.050000*%
%TD*%
G04 APERTURE END LIST*
D10*
X-5500000Y44994490D02*
G75*
G02X-9500000Y48994490I0J4000000D01*
G01*
X-13505487Y54986284D02*
G75*
G02X-9500000Y50994490I0J-4005510D01*
G01*
X-9500000Y50994490D02*
X-9500000Y48994490D01*
X-22000000Y55000000D02*
X-13505487Y54986284D01*
X13500000Y54994490D02*
X21992958Y54976886D01*
X9500000Y50994490D02*
X9500000Y48994490D01*
X9500000Y50994490D02*
G75*
G02X13500000Y54994490I4000000J0D01*
G01*
X9500000Y48994490D02*
G75*
G02X5500000Y44994490I-4000000J0D01*
G01*
X0Y26500000D02*
G75*
G02X0Y-26500000I0J-26500000D01*
G01*
X-22000000Y-26500000D02*
X0Y-26500000D01*
X-22000000Y-26500000D02*
G75*
G02X-26000000Y-22500000I0J4000000D01*
G01*
X-30000000Y-1500000D02*
G75*
G02X-26000000Y-5500000I0J-4000000D01*
G01*
X-37000000Y-1500000D02*
G75*
G02X-41000000Y2500000I0J4000000D01*
G01*
X-26000000Y-5500000D02*
X-26000000Y-22500000D01*
X-37000000Y-1500000D02*
X-30000000Y-1500000D01*
X-41000000Y22500000D02*
X-41000000Y2500000D01*
X-41000000Y22500000D02*
G75*
G02X-37000000Y26500000I4000000J0D01*
G01*
X0Y26500000D02*
X-37000000Y26500000D01*
X-38509607Y-45011223D02*
G75*
G02X-22000000Y55000000I38509607J45011223D01*
G01*
X21992958Y54976885D02*
G75*
G02X38489545Y-45013344I-21993806J-54984516D01*
G01*
X-5500000Y44994490D02*
X5500000Y44994490D01*
X-38509607Y-45011223D02*
X38489545Y-45013344D01*
X29800000Y1100000D02*
G75*
G02X29300000Y1600000I0J500000D01*
G01*
X28100000Y-1100000D02*
G75*
G02X27100000Y-100000I0J1000000D01*
G01*
X28300000Y6000000D02*
G75*
G02X29300000Y5000000I0J-1000000D01*
G01*
X29300000Y1600000D02*
X29300000Y5000000D01*
X28300000Y6000000D02*
X28100000Y6000000D01*
X27100000Y5000000D02*
X27100000Y-100000D01*
X27100000Y5000000D02*
G75*
G02X28100000Y6000000I1000000J0D01*
G01*
X42100000Y1600000D02*
G75*
G02X41600000Y1100000I-500000J0D01*
G01*
X42100000Y5000000D02*
G75*
G02X43100000Y6000000I1000000J0D01*
G01*
X43300000Y6000000D02*
G75*
G02X44300000Y5000000I0J-1000000D01*
G01*
X44300000Y-100000D02*
G75*
G02X43300000Y-1100000I-1000000J0D01*
G01*
X41600000Y1100000D02*
X29800000Y1100000D01*
X42100000Y5000000D02*
X42100000Y1600000D01*
X43300000Y6000000D02*
X43100000Y6000000D01*
X44300000Y-100000D02*
X44300000Y5000000D01*
X28100000Y-1100000D02*
X43300000Y-1100000D01*
M02*
