%TF.GenerationSoftware,KiCad,Pcbnew,6.0.5-a6ca702e91~116~ubuntu20.04.1*%
%TF.CreationDate,2022-05-11T20:42:01+02:00*%
%TF.ProjectId,uHoubolt_PCB_PMU,75486f75-626f-46c7-945f-5043425f504d,rev?*%
%TF.SameCoordinates,PX8583b00PY5f5e100*%
%TF.FileFunction,Legend,Bot*%
%TF.FilePolarity,Positive*%
%FSLAX46Y46*%
G04 Gerber Fmt 4.6, Leading zero omitted, Abs format (unit mm)*
G04 Created by KiCad (PCBNEW 6.0.5-a6ca702e91~116~ubuntu20.04.1) date 2022-05-11 20:42:01*
%MOMM*%
%LPD*%
G01*
G04 APERTURE LIST*
%ADD10C,0.120000*%
%ADD11C,0.100000*%
%ADD12C,0.300000*%
%ADD13C,0.200000*%
%ADD14C,0.010000*%
%ADD15C,0.150000*%
G04 APERTURE END LIST*
D10*
X33600000Y47600000D02*
X26100000Y47600000D01*
X26100000Y47600000D02*
X26100000Y34000000D01*
X26100000Y34000000D02*
X33600000Y34000000D01*
X33600000Y34000000D02*
X33600000Y47600000D01*
X-22700000Y39300000D02*
X-12900000Y39300000D01*
X-12900000Y39300000D02*
X-12900000Y54300000D01*
X-12900000Y54300000D02*
X-22700000Y54300000D01*
X-22700000Y54300000D02*
X-22700000Y39300000D01*
D11*
G36*
X-3300000Y-46900000D02*
G01*
X-12300000Y-46900000D01*
X-12300000Y-40900000D01*
X-3300000Y-40900000D01*
X-3300000Y-46900000D01*
G37*
X-3300000Y-46900000D02*
X-12300000Y-46900000D01*
X-12300000Y-40900000D01*
X-3300000Y-40900000D01*
X-3300000Y-46900000D01*
D10*
X-2900000Y39300000D02*
X-12700000Y39300000D01*
X-12700000Y39300000D02*
X-12700000Y54300000D01*
X-12700000Y54300000D02*
X-2900000Y54300000D01*
X-2900000Y54300000D02*
X-2900000Y39300000D01*
D12*
X31207142Y46271429D02*
X31207142Y45128572D01*
X31778571Y45700000D02*
X30635714Y45700000D01*
D13*
X28268095Y48671429D02*
X29030000Y48671429D01*
X28649047Y49052381D02*
X28649047Y48290477D01*
X30030000Y49052381D02*
X29458571Y49052381D01*
X29744285Y49052381D02*
X29744285Y48052381D01*
X29649047Y48195239D01*
X29553809Y48290477D01*
X29458571Y48338096D01*
X30410952Y48147620D02*
X30458571Y48100000D01*
X30553809Y48052381D01*
X30791904Y48052381D01*
X30887142Y48100000D01*
X30934761Y48147620D01*
X30982380Y48242858D01*
X30982380Y48338096D01*
X30934761Y48480953D01*
X30363333Y49052381D01*
X30982380Y49052381D01*
X31268095Y48052381D02*
X31601428Y49052381D01*
X31934761Y48052381D01*
X-29391905Y22847620D02*
X-28820477Y22847620D01*
X-29106191Y22847620D02*
X-29106191Y23847620D01*
X-29010953Y23704762D01*
X-28915715Y23609524D01*
X-28820477Y23561905D01*
X7608095Y-56000000D02*
X7703333Y-55952380D01*
X7846190Y-55952380D01*
X7989047Y-56000000D01*
X8084285Y-56095238D01*
X8131904Y-56190476D01*
X8179523Y-56380952D01*
X8179523Y-56523809D01*
X8131904Y-56714285D01*
X8084285Y-56809523D01*
X7989047Y-56904761D01*
X7846190Y-56952380D01*
X7750952Y-56952380D01*
X7608095Y-56904761D01*
X7560476Y-56857142D01*
X7560476Y-56523809D01*
X7750952Y-56523809D01*
X6750952Y-56904761D02*
X6846190Y-56952380D01*
X7036666Y-56952380D01*
X7131904Y-56904761D01*
X7179523Y-56809523D01*
X7179523Y-56428571D01*
X7131904Y-56333333D01*
X7036666Y-56285714D01*
X6846190Y-56285714D01*
X6750952Y-56333333D01*
X6703333Y-56428571D01*
X6703333Y-56523809D01*
X7179523Y-56619047D01*
X6131904Y-56952380D02*
X6227142Y-56904761D01*
X6274761Y-56857142D01*
X6322380Y-56761904D01*
X6322380Y-56476190D01*
X6274761Y-56380952D01*
X6227142Y-56333333D01*
X6131904Y-56285714D01*
X5989047Y-56285714D01*
X5893809Y-56333333D01*
X5846190Y-56380952D01*
X5798571Y-56476190D01*
X5798571Y-56761904D01*
X5846190Y-56857142D01*
X5893809Y-56904761D01*
X5989047Y-56952380D01*
X6131904Y-56952380D01*
X5370000Y-56952380D02*
X5370000Y-56285714D01*
X5370000Y-56476190D02*
X5322380Y-56380952D01*
X5274761Y-56333333D01*
X5179523Y-56285714D01*
X5084285Y-56285714D01*
X4322380Y-56285714D02*
X4322380Y-57095238D01*
X4370000Y-57190476D01*
X4417619Y-57238095D01*
X4512857Y-57285714D01*
X4655714Y-57285714D01*
X4750952Y-57238095D01*
X4322380Y-56904761D02*
X4417619Y-56952380D01*
X4608095Y-56952380D01*
X4703333Y-56904761D01*
X4750952Y-56857142D01*
X4798571Y-56761904D01*
X4798571Y-56476190D01*
X4750952Y-56380952D01*
X4703333Y-56333333D01*
X4608095Y-56285714D01*
X4417619Y-56285714D01*
X4322380Y-56333333D01*
X3084285Y-56952380D02*
X3084285Y-55952380D01*
X2750952Y-56666666D01*
X2417619Y-55952380D01*
X2417619Y-56952380D01*
X1941428Y-56952380D02*
X1941428Y-56285714D01*
X1941428Y-55952380D02*
X1989047Y-56000000D01*
X1941428Y-56047619D01*
X1893809Y-56000000D01*
X1941428Y-55952380D01*
X1941428Y-56047619D01*
X1465238Y-56952380D02*
X1465238Y-55952380D01*
X1370000Y-56571428D02*
X1084285Y-56952380D01*
X1084285Y-56285714D02*
X1465238Y-56666666D01*
X227142Y-56285714D02*
X227142Y-56952380D01*
X655714Y-56285714D02*
X655714Y-56809523D01*
X608095Y-56904761D01*
X512857Y-56952380D01*
X370000Y-56952380D01*
X274761Y-56904761D01*
X227142Y-56857142D01*
X-391905Y-56952380D02*
X-296667Y-56904761D01*
X-249048Y-56809523D01*
X-249048Y-55952380D01*
X-1201429Y-56952380D02*
X-1201429Y-56428571D01*
X-1153810Y-56333333D01*
X-1058572Y-56285714D01*
X-868096Y-56285714D01*
X-772858Y-56333333D01*
X-1201429Y-56904761D02*
X-1106191Y-56952380D01*
X-868096Y-56952380D01*
X-772858Y-56904761D01*
X-725239Y-56809523D01*
X-725239Y-56714285D01*
X-772858Y-56619047D01*
X-868096Y-56571428D01*
X-1106191Y-56571428D01*
X-1201429Y-56523809D01*
X-2630000Y-55952380D02*
X-2725239Y-55952380D01*
X-2820477Y-56000000D01*
X-2868096Y-56047619D01*
X-2915715Y-56142857D01*
X-2963334Y-56333333D01*
X-2963334Y-56571428D01*
X-2915715Y-56761904D01*
X-2868096Y-56857142D01*
X-2820477Y-56904761D01*
X-2725239Y-56952380D01*
X-2630000Y-56952380D01*
X-2534762Y-56904761D01*
X-2487143Y-56857142D01*
X-2439524Y-56761904D01*
X-2391905Y-56571428D01*
X-2391905Y-56333333D01*
X-2439524Y-56142857D01*
X-2487143Y-56047619D01*
X-2534762Y-56000000D01*
X-2630000Y-55952380D01*
X-3868096Y-55952380D02*
X-3391905Y-55952380D01*
X-3344286Y-56428571D01*
X-3391905Y-56380952D01*
X-3487143Y-56333333D01*
X-3725239Y-56333333D01*
X-3820477Y-56380952D01*
X-3868096Y-56428571D01*
X-3915715Y-56523809D01*
X-3915715Y-56761904D01*
X-3868096Y-56857142D01*
X-3820477Y-56904761D01*
X-3725239Y-56952380D01*
X-3487143Y-56952380D01*
X-3391905Y-56904761D01*
X-3344286Y-56857142D01*
X-5058572Y-55904761D02*
X-4201429Y-57190476D01*
X-5344286Y-56047619D02*
X-5391905Y-56000000D01*
X-5487143Y-55952380D01*
X-5725239Y-55952380D01*
X-5820477Y-56000000D01*
X-5868096Y-56047619D01*
X-5915715Y-56142857D01*
X-5915715Y-56238095D01*
X-5868096Y-56380952D01*
X-5296667Y-56952380D01*
X-5915715Y-56952380D01*
X-6534762Y-55952380D02*
X-6630000Y-55952380D01*
X-6725239Y-56000000D01*
X-6772858Y-56047619D01*
X-6820477Y-56142857D01*
X-6868096Y-56333333D01*
X-6868096Y-56571428D01*
X-6820477Y-56761904D01*
X-6772858Y-56857142D01*
X-6725239Y-56904761D01*
X-6630000Y-56952380D01*
X-6534762Y-56952380D01*
X-6439524Y-56904761D01*
X-6391905Y-56857142D01*
X-6344286Y-56761904D01*
X-6296667Y-56571428D01*
X-6296667Y-56333333D01*
X-6344286Y-56142857D01*
X-6391905Y-56047619D01*
X-6439524Y-56000000D01*
X-6534762Y-55952380D01*
X-7249048Y-56047619D02*
X-7296667Y-56000000D01*
X-7391905Y-55952380D01*
X-7630000Y-55952380D01*
X-7725239Y-56000000D01*
X-7772858Y-56047619D01*
X-7820477Y-56142857D01*
X-7820477Y-56238095D01*
X-7772858Y-56380952D01*
X-7201429Y-56952380D01*
X-7820477Y-56952380D01*
X-8201429Y-56047619D02*
X-8249048Y-56000000D01*
X-8344286Y-55952380D01*
X-8582381Y-55952380D01*
X-8677620Y-56000000D01*
X-8725239Y-56047619D01*
X-8772858Y-56142857D01*
X-8772858Y-56238095D01*
X-8725239Y-56380952D01*
X-8153810Y-56952380D01*
X-8772858Y-56952380D01*
X53375000Y-2391904D02*
X53327380Y-2296666D01*
X53327380Y-2153809D01*
X53375000Y-2010952D01*
X53470238Y-1915714D01*
X53565476Y-1868095D01*
X53755952Y-1820476D01*
X53898809Y-1820476D01*
X54089285Y-1868095D01*
X54184523Y-1915714D01*
X54279761Y-2010952D01*
X54327380Y-2153809D01*
X54327380Y-2249047D01*
X54279761Y-2391904D01*
X54232142Y-2439523D01*
X53898809Y-2439523D01*
X53898809Y-2249047D01*
X54327380Y-2868095D02*
X53327380Y-2868095D01*
X54327380Y-3439523D01*
X53327380Y-3439523D01*
X54327380Y-3915714D02*
X53327380Y-3915714D01*
X53327380Y-4153809D01*
X53375000Y-4296666D01*
X53470238Y-4391904D01*
X53565476Y-4439523D01*
X53755952Y-4487142D01*
X53898809Y-4487142D01*
X54089285Y-4439523D01*
X54184523Y-4391904D01*
X54279761Y-4296666D01*
X54327380Y-4153809D01*
X54327380Y-3915714D01*
X-20791905Y24847620D02*
X-20220477Y24847620D01*
X-20506191Y24847620D02*
X-20506191Y25847620D01*
X-20410953Y25704762D01*
X-20315715Y25609524D01*
X-20220477Y25561905D01*
X-18960477Y53957143D02*
X-19008096Y54004762D01*
X-19150953Y54052381D01*
X-19246191Y54052381D01*
X-19389048Y54004762D01*
X-19484286Y53909524D01*
X-19531905Y53814286D01*
X-19579524Y53623810D01*
X-19579524Y53480953D01*
X-19531905Y53290477D01*
X-19484286Y53195239D01*
X-19389048Y53100000D01*
X-19246191Y53052381D01*
X-19150953Y53052381D01*
X-19008096Y53100000D01*
X-18960477Y53147620D01*
X-18579524Y53766667D02*
X-18103334Y53766667D01*
X-18674762Y54052381D02*
X-18341429Y53052381D01*
X-18008096Y54052381D01*
X-17674762Y54052381D02*
X-17674762Y53052381D01*
X-17103334Y54052381D01*
X-17103334Y53052381D01*
X-16674762Y53147620D02*
X-16627143Y53100000D01*
X-16531905Y53052381D01*
X-16293810Y53052381D01*
X-16198572Y53100000D01*
X-16150953Y53147620D01*
X-16103334Y53242858D01*
X-16103334Y53338096D01*
X-16150953Y53480953D01*
X-16722381Y54052381D01*
X-16103334Y54052381D01*
X39931904Y16428572D02*
X39170000Y16428572D01*
X39550952Y16047620D02*
X39550952Y16809524D01*
X38170000Y16047620D02*
X38741428Y16047620D01*
X38455714Y16047620D02*
X38455714Y17047620D01*
X38550952Y16904762D01*
X38646190Y16809524D01*
X38741428Y16761905D01*
X37789047Y16952381D02*
X37741428Y17000000D01*
X37646190Y17047620D01*
X37408095Y17047620D01*
X37312857Y17000000D01*
X37265238Y16952381D01*
X37217619Y16857143D01*
X37217619Y16761905D01*
X37265238Y16619048D01*
X37836666Y16047620D01*
X37217619Y16047620D01*
X36931904Y17047620D02*
X36598571Y16047620D01*
X36265238Y17047620D01*
D12*
X12119047Y-46404761D02*
X12119047Y-44404761D01*
X11357142Y-44404761D01*
X11166666Y-44500000D01*
X11071428Y-44595238D01*
X10976190Y-44785714D01*
X10976190Y-45071428D01*
X11071428Y-45261904D01*
X11166666Y-45357142D01*
X11357142Y-45452380D01*
X12119047Y-45452380D01*
X10119047Y-46404761D02*
X10119047Y-44404761D01*
X9452380Y-45833333D01*
X8785714Y-44404761D01*
X8785714Y-46404761D01*
X7833333Y-44404761D02*
X7833333Y-46023809D01*
X7738095Y-46214285D01*
X7642857Y-46309523D01*
X7452380Y-46404761D01*
X7071428Y-46404761D01*
X6880952Y-46309523D01*
X6785714Y-46214285D01*
X6690476Y-46023809D01*
X6690476Y-44404761D01*
X4404761Y-45071428D02*
X3928571Y-46404761D01*
X3452380Y-45071428D01*
X2785714Y-44595238D02*
X2690476Y-44500000D01*
X2500000Y-44404761D01*
X2023809Y-44404761D01*
X1833333Y-44500000D01*
X1738095Y-44595238D01*
X1642857Y-44785714D01*
X1642857Y-44976190D01*
X1738095Y-45261904D01*
X2880952Y-46404761D01*
X1642857Y-46404761D01*
X785714Y-46214285D02*
X690476Y-46309523D01*
X785714Y-46404761D01*
X880952Y-46309523D01*
X785714Y-46214285D01*
X785714Y-46404761D01*
X-547620Y-44404761D02*
X-738096Y-44404761D01*
X-928572Y-44500000D01*
X-1023810Y-44595238D01*
X-1119048Y-44785714D01*
X-1214286Y-45166666D01*
X-1214286Y-45642857D01*
X-1119048Y-46023809D01*
X-1023810Y-46214285D01*
X-928572Y-46309523D01*
X-738096Y-46404761D01*
X-547620Y-46404761D01*
X-357143Y-46309523D01*
X-261905Y-46214285D01*
X-166667Y-46023809D01*
X-71429Y-45642857D01*
X-71429Y-45166666D01*
X-166667Y-44785714D01*
X-261905Y-44595238D01*
X-357143Y-44500000D01*
X-547620Y-44404761D01*
D13*
X44408095Y17000000D02*
X44503333Y17047620D01*
X44646190Y17047620D01*
X44789047Y17000000D01*
X44884285Y16904762D01*
X44931904Y16809524D01*
X44979523Y16619048D01*
X44979523Y16476191D01*
X44931904Y16285715D01*
X44884285Y16190477D01*
X44789047Y16095239D01*
X44646190Y16047620D01*
X44550952Y16047620D01*
X44408095Y16095239D01*
X44360476Y16142858D01*
X44360476Y16476191D01*
X44550952Y16476191D01*
X43931904Y16047620D02*
X43931904Y17047620D01*
X43360476Y16047620D01*
X43360476Y17047620D01*
X42884285Y16047620D02*
X42884285Y17047620D01*
X42646190Y17047620D01*
X42503333Y17000000D01*
X42408095Y16904762D01*
X42360476Y16809524D01*
X42312857Y16619048D01*
X42312857Y16476191D01*
X42360476Y16285715D01*
X42408095Y16190477D01*
X42503333Y16095239D01*
X42646190Y16047620D01*
X42884285Y16047620D01*
D12*
X45604761Y26421429D02*
X45038095Y26421429D01*
X44795238Y25530953D02*
X45604761Y25530953D01*
X45604761Y27230953D01*
X44795238Y27230953D01*
X43095238Y25692858D02*
X43176190Y25611905D01*
X43419047Y25530953D01*
X43580952Y25530953D01*
X43823809Y25611905D01*
X43985714Y25773810D01*
X44066666Y25935715D01*
X44147619Y26259524D01*
X44147619Y26502381D01*
X44066666Y26826191D01*
X43985714Y26988096D01*
X43823809Y27150000D01*
X43580952Y27230953D01*
X43419047Y27230953D01*
X43176190Y27150000D01*
X43095238Y27069048D01*
X42366666Y27230953D02*
X42366666Y25854762D01*
X42285714Y25692858D01*
X42204761Y25611905D01*
X42042857Y25530953D01*
X41719047Y25530953D01*
X41557142Y25611905D01*
X41476190Y25692858D01*
X41395238Y25854762D01*
X41395238Y27230953D01*
D13*
X51131904Y16047620D02*
X51131904Y17047620D01*
X50750952Y17047620D01*
X50655714Y17000000D01*
X50608095Y16952381D01*
X50560476Y16857143D01*
X50560476Y16714286D01*
X50608095Y16619048D01*
X50655714Y16571429D01*
X50750952Y16523810D01*
X51131904Y16523810D01*
X49941428Y16523810D02*
X49941428Y16047620D01*
X50274761Y17047620D02*
X49941428Y16523810D01*
X49608095Y17047620D01*
X48703333Y16047620D02*
X49036666Y16523810D01*
X49274761Y16047620D02*
X49274761Y17047620D01*
X48893809Y17047620D01*
X48798571Y17000000D01*
X48750952Y16952381D01*
X48703333Y16857143D01*
X48703333Y16714286D01*
X48750952Y16619048D01*
X48798571Y16571429D01*
X48893809Y16523810D01*
X49274761Y16523810D01*
X48084285Y17047620D02*
X47893809Y17047620D01*
X47798571Y17000000D01*
X47703333Y16904762D01*
X47655714Y16714286D01*
X47655714Y16380953D01*
X47703333Y16190477D01*
X47798571Y16095239D01*
X47893809Y16047620D01*
X48084285Y16047620D01*
X48179523Y16095239D01*
X48274761Y16190477D01*
X48322380Y16380953D01*
X48322380Y16714286D01*
X48274761Y16904762D01*
X48179523Y17000000D01*
X48084285Y17047620D01*
X56152380Y-1868095D02*
X56961904Y-1868095D01*
X57057142Y-1915714D01*
X57104761Y-1963333D01*
X57152380Y-2058571D01*
X57152380Y-2249047D01*
X57104761Y-2344285D01*
X57057142Y-2391904D01*
X56961904Y-2439523D01*
X56152380Y-2439523D01*
X57152380Y-2915714D02*
X56485714Y-2915714D01*
X56580952Y-2915714D02*
X56533333Y-2963333D01*
X56485714Y-3058571D01*
X56485714Y-3201428D01*
X56533333Y-3296666D01*
X56628571Y-3344285D01*
X57152380Y-3344285D01*
X56628571Y-3344285D02*
X56533333Y-3391904D01*
X56485714Y-3487142D01*
X56485714Y-3630000D01*
X56533333Y-3725238D01*
X56628571Y-3772857D01*
X57152380Y-3772857D01*
X57152380Y-4249047D02*
X56152380Y-4249047D01*
X56533333Y-4249047D02*
X56485714Y-4344285D01*
X56485714Y-4534761D01*
X56533333Y-4630000D01*
X56580952Y-4677619D01*
X56676190Y-4725238D01*
X56961904Y-4725238D01*
X57057142Y-4677619D01*
X57104761Y-4630000D01*
X57152380Y-4534761D01*
X57152380Y-4344285D01*
X57104761Y-4249047D01*
X57152380Y-5153809D02*
X56485714Y-5153809D01*
X56152380Y-5153809D02*
X56200000Y-5106190D01*
X56247619Y-5153809D01*
X56200000Y-5201428D01*
X56152380Y-5153809D01*
X56247619Y-5153809D01*
X57152380Y-5772857D02*
X57104761Y-5677619D01*
X57009523Y-5630000D01*
X56152380Y-5630000D01*
X57152380Y-6153809D02*
X56485714Y-6153809D01*
X56152380Y-6153809D02*
X56200000Y-6106190D01*
X56247619Y-6153809D01*
X56200000Y-6201428D01*
X56152380Y-6153809D01*
X56247619Y-6153809D01*
X57104761Y-7058571D02*
X57152380Y-6963333D01*
X57152380Y-6772857D01*
X57104761Y-6677619D01*
X57057142Y-6630000D01*
X56961904Y-6582380D01*
X56676190Y-6582380D01*
X56580952Y-6630000D01*
X56533333Y-6677619D01*
X56485714Y-6772857D01*
X56485714Y-6963333D01*
X56533333Y-7058571D01*
X57152380Y-7915714D02*
X56628571Y-7915714D01*
X56533333Y-7868095D01*
X56485714Y-7772857D01*
X56485714Y-7582380D01*
X56533333Y-7487142D01*
X57104761Y-7915714D02*
X57152380Y-7820476D01*
X57152380Y-7582380D01*
X57104761Y-7487142D01*
X57009523Y-7439523D01*
X56914285Y-7439523D01*
X56819047Y-7487142D01*
X56771428Y-7582380D01*
X56771428Y-7820476D01*
X56723809Y-7915714D01*
X57152380Y-8534761D02*
X57104761Y-8439523D01*
X57009523Y-8391904D01*
X56152380Y-8391904D01*
D12*
X31207142Y39071429D02*
X31207142Y37928572D01*
X31778571Y38500000D02*
X30635714Y38500000D01*
X24207142Y43871429D02*
X24207142Y42728572D01*
X24778571Y43300000D02*
X23635714Y43300000D01*
D13*
X-8560477Y53957143D02*
X-8608096Y54004762D01*
X-8750953Y54052381D01*
X-8846191Y54052381D01*
X-8989048Y54004762D01*
X-9084286Y53909524D01*
X-9131905Y53814286D01*
X-9179524Y53623810D01*
X-9179524Y53480953D01*
X-9131905Y53290477D01*
X-9084286Y53195239D01*
X-8989048Y53100000D01*
X-8846191Y53052381D01*
X-8750953Y53052381D01*
X-8608096Y53100000D01*
X-8560477Y53147620D01*
X-8179524Y53766667D02*
X-7703334Y53766667D01*
X-8274762Y54052381D02*
X-7941429Y53052381D01*
X-7608096Y54052381D01*
X-7274762Y54052381D02*
X-7274762Y53052381D01*
X-6703334Y54052381D01*
X-6703334Y53052381D01*
X-5703334Y54052381D02*
X-6274762Y54052381D01*
X-5989048Y54052381D02*
X-5989048Y53052381D01*
X-6084286Y53195239D01*
X-6179524Y53290477D01*
X-6274762Y53338096D01*
%TO.C,G1*%
G36*
X298964Y-33330561D02*
G01*
X607793Y-33331399D01*
X838229Y-33334209D01*
X1002060Y-33339950D01*
X1111073Y-33349578D01*
X1177056Y-33364051D01*
X1211796Y-33384327D01*
X1227079Y-33411364D01*
X1228232Y-33415214D01*
X1250079Y-33501636D01*
X1286545Y-33658676D01*
X1334480Y-33871714D01*
X1390737Y-34126136D01*
X1452167Y-34407323D01*
X1515621Y-34700659D01*
X1577952Y-34991527D01*
X1636009Y-35265311D01*
X1686646Y-35507393D01*
X1726713Y-35703157D01*
X1753063Y-35837985D01*
X1762545Y-35897261D01*
X1758606Y-35911761D01*
X1729901Y-35930818D01*
X1663968Y-35944108D01*
X1549787Y-35952266D01*
X1376340Y-35955927D01*
X1132606Y-35955727D01*
X807564Y-35952300D01*
X-147417Y-35939818D01*
X-178150Y-35824364D01*
X-180446Y-35815604D01*
X-210876Y-35685024D01*
X-241261Y-35535727D01*
X-273640Y-35362545D01*
X935458Y-35362545D01*
X904209Y-35189364D01*
X899085Y-35161884D01*
X873684Y-35046242D01*
X853209Y-34981545D01*
X851167Y-34979597D01*
X788470Y-34966831D01*
X654040Y-34956446D01*
X465929Y-34949464D01*
X242195Y-34946909D01*
X-349067Y-34946909D01*
X-401625Y-34685207D01*
X-423713Y-34571633D01*
X-445680Y-34448281D01*
X-454182Y-34385025D01*
X-453424Y-34383058D01*
X-399530Y-34368806D01*
X-272919Y-34357205D01*
X-90988Y-34349402D01*
X128863Y-34346545D01*
X711909Y-34346545D01*
X683045Y-34202227D01*
X662864Y-34083111D01*
X654182Y-33994409D01*
X639778Y-33969969D01*
X583093Y-33950965D01*
X471525Y-33938971D01*
X292599Y-33932712D01*
X33839Y-33930909D01*
X-197739Y-33931293D01*
X-379017Y-33928510D01*
X-497767Y-33915814D01*
X-569610Y-33886447D01*
X-610166Y-33833649D01*
X-635057Y-33750662D01*
X-659901Y-33630727D01*
X-686244Y-33515704D01*
X-713487Y-33411364D01*
X-716081Y-33400593D01*
X-711983Y-33376263D01*
X-682768Y-33358303D01*
X-617228Y-33345757D01*
X-504157Y-33337665D01*
X-332347Y-33333071D01*
X-90590Y-33331017D01*
X232321Y-33330545D01*
X298964Y-33330561D01*
G37*
D14*
X298964Y-33330561D02*
X607793Y-33331399D01*
X838229Y-33334209D01*
X1002060Y-33339950D01*
X1111073Y-33349578D01*
X1177056Y-33364051D01*
X1211796Y-33384327D01*
X1227079Y-33411364D01*
X1228232Y-33415214D01*
X1250079Y-33501636D01*
X1286545Y-33658676D01*
X1334480Y-33871714D01*
X1390737Y-34126136D01*
X1452167Y-34407323D01*
X1515621Y-34700659D01*
X1577952Y-34991527D01*
X1636009Y-35265311D01*
X1686646Y-35507393D01*
X1726713Y-35703157D01*
X1753063Y-35837985D01*
X1762545Y-35897261D01*
X1758606Y-35911761D01*
X1729901Y-35930818D01*
X1663968Y-35944108D01*
X1549787Y-35952266D01*
X1376340Y-35955927D01*
X1132606Y-35955727D01*
X807564Y-35952300D01*
X-147417Y-35939818D01*
X-178150Y-35824364D01*
X-180446Y-35815604D01*
X-210876Y-35685024D01*
X-241261Y-35535727D01*
X-273640Y-35362545D01*
X935458Y-35362545D01*
X904209Y-35189364D01*
X899085Y-35161884D01*
X873684Y-35046242D01*
X853209Y-34981545D01*
X851167Y-34979597D01*
X788470Y-34966831D01*
X654040Y-34956446D01*
X465929Y-34949464D01*
X242195Y-34946909D01*
X-349067Y-34946909D01*
X-401625Y-34685207D01*
X-423713Y-34571633D01*
X-445680Y-34448281D01*
X-454182Y-34385025D01*
X-453424Y-34383058D01*
X-399530Y-34368806D01*
X-272919Y-34357205D01*
X-90988Y-34349402D01*
X128863Y-34346545D01*
X711909Y-34346545D01*
X683045Y-34202227D01*
X662864Y-34083111D01*
X654182Y-33994409D01*
X639778Y-33969969D01*
X583093Y-33950965D01*
X471525Y-33938971D01*
X292599Y-33932712D01*
X33839Y-33930909D01*
X-197739Y-33931293D01*
X-379017Y-33928510D01*
X-497767Y-33915814D01*
X-569610Y-33886447D01*
X-610166Y-33833649D01*
X-635057Y-33750662D01*
X-659901Y-33630727D01*
X-686244Y-33515704D01*
X-713487Y-33411364D01*
X-716081Y-33400593D01*
X-711983Y-33376263D01*
X-682768Y-33358303D01*
X-617228Y-33345757D01*
X-504157Y-33337665D01*
X-332347Y-33333071D01*
X-90590Y-33331017D01*
X232321Y-33330545D01*
X298964Y-33330561D01*
G36*
X10206177Y-33327102D02*
G01*
X10466636Y-33400802D01*
X10690912Y-33523026D01*
X10866541Y-33690039D01*
X10981058Y-33898109D01*
X11022000Y-34143502D01*
X11020781Y-34194192D01*
X10986534Y-34384948D01*
X10898179Y-34546476D01*
X10746251Y-34688222D01*
X10521286Y-34819633D01*
X10213818Y-34950154D01*
X10020588Y-35034239D01*
X9878162Y-35126889D01*
X9823212Y-35212722D01*
X9857035Y-35289487D01*
X9980923Y-35354933D01*
X10094417Y-35376023D01*
X10304416Y-35356720D01*
X10537239Y-35280807D01*
X10768264Y-35154549D01*
X10996753Y-35000788D01*
X11182558Y-35222712D01*
X11268672Y-35330526D01*
X11340695Y-35432211D01*
X11368363Y-35487904D01*
X11351811Y-35537275D01*
X11264508Y-35629604D01*
X11119052Y-35728771D01*
X10934530Y-35824088D01*
X10730029Y-35904865D01*
X10524636Y-35960413D01*
X10244073Y-35993381D01*
X9921728Y-35972408D01*
X9634871Y-35888719D01*
X9395286Y-35747672D01*
X9214758Y-35554624D01*
X9105070Y-35314935D01*
X9093818Y-35269144D01*
X9076734Y-35045485D01*
X9134404Y-34849373D01*
X9271215Y-34674821D01*
X9491550Y-34515844D01*
X9799793Y-34366456D01*
X9854407Y-34343652D01*
X10069941Y-34247856D01*
X10208222Y-34171965D01*
X10277976Y-34108637D01*
X10287931Y-34050528D01*
X10246813Y-33990294D01*
X10151266Y-33939460D01*
X9988634Y-33928800D01*
X9790543Y-33966841D01*
X9577281Y-34049381D01*
X9369131Y-34172213D01*
X9323053Y-34195033D01*
X9269164Y-34183732D01*
X9195124Y-34122512D01*
X9082269Y-34000182D01*
X8980662Y-33881514D01*
X8905632Y-33786484D01*
X8876320Y-33738988D01*
X8895358Y-33713283D01*
X8973295Y-33648423D01*
X9091176Y-33565213D01*
X9332334Y-33434467D01*
X9626562Y-33340201D01*
X9921997Y-33305657D01*
X10206177Y-33327102D01*
G37*
X10206177Y-33327102D02*
X10466636Y-33400802D01*
X10690912Y-33523026D01*
X10866541Y-33690039D01*
X10981058Y-33898109D01*
X11022000Y-34143502D01*
X11020781Y-34194192D01*
X10986534Y-34384948D01*
X10898179Y-34546476D01*
X10746251Y-34688222D01*
X10521286Y-34819633D01*
X10213818Y-34950154D01*
X10020588Y-35034239D01*
X9878162Y-35126889D01*
X9823212Y-35212722D01*
X9857035Y-35289487D01*
X9980923Y-35354933D01*
X10094417Y-35376023D01*
X10304416Y-35356720D01*
X10537239Y-35280807D01*
X10768264Y-35154549D01*
X10996753Y-35000788D01*
X11182558Y-35222712D01*
X11268672Y-35330526D01*
X11340695Y-35432211D01*
X11368363Y-35487904D01*
X11351811Y-35537275D01*
X11264508Y-35629604D01*
X11119052Y-35728771D01*
X10934530Y-35824088D01*
X10730029Y-35904865D01*
X10524636Y-35960413D01*
X10244073Y-35993381D01*
X9921728Y-35972408D01*
X9634871Y-35888719D01*
X9395286Y-35747672D01*
X9214758Y-35554624D01*
X9105070Y-35314935D01*
X9093818Y-35269144D01*
X9076734Y-35045485D01*
X9134404Y-34849373D01*
X9271215Y-34674821D01*
X9491550Y-34515844D01*
X9799793Y-34366456D01*
X9854407Y-34343652D01*
X10069941Y-34247856D01*
X10208222Y-34171965D01*
X10277976Y-34108637D01*
X10287931Y-34050528D01*
X10246813Y-33990294D01*
X10151266Y-33939460D01*
X9988634Y-33928800D01*
X9790543Y-33966841D01*
X9577281Y-34049381D01*
X9369131Y-34172213D01*
X9323053Y-34195033D01*
X9269164Y-34183732D01*
X9195124Y-34122512D01*
X9082269Y-34000182D01*
X8980662Y-33881514D01*
X8905632Y-33786484D01*
X8876320Y-33738988D01*
X8895358Y-33713283D01*
X8973295Y-33648423D01*
X9091176Y-33565213D01*
X9332334Y-33434467D01*
X9626562Y-33340201D01*
X9921997Y-33305657D01*
X10206177Y-33327102D01*
G36*
X-922376Y-35070066D02*
G01*
X-910495Y-35128796D01*
X-880149Y-35294411D01*
X-881907Y-35391749D01*
X-929717Y-35438892D01*
X-1037529Y-35453918D01*
X-1219294Y-35454909D01*
X-1268075Y-35454998D01*
X-1426438Y-35458499D01*
X-1513799Y-35470257D01*
X-1547453Y-35494568D01*
X-1544697Y-35535727D01*
X-1540585Y-35550454D01*
X-1515320Y-35653601D01*
X-1477137Y-35820035D01*
X-1429704Y-36032708D01*
X-1376692Y-36274571D01*
X-1321769Y-36528575D01*
X-1268604Y-36777672D01*
X-1220866Y-37004815D01*
X-1182225Y-37192953D01*
X-1156350Y-37325039D01*
X-1146909Y-37384025D01*
X-1164754Y-37405060D01*
X-1250894Y-37428653D01*
X-1384312Y-37441286D01*
X-1537991Y-37442998D01*
X-1684919Y-37433828D01*
X-1798081Y-37413815D01*
X-1850463Y-37383000D01*
X-1852683Y-37375673D01*
X-1872548Y-37294412D01*
X-1907588Y-37140814D01*
X-1954594Y-36929289D01*
X-2010356Y-36674245D01*
X-2071663Y-36390091D01*
X-2272154Y-35454909D01*
X-2632288Y-35454909D01*
X-2778152Y-35454266D01*
X-2902048Y-35447986D01*
X-2970045Y-35429329D01*
X-3002777Y-35391551D01*
X-3020875Y-35327909D01*
X-3021067Y-35327051D01*
X-3053299Y-35190094D01*
X-3090770Y-35039273D01*
X-3095725Y-35019708D01*
X-3121734Y-34907244D01*
X-3132470Y-34843000D01*
X-3115483Y-34836871D01*
X-3020968Y-34827703D01*
X-2854758Y-34819858D01*
X-2629640Y-34813746D01*
X-2358402Y-34809778D01*
X-2053830Y-34808364D01*
X-974933Y-34808364D01*
X-922376Y-35070066D01*
G37*
X-922376Y-35070066D02*
X-910495Y-35128796D01*
X-880149Y-35294411D01*
X-881907Y-35391749D01*
X-929717Y-35438892D01*
X-1037529Y-35453918D01*
X-1219294Y-35454909D01*
X-1268075Y-35454998D01*
X-1426438Y-35458499D01*
X-1513799Y-35470257D01*
X-1547453Y-35494568D01*
X-1544697Y-35535727D01*
X-1540585Y-35550454D01*
X-1515320Y-35653601D01*
X-1477137Y-35820035D01*
X-1429704Y-36032708D01*
X-1376692Y-36274571D01*
X-1321769Y-36528575D01*
X-1268604Y-36777672D01*
X-1220866Y-37004815D01*
X-1182225Y-37192953D01*
X-1156350Y-37325039D01*
X-1146909Y-37384025D01*
X-1164754Y-37405060D01*
X-1250894Y-37428653D01*
X-1384312Y-37441286D01*
X-1537991Y-37442998D01*
X-1684919Y-37433828D01*
X-1798081Y-37413815D01*
X-1850463Y-37383000D01*
X-1852683Y-37375673D01*
X-1872548Y-37294412D01*
X-1907588Y-37140814D01*
X-1954594Y-36929289D01*
X-2010356Y-36674245D01*
X-2071663Y-36390091D01*
X-2272154Y-35454909D01*
X-2632288Y-35454909D01*
X-2778152Y-35454266D01*
X-2902048Y-35447986D01*
X-2970045Y-35429329D01*
X-3002777Y-35391551D01*
X-3020875Y-35327909D01*
X-3021067Y-35327051D01*
X-3053299Y-35190094D01*
X-3090770Y-35039273D01*
X-3095725Y-35019708D01*
X-3121734Y-34907244D01*
X-3132470Y-34843000D01*
X-3115483Y-34836871D01*
X-3020968Y-34827703D01*
X-2854758Y-34819858D01*
X-2629640Y-34813746D01*
X-2358402Y-34809778D01*
X-2053830Y-34808364D01*
X-974933Y-34808364D01*
X-922376Y-35070066D01*
G36*
X777023Y-31252364D02*
G01*
X943203Y-31252364D01*
X915688Y-31517909D01*
X905284Y-31631157D01*
X889178Y-31837342D01*
X872404Y-32079608D01*
X857263Y-32326091D01*
X826353Y-32868727D01*
X680865Y-32868727D01*
X630231Y-32866426D01*
X576854Y-32849518D01*
X526314Y-32804213D01*
X467911Y-32716793D01*
X390949Y-32573537D01*
X284727Y-32360727D01*
X278906Y-32348948D01*
X180651Y-32155812D01*
X95321Y-31998081D01*
X31888Y-31891728D01*
X-671Y-31852727D01*
X-13024Y-31881330D01*
X-27752Y-31985330D01*
X-40193Y-32147566D01*
X-48529Y-32349182D01*
X-61637Y-32845636D01*
X-358499Y-32874332D01*
X-752704Y-32086951D01*
X-760398Y-32071580D01*
X-882502Y-31826372D01*
X-988595Y-31611061D01*
X-1072288Y-31438793D01*
X-1127189Y-31322713D01*
X-1146909Y-31275967D01*
X-1146334Y-31273916D01*
X-1097589Y-31258628D01*
X-994345Y-31252364D01*
X-973398Y-31252512D01*
X-915875Y-31258718D01*
X-866786Y-31283594D01*
X-816401Y-31340038D01*
X-754989Y-31440942D01*
X-672818Y-31599203D01*
X-560157Y-31827716D01*
X-278534Y-32403068D01*
X-245348Y-31827716D01*
X-245180Y-31824800D01*
X-230816Y-31587108D01*
X-217676Y-31426420D01*
X-202025Y-31327669D01*
X-180124Y-31275788D01*
X-148235Y-31255708D01*
X-102620Y-31252364D01*
X-83939Y-31253609D01*
X-34390Y-31273618D01*
X19655Y-31327699D01*
X86911Y-31428224D01*
X176093Y-31587564D01*
X295917Y-31818091D01*
X584909Y-32383818D01*
X597876Y-31818091D01*
X610843Y-31252363D01*
X777023Y-31252364D01*
G37*
X777023Y-31252364D02*
X943203Y-31252364D01*
X915688Y-31517909D01*
X905284Y-31631157D01*
X889178Y-31837342D01*
X872404Y-32079608D01*
X857263Y-32326091D01*
X826353Y-32868727D01*
X680865Y-32868727D01*
X630231Y-32866426D01*
X576854Y-32849518D01*
X526314Y-32804213D01*
X467911Y-32716793D01*
X390949Y-32573537D01*
X284727Y-32360727D01*
X278906Y-32348948D01*
X180651Y-32155812D01*
X95321Y-31998081D01*
X31888Y-31891728D01*
X-671Y-31852727D01*
X-13024Y-31881330D01*
X-27752Y-31985330D01*
X-40193Y-32147566D01*
X-48529Y-32349182D01*
X-61637Y-32845636D01*
X-358499Y-32874332D01*
X-752704Y-32086951D01*
X-760398Y-32071580D01*
X-882502Y-31826372D01*
X-988595Y-31611061D01*
X-1072288Y-31438793D01*
X-1127189Y-31322713D01*
X-1146909Y-31275967D01*
X-1146334Y-31273916D01*
X-1097589Y-31258628D01*
X-994345Y-31252364D01*
X-973398Y-31252512D01*
X-915875Y-31258718D01*
X-866786Y-31283594D01*
X-816401Y-31340038D01*
X-754989Y-31440942D01*
X-672818Y-31599203D01*
X-560157Y-31827716D01*
X-278534Y-32403068D01*
X-245348Y-31827716D01*
X-245180Y-31824800D01*
X-230816Y-31587108D01*
X-217676Y-31426420D01*
X-202025Y-31327669D01*
X-180124Y-31275788D01*
X-148235Y-31255708D01*
X-102620Y-31252364D01*
X-83939Y-31253609D01*
X-34390Y-31273618D01*
X19655Y-31327699D01*
X86911Y-31428224D01*
X176093Y-31587564D01*
X295917Y-31818091D01*
X584909Y-32383818D01*
X597876Y-31818091D01*
X610843Y-31252363D01*
X777023Y-31252364D01*
G36*
X-2215008Y-27724927D02*
G01*
X-2148843Y-27816176D01*
X-2065833Y-27966171D01*
X-1974657Y-28156314D01*
X-1883993Y-28368005D01*
X-1802519Y-28582646D01*
X-1738913Y-28781636D01*
X-1732250Y-28804900D01*
X-1662041Y-29011927D01*
X-1579063Y-29208175D01*
X-1499878Y-29353987D01*
X-1467463Y-29405061D01*
X-1372983Y-29583161D01*
X-1288941Y-29781285D01*
X-1220112Y-29982147D01*
X-1171269Y-30168462D01*
X-1147186Y-30322944D01*
X-1152637Y-30428310D01*
X-1192397Y-30467273D01*
X-1231676Y-30454715D01*
X-1332645Y-30404392D01*
X-1463050Y-30328727D01*
X-1560514Y-30270074D01*
X-1662354Y-30212468D01*
X-1710841Y-30190182D01*
X-1736598Y-30215284D01*
X-1798487Y-30300356D01*
X-1879317Y-30424805D01*
X-1950739Y-30528014D01*
X-2029233Y-30614632D01*
X-2081478Y-30640659D01*
X-2130835Y-30598873D01*
X-2185552Y-30469058D01*
X-2224570Y-30263230D01*
X-2246368Y-29990278D01*
X-2249427Y-29659091D01*
X-2248881Y-29491147D01*
X-2257346Y-29185511D01*
X-2275401Y-28879734D01*
X-2300765Y-28620000D01*
X-2315984Y-28485698D01*
X-2333703Y-28229433D01*
X-2334107Y-28009696D01*
X-2318102Y-27840189D01*
X-2286593Y-27734617D01*
X-2240483Y-27706683D01*
X-2215008Y-27724927D01*
G37*
X-2215008Y-27724927D02*
X-2148843Y-27816176D01*
X-2065833Y-27966171D01*
X-1974657Y-28156314D01*
X-1883993Y-28368005D01*
X-1802519Y-28582646D01*
X-1738913Y-28781636D01*
X-1732250Y-28804900D01*
X-1662041Y-29011927D01*
X-1579063Y-29208175D01*
X-1499878Y-29353987D01*
X-1467463Y-29405061D01*
X-1372983Y-29583161D01*
X-1288941Y-29781285D01*
X-1220112Y-29982147D01*
X-1171269Y-30168462D01*
X-1147186Y-30322944D01*
X-1152637Y-30428310D01*
X-1192397Y-30467273D01*
X-1231676Y-30454715D01*
X-1332645Y-30404392D01*
X-1463050Y-30328727D01*
X-1560514Y-30270074D01*
X-1662354Y-30212468D01*
X-1710841Y-30190182D01*
X-1736598Y-30215284D01*
X-1798487Y-30300356D01*
X-1879317Y-30424805D01*
X-1950739Y-30528014D01*
X-2029233Y-30614632D01*
X-2081478Y-30640659D01*
X-2130835Y-30598873D01*
X-2185552Y-30469058D01*
X-2224570Y-30263230D01*
X-2246368Y-29990278D01*
X-2249427Y-29659091D01*
X-2248881Y-29491147D01*
X-2257346Y-29185511D01*
X-2275401Y-28879734D01*
X-2300765Y-28620000D01*
X-2315984Y-28485698D01*
X-2333703Y-28229433D01*
X-2334107Y-28009696D01*
X-2318102Y-27840189D01*
X-2286593Y-27734617D01*
X-2240483Y-27706683D01*
X-2215008Y-27724927D01*
G36*
X-1569018Y-30531630D02*
G01*
X-1539113Y-30568148D01*
X-1506474Y-30633262D01*
X-1469727Y-30732116D01*
X-1427496Y-30869856D01*
X-1378407Y-31051628D01*
X-1321084Y-31282576D01*
X-1254153Y-31567846D01*
X-1176238Y-31912583D01*
X-1085965Y-32321933D01*
X-981959Y-32801040D01*
X-862845Y-33355051D01*
X-727248Y-33989110D01*
X-573793Y-34708363D01*
X-453495Y-35272381D01*
X-326150Y-35869326D01*
X-203904Y-36442241D01*
X-88333Y-36983761D01*
X18992Y-37486516D01*
X116496Y-37943141D01*
X202608Y-38346268D01*
X275753Y-38688530D01*
X334359Y-38962560D01*
X376852Y-39160990D01*
X401660Y-39276454D01*
X503845Y-39749818D01*
X394286Y-39749818D01*
X324192Y-39745453D01*
X284727Y-39731077D01*
X281440Y-39715108D01*
X260358Y-39619801D01*
X220947Y-39443987D01*
X164585Y-39193751D01*
X92648Y-38875178D01*
X6514Y-38494353D01*
X-92438Y-38057362D01*
X-202832Y-37570290D01*
X-323290Y-37039223D01*
X-452435Y-36470245D01*
X-588888Y-35869443D01*
X-731273Y-35242900D01*
X-810885Y-34892443D01*
X-950342Y-34277360D01*
X-1083084Y-33690406D01*
X-1207725Y-33137774D01*
X-1322884Y-32625653D01*
X-1427177Y-32160238D01*
X-1519220Y-31747719D01*
X-1597630Y-31394289D01*
X-1661024Y-31106140D01*
X-1708018Y-30889463D01*
X-1737228Y-30750451D01*
X-1747273Y-30695296D01*
X-1738623Y-30649456D01*
X-1681619Y-30562640D01*
X-1656079Y-30542195D01*
X-1626126Y-30523799D01*
X-1597564Y-30518562D01*
X-1569018Y-30531630D01*
G37*
X-1569018Y-30531630D02*
X-1539113Y-30568148D01*
X-1506474Y-30633262D01*
X-1469727Y-30732116D01*
X-1427496Y-30869856D01*
X-1378407Y-31051628D01*
X-1321084Y-31282576D01*
X-1254153Y-31567846D01*
X-1176238Y-31912583D01*
X-1085965Y-32321933D01*
X-981959Y-32801040D01*
X-862845Y-33355051D01*
X-727248Y-33989110D01*
X-573793Y-34708363D01*
X-453495Y-35272381D01*
X-326150Y-35869326D01*
X-203904Y-36442241D01*
X-88333Y-36983761D01*
X18992Y-37486516D01*
X116496Y-37943141D01*
X202608Y-38346268D01*
X275753Y-38688530D01*
X334359Y-38962560D01*
X376852Y-39160990D01*
X401660Y-39276454D01*
X503845Y-39749818D01*
X394286Y-39749818D01*
X324192Y-39745453D01*
X284727Y-39731077D01*
X281440Y-39715108D01*
X260358Y-39619801D01*
X220947Y-39443987D01*
X164585Y-39193751D01*
X92648Y-38875178D01*
X6514Y-38494353D01*
X-92438Y-38057362D01*
X-202832Y-37570290D01*
X-323290Y-37039223D01*
X-452435Y-36470245D01*
X-588888Y-35869443D01*
X-731273Y-35242900D01*
X-810885Y-34892443D01*
X-950342Y-34277360D01*
X-1083084Y-33690406D01*
X-1207725Y-33137774D01*
X-1322884Y-32625653D01*
X-1427177Y-32160238D01*
X-1519220Y-31747719D01*
X-1597630Y-31394289D01*
X-1661024Y-31106140D01*
X-1708018Y-30889463D01*
X-1737228Y-30750451D01*
X-1747273Y-30695296D01*
X-1738623Y-30649456D01*
X-1681619Y-30562640D01*
X-1656079Y-30542195D01*
X-1626126Y-30523799D01*
X-1597564Y-30518562D01*
X-1569018Y-30531630D01*
G36*
X2881299Y-33314747D02*
G01*
X3070841Y-33331430D01*
X3234656Y-33371951D01*
X3415877Y-33444954D01*
X3529058Y-33501973D01*
X3795849Y-33693659D01*
X4007126Y-33931281D01*
X4160925Y-34201746D01*
X4255279Y-34491965D01*
X4288225Y-34788846D01*
X4257796Y-35079299D01*
X4162027Y-35350232D01*
X3998953Y-35588555D01*
X3766608Y-35781177D01*
X3730434Y-35802312D01*
X3556869Y-35885554D01*
X3381192Y-35949053D01*
X3200786Y-35982070D01*
X2916388Y-35986981D01*
X2626537Y-35948458D01*
X2373241Y-35869804D01*
X2271106Y-35817434D01*
X2121043Y-35719144D01*
X1987404Y-35610416D01*
X1891774Y-35509415D01*
X1855739Y-35434304D01*
X1872912Y-35408039D01*
X1947294Y-35341111D01*
X2057167Y-35256937D01*
X2176795Y-35173970D01*
X2280440Y-35110658D01*
X2342363Y-35085454D01*
X2354699Y-35089593D01*
X2424971Y-35132390D01*
X2527921Y-35206615D01*
X2714381Y-35309803D01*
X2926921Y-35350398D01*
X3130984Y-35321934D01*
X3310660Y-35232628D01*
X3450041Y-35090693D01*
X3533217Y-34904345D01*
X3544280Y-34681798D01*
X3482065Y-34466691D01*
X3355744Y-34260013D01*
X3185104Y-34089500D01*
X2988821Y-33973637D01*
X2785572Y-33930909D01*
X2699034Y-33940795D01*
X2545513Y-33989897D01*
X2407042Y-34064364D01*
X2321991Y-34146363D01*
X2278326Y-34221549D01*
X2223437Y-34292451D01*
X2159316Y-34316306D01*
X2059717Y-34299417D01*
X1898391Y-34248087D01*
X1745649Y-34194404D01*
X1622015Y-34144868D01*
X1559408Y-34111954D01*
X1554630Y-34106886D01*
X1549530Y-34034197D01*
X1604566Y-33924985D01*
X1706190Y-33794713D01*
X1840852Y-33658843D01*
X1995002Y-33532838D01*
X2155091Y-33432161D01*
X2260209Y-33381585D01*
X2393103Y-33337998D01*
X2546232Y-33317388D01*
X2755454Y-33312615D01*
X2881299Y-33314747D01*
G37*
X2881299Y-33314747D02*
X3070841Y-33331430D01*
X3234656Y-33371951D01*
X3415877Y-33444954D01*
X3529058Y-33501973D01*
X3795849Y-33693659D01*
X4007126Y-33931281D01*
X4160925Y-34201746D01*
X4255279Y-34491965D01*
X4288225Y-34788846D01*
X4257796Y-35079299D01*
X4162027Y-35350232D01*
X3998953Y-35588555D01*
X3766608Y-35781177D01*
X3730434Y-35802312D01*
X3556869Y-35885554D01*
X3381192Y-35949053D01*
X3200786Y-35982070D01*
X2916388Y-35986981D01*
X2626537Y-35948458D01*
X2373241Y-35869804D01*
X2271106Y-35817434D01*
X2121043Y-35719144D01*
X1987404Y-35610416D01*
X1891774Y-35509415D01*
X1855739Y-35434304D01*
X1872912Y-35408039D01*
X1947294Y-35341111D01*
X2057167Y-35256937D01*
X2176795Y-35173970D01*
X2280440Y-35110658D01*
X2342363Y-35085454D01*
X2354699Y-35089593D01*
X2424971Y-35132390D01*
X2527921Y-35206615D01*
X2714381Y-35309803D01*
X2926921Y-35350398D01*
X3130984Y-35321934D01*
X3310660Y-35232628D01*
X3450041Y-35090693D01*
X3533217Y-34904345D01*
X3544280Y-34681798D01*
X3482065Y-34466691D01*
X3355744Y-34260013D01*
X3185104Y-34089500D01*
X2988821Y-33973637D01*
X2785572Y-33930909D01*
X2699034Y-33940795D01*
X2545513Y-33989897D01*
X2407042Y-34064364D01*
X2321991Y-34146363D01*
X2278326Y-34221549D01*
X2223437Y-34292451D01*
X2159316Y-34316306D01*
X2059717Y-34299417D01*
X1898391Y-34248087D01*
X1745649Y-34194404D01*
X1622015Y-34144868D01*
X1559408Y-34111954D01*
X1554630Y-34106886D01*
X1549530Y-34034197D01*
X1604566Y-33924985D01*
X1706190Y-33794713D01*
X1840852Y-33658843D01*
X1995002Y-33532838D01*
X2155091Y-33432161D01*
X2260209Y-33381585D01*
X2393103Y-33337998D01*
X2546232Y-33317388D01*
X2755454Y-33312615D01*
X2881299Y-33314747D01*
G36*
X3200145Y-31257382D02*
G01*
X3240363Y-31269248D01*
X3249158Y-31314460D01*
X3274601Y-31432350D01*
X3312677Y-31604294D01*
X3359351Y-31811884D01*
X3392507Y-31965918D01*
X3435906Y-32230156D01*
X3442940Y-32429323D01*
X3411654Y-32577618D01*
X3340093Y-32689244D01*
X3226303Y-32778399D01*
X3059396Y-32843935D01*
X2834835Y-32870070D01*
X2607736Y-32847098D01*
X2417857Y-32775180D01*
X2405994Y-32767613D01*
X2285493Y-32657760D01*
X2200572Y-32527810D01*
X2178354Y-32462951D01*
X2137464Y-32320177D01*
X2087926Y-32131814D01*
X2035185Y-31920323D01*
X1984686Y-31708168D01*
X1941874Y-31517811D01*
X1912194Y-31371713D01*
X1901091Y-31292339D01*
X1940193Y-31264250D01*
X2035845Y-31252364D01*
X2062941Y-31252632D01*
X2116748Y-31261067D01*
X2155790Y-31293791D01*
X2188651Y-31367297D01*
X2223913Y-31498081D01*
X2270161Y-31702636D01*
X2270687Y-31705013D01*
X2333495Y-31981933D01*
X2384297Y-32183636D01*
X2428735Y-32325445D01*
X2472452Y-32422682D01*
X2521092Y-32490670D01*
X2580298Y-32544732D01*
X2698421Y-32613545D01*
X2863989Y-32638933D01*
X3012435Y-32585039D01*
X3123846Y-32455146D01*
X3150524Y-32390167D01*
X3160650Y-32315094D01*
X3152616Y-32210187D01*
X3124894Y-32055552D01*
X3075956Y-31831293D01*
X3037573Y-31659054D01*
X2999098Y-31480376D01*
X2972930Y-31351508D01*
X2963273Y-31292550D01*
X2963282Y-31292072D01*
X3004516Y-31264011D01*
X3101818Y-31252364D01*
X3103273Y-31252364D01*
X3200145Y-31257382D01*
G37*
X3200145Y-31257382D02*
X3240363Y-31269248D01*
X3249158Y-31314460D01*
X3274601Y-31432350D01*
X3312677Y-31604294D01*
X3359351Y-31811884D01*
X3392507Y-31965918D01*
X3435906Y-32230156D01*
X3442940Y-32429323D01*
X3411654Y-32577618D01*
X3340093Y-32689244D01*
X3226303Y-32778399D01*
X3059396Y-32843935D01*
X2834835Y-32870070D01*
X2607736Y-32847098D01*
X2417857Y-32775180D01*
X2405994Y-32767613D01*
X2285493Y-32657760D01*
X2200572Y-32527810D01*
X2178354Y-32462951D01*
X2137464Y-32320177D01*
X2087926Y-32131814D01*
X2035185Y-31920323D01*
X1984686Y-31708168D01*
X1941874Y-31517811D01*
X1912194Y-31371713D01*
X1901091Y-31292339D01*
X1940193Y-31264250D01*
X2035845Y-31252364D01*
X2062941Y-31252632D01*
X2116748Y-31261067D01*
X2155790Y-31293791D01*
X2188651Y-31367297D01*
X2223913Y-31498081D01*
X2270161Y-31702636D01*
X2270687Y-31705013D01*
X2333495Y-31981933D01*
X2384297Y-32183636D01*
X2428735Y-32325445D01*
X2472452Y-32422682D01*
X2521092Y-32490670D01*
X2580298Y-32544732D01*
X2698421Y-32613545D01*
X2863989Y-32638933D01*
X3012435Y-32585039D01*
X3123846Y-32455146D01*
X3150524Y-32390167D01*
X3160650Y-32315094D01*
X3152616Y-32210187D01*
X3124894Y-32055552D01*
X3075956Y-31831293D01*
X3037573Y-31659054D01*
X2999098Y-31480376D01*
X2972930Y-31351508D01*
X2963273Y-31292550D01*
X2963282Y-31292072D01*
X3004516Y-31264011D01*
X3101818Y-31252364D01*
X3103273Y-31252364D01*
X3200145Y-31257382D01*
G36*
X-5041367Y-36897037D02*
G01*
X-4926913Y-37085977D01*
X-4846432Y-37216919D01*
X-4806411Y-37279091D01*
X-4767629Y-37330385D01*
X-4749489Y-37335166D01*
X-4763072Y-37256000D01*
X-4787932Y-37135827D01*
X-4817907Y-36990454D01*
X-4848793Y-36840364D01*
X-3636542Y-36840364D01*
X-3667791Y-36667182D01*
X-3672915Y-36639702D01*
X-3698316Y-36524060D01*
X-3718791Y-36459364D01*
X-3720833Y-36457415D01*
X-3783530Y-36444650D01*
X-3917960Y-36434264D01*
X-4106071Y-36427282D01*
X-4329805Y-36424727D01*
X-4921067Y-36424727D01*
X-4973625Y-36163025D01*
X-4995713Y-36049451D01*
X-5017680Y-35926099D01*
X-5026182Y-35862843D01*
X-5025646Y-35861180D01*
X-4973443Y-35846821D01*
X-4848263Y-35835122D01*
X-4667590Y-35827247D01*
X-4448909Y-35824364D01*
X-4423954Y-35824326D01*
X-4208542Y-35820672D01*
X-4033029Y-35811909D01*
X-3914899Y-35799262D01*
X-3871637Y-35783954D01*
X-3871638Y-35783575D01*
X-3880203Y-35712458D01*
X-3900500Y-35599227D01*
X-3929364Y-35454909D01*
X-5158179Y-35454909D01*
X-5213060Y-35190549D01*
X-5237920Y-35075343D01*
X-5269252Y-34942576D01*
X-5290548Y-34867276D01*
X-5291193Y-34865254D01*
X-5277385Y-34845433D01*
X-5218352Y-34830528D01*
X-5104672Y-34819954D01*
X-4926920Y-34813125D01*
X-4675673Y-34809456D01*
X-4341508Y-34808364D01*
X-4272167Y-34808380D01*
X-3963629Y-34809227D01*
X-3733409Y-34812048D01*
X-3569732Y-34817797D01*
X-3460820Y-34827430D01*
X-3394898Y-34841902D01*
X-3360190Y-34862168D01*
X-3344921Y-34889182D01*
X-3343759Y-34893064D01*
X-3321915Y-34979494D01*
X-3285452Y-35136534D01*
X-3237518Y-35349567D01*
X-3181263Y-35603979D01*
X-3119834Y-35885152D01*
X-3056380Y-36178470D01*
X-2994049Y-36469316D01*
X-2935992Y-36743076D01*
X-2885355Y-36985131D01*
X-2845287Y-37180866D01*
X-2818938Y-37315665D01*
X-2809455Y-37374912D01*
X-2820015Y-37394203D01*
X-2858104Y-37409312D01*
X-2932982Y-37420468D01*
X-3053910Y-37428043D01*
X-3230146Y-37432408D01*
X-3470951Y-37433934D01*
X-3785583Y-37432991D01*
X-4183304Y-37429951D01*
X-5557153Y-37417636D01*
X-5649576Y-37244579D01*
X-5742000Y-37071522D01*
X-6255643Y-37071397D01*
X-6769286Y-37071273D01*
X-6828364Y-37440727D01*
X-7573521Y-37440727D01*
X-7547017Y-37313727D01*
X-7541782Y-37286065D01*
X-7521437Y-37167028D01*
X-7490603Y-36978687D01*
X-7451693Y-36736021D01*
X-7407117Y-36454010D01*
X-7404080Y-36434559D01*
X-6718796Y-36434559D01*
X-6680204Y-36457911D01*
X-6584764Y-36468449D01*
X-6414749Y-36470909D01*
X-6399327Y-36470891D01*
X-6242073Y-36468508D01*
X-6130667Y-36462889D01*
X-6088364Y-36455158D01*
X-6088481Y-36453368D01*
X-6112601Y-36393352D01*
X-6170907Y-36281216D01*
X-6252142Y-36135958D01*
X-6345048Y-35976578D01*
X-6438368Y-35822074D01*
X-6520842Y-35691445D01*
X-6581215Y-35603690D01*
X-6608228Y-35577809D01*
X-6610029Y-35581775D01*
X-6625512Y-35655149D01*
X-6644039Y-35790843D01*
X-6661985Y-35962909D01*
X-6663733Y-35981925D01*
X-6682407Y-36160024D01*
X-6701539Y-36306086D01*
X-6717247Y-36390091D01*
X-6718268Y-36393656D01*
X-6718796Y-36434559D01*
X-7404080Y-36434559D01*
X-7359288Y-36147636D01*
X-7337262Y-36005833D01*
X-7290557Y-35706142D01*
X-7248278Y-35436168D01*
X-7212846Y-35211302D01*
X-7186684Y-35046934D01*
X-7172212Y-34958454D01*
X-7146360Y-34808364D01*
X-6283222Y-34808364D01*
X-5578461Y-35997545D01*
X-5523668Y-36089936D01*
X-5346233Y-36388245D01*
X-5306243Y-36455158D01*
X-5183303Y-36660869D01*
X-5041367Y-36897037D01*
G37*
X-5041367Y-36897037D02*
X-4926913Y-37085977D01*
X-4846432Y-37216919D01*
X-4806411Y-37279091D01*
X-4767629Y-37330385D01*
X-4749489Y-37335166D01*
X-4763072Y-37256000D01*
X-4787932Y-37135827D01*
X-4817907Y-36990454D01*
X-4848793Y-36840364D01*
X-3636542Y-36840364D01*
X-3667791Y-36667182D01*
X-3672915Y-36639702D01*
X-3698316Y-36524060D01*
X-3718791Y-36459364D01*
X-3720833Y-36457415D01*
X-3783530Y-36444650D01*
X-3917960Y-36434264D01*
X-4106071Y-36427282D01*
X-4329805Y-36424727D01*
X-4921067Y-36424727D01*
X-4973625Y-36163025D01*
X-4995713Y-36049451D01*
X-5017680Y-35926099D01*
X-5026182Y-35862843D01*
X-5025646Y-35861180D01*
X-4973443Y-35846821D01*
X-4848263Y-35835122D01*
X-4667590Y-35827247D01*
X-4448909Y-35824364D01*
X-4423954Y-35824326D01*
X-4208542Y-35820672D01*
X-4033029Y-35811909D01*
X-3914899Y-35799262D01*
X-3871637Y-35783954D01*
X-3871638Y-35783575D01*
X-3880203Y-35712458D01*
X-3900500Y-35599227D01*
X-3929364Y-35454909D01*
X-5158179Y-35454909D01*
X-5213060Y-35190549D01*
X-5237920Y-35075343D01*
X-5269252Y-34942576D01*
X-5290548Y-34867276D01*
X-5291193Y-34865254D01*
X-5277385Y-34845433D01*
X-5218352Y-34830528D01*
X-5104672Y-34819954D01*
X-4926920Y-34813125D01*
X-4675673Y-34809456D01*
X-4341508Y-34808364D01*
X-4272167Y-34808380D01*
X-3963629Y-34809227D01*
X-3733409Y-34812048D01*
X-3569732Y-34817797D01*
X-3460820Y-34827430D01*
X-3394898Y-34841902D01*
X-3360190Y-34862168D01*
X-3344921Y-34889182D01*
X-3343759Y-34893064D01*
X-3321915Y-34979494D01*
X-3285452Y-35136534D01*
X-3237518Y-35349567D01*
X-3181263Y-35603979D01*
X-3119834Y-35885152D01*
X-3056380Y-36178470D01*
X-2994049Y-36469316D01*
X-2935992Y-36743076D01*
X-2885355Y-36985131D01*
X-2845287Y-37180866D01*
X-2818938Y-37315665D01*
X-2809455Y-37374912D01*
X-2820015Y-37394203D01*
X-2858104Y-37409312D01*
X-2932982Y-37420468D01*
X-3053910Y-37428043D01*
X-3230146Y-37432408D01*
X-3470951Y-37433934D01*
X-3785583Y-37432991D01*
X-4183304Y-37429951D01*
X-5557153Y-37417636D01*
X-5649576Y-37244579D01*
X-5742000Y-37071522D01*
X-6255643Y-37071397D01*
X-6769286Y-37071273D01*
X-6828364Y-37440727D01*
X-7573521Y-37440727D01*
X-7547017Y-37313727D01*
X-7541782Y-37286065D01*
X-7521437Y-37167028D01*
X-7490603Y-36978687D01*
X-7451693Y-36736021D01*
X-7407117Y-36454010D01*
X-7404080Y-36434559D01*
X-6718796Y-36434559D01*
X-6680204Y-36457911D01*
X-6584764Y-36468449D01*
X-6414749Y-36470909D01*
X-6399327Y-36470891D01*
X-6242073Y-36468508D01*
X-6130667Y-36462889D01*
X-6088364Y-36455158D01*
X-6088481Y-36453368D01*
X-6112601Y-36393352D01*
X-6170907Y-36281216D01*
X-6252142Y-36135958D01*
X-6345048Y-35976578D01*
X-6438368Y-35822074D01*
X-6520842Y-35691445D01*
X-6581215Y-35603690D01*
X-6608228Y-35577809D01*
X-6610029Y-35581775D01*
X-6625512Y-35655149D01*
X-6644039Y-35790843D01*
X-6661985Y-35962909D01*
X-6663733Y-35981925D01*
X-6682407Y-36160024D01*
X-6701539Y-36306086D01*
X-6717247Y-36390091D01*
X-6718268Y-36393656D01*
X-6718796Y-36434559D01*
X-7404080Y-36434559D01*
X-7359288Y-36147636D01*
X-7337262Y-36005833D01*
X-7290557Y-35706142D01*
X-7248278Y-35436168D01*
X-7212846Y-35211302D01*
X-7186684Y-35046934D01*
X-7172212Y-34958454D01*
X-7146360Y-34808364D01*
X-6283222Y-34808364D01*
X-5578461Y-35997545D01*
X-5523668Y-36089936D01*
X-5346233Y-36388245D01*
X-5306243Y-36455158D01*
X-5183303Y-36660869D01*
X-5041367Y-36897037D01*
G36*
X-1862727Y-31252565D02*
G01*
X-1711629Y-31956737D01*
X-1683548Y-32087195D01*
X-1631369Y-32327438D01*
X-1586173Y-32532775D01*
X-1552042Y-32684727D01*
X-1533061Y-32764818D01*
X-1532940Y-32765274D01*
X-1524234Y-32808735D01*
X-1535074Y-32837916D01*
X-1580023Y-32855662D01*
X-1673644Y-32864816D01*
X-1830502Y-32868223D01*
X-2065159Y-32868727D01*
X-2624727Y-32868727D01*
X-2624727Y-32591636D01*
X-2255273Y-32591636D01*
X-2229425Y-32591637D01*
X-2048356Y-32589148D01*
X-1942107Y-32573327D01*
X-1894920Y-32531618D01*
X-1891031Y-32451467D01*
X-1914682Y-32320318D01*
X-1943546Y-32176000D01*
X-2353409Y-32176000D01*
X-2380472Y-32175997D01*
X-2566008Y-32174692D01*
X-2679159Y-32167536D01*
X-2737821Y-32149488D01*
X-2759893Y-32115505D01*
X-2763273Y-32060545D01*
X-2760743Y-32010076D01*
X-2740660Y-31973014D01*
X-2684317Y-31953665D01*
X-2573012Y-31946275D01*
X-2388046Y-31945091D01*
X-2012818Y-31945091D01*
X-2041682Y-31800773D01*
X-2061863Y-31681657D01*
X-2070546Y-31592954D01*
X-2085796Y-31565191D01*
X-2150559Y-31543902D01*
X-2279324Y-31532708D01*
X-2486182Y-31529454D01*
X-2578895Y-31528580D01*
X-2744684Y-31521900D01*
X-2859417Y-31510073D01*
X-2902449Y-31494818D01*
X-2908623Y-31452131D01*
X-2930926Y-31356273D01*
X-2939821Y-31314386D01*
X-2930602Y-31284237D01*
X-2887774Y-31265901D01*
X-2796649Y-31256448D01*
X-2642537Y-31252946D01*
X-2410750Y-31252464D01*
X-1862727Y-31252565D01*
G37*
X-1862727Y-31252565D02*
X-1711629Y-31956737D01*
X-1683548Y-32087195D01*
X-1631369Y-32327438D01*
X-1586173Y-32532775D01*
X-1552042Y-32684727D01*
X-1533061Y-32764818D01*
X-1532940Y-32765274D01*
X-1524234Y-32808735D01*
X-1535074Y-32837916D01*
X-1580023Y-32855662D01*
X-1673644Y-32864816D01*
X-1830502Y-32868223D01*
X-2065159Y-32868727D01*
X-2624727Y-32868727D01*
X-2624727Y-32591636D01*
X-2255273Y-32591636D01*
X-2229425Y-32591637D01*
X-2048356Y-32589148D01*
X-1942107Y-32573327D01*
X-1894920Y-32531618D01*
X-1891031Y-32451467D01*
X-1914682Y-32320318D01*
X-1943546Y-32176000D01*
X-2353409Y-32176000D01*
X-2380472Y-32175997D01*
X-2566008Y-32174692D01*
X-2679159Y-32167536D01*
X-2737821Y-32149488D01*
X-2759893Y-32115505D01*
X-2763273Y-32060545D01*
X-2760743Y-32010076D01*
X-2740660Y-31973014D01*
X-2684317Y-31953665D01*
X-2573012Y-31946275D01*
X-2388046Y-31945091D01*
X-2012818Y-31945091D01*
X-2041682Y-31800773D01*
X-2061863Y-31681657D01*
X-2070546Y-31592954D01*
X-2085796Y-31565191D01*
X-2150559Y-31543902D01*
X-2279324Y-31532708D01*
X-2486182Y-31529454D01*
X-2578895Y-31528580D01*
X-2744684Y-31521900D01*
X-2859417Y-31510073D01*
X-2902449Y-31494818D01*
X-2908623Y-31452131D01*
X-2930926Y-31356273D01*
X-2939821Y-31314386D01*
X-2930602Y-31284237D01*
X-2887774Y-31265901D01*
X-2796649Y-31256448D01*
X-2642537Y-31252946D01*
X-2410750Y-31252464D01*
X-1862727Y-31252565D01*
G36*
X8743766Y-34580805D02*
G01*
X8815054Y-34907343D01*
X8879247Y-35206846D01*
X8933733Y-35466693D01*
X8975902Y-35674264D01*
X9003144Y-35816936D01*
X9012849Y-35882091D01*
X9012850Y-35882836D01*
X9000740Y-35924475D01*
X8952197Y-35948764D01*
X8848609Y-35960107D01*
X8671363Y-35962909D01*
X8329635Y-35962909D01*
X8252529Y-35605000D01*
X8245039Y-35570348D01*
X8205852Y-35392727D01*
X8172814Y-35248549D01*
X8152418Y-35166273D01*
X8145317Y-35147876D01*
X8111269Y-35115709D01*
X8038496Y-35096699D01*
X7909140Y-35087608D01*
X7705342Y-35085197D01*
X7443936Y-35078970D01*
X7205346Y-35052772D01*
X7019235Y-35000254D01*
X6864744Y-34915188D01*
X6721014Y-34791349D01*
X6720093Y-34790427D01*
X6553309Y-34569374D01*
X6458920Y-34325188D01*
X6441644Y-34136049D01*
X7165034Y-34136049D01*
X7171236Y-34250768D01*
X7261574Y-34372706D01*
X7332443Y-34417732D01*
X7471933Y-34456403D01*
X7683616Y-34477801D01*
X7790435Y-34483589D01*
X7915345Y-34486302D01*
X7976921Y-34474785D01*
X7993534Y-34443462D01*
X7983558Y-34386755D01*
X7981388Y-34377604D01*
X7954221Y-34251133D01*
X7925831Y-34104091D01*
X7894448Y-33930909D01*
X7632772Y-33930909D01*
X7569308Y-33932720D01*
X7372263Y-33967273D01*
X7234774Y-34038300D01*
X7165034Y-34136049D01*
X6441644Y-34136049D01*
X6436066Y-34074978D01*
X6483885Y-33835851D01*
X6601515Y-33624918D01*
X6788095Y-33459287D01*
X6823179Y-33438171D01*
X6891323Y-33404561D01*
X6969853Y-33381249D01*
X7075164Y-33366367D01*
X7223650Y-33358050D01*
X7431705Y-33354428D01*
X7715724Y-33353636D01*
X8473448Y-33353636D01*
X8713513Y-34443462D01*
X8743028Y-34577454D01*
X8743766Y-34580805D01*
G37*
X8743766Y-34580805D02*
X8815054Y-34907343D01*
X8879247Y-35206846D01*
X8933733Y-35466693D01*
X8975902Y-35674264D01*
X9003144Y-35816936D01*
X9012849Y-35882091D01*
X9012850Y-35882836D01*
X9000740Y-35924475D01*
X8952197Y-35948764D01*
X8848609Y-35960107D01*
X8671363Y-35962909D01*
X8329635Y-35962909D01*
X8252529Y-35605000D01*
X8245039Y-35570348D01*
X8205852Y-35392727D01*
X8172814Y-35248549D01*
X8152418Y-35166273D01*
X8145317Y-35147876D01*
X8111269Y-35115709D01*
X8038496Y-35096699D01*
X7909140Y-35087608D01*
X7705342Y-35085197D01*
X7443936Y-35078970D01*
X7205346Y-35052772D01*
X7019235Y-35000254D01*
X6864744Y-34915188D01*
X6721014Y-34791349D01*
X6720093Y-34790427D01*
X6553309Y-34569374D01*
X6458920Y-34325188D01*
X6441644Y-34136049D01*
X7165034Y-34136049D01*
X7171236Y-34250768D01*
X7261574Y-34372706D01*
X7332443Y-34417732D01*
X7471933Y-34456403D01*
X7683616Y-34477801D01*
X7790435Y-34483589D01*
X7915345Y-34486302D01*
X7976921Y-34474785D01*
X7993534Y-34443462D01*
X7983558Y-34386755D01*
X7981388Y-34377604D01*
X7954221Y-34251133D01*
X7925831Y-34104091D01*
X7894448Y-33930909D01*
X7632772Y-33930909D01*
X7569308Y-33932720D01*
X7372263Y-33967273D01*
X7234774Y-34038300D01*
X7165034Y-34136049D01*
X6441644Y-34136049D01*
X6436066Y-34074978D01*
X6483885Y-33835851D01*
X6601515Y-33624918D01*
X6788095Y-33459287D01*
X6823179Y-33438171D01*
X6891323Y-33404561D01*
X6969853Y-33381249D01*
X7075164Y-33366367D01*
X7223650Y-33358050D01*
X7431705Y-33354428D01*
X7715724Y-33353636D01*
X8473448Y-33353636D01*
X8713513Y-34443462D01*
X8743028Y-34577454D01*
X8743766Y-34580805D01*
G36*
X4787454Y-31275454D02*
G01*
X4802067Y-31402454D01*
X4806604Y-31461837D01*
X4789391Y-31508349D01*
X4724653Y-31526415D01*
X4589978Y-31529454D01*
X4363275Y-31529454D01*
X4493081Y-32118273D01*
X4500111Y-32150271D01*
X4548186Y-32375259D01*
X4587514Y-32569773D01*
X4614201Y-32713946D01*
X4624352Y-32787909D01*
X4624370Y-32789232D01*
X4594981Y-32850473D01*
X4494982Y-32868727D01*
X4454507Y-32867698D01*
X4408164Y-32854981D01*
X4373034Y-32814844D01*
X4341670Y-32731523D01*
X4306623Y-32589254D01*
X4260448Y-32372273D01*
X4258294Y-32361956D01*
X4197750Y-32070622D01*
X4151480Y-31856785D01*
X4113314Y-31708285D01*
X4077079Y-31612963D01*
X4036605Y-31558661D01*
X3985722Y-31533220D01*
X3918257Y-31524480D01*
X3828041Y-31520283D01*
X3722699Y-31512691D01*
X3629972Y-31493851D01*
X3587972Y-31453532D01*
X3571983Y-31378001D01*
X3557238Y-31249638D01*
X4787454Y-31275454D01*
G37*
X4787454Y-31275454D02*
X4802067Y-31402454D01*
X4806604Y-31461837D01*
X4789391Y-31508349D01*
X4724653Y-31526415D01*
X4589978Y-31529454D01*
X4363275Y-31529454D01*
X4493081Y-32118273D01*
X4500111Y-32150271D01*
X4548186Y-32375259D01*
X4587514Y-32569773D01*
X4614201Y-32713946D01*
X4624352Y-32787909D01*
X4624370Y-32789232D01*
X4594981Y-32850473D01*
X4494982Y-32868727D01*
X4454507Y-32867698D01*
X4408164Y-32854981D01*
X4373034Y-32814844D01*
X4341670Y-32731523D01*
X4306623Y-32589254D01*
X4260448Y-32372273D01*
X4258294Y-32361956D01*
X4197750Y-32070622D01*
X4151480Y-31856785D01*
X4113314Y-31708285D01*
X4077079Y-31612963D01*
X4036605Y-31558661D01*
X3985722Y-31533220D01*
X3918257Y-31524480D01*
X3828041Y-31520283D01*
X3722699Y-31512691D01*
X3629972Y-31493851D01*
X3587972Y-31453532D01*
X3571983Y-31378001D01*
X3557238Y-31249638D01*
X4787454Y-31275454D01*
G36*
X-4494950Y-31252632D02*
G01*
X-4441108Y-31261075D01*
X-4401996Y-31293809D01*
X-4369010Y-31367323D01*
X-4333546Y-31498102D01*
X-4287001Y-31702636D01*
X-4261291Y-31817802D01*
X-4216132Y-32018491D01*
X-4178476Y-32183882D01*
X-4154549Y-32286533D01*
X-4139984Y-32330747D01*
X-4118850Y-32342604D01*
X-4085690Y-32308416D01*
X-4034065Y-32218623D01*
X-3957533Y-32063667D01*
X-3849656Y-31833989D01*
X-3811869Y-31752845D01*
X-3713451Y-31544749D01*
X-3641641Y-31403998D01*
X-3587375Y-31317952D01*
X-3541586Y-31273970D01*
X-3495209Y-31259412D01*
X-3439180Y-31261637D01*
X-3301363Y-31275454D01*
X-3148506Y-31968182D01*
X-3121953Y-32088391D01*
X-3068865Y-32327967D01*
X-3023087Y-32533567D01*
X-2988798Y-32686448D01*
X-2970179Y-32767867D01*
X-2961195Y-32833348D01*
X-2993837Y-32863280D01*
X-3094540Y-32860230D01*
X-3244370Y-32845636D01*
X-3360577Y-32303000D01*
X-3361679Y-32297861D01*
X-3408672Y-32088956D01*
X-3451227Y-31918071D01*
X-3484703Y-31802707D01*
X-3504460Y-31760364D01*
X-3507749Y-31762364D01*
X-3543749Y-31818185D01*
X-3608310Y-31939149D01*
X-3693420Y-32109765D01*
X-3791070Y-32314545D01*
X-3886025Y-32515824D01*
X-3967099Y-32678352D01*
X-4027894Y-32781600D01*
X-4077811Y-32838875D01*
X-4126253Y-32863482D01*
X-4182619Y-32868727D01*
X-4315233Y-32868727D01*
X-4485980Y-32094520D01*
X-4530861Y-31889824D01*
X-4581039Y-31657712D01*
X-4620915Y-31469477D01*
X-4647231Y-31340543D01*
X-4656727Y-31286338D01*
X-4617648Y-31262471D01*
X-4521973Y-31252364D01*
X-4494950Y-31252632D01*
G37*
X-4494950Y-31252632D02*
X-4441108Y-31261075D01*
X-4401996Y-31293809D01*
X-4369010Y-31367323D01*
X-4333546Y-31498102D01*
X-4287001Y-31702636D01*
X-4261291Y-31817802D01*
X-4216132Y-32018491D01*
X-4178476Y-32183882D01*
X-4154549Y-32286533D01*
X-4139984Y-32330747D01*
X-4118850Y-32342604D01*
X-4085690Y-32308416D01*
X-4034065Y-32218623D01*
X-3957533Y-32063667D01*
X-3849656Y-31833989D01*
X-3811869Y-31752845D01*
X-3713451Y-31544749D01*
X-3641641Y-31403998D01*
X-3587375Y-31317952D01*
X-3541586Y-31273970D01*
X-3495209Y-31259412D01*
X-3439180Y-31261637D01*
X-3301363Y-31275454D01*
X-3148506Y-31968182D01*
X-3121953Y-32088391D01*
X-3068865Y-32327967D01*
X-3023087Y-32533567D01*
X-2988798Y-32686448D01*
X-2970179Y-32767867D01*
X-2961195Y-32833348D01*
X-2993837Y-32863280D01*
X-3094540Y-32860230D01*
X-3244370Y-32845636D01*
X-3360577Y-32303000D01*
X-3361679Y-32297861D01*
X-3408672Y-32088956D01*
X-3451227Y-31918071D01*
X-3484703Y-31802707D01*
X-3504460Y-31760364D01*
X-3507749Y-31762364D01*
X-3543749Y-31818185D01*
X-3608310Y-31939149D01*
X-3693420Y-32109765D01*
X-3791070Y-32314545D01*
X-3886025Y-32515824D01*
X-3967099Y-32678352D01*
X-4027894Y-32781600D01*
X-4077811Y-32838875D01*
X-4126253Y-32863482D01*
X-4182619Y-32868727D01*
X-4315233Y-32868727D01*
X-4485980Y-32094520D01*
X-4530861Y-31889824D01*
X-4581039Y-31657712D01*
X-4620915Y-31469477D01*
X-4647231Y-31340543D01*
X-4656727Y-31286338D01*
X-4617648Y-31262471D01*
X-4521973Y-31252364D01*
X-4494950Y-31252632D01*
G36*
X6813734Y-35346578D02*
G01*
X6936156Y-35553661D01*
X7025598Y-35705382D01*
X7074949Y-35789727D01*
X7174941Y-35962909D01*
X6355707Y-35962909D01*
X6242182Y-35755091D01*
X6128656Y-35547273D01*
X5636178Y-35547273D01*
X5436945Y-35548424D01*
X5269971Y-35557280D01*
X5167012Y-35581764D01*
X5112609Y-35629792D01*
X5091303Y-35709279D01*
X5087636Y-35828141D01*
X5087636Y-35962909D01*
X4718182Y-35962909D01*
X4666232Y-35962565D01*
X4504081Y-35956481D01*
X4390261Y-35944366D01*
X4346779Y-35928273D01*
X4346842Y-35926102D01*
X4354973Y-35861413D01*
X4375304Y-35719071D01*
X4406053Y-35511021D01*
X4445440Y-35249210D01*
X4491482Y-34946909D01*
X5168195Y-34946909D01*
X5474279Y-34946909D01*
X5627677Y-34943778D01*
X5738190Y-34935475D01*
X5780363Y-34923812D01*
X5765509Y-34889446D01*
X5713441Y-34788647D01*
X5632753Y-34639302D01*
X5532693Y-34458776D01*
X5285022Y-34016837D01*
X5253145Y-34308691D01*
X5237616Y-34444611D01*
X5214482Y-34631075D01*
X5194731Y-34773727D01*
X5168195Y-34946909D01*
X4491482Y-34946909D01*
X4491684Y-34945584D01*
X4543004Y-34612091D01*
X4741178Y-33330545D01*
X5179953Y-33331845D01*
X5618727Y-33333145D01*
X6296842Y-34474845D01*
X6319689Y-34513314D01*
X6498390Y-34814389D01*
X6563266Y-34923812D01*
X6665442Y-35096149D01*
X6813734Y-35346578D01*
G37*
X6813734Y-35346578D02*
X6936156Y-35553661D01*
X7025598Y-35705382D01*
X7074949Y-35789727D01*
X7174941Y-35962909D01*
X6355707Y-35962909D01*
X6242182Y-35755091D01*
X6128656Y-35547273D01*
X5636178Y-35547273D01*
X5436945Y-35548424D01*
X5269971Y-35557280D01*
X5167012Y-35581764D01*
X5112609Y-35629792D01*
X5091303Y-35709279D01*
X5087636Y-35828141D01*
X5087636Y-35962909D01*
X4718182Y-35962909D01*
X4666232Y-35962565D01*
X4504081Y-35956481D01*
X4390261Y-35944366D01*
X4346779Y-35928273D01*
X4346842Y-35926102D01*
X4354973Y-35861413D01*
X4375304Y-35719071D01*
X4406053Y-35511021D01*
X4445440Y-35249210D01*
X4491482Y-34946909D01*
X5168195Y-34946909D01*
X5474279Y-34946909D01*
X5627677Y-34943778D01*
X5738190Y-34935475D01*
X5780363Y-34923812D01*
X5765509Y-34889446D01*
X5713441Y-34788647D01*
X5632753Y-34639302D01*
X5532693Y-34458776D01*
X5285022Y-34016837D01*
X5253145Y-34308691D01*
X5237616Y-34444611D01*
X5214482Y-34631075D01*
X5194731Y-34773727D01*
X5168195Y-34946909D01*
X4491482Y-34946909D01*
X4491684Y-34945584D01*
X4543004Y-34612091D01*
X4741178Y-33330545D01*
X5179953Y-33331845D01*
X5618727Y-33333145D01*
X6296842Y-34474845D01*
X6319689Y-34513314D01*
X6498390Y-34814389D01*
X6563266Y-34923812D01*
X6665442Y-35096149D01*
X6813734Y-35346578D01*
G36*
X-9794360Y-35504602D02*
G01*
X-9378592Y-36200841D01*
X-9272403Y-35504602D01*
X-9166214Y-34808364D01*
X-8231738Y-34808364D01*
X-7964708Y-36020636D01*
X-7895080Y-36336471D01*
X-7828244Y-36639101D01*
X-7769687Y-36903699D01*
X-7722299Y-37117221D01*
X-7688971Y-37266622D01*
X-7672593Y-37338860D01*
X-7664228Y-37382399D01*
X-7674049Y-37417309D01*
X-7723167Y-37433859D01*
X-7829245Y-37436885D01*
X-8009943Y-37431224D01*
X-8372379Y-37417636D01*
X-8521594Y-36748000D01*
X-8584346Y-36466051D01*
X-8632423Y-36251256D01*
X-8666272Y-36104770D01*
X-8689066Y-36015510D01*
X-8703978Y-35972395D01*
X-8714180Y-35964341D01*
X-8722846Y-35980267D01*
X-8733149Y-36009091D01*
X-8738684Y-36028688D01*
X-8759559Y-36131255D01*
X-8789256Y-36299300D01*
X-8824656Y-36514753D01*
X-8862641Y-36759545D01*
X-8965419Y-37440727D01*
X-9309341Y-37440727D01*
X-9763550Y-36680636D01*
X-9776749Y-36658559D01*
X-9916760Y-36425714D01*
X-10039169Y-36224503D01*
X-10136597Y-36066876D01*
X-10201662Y-35964785D01*
X-10226984Y-35930182D01*
X-10225784Y-35945336D01*
X-10209379Y-36034151D01*
X-10177411Y-36188724D01*
X-10133158Y-36393404D01*
X-10079897Y-36632545D01*
X-10051116Y-36761002D01*
X-10000530Y-36991635D01*
X-9959843Y-37183589D01*
X-9932643Y-37319748D01*
X-9922520Y-37383000D01*
X-9922697Y-37386442D01*
X-9960726Y-37417666D01*
X-10071570Y-37435228D01*
X-10264706Y-37440727D01*
X-10421457Y-37438418D01*
X-10541275Y-37427112D01*
X-10605190Y-37402391D01*
X-10633006Y-37359909D01*
X-10633825Y-37357209D01*
X-10655500Y-37272213D01*
X-10691863Y-37116296D01*
X-10739754Y-36904103D01*
X-10796015Y-36650277D01*
X-10857487Y-36369462D01*
X-10921012Y-36076300D01*
X-10983430Y-35785436D01*
X-11041583Y-35511513D01*
X-11092311Y-35269175D01*
X-11132457Y-35073066D01*
X-11158861Y-34937828D01*
X-11168364Y-34878106D01*
X-11164763Y-34860015D01*
X-11131633Y-34834130D01*
X-11051374Y-34818354D01*
X-10908930Y-34810496D01*
X-10689246Y-34808364D01*
X-10210128Y-34808364D01*
X-9794360Y-35504602D01*
G37*
X-9794360Y-35504602D02*
X-9378592Y-36200841D01*
X-9272403Y-35504602D01*
X-9166214Y-34808364D01*
X-8231738Y-34808364D01*
X-7964708Y-36020636D01*
X-7895080Y-36336471D01*
X-7828244Y-36639101D01*
X-7769687Y-36903699D01*
X-7722299Y-37117221D01*
X-7688971Y-37266622D01*
X-7672593Y-37338860D01*
X-7664228Y-37382399D01*
X-7674049Y-37417309D01*
X-7723167Y-37433859D01*
X-7829245Y-37436885D01*
X-8009943Y-37431224D01*
X-8372379Y-37417636D01*
X-8521594Y-36748000D01*
X-8584346Y-36466051D01*
X-8632423Y-36251256D01*
X-8666272Y-36104770D01*
X-8689066Y-36015510D01*
X-8703978Y-35972395D01*
X-8714180Y-35964341D01*
X-8722846Y-35980267D01*
X-8733149Y-36009091D01*
X-8738684Y-36028688D01*
X-8759559Y-36131255D01*
X-8789256Y-36299300D01*
X-8824656Y-36514753D01*
X-8862641Y-36759545D01*
X-8965419Y-37440727D01*
X-9309341Y-37440727D01*
X-9763550Y-36680636D01*
X-9776749Y-36658559D01*
X-9916760Y-36425714D01*
X-10039169Y-36224503D01*
X-10136597Y-36066876D01*
X-10201662Y-35964785D01*
X-10226984Y-35930182D01*
X-10225784Y-35945336D01*
X-10209379Y-36034151D01*
X-10177411Y-36188724D01*
X-10133158Y-36393404D01*
X-10079897Y-36632545D01*
X-10051116Y-36761002D01*
X-10000530Y-36991635D01*
X-9959843Y-37183589D01*
X-9932643Y-37319748D01*
X-9922520Y-37383000D01*
X-9922697Y-37386442D01*
X-9960726Y-37417666D01*
X-10071570Y-37435228D01*
X-10264706Y-37440727D01*
X-10421457Y-37438418D01*
X-10541275Y-37427112D01*
X-10605190Y-37402391D01*
X-10633006Y-37359909D01*
X-10633825Y-37357209D01*
X-10655500Y-37272213D01*
X-10691863Y-37116296D01*
X-10739754Y-36904103D01*
X-10796015Y-36650277D01*
X-10857487Y-36369462D01*
X-10921012Y-36076300D01*
X-10983430Y-35785436D01*
X-11041583Y-35511513D01*
X-11092311Y-35269175D01*
X-11132457Y-35073066D01*
X-11158861Y-34937828D01*
X-11168364Y-34878106D01*
X-11164763Y-34860015D01*
X-11131633Y-34834130D01*
X-11051374Y-34818354D01*
X-10908930Y-34810496D01*
X-10689246Y-34808364D01*
X-10210128Y-34808364D01*
X-9794360Y-35504602D01*
D10*
%TO.C,J3*%
X47600000Y28450000D02*
X39600000Y28450000D01*
D15*
X52600000Y17650000D02*
X34600000Y17650000D01*
D10*
X47600000Y24650000D02*
X47600000Y28450000D01*
X39600000Y28450000D02*
X39600000Y24650000D01*
D15*
X52600000Y24650000D02*
X52600000Y17650000D01*
X34600000Y17650000D02*
X34600000Y24650000D01*
X34600000Y24650000D02*
X52600000Y24650000D01*
D10*
%TO.C,J19*%
X-22035000Y49940000D02*
X-22035000Y48340000D01*
X-14835000Y52810000D02*
X-20765000Y52810000D01*
X-13565000Y49940000D02*
X-13565000Y48340000D01*
X-13565000Y48340000D02*
X-15365000Y48340000D01*
X-15365000Y48340000D02*
X-15365000Y47400000D01*
X-22035000Y48340000D02*
X-20235000Y48340000D01*
%TO.C,J12*%
X-12035000Y44660000D02*
X-10235000Y44660000D01*
X-3565000Y43060000D02*
X-3565000Y44660000D01*
X-10765000Y40190000D02*
X-4835000Y40190000D01*
X-3565000Y44660000D02*
X-5365000Y44660000D01*
X-12035000Y43060000D02*
X-12035000Y44660000D01*
X-10235000Y44660000D02*
X-10235000Y45600000D01*
%TO.C,JP2*%
X56500000Y-1275000D02*
X57100000Y-1275000D01*
X55800000Y825000D02*
X55800000Y-575000D01*
X57800000Y-575000D02*
X57800000Y825000D01*
X57100000Y1525000D02*
X56500000Y1525000D01*
X57800000Y825000D02*
G75*
G03*
X57100000Y1525000I-699999J1D01*
G01*
X56500000Y1525000D02*
G75*
G03*
X55800000Y825000I-1J-699999D01*
G01*
X55800000Y-575000D02*
G75*
G03*
X56500000Y-1275000I700000J0D01*
G01*
X57100000Y-1275000D02*
G75*
G03*
X57800000Y-575000I0J700000D01*
G01*
%TO.C,J18*%
X-12035000Y48340000D02*
X-10235000Y48340000D01*
X-4835000Y52810000D02*
X-10765000Y52810000D01*
X-3565000Y49940000D02*
X-3565000Y48340000D01*
X-5365000Y48340000D02*
X-5365000Y47400000D01*
X-12035000Y49940000D02*
X-12035000Y48340000D01*
X-3565000Y48340000D02*
X-5365000Y48340000D01*
%TO.C,J26*%
X19225000Y39020000D02*
X22925000Y39020000D01*
X22925000Y45180000D02*
X22925000Y44810000D01*
X25785000Y39390000D02*
X25785000Y42100000D01*
X19225000Y42100000D02*
X19225000Y39020000D01*
X22925000Y39020000D02*
X22925000Y39390000D01*
X22925000Y39390000D02*
X25785000Y39390000D01*
X19225000Y45180000D02*
X22925000Y45180000D01*
X22925000Y44810000D02*
X25785000Y44810000D01*
X25785000Y44810000D02*
X25785000Y42100000D01*
X19225000Y42100000D02*
X19225000Y45180000D01*
%TO.C,J17*%
X-13565000Y43060000D02*
X-13565000Y44660000D01*
X-22035000Y44660000D02*
X-20235000Y44660000D01*
X-13565000Y44660000D02*
X-15365000Y44660000D01*
X-20235000Y44660000D02*
X-20235000Y45600000D01*
X-22035000Y43060000D02*
X-22035000Y44660000D01*
X-20765000Y40190000D02*
X-14835000Y40190000D01*
%TO.C,JP3*%
X54875000Y-625000D02*
X54875000Y775000D01*
X52875000Y775000D02*
X52875000Y-625000D01*
X54175000Y1475000D02*
X53575000Y1475000D01*
X53575000Y-1325000D02*
X54175000Y-1325000D01*
X52875000Y-625000D02*
G75*
G03*
X53575000Y-1325000I700000J0D01*
G01*
X54175000Y-1325000D02*
G75*
G03*
X54875000Y-625000I0J700000D01*
G01*
X53575000Y1475000D02*
G75*
G03*
X52875000Y775000I-1J-699999D01*
G01*
X54875000Y775000D02*
G75*
G03*
X54175000Y1475000I-699999J1D01*
G01*
%TO.C,J10*%
X-24715000Y19565000D02*
X-24715000Y19500000D01*
X-19860000Y24635000D02*
X-21185000Y24635000D01*
X-21185000Y19500000D02*
X-24715000Y19500000D01*
X-21185000Y24700000D02*
X-21185000Y24635000D01*
X-24715000Y24700000D02*
X-24715000Y24635000D01*
X-21185000Y24700000D02*
X-24715000Y24700000D01*
X-21185000Y19565000D02*
X-21185000Y19500000D01*
%TO.C,J9*%
X-32480000Y13410000D02*
X-32480000Y9850000D01*
X-29820000Y15950000D02*
X-29820000Y12390000D01*
X-32480000Y3250000D02*
X-32480000Y2680000D01*
X-29820000Y21030000D02*
X-29820000Y17470000D01*
X-32480000Y18490000D02*
X-32480000Y14930000D01*
X-29820000Y2680000D02*
X-32480000Y2680000D01*
X-29820000Y10870000D02*
X-29820000Y7310000D01*
X-32480000Y8330000D02*
X-32480000Y4770000D01*
X-32480000Y23120000D02*
X-32480000Y20010000D01*
X-29820000Y5790000D02*
X-29820000Y2680000D01*
X-29820000Y23120000D02*
X-32480000Y23120000D01*
X-29820000Y23120000D02*
X-29820000Y22550000D01*
X-29820000Y22550000D02*
X-28300000Y22550000D01*
%TD*%
M02*
