%TF.GenerationSoftware,KiCad,Pcbnew,5.1.5+dfsg1-2build2*%
%TF.CreationDate,2021-12-22T23:08:45+01:00*%
%TF.ProjectId,uHoubolt_PCB_PMU,75486f75-626f-46c7-945f-5043425f504d,rev?*%
%TF.SameCoordinates,PX8583b00PY5f5e100*%
%TF.FileFunction,Copper,L2,Bot*%
%TF.FilePolarity,Positive*%
%FSLAX46Y46*%
G04 Gerber Fmt 4.6, Leading zero omitted, Abs format (unit mm)*
G04 Created by KiCad (PCBNEW 5.1.5+dfsg1-2build2) date 2021-12-22 23:08:45*
%MOMM*%
%LPD*%
G04 APERTURE LIST*
%TA.AperFunction,ComponentPad*%
%ADD10C,2.000000*%
%TD*%
%TA.AperFunction,SMDPad,CuDef*%
%ADD11C,0.100000*%
%TD*%
%TA.AperFunction,ComponentPad*%
%ADD12C,3.000000*%
%TD*%
%TA.AperFunction,ComponentPad*%
%ADD13C,2.500000*%
%TD*%
%TA.AperFunction,ComponentPad*%
%ADD14C,2.800000*%
%TD*%
%TA.AperFunction,ComponentPad*%
%ADD15C,0.800000*%
%TD*%
%TA.AperFunction,ComponentPad*%
%ADD16C,6.400000*%
%TD*%
%TA.AperFunction,ViaPad*%
%ADD17C,0.600000*%
%TD*%
%TA.AperFunction,Conductor*%
%ADD18C,0.100000*%
%TD*%
%TA.AperFunction,ViaPad*%
%ADD19C,0.500000*%
%TD*%
%TA.AperFunction,ComponentPad*%
%ADD20O,1.700000X1.700000*%
%TD*%
%TA.AperFunction,ComponentPad*%
%ADD21R,1.700000X1.700000*%
%TD*%
%TA.AperFunction,ComponentPad*%
%ADD22C,0.100000*%
%TD*%
%TA.AperFunction,ComponentPad*%
%ADD23O,2.200000X1.700000*%
%TD*%
%TA.AperFunction,ViaPad*%
%ADD24C,0.800000*%
%TD*%
%TA.AperFunction,Conductor*%
%ADD25C,2.000000*%
%TD*%
%TA.AperFunction,Conductor*%
%ADD26C,0.250000*%
%TD*%
%TA.AperFunction,Conductor*%
%ADD27C,0.400000*%
%TD*%
%TA.AperFunction,Conductor*%
%ADD28C,1.000000*%
%TD*%
%TA.AperFunction,Conductor*%
%ADD29C,0.300000*%
%TD*%
%TA.AperFunction,Conductor*%
%ADD30C,0.254000*%
%TD*%
G04 APERTURE END LIST*
D10*
%TO.P,J8,2*%
%TO.N,GND*%
X-14500000Y48730000D03*
%TO.P,J8,1*%
%TO.N,+12V*%
X-14500000Y51270000D03*
%TD*%
%TA.AperFunction,SMDPad,CuDef*%
D11*
%TO.P,JP1,3*%
%TO.N,+12V*%
G36*
X25949009Y33397592D02*
G01*
X25997545Y33390393D01*
X26045142Y33378470D01*
X26091342Y33361940D01*
X26135698Y33340961D01*
X26177785Y33315735D01*
X26217197Y33286505D01*
X26253553Y33253553D01*
X26286505Y33217197D01*
X26315735Y33177785D01*
X26340961Y33135698D01*
X26361940Y33091342D01*
X26378470Y33045142D01*
X26390393Y32997545D01*
X26397592Y32949009D01*
X26400000Y32900000D01*
X26400000Y31900000D01*
X26397592Y31850991D01*
X26390393Y31802455D01*
X26378470Y31754858D01*
X26361940Y31708658D01*
X26340961Y31664302D01*
X26315735Y31622215D01*
X26286505Y31582803D01*
X26253553Y31546447D01*
X26217197Y31513495D01*
X26177785Y31484265D01*
X26135698Y31459039D01*
X26091342Y31438060D01*
X26045142Y31421530D01*
X25997545Y31409607D01*
X25949009Y31402408D01*
X25900000Y31400000D01*
X20900000Y31400000D01*
X20850991Y31402408D01*
X20802455Y31409607D01*
X20754858Y31421530D01*
X20708658Y31438060D01*
X20664302Y31459039D01*
X20622215Y31484265D01*
X20582803Y31513495D01*
X20546447Y31546447D01*
X20513495Y31582803D01*
X20484265Y31622215D01*
X20459039Y31664302D01*
X20438060Y31708658D01*
X20421530Y31754858D01*
X20409607Y31802455D01*
X20402408Y31850991D01*
X20400000Y31900000D01*
X20400000Y32900000D01*
X20402408Y32949009D01*
X20409607Y32997545D01*
X20421530Y33045142D01*
X20438060Y33091342D01*
X20459039Y33135698D01*
X20484265Y33177785D01*
X20513495Y33217197D01*
X20546447Y33253553D01*
X20582803Y33286505D01*
X20622215Y33315735D01*
X20664302Y33340961D01*
X20708658Y33361940D01*
X20754858Y33378470D01*
X20802455Y33390393D01*
X20850991Y33397592D01*
X20900000Y33400000D01*
X25900000Y33400000D01*
X25949009Y33397592D01*
G37*
%TD.AperFunction*%
%TA.AperFunction,SMDPad,CuDef*%
%TO.P,JP1,1*%
%TO.N,PYRO*%
G36*
X25949009Y37997592D02*
G01*
X25997545Y37990393D01*
X26045142Y37978470D01*
X26091342Y37961940D01*
X26135698Y37940961D01*
X26177785Y37915735D01*
X26217197Y37886505D01*
X26253553Y37853553D01*
X26286505Y37817197D01*
X26315735Y37777785D01*
X26340961Y37735698D01*
X26361940Y37691342D01*
X26378470Y37645142D01*
X26390393Y37597545D01*
X26397592Y37549009D01*
X26400000Y37500000D01*
X26400000Y36500000D01*
X26397592Y36450991D01*
X26390393Y36402455D01*
X26378470Y36354858D01*
X26361940Y36308658D01*
X26340961Y36264302D01*
X26315735Y36222215D01*
X26286505Y36182803D01*
X26253553Y36146447D01*
X26217197Y36113495D01*
X26177785Y36084265D01*
X26135698Y36059039D01*
X26091342Y36038060D01*
X26045142Y36021530D01*
X25997545Y36009607D01*
X25949009Y36002408D01*
X25900000Y36000000D01*
X20900000Y36000000D01*
X20850991Y36002408D01*
X20802455Y36009607D01*
X20754858Y36021530D01*
X20708658Y36038060D01*
X20664302Y36059039D01*
X20622215Y36084265D01*
X20582803Y36113495D01*
X20546447Y36146447D01*
X20513495Y36182803D01*
X20484265Y36222215D01*
X20459039Y36264302D01*
X20438060Y36308658D01*
X20421530Y36354858D01*
X20409607Y36402455D01*
X20402408Y36450991D01*
X20400000Y36500000D01*
X20400000Y37500000D01*
X20402408Y37549009D01*
X20409607Y37597545D01*
X20421530Y37645142D01*
X20438060Y37691342D01*
X20459039Y37735698D01*
X20484265Y37777785D01*
X20513495Y37817197D01*
X20546447Y37853553D01*
X20582803Y37886505D01*
X20622215Y37915735D01*
X20664302Y37940961D01*
X20708658Y37961940D01*
X20754858Y37978470D01*
X20802455Y37990393D01*
X20850991Y37997592D01*
X20900000Y38000000D01*
X25900000Y38000000D01*
X25949009Y37997592D01*
G37*
%TD.AperFunction*%
%TA.AperFunction,SMDPad,CuDef*%
%TO.P,JP1,2*%
%TO.N,Net-(C15-Pad2)*%
G36*
X25949009Y35697592D02*
G01*
X25997545Y35690393D01*
X26045142Y35678470D01*
X26091342Y35661940D01*
X26135698Y35640961D01*
X26177785Y35615735D01*
X26217197Y35586505D01*
X26253553Y35553553D01*
X26286505Y35517197D01*
X26315735Y35477785D01*
X26340961Y35435698D01*
X26361940Y35391342D01*
X26378470Y35345142D01*
X26390393Y35297545D01*
X26397592Y35249009D01*
X26400000Y35200000D01*
X26400000Y34200000D01*
X26397592Y34150991D01*
X26390393Y34102455D01*
X26378470Y34054858D01*
X26361940Y34008658D01*
X26340961Y33964302D01*
X26315735Y33922215D01*
X26286505Y33882803D01*
X26253553Y33846447D01*
X26217197Y33813495D01*
X26177785Y33784265D01*
X26135698Y33759039D01*
X26091342Y33738060D01*
X26045142Y33721530D01*
X25997545Y33709607D01*
X25949009Y33702408D01*
X25900000Y33700000D01*
X20900000Y33700000D01*
X20850991Y33702408D01*
X20802455Y33709607D01*
X20754858Y33721530D01*
X20708658Y33738060D01*
X20664302Y33759039D01*
X20622215Y33784265D01*
X20582803Y33813495D01*
X20546447Y33846447D01*
X20513495Y33882803D01*
X20484265Y33922215D01*
X20459039Y33964302D01*
X20438060Y34008658D01*
X20421530Y34054858D01*
X20409607Y34102455D01*
X20402408Y34150991D01*
X20400000Y34200000D01*
X20400000Y35200000D01*
X20402408Y35249009D01*
X20409607Y35297545D01*
X20421530Y35345142D01*
X20438060Y35391342D01*
X20459039Y35435698D01*
X20484265Y35477785D01*
X20513495Y35517197D01*
X20546447Y35553553D01*
X20582803Y35586505D01*
X20622215Y35615735D01*
X20664302Y35640961D01*
X20708658Y35661940D01*
X20754858Y35678470D01*
X20802455Y35690393D01*
X20850991Y35697592D01*
X20900000Y35700000D01*
X25900000Y35700000D01*
X25949009Y35697592D01*
G37*
%TD.AperFunction*%
%TD*%
D12*
%TO.P,J3,2*%
%TO.N,GND*%
X19500000Y47000000D03*
%TO.P,J3,3*%
%TO.N,PYRO*%
X25200000Y47000000D03*
%TO.P,J3,1*%
%TO.N,+12V*%
X13800000Y47000000D03*
%TD*%
D13*
%TO.P,SW1,2*%
%TO.N,Net-(Q1-Pad2)*%
X40780000Y12300000D03*
%TO.P,SW1,1*%
%TO.N,GND*%
X30620000Y12300000D03*
%TO.P,SW1,3*%
%TO.N,N/C*%
X35700000Y12300000D03*
D10*
%TO.P,SW1,0*%
X32450000Y8000000D03*
X38950000Y8000000D03*
%TD*%
D13*
%TO.P,SW3,2*%
%TO.N,Net-(SW3-Pad2)*%
X55780000Y12300000D03*
%TO.P,SW3,1*%
%TO.N,+12V*%
X45620000Y12300000D03*
%TO.P,SW3,3*%
%TO.N,GND*%
X50700000Y12300000D03*
D10*
%TO.P,SW3,0*%
%TO.N,N/C*%
X47450000Y8000000D03*
X53950000Y8000000D03*
%TD*%
D13*
%TO.P,SW2,1*%
%TO.N,GND*%
X30620000Y-12300000D03*
%TO.P,SW2,2*%
%TO.N,Net-(Q1-Pad2)*%
X40780000Y-12300000D03*
%TO.P,SW2,3*%
%TO.N,N/C*%
X35700000Y-12300000D03*
D10*
%TO.P,SW2,0*%
X32450000Y-8000000D03*
X38950000Y-8000000D03*
%TD*%
D13*
%TO.P,SW4,1*%
%TO.N,Net-(SW3-Pad2)*%
X45620000Y-12300000D03*
%TO.P,SW4,2*%
%TO.N,PYRO*%
X55780000Y-12300000D03*
%TO.P,SW4,3*%
%TO.N,GND*%
X50700000Y-12300000D03*
D10*
%TO.P,SW4,0*%
%TO.N,N/C*%
X47450000Y-8000000D03*
X53950000Y-8000000D03*
%TD*%
D14*
%TO.P,U5,19*%
%TO.N,+5V*%
X-25700000Y30500000D03*
%TO.P,U5,18*%
%TO.N,GND*%
X-20000000Y30500000D03*
%TO.P,U5,17*%
%TO.N,+12V*%
X-14300000Y30500000D03*
D15*
%TO.P,U5,0*%
%TO.N,GND*%
X-5697056Y28302944D03*
X-2302944Y28302944D03*
X-5697056Y31697056D03*
X-6400000Y30000000D03*
X-4000000Y27600000D03*
X-1600000Y30000000D03*
X-4000000Y32400000D03*
D16*
X-4000000Y30000000D03*
D15*
X-2302944Y31697056D03*
X-5697056Y-33697056D03*
X-2302944Y-33697056D03*
X-5697056Y-30302944D03*
X-6400000Y-32000000D03*
X-4000000Y-34400000D03*
X-1600000Y-32000000D03*
X-4000000Y-29600000D03*
D16*
X-4000000Y-32000000D03*
D15*
X-2302944Y-30302944D03*
X-37697056Y-33697056D03*
X-34302944Y-33697056D03*
X-37697056Y-30302944D03*
X-38400000Y-32000000D03*
X-36000000Y-34400000D03*
X-33600000Y-32000000D03*
X-36000000Y-29600000D03*
D16*
X-36000000Y-32000000D03*
D15*
X-34302944Y-30302944D03*
X-37697056Y28302944D03*
X-34302944Y28302944D03*
X-37697056Y31697056D03*
X-38400000Y30000000D03*
X-36000000Y27600000D03*
X-33600000Y30000000D03*
X-36000000Y32400000D03*
D16*
X-36000000Y30000000D03*
D15*
X-34302944Y31697056D03*
%TD*%
D17*
%TO.N,N/C*%
%TO.C,U4*%
X-17825000Y41325000D03*
X-17825000Y40550000D03*
X-17825000Y39775000D03*
X-18600000Y41325000D03*
X-18600000Y40550000D03*
X-18600000Y39775000D03*
X-19375000Y41325000D03*
X-19375000Y40550000D03*
X-19375000Y39775000D03*
%TA.AperFunction,Conductor*%
D18*
G36*
X-17750495Y41623796D02*
G01*
X-17726227Y41620196D01*
X-17702428Y41614235D01*
X-17679329Y41605970D01*
X-17657150Y41595480D01*
X-17636107Y41582868D01*
X-17616401Y41568253D01*
X-17598223Y41551777D01*
X-17581747Y41533599D01*
X-17567132Y41513893D01*
X-17554520Y41492850D01*
X-17544030Y41470671D01*
X-17535765Y41447572D01*
X-17529804Y41423773D01*
X-17526204Y41399505D01*
X-17525000Y41375001D01*
X-17525000Y39724999D01*
X-17526204Y39700495D01*
X-17529804Y39676227D01*
X-17535765Y39652428D01*
X-17544030Y39629329D01*
X-17554520Y39607150D01*
X-17567132Y39586107D01*
X-17581747Y39566401D01*
X-17598223Y39548223D01*
X-17616401Y39531747D01*
X-17636107Y39517132D01*
X-17657150Y39504520D01*
X-17679329Y39494030D01*
X-17702428Y39485765D01*
X-17726227Y39479804D01*
X-17750495Y39476204D01*
X-17774999Y39475000D01*
X-19425001Y39475000D01*
X-19449505Y39476204D01*
X-19473773Y39479804D01*
X-19497572Y39485765D01*
X-19520671Y39494030D01*
X-19542850Y39504520D01*
X-19563893Y39517132D01*
X-19583599Y39531747D01*
X-19601777Y39548223D01*
X-19618253Y39566401D01*
X-19632868Y39586107D01*
X-19645480Y39607150D01*
X-19655970Y39629329D01*
X-19664235Y39652428D01*
X-19670196Y39676227D01*
X-19673796Y39700495D01*
X-19675000Y39724999D01*
X-19675000Y41375001D01*
X-19673796Y41399505D01*
X-19670196Y41423773D01*
X-19664235Y41447572D01*
X-19655970Y41470671D01*
X-19645480Y41492850D01*
X-19632868Y41513893D01*
X-19618253Y41533599D01*
X-19601777Y41551777D01*
X-19583599Y41568253D01*
X-19563893Y41582868D01*
X-19542850Y41595480D01*
X-19520671Y41605970D01*
X-19497572Y41614235D01*
X-19473773Y41620196D01*
X-19449505Y41623796D01*
X-19425001Y41625000D01*
X-17774999Y41625000D01*
X-17750495Y41623796D01*
G37*
%TD.AperFunction*%
%TD*%
D19*
%TO.N,GND*%
%TO.C,U3*%
X16215000Y37985000D03*
X16215000Y39235000D03*
X17465000Y37985000D03*
X17465000Y39235000D03*
%TA.AperFunction,Conductor*%
D18*
G36*
X17489505Y39483796D02*
G01*
X17513773Y39480196D01*
X17537572Y39474235D01*
X17560671Y39465970D01*
X17582850Y39455480D01*
X17603893Y39442868D01*
X17623599Y39428253D01*
X17641777Y39411777D01*
X17658253Y39393599D01*
X17672868Y39373893D01*
X17685480Y39352850D01*
X17695970Y39330671D01*
X17704235Y39307572D01*
X17710196Y39283773D01*
X17713796Y39259505D01*
X17715000Y39235001D01*
X17715000Y37984999D01*
X17713796Y37960495D01*
X17710196Y37936227D01*
X17704235Y37912428D01*
X17695970Y37889329D01*
X17685480Y37867150D01*
X17672868Y37846107D01*
X17658253Y37826401D01*
X17641777Y37808223D01*
X17623599Y37791747D01*
X17603893Y37777132D01*
X17582850Y37764520D01*
X17560671Y37754030D01*
X17537572Y37745765D01*
X17513773Y37739804D01*
X17489505Y37736204D01*
X17465001Y37735000D01*
X16214999Y37735000D01*
X16190495Y37736204D01*
X16166227Y37739804D01*
X16142428Y37745765D01*
X16119329Y37754030D01*
X16097150Y37764520D01*
X16076107Y37777132D01*
X16056401Y37791747D01*
X16038223Y37808223D01*
X16021747Y37826401D01*
X16007132Y37846107D01*
X15994520Y37867150D01*
X15984030Y37889329D01*
X15975765Y37912428D01*
X15969804Y37936227D01*
X15966204Y37960495D01*
X15965000Y37984999D01*
X15965000Y39235001D01*
X15966204Y39259505D01*
X15969804Y39283773D01*
X15975765Y39307572D01*
X15984030Y39330671D01*
X15994520Y39352850D01*
X16007132Y39373893D01*
X16021747Y39393599D01*
X16038223Y39411777D01*
X16056401Y39428253D01*
X16076107Y39442868D01*
X16097150Y39455480D01*
X16119329Y39465970D01*
X16142428Y39474235D01*
X16166227Y39480196D01*
X16190495Y39483796D01*
X16214999Y39485000D01*
X17465001Y39485000D01*
X17489505Y39483796D01*
G37*
%TD.AperFunction*%
%TD*%
D20*
%TO.P,TH1,2*%
%TO.N,GND*%
X29200000Y23500000D03*
D21*
%TO.P,TH1,1*%
%TO.N,/NTC*%
X26660000Y23500000D03*
%TD*%
D10*
%TO.P,J7,2*%
%TO.N,GND*%
X-7350000Y37680000D03*
%TO.P,J7,1*%
%TO.N,+5V*%
X-7350000Y40220000D03*
%TD*%
%TO.P,J6,2*%
%TO.N,GND*%
X-350000Y37680000D03*
%TO.P,J6,1*%
%TO.N,+5V*%
X-350000Y40220000D03*
%TD*%
%TO.P,J4,2*%
%TO.N,GND*%
X6650000Y37680000D03*
%TO.P,J4,1*%
%TO.N,+5V*%
X6650000Y40220000D03*
%TD*%
%TA.AperFunction,ComponentPad*%
D22*
%TO.P,J2,1*%
%TO.N,/Vbat*%
G36*
X25901227Y26854804D02*
G01*
X25854329Y26869030D01*
X25811107Y26892133D01*
X25773223Y26923223D01*
X25742133Y26961107D01*
X25719030Y27004329D01*
X25704804Y27051227D01*
X25700000Y27100000D01*
X25700000Y28300000D01*
X25704804Y28348773D01*
X25719030Y28395671D01*
X25742133Y28438893D01*
X25773223Y28476777D01*
X25811107Y28507867D01*
X25854329Y28530970D01*
X25901227Y28545196D01*
X25950000Y28550000D01*
X27250000Y28550000D01*
X27298773Y28545196D01*
X27345671Y28530970D01*
X27388893Y28507867D01*
X27426777Y28476777D01*
X27826777Y28076777D01*
X27857867Y28038893D01*
X27880970Y27995671D01*
X27895196Y27948773D01*
X27900000Y27900000D01*
X27900000Y27100000D01*
X27895196Y27051227D01*
X27880970Y27004329D01*
X27857867Y26961107D01*
X27826777Y26923223D01*
X27788893Y26892133D01*
X27745671Y26869030D01*
X27698773Y26854804D01*
X27650000Y26850000D01*
X25950000Y26850000D01*
X25901227Y26854804D01*
G37*
%TD.AperFunction*%
D23*
%TO.P,J2,2*%
%TO.N,GND*%
X26800000Y30200000D03*
%TD*%
%TA.AperFunction,ComponentPad*%
D22*
%TO.P,J1,1*%
%TO.N,/Vcharge*%
G36*
X-19251227Y50495196D02*
G01*
X-19204329Y50480970D01*
X-19161107Y50457867D01*
X-19123223Y50426777D01*
X-19092133Y50388893D01*
X-19069030Y50345671D01*
X-19054804Y50298773D01*
X-19050000Y50250000D01*
X-19050000Y49050000D01*
X-19054804Y49001227D01*
X-19069030Y48954329D01*
X-19092133Y48911107D01*
X-19123223Y48873223D01*
X-19161107Y48842133D01*
X-19204329Y48819030D01*
X-19251227Y48804804D01*
X-19300000Y48800000D01*
X-21000000Y48800000D01*
X-21048773Y48804804D01*
X-21095671Y48819030D01*
X-21138893Y48842133D01*
X-21176777Y48873223D01*
X-21207867Y48911107D01*
X-21230970Y48954329D01*
X-21245196Y49001227D01*
X-21250000Y49050000D01*
X-21250000Y49850000D01*
X-21245196Y49898773D01*
X-21230970Y49945671D01*
X-21207867Y49988893D01*
X-21176777Y50026777D01*
X-20776777Y50426777D01*
X-20738893Y50457867D01*
X-20695671Y50480970D01*
X-20648773Y50495196D01*
X-20600000Y50500000D01*
X-19300000Y50500000D01*
X-19251227Y50495196D01*
G37*
%TD.AperFunction*%
D23*
%TO.P,J1,2*%
%TO.N,GND*%
X-20150000Y52150000D03*
%TD*%
D15*
%TO.P,H4,1*%
%TO.N,GND*%
X32697056Y-38302944D03*
X31000000Y-37600000D03*
X29302944Y-38302944D03*
X28600000Y-40000000D03*
X29302944Y-41697056D03*
X31000000Y-42400000D03*
X32697056Y-41697056D03*
X33400000Y-40000000D03*
D16*
X31000000Y-40000000D03*
%TD*%
D15*
%TO.P,H3,1*%
%TO.N,GND*%
X-29302944Y-38302944D03*
X-31000000Y-37600000D03*
X-32697056Y-38302944D03*
X-33400000Y-40000000D03*
X-32697056Y-41697056D03*
X-31000000Y-42400000D03*
X-29302944Y-41697056D03*
X-28600000Y-40000000D03*
D16*
X-31000000Y-40000000D03*
%TD*%
D15*
%TO.P,H2,1*%
%TO.N,GND*%
X32697056Y41697056D03*
X31000000Y42400000D03*
X29302944Y41697056D03*
X28600000Y40000000D03*
X29302944Y38302944D03*
X31000000Y37600000D03*
X32697056Y38302944D03*
X33400000Y40000000D03*
D16*
X31000000Y40000000D03*
%TD*%
D15*
%TO.P,H1,1*%
%TO.N,GND*%
X-29302944Y41697056D03*
X-31000000Y42400000D03*
X-32697056Y41697056D03*
X-33400000Y40000000D03*
X-32697056Y38302944D03*
X-31000000Y37600000D03*
X-29302944Y38302944D03*
X-28600000Y40000000D03*
D16*
X-31000000Y40000000D03*
%TD*%
D24*
%TO.N,GND*%
X49800000Y20400000D03*
X51200000Y20400000D03*
X51200000Y19000000D03*
X49800000Y19000000D03*
X46600000Y27800000D03*
X45200000Y27800000D03*
X45200000Y29200000D03*
X-30000000Y-10000000D03*
X-50000000Y15000000D03*
X-50000000Y5000000D03*
X-50000000Y-5000000D03*
X-50000000Y-15000000D03*
X-40000000Y-10000000D03*
X-40000000Y-20000000D03*
X-30000000Y-20000000D03*
X25000000Y-20000000D03*
X35000000Y-20000000D03*
X35000000Y-30000000D03*
X25000000Y-30000000D03*
X15000000Y-30000000D03*
X5000000Y-30000000D03*
X-15000000Y-30000000D03*
X-30000000Y-30000000D03*
X25000000Y-40000000D03*
X20600000Y18600000D03*
X25000000Y50000000D03*
X15000000Y50000000D03*
X-25000000Y40000000D03*
X12600000Y-34600000D03*
D19*
X13400000Y35900000D03*
X13400000Y35100000D03*
X13400000Y34400000D03*
X14200000Y34400000D03*
X14200000Y35900000D03*
X18700000Y36200000D03*
X18700000Y37000000D03*
X50000000Y-20000000D03*
X50000000Y-30000000D03*
X-15000000Y-40000000D03*
X15000000Y-40000000D03*
X-50000000Y-25000000D03*
D24*
%TO.N,+12V*%
X50200000Y24600000D03*
X50200000Y23400000D03*
X50200000Y22200000D03*
X47800000Y23400000D03*
X49000000Y23400000D03*
X49000000Y22200000D03*
X47800000Y22200000D03*
D19*
%TO.N,GND*%
X-17024272Y38675728D03*
%TO.N,Net-(C15-Pad2)*%
X16490000Y40850000D03*
X16100000Y35850000D03*
X16900000Y35850000D03*
X16900000Y35050000D03*
X16100000Y35050000D03*
X16100000Y34250000D03*
X16900000Y34250000D03*
D24*
%TO.N,/~ACOK*%
X-41365693Y-13565693D03*
D19*
X-22000001Y45800000D03*
D24*
%TO.N,/~CHGOK*%
X-38300000Y-23000000D03*
D19*
X-23000000Y44400000D03*
D24*
%TO.N,Net-(Q2-Pad2)*%
X45300000Y23554998D03*
X46500000Y26800000D03*
%TO.N,Net-(L2-Pad2)*%
X-17513495Y37500009D03*
X-11976265Y39274662D03*
%TO.N,Net-(Q1-Pad2)*%
X33400000Y23600000D03*
%TO.N,/NTC*%
X-40055338Y33755338D03*
D19*
X-18300000Y43400000D03*
X-31000000Y43749990D03*
D24*
%TO.N,/SUPPLY_CURRENT_SENSE*%
X40300000Y30800000D03*
X2000000Y29200000D03*
%TO.N,/Vbat*%
X-18829799Y37440203D03*
X-12200000Y38300000D03*
%TD*%
D25*
%TO.N,Net-(SW3-Pad2)*%
X46406002Y-12300000D02*
X45620000Y-12300000D01*
X50200000Y-8506002D02*
X46406002Y-12300000D01*
X50200000Y7506002D02*
X50200000Y-8506002D01*
X55780000Y12300000D02*
X54993998Y12300000D01*
X54993998Y12300000D02*
X50200000Y7506002D01*
%TO.N,GND*%
X6660000Y37680000D02*
X-340000Y37680000D01*
X-7340000Y37680000D02*
X-340000Y37680000D01*
X-20000000Y31750000D02*
X-20000000Y30500000D01*
X-18649999Y33100001D02*
X-20000000Y31750000D01*
X-11919999Y33100001D02*
X-18649999Y33100001D01*
X-7340000Y37680000D02*
X-11919999Y33100001D01*
%TO.N,+12V*%
X48200000Y23200000D02*
X48200000Y14880000D01*
X48400000Y23400000D02*
X48200000Y23200000D01*
X48200000Y14880000D02*
X45620000Y12300000D01*
X23500000Y32400000D02*
X11800000Y32400000D01*
X11800000Y32400000D02*
X11600000Y32600000D01*
X11000000Y44400000D02*
X13600000Y47000000D01*
X13600000Y47000000D02*
X13800000Y47000000D01*
X11800000Y32400000D02*
X11000000Y33200000D01*
X13800000Y32400000D02*
X11800000Y32400000D01*
X11600000Y32500000D02*
X12900000Y32500000D01*
X10800000Y33300000D02*
X11600000Y32500000D01*
X10800000Y34600000D02*
X10800000Y33300000D01*
X10700000Y34700000D02*
X10800000Y34600000D01*
X-7100000Y34700000D02*
X10700000Y34700000D01*
X-11300000Y30500000D02*
X-7100000Y34700000D01*
X-14300000Y30500000D02*
X-11300000Y30500000D01*
X11000000Y33200000D02*
X11000000Y43300000D01*
X11000000Y43300000D02*
X11000000Y44400000D01*
X-13270000Y51270000D02*
X-14500000Y51270000D01*
X-11500000Y49500000D02*
X-13270000Y51270000D01*
X-11500000Y45000000D02*
X-11500000Y49500000D01*
X-9800000Y43300000D02*
X-11500000Y45000000D01*
X11000000Y43300000D02*
X-9800000Y43300000D01*
X23900000Y32500000D02*
X40650000Y32500000D01*
X23800000Y32400000D02*
X23900000Y32500000D01*
X48200000Y29000000D02*
X48200000Y24000000D01*
X44700000Y32500000D02*
X48200000Y29000000D01*
X40800000Y32500000D02*
X44700000Y32500000D01*
%TO.N,+5V*%
X-7350000Y40220000D02*
X-350000Y40220000D01*
X-350000Y40220000D02*
X6650000Y40220000D01*
X-8251995Y39880001D02*
X-7911996Y40220000D01*
X-9550001Y38736001D02*
X-8406001Y39880001D01*
X-9550001Y38581995D02*
X-9550001Y38736001D01*
X-7911996Y40220000D02*
X-7340000Y40220000D01*
X-12781996Y35350000D02*
X-9550001Y38581995D01*
X-8406001Y39880001D02*
X-8251995Y39880001D01*
X-20850000Y35350000D02*
X-12781996Y35350000D01*
X-25700000Y30500000D02*
X-20850000Y35350000D01*
%TO.N,Net-(C15-Pad2)*%
X23400000Y34700000D02*
X16900000Y34700000D01*
D26*
X17450000Y35850000D02*
X16100000Y35850000D01*
X18040010Y36440010D02*
X17450000Y35850000D01*
X18040010Y39959990D02*
X18040010Y36440010D01*
X17150000Y40850000D02*
X18040010Y39959990D01*
X16490000Y40850000D02*
X17150000Y40850000D01*
D27*
%TO.N,/~ACOK*%
X-41365693Y-13565693D02*
X-45200011Y-9731375D01*
X-45200011Y35397075D02*
X-34797086Y45800000D01*
X-45200011Y-9731375D02*
X-45200011Y35397075D01*
X-34797086Y45800000D02*
X-22353554Y45800000D01*
X-22353554Y45800000D02*
X-22000001Y45800000D01*
%TO.N,/~CHGOK*%
X-23353553Y44400000D02*
X-23000000Y44400000D01*
X-35348543Y44400000D02*
X-23353553Y44400000D01*
X-44600000Y35148543D02*
X-35348543Y44400000D01*
X-38300000Y-15500000D02*
X-44600000Y-9200000D01*
X-38300000Y-23000000D02*
X-38300000Y-15500000D01*
X-44600000Y-9200000D02*
X-44600000Y35148543D01*
D25*
%TO.N,PYRO*%
X25200000Y42200000D02*
X25200000Y47000000D01*
X23400000Y37000000D02*
X23400000Y40400000D01*
X23400000Y40400000D02*
X25200000Y42200000D01*
D28*
%TO.N,Net-(Q1-Pad2)*%
X42029999Y-11050001D02*
X40780000Y-12300000D01*
X45048588Y-8031412D02*
X42029999Y-11050001D01*
X45048588Y6263646D02*
X45048588Y-8031412D01*
X40780000Y10532234D02*
X45048588Y6263646D01*
X40780000Y12300000D02*
X40780000Y10532234D01*
D29*
%TO.N,Net-(Q2-Pad2)*%
X45300000Y23554998D02*
X45300000Y25600000D01*
X45300000Y25600000D02*
X46500000Y26800000D01*
%TO.N,Net-(L2-Pad2)*%
X-12541950Y39274662D02*
X-11976265Y39274662D01*
X-12725338Y39274662D02*
X-12541950Y39274662D01*
X-14499991Y37500009D02*
X-12725338Y39274662D01*
X-17513495Y37500009D02*
X-14499991Y37500009D01*
D28*
%TO.N,Net-(Q1-Pad2)*%
X33400000Y19680000D02*
X33400000Y23600000D01*
X40780000Y12300000D02*
X33400000Y19680000D01*
D27*
%TO.N,/NTC*%
X-35150010Y43749990D02*
X-31353553Y43749990D01*
X-31353553Y43749990D02*
X-31000000Y43749990D01*
X-40055338Y38844662D02*
X-35150010Y43749990D01*
X-40055338Y33755338D02*
X-40055338Y38844662D01*
X-18300000Y43400000D02*
X-18649990Y43749990D01*
X-18649990Y43749990D02*
X-30646447Y43749990D01*
X-30646447Y43749990D02*
X-31000000Y43749990D01*
D29*
%TO.N,/SUPPLY_CURRENT_SENSE*%
X2263706Y29200000D02*
X2000000Y29200000D01*
X5071351Y26391682D02*
X5069816Y26393890D01*
X5717506Y26259276D02*
X5716026Y26261521D01*
X5069816Y26393890D02*
X2263706Y29200000D01*
X5393328Y26329687D02*
X5071351Y26391682D01*
X30197903Y26200000D02*
X5989263Y26200000D01*
X5394835Y26327461D02*
X5393328Y26329687D01*
X5989263Y26200000D02*
X5717506Y26259276D01*
X34847914Y30850011D02*
X30197903Y26200000D01*
X39684304Y30850011D02*
X34847914Y30850011D01*
X39734315Y30800000D02*
X39684304Y30850011D01*
X5716026Y26261521D02*
X5394835Y26327461D01*
X40300000Y30800000D02*
X39734315Y30800000D01*
%TO.N,/Vbat*%
X-18829799Y37440203D02*
X-18139595Y36749999D01*
X-18139595Y36749999D02*
X-13750001Y36749999D01*
X-13750001Y36749999D02*
X-12599999Y37900001D01*
X-12599999Y37900001D02*
X-12200000Y38300000D01*
%TD*%
D30*
%TO.N,GND*%
G36*
X-13522990Y54634312D02*
G01*
X-12796177Y54563048D01*
X-12113889Y54357052D01*
X-11484603Y54022456D01*
X-10932288Y53572000D01*
X-10477991Y53022849D01*
X-10139008Y52395915D01*
X-9928253Y51715075D01*
X-9852000Y50989574D01*
X-9851999Y48977198D01*
X-9851940Y48976600D01*
X-9851901Y48965342D01*
X-9850347Y48950047D01*
X-9850455Y48934662D01*
X-9849975Y48929771D01*
X-9768373Y48153383D01*
X-9761956Y48122123D01*
X-9755980Y48090794D01*
X-9754559Y48086089D01*
X-9523711Y47340339D01*
X-9511364Y47310968D01*
X-9499397Y47281348D01*
X-9497089Y47277008D01*
X-9125786Y46590298D01*
X-9107943Y46563844D01*
X-9090477Y46537154D01*
X-9087371Y46533345D01*
X-8589757Y45931834D01*
X-8567180Y45909414D01*
X-8544799Y45886559D01*
X-8541011Y45883426D01*
X-7936041Y45390025D01*
X-7909483Y45372380D01*
X-7883144Y45354345D01*
X-7878820Y45352007D01*
X-7189536Y44985508D01*
X-7160046Y44973353D01*
X-7130717Y44960783D01*
X-7126021Y44959330D01*
X-6378676Y44733693D01*
X-6347415Y44727503D01*
X-6316174Y44720862D01*
X-6311288Y44720349D01*
X-6311286Y44720349D01*
X-5534564Y44644191D01*
X-5517292Y44642490D01*
X5517292Y44642490D01*
X5517901Y44642550D01*
X5529148Y44642589D01*
X5544443Y44644143D01*
X5559828Y44644035D01*
X5564719Y44644515D01*
X6341107Y44726117D01*
X6372367Y44732534D01*
X6403696Y44738510D01*
X6408401Y44739931D01*
X7154151Y44970779D01*
X7183522Y44983126D01*
X7213142Y44995093D01*
X7217482Y44997401D01*
X7904192Y45368704D01*
X7930646Y45386547D01*
X7957336Y45404013D01*
X7961145Y45407119D01*
X8562656Y45904733D01*
X8585076Y45927310D01*
X8607931Y45949691D01*
X8611064Y45953479D01*
X9104465Y46558449D01*
X9122110Y46585007D01*
X9140145Y46611346D01*
X9142483Y46615670D01*
X9508982Y47304954D01*
X9521137Y47334444D01*
X9533707Y47363773D01*
X9535160Y47368469D01*
X9760797Y48115814D01*
X9766987Y48147075D01*
X9773628Y48178316D01*
X9774141Y48183204D01*
X9850320Y48960141D01*
X9852000Y48977198D01*
X9852000Y50977275D01*
X9923131Y51702731D01*
X10128815Y52383988D01*
X10462910Y53012329D01*
X10912684Y53563806D01*
X11461005Y54017418D01*
X12086997Y54355891D01*
X12766805Y54566327D01*
X13491135Y54642457D01*
X13500341Y54642489D01*
X21920189Y54625036D01*
X24599471Y53473847D01*
X27273753Y52160754D01*
X29878184Y50714039D01*
X32406085Y49137409D01*
X34850967Y47434916D01*
X37206594Y45610901D01*
X39466917Y43670050D01*
X41626158Y41617321D01*
X43678781Y39457977D01*
X45619513Y37197569D01*
X47443419Y34841843D01*
X49145797Y32396868D01*
X50722291Y29868907D01*
X52168875Y27264412D01*
X53481837Y24590066D01*
X54657818Y21852708D01*
X55693796Y19059379D01*
X56587129Y16217202D01*
X57335521Y13333474D01*
X57937056Y10415587D01*
X58390202Y7470973D01*
X58693789Y4507218D01*
X58847042Y1531909D01*
X58849567Y-1447358D01*
X58701362Y-4422921D01*
X58402803Y-7387186D01*
X57954654Y-10332559D01*
X57358071Y-13251449D01*
X56614564Y-16136468D01*
X55726051Y-18980162D01*
X54694818Y-21775231D01*
X53523483Y-24514574D01*
X52215063Y-27191136D01*
X50772896Y-29798086D01*
X49200683Y-32328732D01*
X47502451Y-34776594D01*
X45682566Y-37135383D01*
X43745651Y-39399102D01*
X41696703Y-41561914D01*
X39539582Y-43619607D01*
X38356649Y-44661341D01*
X-38374486Y-44659227D01*
X-40495400Y-42749626D01*
X-42606369Y-40646098D01*
X-44608198Y-38438479D01*
X-46495796Y-36132380D01*
X-48264282Y-33733767D01*
X-49909172Y-31248719D01*
X-51426224Y-28683642D01*
X-52811550Y-26045118D01*
X-54061616Y-23339871D01*
X-55173218Y-20574838D01*
X-56143501Y-17757118D01*
X-56969985Y-14893917D01*
X-57650554Y-11992563D01*
X-58183464Y-9060492D01*
X-58567348Y-6105216D01*
X-58801225Y-3134317D01*
X-58884495Y-155362D01*
X-58816945Y2823989D01*
X-58598750Y5796072D01*
X-58230465Y8753339D01*
X-57713034Y11688182D01*
X-57047784Y14593088D01*
X-56236418Y17460620D01*
X-55281019Y20283413D01*
X-54184024Y23054273D01*
X-52948249Y25766079D01*
X-51576867Y28411876D01*
X-50073369Y30984926D01*
X-48441627Y33478602D01*
X-47042712Y35397075D01*
X-45729560Y35397075D01*
X-45727010Y35371184D01*
X-45727011Y-9705494D01*
X-45729560Y-9731375D01*
X-45727011Y-9757255D01*
X-45719385Y-9834684D01*
X-45689250Y-9934024D01*
X-45640315Y-10025577D01*
X-45574459Y-10105823D01*
X-45554345Y-10122330D01*
X-42092693Y-13583984D01*
X-42092693Y-13637296D01*
X-42064755Y-13777751D01*
X-42009952Y-13910057D01*
X-41930391Y-14029129D01*
X-41829129Y-14130391D01*
X-41710057Y-14209952D01*
X-41577751Y-14264755D01*
X-41437296Y-14292693D01*
X-41294090Y-14292693D01*
X-41153635Y-14264755D01*
X-41021329Y-14209952D01*
X-40902257Y-14130391D01*
X-40800995Y-14029129D01*
X-40721434Y-13910057D01*
X-40696186Y-13849103D01*
X-38826999Y-15718291D01*
X-38827000Y-22498866D01*
X-38864698Y-22536564D01*
X-38944259Y-22655636D01*
X-38999062Y-22787942D01*
X-39027000Y-22928397D01*
X-39027000Y-23071603D01*
X-38999062Y-23212058D01*
X-38944259Y-23344364D01*
X-38864698Y-23463436D01*
X-38763436Y-23564698D01*
X-38644364Y-23644259D01*
X-38512058Y-23699062D01*
X-38371603Y-23727000D01*
X-38228397Y-23727000D01*
X-38087942Y-23699062D01*
X-37955636Y-23644259D01*
X-37836564Y-23564698D01*
X-37735302Y-23463436D01*
X-37655741Y-23344364D01*
X-37600938Y-23212058D01*
X-37573000Y-23071603D01*
X-37573000Y-22928397D01*
X-37600938Y-22787942D01*
X-37655741Y-22655636D01*
X-37735302Y-22536564D01*
X-37773000Y-22498866D01*
X-37773000Y-15525877D01*
X-37770451Y-15499999D01*
X-37773000Y-15474119D01*
X-37780626Y-15396690D01*
X-37810761Y-15297350D01*
X-37859696Y-15205798D01*
X-37925552Y-15125552D01*
X-37945661Y-15109049D01*
X-44073000Y-8981711D01*
X-44073000Y22517291D01*
X-41352000Y22517291D01*
X-41351999Y2482708D01*
X-41351940Y2482110D01*
X-41351901Y2470852D01*
X-41350347Y2455557D01*
X-41350455Y2440172D01*
X-41349975Y2435281D01*
X-41268373Y1658893D01*
X-41261956Y1627633D01*
X-41255980Y1596304D01*
X-41254559Y1591599D01*
X-41023711Y845849D01*
X-41011364Y816478D01*
X-40999397Y786858D01*
X-40997089Y782518D01*
X-40625786Y95808D01*
X-40607943Y69354D01*
X-40590477Y42664D01*
X-40587371Y38855D01*
X-40089757Y-562656D01*
X-40067180Y-585076D01*
X-40044799Y-607931D01*
X-40041011Y-611064D01*
X-39436041Y-1104465D01*
X-39409483Y-1122110D01*
X-39383144Y-1140145D01*
X-39378820Y-1142483D01*
X-38689536Y-1508982D01*
X-38660046Y-1521137D01*
X-38630717Y-1533707D01*
X-38626021Y-1535160D01*
X-37878676Y-1760797D01*
X-37847415Y-1766987D01*
X-37816174Y-1773628D01*
X-37811288Y-1774141D01*
X-37811286Y-1774141D01*
X-37034564Y-1850299D01*
X-37017292Y-1852000D01*
X-30017215Y-1852000D01*
X-29291759Y-1923131D01*
X-28610502Y-2128815D01*
X-27982161Y-2462910D01*
X-27430684Y-2912684D01*
X-26977072Y-3461005D01*
X-26638599Y-4086997D01*
X-26428163Y-4766805D01*
X-26352033Y-5491135D01*
X-26352000Y-5500648D01*
X-26351999Y-22517292D01*
X-26351940Y-22517890D01*
X-26351901Y-22529148D01*
X-26350347Y-22544443D01*
X-26350455Y-22559828D01*
X-26349975Y-22564719D01*
X-26268373Y-23341107D01*
X-26261956Y-23372367D01*
X-26255980Y-23403696D01*
X-26254559Y-23408401D01*
X-26023711Y-24154151D01*
X-26011364Y-24183522D01*
X-25999397Y-24213142D01*
X-25997089Y-24217482D01*
X-25625786Y-24904192D01*
X-25607943Y-24930646D01*
X-25590477Y-24957336D01*
X-25587371Y-24961145D01*
X-25089757Y-25562656D01*
X-25067180Y-25585076D01*
X-25044799Y-25607931D01*
X-25041011Y-25611064D01*
X-24436041Y-26104465D01*
X-24409483Y-26122110D01*
X-24383144Y-26140145D01*
X-24378820Y-26142483D01*
X-23689536Y-26508982D01*
X-23660046Y-26521137D01*
X-23630717Y-26533707D01*
X-23626021Y-26535160D01*
X-22878676Y-26760797D01*
X-22847415Y-26766987D01*
X-22816174Y-26773628D01*
X-22811288Y-26774141D01*
X-22811286Y-26774141D01*
X-22034564Y-26850299D01*
X-22017292Y-26852000D01*
X17292Y-26852000D01*
X23409Y-26851398D01*
X1860832Y-26787233D01*
X1861445Y-26787188D01*
X1862060Y-26787188D01*
X1886563Y-26785388D01*
X3909216Y-26565658D01*
X3910420Y-26565480D01*
X3911658Y-26565385D01*
X3935677Y-26561752D01*
X3935951Y-26561711D01*
X3935976Y-26561705D01*
X5935786Y-26187451D01*
X5936979Y-26187180D01*
X5938200Y-26186991D01*
X5962139Y-26181464D01*
X7927368Y-25654883D01*
X7928540Y-25654520D01*
X7929739Y-25654239D01*
X7952926Y-25646972D01*
X7953184Y-25646892D01*
X7953207Y-25646883D01*
X9872222Y-24971091D01*
X9873361Y-24970640D01*
X9874537Y-24970267D01*
X9897349Y-24961143D01*
X11758883Y-24140108D01*
X11759982Y-24139572D01*
X11761128Y-24139109D01*
X11783173Y-24128261D01*
X13576232Y-23166831D01*
X13577288Y-23166212D01*
X13578395Y-23165662D01*
X13599333Y-23153279D01*
X13599542Y-23153156D01*
X13599560Y-23153143D01*
X15313557Y-22056997D01*
X15314563Y-22056298D01*
X15315623Y-22055666D01*
X15335749Y-22041574D01*
X16960616Y-20817149D01*
X16961567Y-20816373D01*
X16962574Y-20815663D01*
X16981559Y-20800068D01*
X18507700Y-19454593D01*
X18508584Y-19453751D01*
X18509538Y-19452962D01*
X18527271Y-19435956D01*
X19945691Y-17977363D01*
X19946509Y-17976454D01*
X19947398Y-17975596D01*
X19963774Y-17957280D01*
X21266112Y-16394166D01*
X21266861Y-16393193D01*
X21267679Y-16392272D01*
X21282601Y-16372754D01*
X22461179Y-14714332D01*
X22461849Y-14713308D01*
X22462596Y-14712324D01*
X22475892Y-14691848D01*
X22475977Y-14691719D01*
X22475983Y-14691707D01*
X23523850Y-12947765D01*
X23524436Y-12946700D01*
X23525109Y-12945655D01*
X23536688Y-12924416D01*
X23536870Y-12924084D01*
X23536884Y-12924052D01*
X23927165Y-12144679D01*
X34123000Y-12144679D01*
X34123000Y-12455321D01*
X34183604Y-12759994D01*
X34302481Y-13046989D01*
X34475064Y-13305279D01*
X34694721Y-13524936D01*
X34953011Y-13697519D01*
X35240006Y-13816396D01*
X35544679Y-13877000D01*
X35855321Y-13877000D01*
X36159994Y-13816396D01*
X36446989Y-13697519D01*
X36705279Y-13524936D01*
X36924936Y-13305279D01*
X37097519Y-13046989D01*
X37216396Y-12759994D01*
X37277000Y-12455321D01*
X37277000Y-12144679D01*
X37216396Y-11840006D01*
X37097519Y-11553011D01*
X36924936Y-11294721D01*
X36705279Y-11075064D01*
X36446989Y-10902481D01*
X36159994Y-10783604D01*
X35855321Y-10723000D01*
X35544679Y-10723000D01*
X35240006Y-10783604D01*
X34953011Y-10902481D01*
X34694721Y-11075064D01*
X34475064Y-11294721D01*
X34302481Y-11553011D01*
X34183604Y-11840006D01*
X34123000Y-12144679D01*
X23927165Y-12144679D01*
X24447859Y-11104878D01*
X24448365Y-11103762D01*
X24448952Y-11102677D01*
X24458918Y-11080502D01*
X24459024Y-11080267D01*
X24459032Y-11080244D01*
X25227760Y-9196534D01*
X25228176Y-9195393D01*
X25228682Y-9194255D01*
X25237004Y-9171139D01*
X25654977Y-7869302D01*
X31123000Y-7869302D01*
X31123000Y-8130698D01*
X31173996Y-8387072D01*
X31274028Y-8628570D01*
X31419252Y-8845913D01*
X31604087Y-9030748D01*
X31821430Y-9175972D01*
X32062928Y-9276004D01*
X32319302Y-9327000D01*
X32580698Y-9327000D01*
X32837072Y-9276004D01*
X33078570Y-9175972D01*
X33295913Y-9030748D01*
X33480748Y-8845913D01*
X33625972Y-8628570D01*
X33726004Y-8387072D01*
X33777000Y-8130698D01*
X33777000Y-7869302D01*
X37623000Y-7869302D01*
X37623000Y-8130698D01*
X37673996Y-8387072D01*
X37774028Y-8628570D01*
X37919252Y-8845913D01*
X38104087Y-9030748D01*
X38321430Y-9175972D01*
X38562928Y-9276004D01*
X38819302Y-9327000D01*
X39080698Y-9327000D01*
X39337072Y-9276004D01*
X39578570Y-9175972D01*
X39795913Y-9030748D01*
X39980748Y-8845913D01*
X40125972Y-8628570D01*
X40226004Y-8387072D01*
X40277000Y-8130698D01*
X40277000Y-7869302D01*
X40226004Y-7612928D01*
X40125972Y-7371430D01*
X39980748Y-7154087D01*
X39795913Y-6969252D01*
X39578570Y-6824028D01*
X39337072Y-6723996D01*
X39080698Y-6673000D01*
X38819302Y-6673000D01*
X38562928Y-6723996D01*
X38321430Y-6824028D01*
X38104087Y-6969252D01*
X37919252Y-7154087D01*
X37774028Y-7371430D01*
X37673996Y-7612928D01*
X37623000Y-7869302D01*
X33777000Y-7869302D01*
X33726004Y-7612928D01*
X33625972Y-7371430D01*
X33480748Y-7154087D01*
X33295913Y-6969252D01*
X33078570Y-6824028D01*
X32837072Y-6723996D01*
X32580698Y-6673000D01*
X32319302Y-6673000D01*
X32062928Y-6723996D01*
X31821430Y-6824028D01*
X31604087Y-6969252D01*
X31419252Y-7154087D01*
X31274028Y-7371430D01*
X31173996Y-7612928D01*
X31123000Y-7869302D01*
X25654977Y-7869302D01*
X25858957Y-7233980D01*
X25859285Y-7232805D01*
X25859701Y-7231637D01*
X25866225Y-7207950D01*
X26337729Y-5228785D01*
X26337965Y-5227591D01*
X26338291Y-5226393D01*
X26342926Y-5202545D01*
X26342979Y-5202275D01*
X26342982Y-5202249D01*
X26661252Y-3192770D01*
X26661396Y-3191561D01*
X26661629Y-3190341D01*
X26664420Y-3166212D01*
X26664453Y-3165935D01*
X26664454Y-3165909D01*
X26827621Y-1137935D01*
X26827672Y-1136713D01*
X26827810Y-1135485D01*
X26828753Y-1110934D01*
X26830692Y-555465D01*
X26841879Y-591605D01*
X26854226Y-620976D01*
X26866193Y-650596D01*
X26868500Y-654935D01*
X26961325Y-826612D01*
X26979158Y-853050D01*
X26996635Y-879758D01*
X26999742Y-883567D01*
X27124146Y-1033945D01*
X27146759Y-1056400D01*
X27169104Y-1079219D01*
X27172892Y-1082351D01*
X27324134Y-1205701D01*
X27350676Y-1223336D01*
X27377031Y-1241381D01*
X27381354Y-1243719D01*
X27553677Y-1335344D01*
X27583167Y-1347499D01*
X27612496Y-1360069D01*
X27617191Y-1361523D01*
X27804027Y-1417932D01*
X27835304Y-1424125D01*
X27866528Y-1430762D01*
X27871416Y-1431275D01*
X28065650Y-1450320D01*
X28082708Y-1452000D01*
X43317292Y-1452000D01*
X43332678Y-1450485D01*
X43338884Y-1450528D01*
X43343776Y-1450048D01*
X43537873Y-1429647D01*
X43569145Y-1423228D01*
X43600462Y-1417254D01*
X43605165Y-1415834D01*
X43605171Y-1415832D01*
X43791605Y-1358121D01*
X43820976Y-1345774D01*
X43850596Y-1333807D01*
X43854935Y-1331500D01*
X44026612Y-1238675D01*
X44053050Y-1220842D01*
X44079758Y-1203365D01*
X44083567Y-1200258D01*
X44221589Y-1086076D01*
X44221589Y-7688856D01*
X41473958Y-10436489D01*
X41473947Y-10436498D01*
X41145615Y-10764831D01*
X40935321Y-10723000D01*
X40624679Y-10723000D01*
X40320006Y-10783604D01*
X40033011Y-10902481D01*
X39774721Y-11075064D01*
X39555064Y-11294721D01*
X39382481Y-11553011D01*
X39263604Y-11840006D01*
X39203000Y-12144679D01*
X39203000Y-12455321D01*
X39263604Y-12759994D01*
X39382481Y-13046989D01*
X39555064Y-13305279D01*
X39774721Y-13524936D01*
X40033011Y-13697519D01*
X40320006Y-13816396D01*
X40624679Y-13877000D01*
X40935321Y-13877000D01*
X41239994Y-13816396D01*
X41526989Y-13697519D01*
X41785279Y-13524936D01*
X42004936Y-13305279D01*
X42177519Y-13046989D01*
X42296396Y-12759994D01*
X42357000Y-12455321D01*
X42357000Y-12144679D01*
X44043000Y-12144679D01*
X44043000Y-12455321D01*
X44103604Y-12759994D01*
X44222481Y-13046989D01*
X44395064Y-13305279D01*
X44614721Y-13524936D01*
X44873011Y-13697519D01*
X45160006Y-13816396D01*
X45464679Y-13877000D01*
X45775321Y-13877000D01*
X46079994Y-13816396D01*
X46366989Y-13697519D01*
X46472761Y-13626845D01*
X46666139Y-13607799D01*
X46916280Y-13531919D01*
X47146810Y-13408698D01*
X47348872Y-13242870D01*
X47390427Y-13192235D01*
X48437983Y-12144679D01*
X54203000Y-12144679D01*
X54203000Y-12455321D01*
X54263604Y-12759994D01*
X54382481Y-13046989D01*
X54555064Y-13305279D01*
X54774721Y-13524936D01*
X55033011Y-13697519D01*
X55320006Y-13816396D01*
X55624679Y-13877000D01*
X55935321Y-13877000D01*
X56239994Y-13816396D01*
X56526989Y-13697519D01*
X56785279Y-13524936D01*
X57004936Y-13305279D01*
X57177519Y-13046989D01*
X57296396Y-12759994D01*
X57357000Y-12455321D01*
X57357000Y-12144679D01*
X57296396Y-11840006D01*
X57177519Y-11553011D01*
X57004936Y-11294721D01*
X56785279Y-11075064D01*
X56526989Y-10902481D01*
X56239994Y-10783604D01*
X55935321Y-10723000D01*
X55624679Y-10723000D01*
X55320006Y-10783604D01*
X55033011Y-10902481D01*
X54774721Y-11075064D01*
X54555064Y-11294721D01*
X54382481Y-11553011D01*
X54263604Y-11840006D01*
X54203000Y-12144679D01*
X48437983Y-12144679D01*
X51092240Y-9490423D01*
X51142870Y-9448872D01*
X51187308Y-9394724D01*
X51308697Y-9246812D01*
X51431919Y-9016280D01*
X51441901Y-8983373D01*
X51507799Y-8766139D01*
X51527000Y-8571186D01*
X51527000Y-8571174D01*
X51533419Y-8506003D01*
X51527000Y-8440831D01*
X51527000Y-7869302D01*
X52623000Y-7869302D01*
X52623000Y-8130698D01*
X52673996Y-8387072D01*
X52774028Y-8628570D01*
X52919252Y-8845913D01*
X53104087Y-9030748D01*
X53321430Y-9175972D01*
X53562928Y-9276004D01*
X53819302Y-9327000D01*
X54080698Y-9327000D01*
X54337072Y-9276004D01*
X54578570Y-9175972D01*
X54795913Y-9030748D01*
X54980748Y-8845913D01*
X55125972Y-8628570D01*
X55226004Y-8387072D01*
X55277000Y-8130698D01*
X55277000Y-7869302D01*
X55226004Y-7612928D01*
X55125972Y-7371430D01*
X54980748Y-7154087D01*
X54795913Y-6969252D01*
X54578570Y-6824028D01*
X54337072Y-6723996D01*
X54080698Y-6673000D01*
X53819302Y-6673000D01*
X53562928Y-6723996D01*
X53321430Y-6824028D01*
X53104087Y-6969252D01*
X52919252Y-7154087D01*
X52774028Y-7371430D01*
X52673996Y-7612928D01*
X52623000Y-7869302D01*
X51527000Y-7869302D01*
X51527000Y6956342D01*
X52623000Y8052342D01*
X52623000Y7869302D01*
X52673996Y7612928D01*
X52774028Y7371430D01*
X52919252Y7154087D01*
X53104087Y6969252D01*
X53321430Y6824028D01*
X53562928Y6723996D01*
X53819302Y6673000D01*
X54080698Y6673000D01*
X54337072Y6723996D01*
X54578570Y6824028D01*
X54795913Y6969252D01*
X54980748Y7154087D01*
X55125972Y7371430D01*
X55226004Y7612928D01*
X55277000Y7869302D01*
X55277000Y8130698D01*
X55226004Y8387072D01*
X55125972Y8628570D01*
X54980748Y8845913D01*
X54795913Y9030748D01*
X54578570Y9175972D01*
X54337072Y9276004D01*
X54080698Y9327000D01*
X53897659Y9327000D01*
X55348579Y10777920D01*
X55624679Y10723000D01*
X55935321Y10723000D01*
X56239994Y10783604D01*
X56526989Y10902481D01*
X56785279Y11075064D01*
X57004936Y11294721D01*
X57177519Y11553011D01*
X57296396Y11840006D01*
X57357000Y12144679D01*
X57357000Y12455321D01*
X57296396Y12759994D01*
X57177519Y13046989D01*
X57004936Y13305279D01*
X56785279Y13524936D01*
X56526989Y13697519D01*
X56239994Y13816396D01*
X55935321Y13877000D01*
X55624679Y13877000D01*
X55320006Y13816396D01*
X55033011Y13697519D01*
X54927239Y13626845D01*
X54733861Y13607799D01*
X54498047Y13536265D01*
X54483720Y13531919D01*
X54253189Y13408698D01*
X54109617Y13290871D01*
X54051128Y13242870D01*
X54009577Y13192240D01*
X49307765Y8490427D01*
X49257130Y8448872D01*
X49174620Y8348332D01*
X49091302Y8246810D01*
X49029239Y8130698D01*
X48968081Y8016279D01*
X48892201Y7766138D01*
X48873000Y7571185D01*
X48873000Y7571176D01*
X48866581Y7506002D01*
X48873000Y7440828D01*
X48873001Y-7956340D01*
X48777000Y-8052341D01*
X48777000Y-7869302D01*
X48726004Y-7612928D01*
X48625972Y-7371430D01*
X48480748Y-7154087D01*
X48295913Y-6969252D01*
X48078570Y-6824028D01*
X47837072Y-6723996D01*
X47580698Y-6673000D01*
X47319302Y-6673000D01*
X47062928Y-6723996D01*
X46821430Y-6824028D01*
X46604087Y-6969252D01*
X46419252Y-7154087D01*
X46274028Y-7371430D01*
X46173996Y-7612928D01*
X46123000Y-7869302D01*
X46123000Y-8130698D01*
X46173996Y-8387072D01*
X46274028Y-8628570D01*
X46419252Y-8845913D01*
X46604087Y-9030748D01*
X46821430Y-9175972D01*
X47062928Y-9276004D01*
X47319302Y-9327000D01*
X47502341Y-9327000D01*
X46051421Y-10777920D01*
X45775321Y-10723000D01*
X45464679Y-10723000D01*
X45160006Y-10783604D01*
X44873011Y-10902481D01*
X44614721Y-11075064D01*
X44395064Y-11294721D01*
X44222481Y-11553011D01*
X44103604Y-11840006D01*
X44043000Y-12144679D01*
X42357000Y-12144679D01*
X42315169Y-11934385D01*
X42643502Y-11606053D01*
X42643511Y-11606042D01*
X45604647Y-8644908D01*
X45636194Y-8619018D01*
X45662084Y-8587471D01*
X45662091Y-8587464D01*
X45739540Y-8493092D01*
X45816333Y-8349423D01*
X45847747Y-8245865D01*
X45863622Y-8193532D01*
X45875588Y-8072036D01*
X45875588Y-8072026D01*
X45879588Y-8031412D01*
X45875588Y-7990798D01*
X45875588Y6223033D01*
X45879588Y6263647D01*
X45875588Y6304261D01*
X45875588Y6304270D01*
X45863622Y6425766D01*
X45816333Y6581656D01*
X45769979Y6668378D01*
X45739540Y6725326D01*
X45662090Y6819698D01*
X45662089Y6819699D01*
X45636194Y6851252D01*
X45604642Y6877146D01*
X44351090Y8130698D01*
X46123000Y8130698D01*
X46123000Y7869302D01*
X46173996Y7612928D01*
X46274028Y7371430D01*
X46419252Y7154087D01*
X46604087Y6969252D01*
X46821430Y6824028D01*
X47062928Y6723996D01*
X47319302Y6673000D01*
X47580698Y6673000D01*
X47837072Y6723996D01*
X48078570Y6824028D01*
X48295913Y6969252D01*
X48480748Y7154087D01*
X48625972Y7371430D01*
X48726004Y7612928D01*
X48777000Y7869302D01*
X48777000Y8130698D01*
X48726004Y8387072D01*
X48625972Y8628570D01*
X48480748Y8845913D01*
X48295913Y9030748D01*
X48078570Y9175972D01*
X47837072Y9276004D01*
X47580698Y9327000D01*
X47319302Y9327000D01*
X47062928Y9276004D01*
X46821430Y9175972D01*
X46604087Y9030748D01*
X46419252Y8845913D01*
X46274028Y8628570D01*
X46173996Y8387072D01*
X46123000Y8130698D01*
X44351090Y8130698D01*
X41607000Y10874787D01*
X41607000Y10955942D01*
X41785279Y11075064D01*
X42004936Y11294721D01*
X42177519Y11553011D01*
X42296396Y11840006D01*
X42357000Y12144679D01*
X42357000Y12455321D01*
X42296396Y12759994D01*
X42177519Y13046989D01*
X42004936Y13305279D01*
X41785279Y13524936D01*
X41526989Y13697519D01*
X41239994Y13816396D01*
X40935321Y13877000D01*
X40624679Y13877000D01*
X40414385Y13835169D01*
X34227000Y20022553D01*
X34227000Y23640624D01*
X34215034Y23762120D01*
X34167745Y23918010D01*
X34090952Y24061679D01*
X33987606Y24187606D01*
X33861679Y24290952D01*
X33718010Y24367745D01*
X33562120Y24415034D01*
X33400000Y24431001D01*
X33237881Y24415034D01*
X33081991Y24367745D01*
X32938322Y24290952D01*
X32812395Y24187606D01*
X32709049Y24061679D01*
X32632256Y23918010D01*
X32584967Y23762120D01*
X32573001Y23640624D01*
X32573000Y19720614D01*
X32569000Y19680000D01*
X32573000Y19639386D01*
X32573000Y19639377D01*
X32584966Y19517881D01*
X32632255Y19361991D01*
X32642866Y19342139D01*
X32709048Y19218321D01*
X32746657Y19172495D01*
X32812394Y19092394D01*
X32843952Y19066495D01*
X39244831Y12665615D01*
X39203000Y12455321D01*
X39203000Y12144679D01*
X39263604Y11840006D01*
X39382481Y11553011D01*
X39555064Y11294721D01*
X39774721Y11075064D01*
X39953001Y10955942D01*
X39953001Y10572857D01*
X39949000Y10532234D01*
X39964967Y10370114D01*
X40012256Y10214224D01*
X40089048Y10070555D01*
X40166498Y9976183D01*
X40192395Y9944628D01*
X40223948Y9918733D01*
X43976611Y6166070D01*
X43846324Y6235344D01*
X43816834Y6247499D01*
X43787505Y6260069D01*
X43782809Y6261522D01*
X43595973Y6317932D01*
X43564681Y6324128D01*
X43533471Y6330762D01*
X43528583Y6331275D01*
X43334350Y6350320D01*
X43317292Y6352000D01*
X43082708Y6352000D01*
X43067322Y6350485D01*
X43061115Y6350528D01*
X43056224Y6350048D01*
X42862127Y6329647D01*
X42830855Y6323228D01*
X42799538Y6317254D01*
X42794835Y6315834D01*
X42794829Y6315832D01*
X42608395Y6258121D01*
X42579024Y6245774D01*
X42549404Y6233807D01*
X42545065Y6231499D01*
X42373388Y6138675D01*
X42346950Y6120842D01*
X42320242Y6103365D01*
X42316433Y6100258D01*
X42166055Y5975854D01*
X42143600Y5953241D01*
X42120781Y5930896D01*
X42117649Y5927108D01*
X41994299Y5775866D01*
X41976676Y5749342D01*
X41958619Y5722970D01*
X41956281Y5718646D01*
X41864656Y5546324D01*
X41852501Y5516834D01*
X41839931Y5487505D01*
X41838478Y5482809D01*
X41782068Y5295973D01*
X41775872Y5264681D01*
X41769238Y5233471D01*
X41768725Y5228583D01*
X41749680Y5034350D01*
X41748000Y5017291D01*
X41748001Y1617223D01*
X41743526Y1571583D01*
X41735272Y1544245D01*
X41721868Y1519034D01*
X41703818Y1496903D01*
X41681814Y1478700D01*
X41656699Y1465120D01*
X41629422Y1456676D01*
X41584928Y1452000D01*
X29817213Y1452000D01*
X29771583Y1456474D01*
X29744245Y1464728D01*
X29719034Y1478132D01*
X29696903Y1496182D01*
X29678700Y1518186D01*
X29665120Y1543301D01*
X29656676Y1570578D01*
X29652000Y1615072D01*
X29652000Y5017292D01*
X29650485Y5032678D01*
X29650528Y5038885D01*
X29650048Y5043776D01*
X29629647Y5237873D01*
X29623228Y5269145D01*
X29617254Y5300462D01*
X29615833Y5305167D01*
X29558121Y5491605D01*
X29545774Y5520976D01*
X29533807Y5550596D01*
X29531499Y5554935D01*
X29438675Y5726612D01*
X29420842Y5753050D01*
X29403365Y5779758D01*
X29400258Y5783567D01*
X29275854Y5933945D01*
X29253241Y5956400D01*
X29230896Y5979219D01*
X29227108Y5982351D01*
X29075866Y6105701D01*
X29049342Y6123324D01*
X29022970Y6141381D01*
X29018646Y6143719D01*
X28846324Y6235344D01*
X28816834Y6247499D01*
X28787505Y6260069D01*
X28782809Y6261522D01*
X28595973Y6317932D01*
X28564681Y6324128D01*
X28533471Y6330762D01*
X28528583Y6331275D01*
X28334350Y6350320D01*
X28317292Y6352000D01*
X28082708Y6352000D01*
X28067322Y6350485D01*
X28061115Y6350528D01*
X28056224Y6350048D01*
X27862127Y6329647D01*
X27830855Y6323228D01*
X27799538Y6317254D01*
X27794835Y6315834D01*
X27794829Y6315832D01*
X27608395Y6258121D01*
X27579024Y6245774D01*
X27549404Y6233807D01*
X27545065Y6231499D01*
X27373388Y6138675D01*
X27346950Y6120842D01*
X27320242Y6103365D01*
X27316433Y6100258D01*
X27166055Y5975854D01*
X27143600Y5953241D01*
X27120781Y5930896D01*
X27117649Y5927108D01*
X26994299Y5775866D01*
X26976676Y5749342D01*
X26958619Y5722970D01*
X26956281Y5718646D01*
X26864656Y5546324D01*
X26852501Y5516834D01*
X26839931Y5487505D01*
X26838478Y5482809D01*
X26782068Y5295973D01*
X26775872Y5264681D01*
X26769238Y5233471D01*
X26768725Y5228583D01*
X26749680Y5034350D01*
X26748000Y5017291D01*
X26748001Y2134126D01*
X26685905Y2979707D01*
X26685769Y2980922D01*
X26685717Y2982157D01*
X26682924Y3006285D01*
X26682893Y3006563D01*
X26682888Y3006588D01*
X26378654Y5018241D01*
X26378426Y5019434D01*
X26378279Y5020671D01*
X26373642Y5044518D01*
X26373591Y5044788D01*
X26373584Y5044812D01*
X25915915Y7027196D01*
X25915596Y7028369D01*
X25915355Y7029588D01*
X25908830Y7053275D01*
X25571186Y8130698D01*
X31123000Y8130698D01*
X31123000Y7869302D01*
X31173996Y7612928D01*
X31274028Y7371430D01*
X31419252Y7154087D01*
X31604087Y6969252D01*
X31821430Y6824028D01*
X32062928Y6723996D01*
X32319302Y6673000D01*
X32580698Y6673000D01*
X32837072Y6723996D01*
X33078570Y6824028D01*
X33295913Y6969252D01*
X33480748Y7154087D01*
X33625972Y7371430D01*
X33726004Y7612928D01*
X33777000Y7869302D01*
X33777000Y8130698D01*
X37623000Y8130698D01*
X37623000Y7869302D01*
X37673996Y7612928D01*
X37774028Y7371430D01*
X37919252Y7154087D01*
X38104087Y6969252D01*
X38321430Y6824028D01*
X38562928Y6723996D01*
X38819302Y6673000D01*
X39080698Y6673000D01*
X39337072Y6723996D01*
X39578570Y6824028D01*
X39795913Y6969252D01*
X39980748Y7154087D01*
X40125972Y7371430D01*
X40226004Y7612928D01*
X40277000Y7869302D01*
X40277000Y8130698D01*
X40226004Y8387072D01*
X40125972Y8628570D01*
X39980748Y8845913D01*
X39795913Y9030748D01*
X39578570Y9175972D01*
X39337072Y9276004D01*
X39080698Y9327000D01*
X38819302Y9327000D01*
X38562928Y9276004D01*
X38321430Y9175972D01*
X38104087Y9030748D01*
X37919252Y8845913D01*
X37774028Y8628570D01*
X37673996Y8387072D01*
X37623000Y8130698D01*
X33777000Y8130698D01*
X33726004Y8387072D01*
X33625972Y8628570D01*
X33480748Y8845913D01*
X33295913Y9030748D01*
X33078570Y9175972D01*
X32837072Y9276004D01*
X32580698Y9327000D01*
X32319302Y9327000D01*
X32062928Y9276004D01*
X31821430Y9175972D01*
X31604087Y9030748D01*
X31419252Y8845913D01*
X31274028Y8628570D01*
X31173996Y8387072D01*
X31123000Y8130698D01*
X25571186Y8130698D01*
X25300415Y8994729D01*
X25300004Y8995885D01*
X25299672Y8997072D01*
X25291349Y9020189D01*
X24535782Y10909242D01*
X24535286Y10910356D01*
X24534862Y10911521D01*
X24524790Y10933931D01*
X23776174Y12455321D01*
X34123000Y12455321D01*
X34123000Y12144679D01*
X34183604Y11840006D01*
X34302481Y11553011D01*
X34475064Y11294721D01*
X34694721Y11075064D01*
X34953011Y10902481D01*
X35240006Y10783604D01*
X35544679Y10723000D01*
X35855321Y10723000D01*
X36159994Y10783604D01*
X36446989Y10902481D01*
X36705279Y11075064D01*
X36924936Y11294721D01*
X37097519Y11553011D01*
X37216396Y11840006D01*
X37277000Y12144679D01*
X37277000Y12455321D01*
X37216396Y12759994D01*
X37097519Y13046989D01*
X36924936Y13305279D01*
X36705279Y13524936D01*
X36446989Y13697519D01*
X36159994Y13816396D01*
X35855321Y13877000D01*
X35544679Y13877000D01*
X35240006Y13816396D01*
X34953011Y13697519D01*
X34694721Y13524936D01*
X34475064Y13305279D01*
X34302481Y13046989D01*
X34183604Y12759994D01*
X34123000Y12455321D01*
X23776174Y12455321D01*
X23626522Y12759452D01*
X23625941Y12760527D01*
X23625430Y12761653D01*
X23613850Y12782890D01*
X23613669Y12783225D01*
X23613650Y12783255D01*
X22577996Y14534451D01*
X22577332Y14535481D01*
X22576738Y14536562D01*
X22563357Y14557167D01*
X21396385Y16223776D01*
X21395643Y16224754D01*
X21394968Y16225785D01*
X21380182Y16245123D01*
X21380046Y16245302D01*
X21380033Y16245317D01*
X20088651Y17817470D01*
X20087840Y17818383D01*
X20087085Y17819364D01*
X20070849Y17837523D01*
X20070709Y17837680D01*
X20070695Y17837693D01*
X18662507Y19306139D01*
X18661625Y19306991D01*
X18660800Y19307907D01*
X18643214Y19324771D01*
X18643067Y19324913D01*
X18643052Y19324925D01*
X17126355Y20681009D01*
X17125409Y20681792D01*
X17124517Y20682641D01*
X17105672Y20698120D01*
X17105533Y20698235D01*
X17105520Y20698244D01*
X15489252Y21933974D01*
X15488252Y21934679D01*
X15487295Y21935460D01*
X15467169Y21949552D01*
X13760849Y23057649D01*
X13759798Y23058276D01*
X13758783Y23058981D01*
X13737760Y23071413D01*
X13737636Y23071487D01*
X13737625Y23071493D01*
X11951332Y24045412D01*
X11950231Y24045959D01*
X11949170Y24046581D01*
X11927353Y24057316D01*
X11927125Y24057429D01*
X11927103Y24057438D01*
X11276123Y24350000D01*
X25481418Y24350000D01*
X25481418Y22650000D01*
X25487732Y22585897D01*
X25506430Y22524257D01*
X25536794Y22467450D01*
X25577657Y22417657D01*
X25627450Y22376794D01*
X25684257Y22346430D01*
X25745897Y22327732D01*
X25810000Y22321418D01*
X27510000Y22321418D01*
X27574103Y22327732D01*
X27635743Y22346430D01*
X27692550Y22376794D01*
X27742343Y22417657D01*
X27783206Y22467450D01*
X27813570Y22524257D01*
X27832268Y22585897D01*
X27838582Y22650000D01*
X27838582Y24350000D01*
X27832268Y24414103D01*
X27813570Y24475743D01*
X27783206Y24532550D01*
X27742343Y24582343D01*
X27692550Y24623206D01*
X27635743Y24653570D01*
X27574103Y24672268D01*
X27510000Y24678582D01*
X25810000Y24678582D01*
X25745897Y24672268D01*
X25684257Y24653570D01*
X25627450Y24623206D01*
X25577657Y24582343D01*
X25536794Y24532550D01*
X25506430Y24475743D01*
X25487732Y24414103D01*
X25481418Y24350000D01*
X11276123Y24350000D01*
X10071368Y24891438D01*
X10070233Y24891897D01*
X10069123Y24892438D01*
X10046409Y24901523D01*
X10046311Y24901562D01*
X10046303Y24901565D01*
X8132038Y25590743D01*
X8130874Y25591112D01*
X8129723Y25591568D01*
X8106278Y25598915D01*
X7655790Y25723000D01*
X30174488Y25723000D01*
X30197903Y25720694D01*
X30221318Y25723000D01*
X30221326Y25723000D01*
X30291411Y25729903D01*
X30381326Y25757178D01*
X30464192Y25801471D01*
X30536824Y25861079D01*
X30551758Y25879276D01*
X35045494Y30373011D01*
X39521271Y30373011D01*
X39550892Y30357178D01*
X39640807Y30329903D01*
X39710892Y30323000D01*
X39710899Y30323000D01*
X39734314Y30320694D01*
X39749661Y30322205D01*
X39836564Y30235302D01*
X39955636Y30155741D01*
X40087942Y30100938D01*
X40228397Y30073000D01*
X40371603Y30073000D01*
X40512058Y30100938D01*
X40644364Y30155741D01*
X40763436Y30235302D01*
X40864698Y30336564D01*
X40944259Y30455636D01*
X40999062Y30587942D01*
X41027000Y30728397D01*
X41027000Y30871603D01*
X40999062Y31012058D01*
X40944259Y31144364D01*
X40925125Y31173000D01*
X44150340Y31173000D01*
X46873000Y28450339D01*
X46873000Y27425125D01*
X46844364Y27444259D01*
X46712058Y27499062D01*
X46571603Y27527000D01*
X46428397Y27527000D01*
X46287942Y27499062D01*
X46155636Y27444259D01*
X46036564Y27364698D01*
X45935302Y27263436D01*
X45855741Y27144364D01*
X45800938Y27012058D01*
X45773000Y26871603D01*
X45773000Y26747580D01*
X44979271Y25953850D01*
X44961080Y25938921D01*
X44946151Y25920730D01*
X44946148Y25920727D01*
X44935249Y25907446D01*
X44901472Y25866289D01*
X44881044Y25828071D01*
X44857178Y25783422D01*
X44829903Y25693507D01*
X44820694Y25600000D01*
X44823001Y25576575D01*
X44823000Y24106132D01*
X44735302Y24018434D01*
X44655741Y23899362D01*
X44600938Y23767056D01*
X44573000Y23626601D01*
X44573000Y23483395D01*
X44600938Y23342940D01*
X44655741Y23210634D01*
X44735302Y23091562D01*
X44836564Y22990300D01*
X44955636Y22910739D01*
X45087942Y22855936D01*
X45228397Y22827998D01*
X45371603Y22827998D01*
X45512058Y22855936D01*
X45644364Y22910739D01*
X45763436Y22990300D01*
X45864698Y23091562D01*
X45944259Y23210634D01*
X45999062Y23342940D01*
X46027000Y23483395D01*
X46027000Y23626601D01*
X45999062Y23767056D01*
X45944259Y23899362D01*
X45864698Y24018434D01*
X45777000Y24106132D01*
X45777000Y25402421D01*
X46447580Y26073000D01*
X46571603Y26073000D01*
X46712058Y26100938D01*
X46844364Y26155741D01*
X46873001Y26174875D01*
X46873001Y25200008D01*
X46873000Y25200000D01*
X46873000Y23265174D01*
X46866581Y23200000D01*
X46873000Y23134826D01*
X46873001Y15429662D01*
X45284499Y13841160D01*
X45160006Y13816396D01*
X44873011Y13697519D01*
X44614721Y13524936D01*
X44395064Y13305279D01*
X44222481Y13046989D01*
X44103604Y12759994D01*
X44043000Y12455321D01*
X44043000Y12144679D01*
X44103604Y11840006D01*
X44222481Y11553011D01*
X44395064Y11294721D01*
X44614721Y11075064D01*
X44873011Y10902481D01*
X45160006Y10783604D01*
X45464679Y10723000D01*
X45775321Y10723000D01*
X46079994Y10783604D01*
X46366989Y10902481D01*
X46625279Y11075064D01*
X46844936Y11294721D01*
X47017519Y11553011D01*
X47136396Y11840006D01*
X47161160Y11964499D01*
X49092240Y13895579D01*
X49142870Y13937130D01*
X49197361Y14003527D01*
X49308698Y14139191D01*
X49431919Y14369722D01*
X49454420Y14443898D01*
X49507799Y14619863D01*
X49527000Y14814816D01*
X49527000Y14814826D01*
X49533419Y14880000D01*
X49527000Y14945174D01*
X49527000Y21273000D01*
X50800000Y21273000D01*
X50863795Y21279283D01*
X50925137Y21297891D01*
X50981671Y21328109D01*
X51031224Y21368776D01*
X51071891Y21418329D01*
X51102109Y21474863D01*
X51120717Y21536205D01*
X51127000Y21600000D01*
X51127000Y25200000D01*
X51120717Y25263795D01*
X51102109Y25325137D01*
X51071891Y25381671D01*
X51031224Y25431224D01*
X50981671Y25471891D01*
X50925137Y25502109D01*
X50863795Y25520717D01*
X50800000Y25527000D01*
X49527000Y25527000D01*
X49527000Y28934829D01*
X49533419Y29000001D01*
X49527000Y29065172D01*
X49527000Y29065184D01*
X49507799Y29260137D01*
X49431919Y29510278D01*
X49308698Y29740808D01*
X49308697Y29740810D01*
X49184422Y29892239D01*
X49184421Y29892240D01*
X49142870Y29942870D01*
X49092241Y29984420D01*
X45684425Y33392235D01*
X45642870Y33442870D01*
X45440808Y33608698D01*
X45210278Y33731919D01*
X44960137Y33807799D01*
X44765184Y33827000D01*
X44765174Y33827000D01*
X44700000Y33833419D01*
X44634826Y33827000D01*
X40734816Y33827000D01*
X40725000Y33826033D01*
X40715184Y33827000D01*
X26635623Y33827000D01*
X26665510Y33882915D01*
X26712661Y34038352D01*
X26728582Y34200000D01*
X26728582Y35200000D01*
X26712661Y35361648D01*
X26665510Y35517085D01*
X26588941Y35660335D01*
X26485896Y35785896D01*
X26407785Y35850000D01*
X26485896Y35914104D01*
X26588941Y36039665D01*
X26665510Y36182915D01*
X26712661Y36338352D01*
X26728582Y36500000D01*
X26728582Y37500000D01*
X26712661Y37661648D01*
X26665510Y37817085D01*
X26588941Y37960335D01*
X26485896Y38085896D01*
X26360335Y38188941D01*
X26217085Y38265510D01*
X26061648Y38312661D01*
X25900000Y38328582D01*
X24727000Y38328582D01*
X24727000Y39850340D01*
X26092241Y41215580D01*
X26142870Y41257130D01*
X26184422Y41307761D01*
X26308697Y41459190D01*
X26431919Y41689722D01*
X26443160Y41726778D01*
X26507799Y41939863D01*
X26527000Y42134816D01*
X26527000Y42134828D01*
X26533419Y42199999D01*
X26527000Y42265171D01*
X26527000Y45743231D01*
X26619124Y45835355D01*
X26819066Y46134591D01*
X26956789Y46467084D01*
X27027000Y46820056D01*
X27027000Y47179944D01*
X26956789Y47532916D01*
X26819066Y47865409D01*
X26619124Y48164645D01*
X26364645Y48419124D01*
X26065409Y48619066D01*
X25732916Y48756789D01*
X25379944Y48827000D01*
X25020056Y48827000D01*
X24667084Y48756789D01*
X24334591Y48619066D01*
X24035355Y48419124D01*
X23780876Y48164645D01*
X23580934Y47865409D01*
X23443211Y47532916D01*
X23373000Y47179944D01*
X23373000Y47173768D01*
X23215409Y47279066D01*
X22882916Y47416789D01*
X22529944Y47487000D01*
X22170056Y47487000D01*
X21817084Y47416789D01*
X21484591Y47279066D01*
X21185355Y47079124D01*
X20930876Y46824645D01*
X20730934Y46525409D01*
X20593211Y46192916D01*
X20523000Y45839944D01*
X20523000Y45480056D01*
X20593211Y45127084D01*
X20730934Y44794591D01*
X20930876Y44495355D01*
X21185355Y44240876D01*
X21484591Y44040934D01*
X21817084Y43903211D01*
X22170056Y43833000D01*
X22529944Y43833000D01*
X22882916Y43903211D01*
X23215409Y44040934D01*
X23514645Y44240876D01*
X23769124Y44495355D01*
X23873001Y44650818D01*
X23873000Y42749661D01*
X22507761Y41384421D01*
X22457131Y41342870D01*
X22415580Y41292240D01*
X22415578Y41292238D01*
X22291302Y41140808D01*
X22168081Y40910277D01*
X22092202Y40660137D01*
X22066581Y40400000D01*
X22073001Y40334816D01*
X22073000Y38328582D01*
X20900000Y38328582D01*
X20738352Y38312661D01*
X20582915Y38265510D01*
X20439665Y38188941D01*
X20314104Y38085896D01*
X20211059Y37960335D01*
X20134490Y37817085D01*
X20087339Y37661648D01*
X20071418Y37500000D01*
X20071418Y36500000D01*
X20087339Y36338352D01*
X20134490Y36182915D01*
X20211059Y36039665D01*
X20221453Y36027000D01*
X18266225Y36027000D01*
X18343920Y36104695D01*
X18361169Y36118851D01*
X18417653Y36187677D01*
X18459624Y36266200D01*
X18481511Y36338352D01*
X18485470Y36351402D01*
X18494197Y36440009D01*
X18492010Y36462214D01*
X18492010Y39937786D01*
X18494197Y39959991D01*
X18485470Y40048598D01*
X18473122Y40089302D01*
X18459624Y40133800D01*
X18417653Y40212323D01*
X18361169Y40281149D01*
X18343921Y40295303D01*
X17485323Y41153900D01*
X17471159Y41171159D01*
X17402333Y41227643D01*
X17323810Y41269614D01*
X17238607Y41295460D01*
X17150000Y41304187D01*
X17127795Y41302000D01*
X16852106Y41302000D01*
X16763312Y41361331D01*
X16658305Y41404826D01*
X16546830Y41427000D01*
X16433170Y41427000D01*
X16321695Y41404826D01*
X16216688Y41361331D01*
X16122184Y41298185D01*
X16041815Y41217816D01*
X15978669Y41123312D01*
X15935174Y41018305D01*
X15913000Y40906830D01*
X15913000Y40793170D01*
X15935174Y40681695D01*
X15978669Y40576688D01*
X16041815Y40482184D01*
X16122184Y40401815D01*
X16216688Y40338669D01*
X16321695Y40295174D01*
X16433170Y40273000D01*
X16546830Y40273000D01*
X16658305Y40295174D01*
X16763312Y40338669D01*
X16852106Y40398000D01*
X16962777Y40398000D01*
X17588010Y39772765D01*
X17588011Y36627235D01*
X17509680Y36548904D01*
X17481671Y36571891D01*
X17425137Y36602109D01*
X17363795Y36620717D01*
X17300000Y36627000D01*
X15600000Y36627000D01*
X15536205Y36620717D01*
X15474863Y36602109D01*
X15418329Y36571891D01*
X15368776Y36531224D01*
X15328109Y36481671D01*
X15297891Y36425137D01*
X15279283Y36363795D01*
X15273000Y36300000D01*
X15273000Y33900000D01*
X15279283Y33836205D01*
X15297891Y33774863D01*
X15323474Y33727000D01*
X13419481Y33727000D01*
X13410278Y33731919D01*
X13160137Y33807799D01*
X12965184Y33827000D01*
X12327000Y33827000D01*
X12327000Y43234817D01*
X12333420Y43300000D01*
X12327000Y43365184D01*
X12327000Y43850340D01*
X13649661Y45173000D01*
X13979944Y45173000D01*
X14332916Y45243211D01*
X14665409Y45380934D01*
X14823000Y45486232D01*
X14823000Y45480056D01*
X14893211Y45127084D01*
X15030934Y44794591D01*
X15230876Y44495355D01*
X15485355Y44240876D01*
X15784591Y44040934D01*
X16117084Y43903211D01*
X16470056Y43833000D01*
X16829944Y43833000D01*
X17182916Y43903211D01*
X17515409Y44040934D01*
X17814645Y44240876D01*
X18069124Y44495355D01*
X18269066Y44794591D01*
X18406789Y45127084D01*
X18477000Y45480056D01*
X18477000Y45839944D01*
X18406789Y46192916D01*
X18269066Y46525409D01*
X18069124Y46824645D01*
X17814645Y47079124D01*
X17515409Y47279066D01*
X17182916Y47416789D01*
X16829944Y47487000D01*
X16470056Y47487000D01*
X16117084Y47416789D01*
X15784591Y47279066D01*
X15627000Y47173768D01*
X15627000Y47179944D01*
X15556789Y47532916D01*
X15419066Y47865409D01*
X15219124Y48164645D01*
X14964645Y48419124D01*
X14665409Y48619066D01*
X14332916Y48756789D01*
X13979944Y48827000D01*
X13620056Y48827000D01*
X13267084Y48756789D01*
X12934591Y48619066D01*
X12635355Y48419124D01*
X12380876Y48164645D01*
X12180934Y47865409D01*
X12043211Y47532916D01*
X11990311Y47266972D01*
X10107761Y45384421D01*
X10057131Y45342870D01*
X10015579Y45292239D01*
X10015578Y45292238D01*
X9971138Y45238088D01*
X9891302Y45140808D01*
X9768081Y44910278D01*
X9692201Y44660137D01*
X9688937Y44627000D01*
X-9250339Y44627000D01*
X-10173000Y45549660D01*
X-10173000Y49434827D01*
X-10166581Y49500001D01*
X-10173000Y49565175D01*
X-10173000Y49565184D01*
X-10192201Y49760137D01*
X-10268081Y50010278D01*
X-10283872Y50039821D01*
X-10391302Y50240809D01*
X-10515578Y50392239D01*
X-10515579Y50392240D01*
X-10557130Y50442870D01*
X-10607760Y50484421D01*
X-12285575Y52162235D01*
X-12327130Y52212870D01*
X-12529192Y52378698D01*
X-12759722Y52501919D01*
X-13009863Y52577799D01*
X-13204816Y52597000D01*
X-13204826Y52597000D01*
X-13270000Y52603419D01*
X-13335174Y52597000D01*
X-14630698Y52597000D01*
X-14694952Y52584219D01*
X-14760137Y52577799D01*
X-14822817Y52558785D01*
X-14887072Y52546004D01*
X-14947601Y52520932D01*
X-15010278Y52501919D01*
X-15068041Y52471044D01*
X-15128570Y52445972D01*
X-15183045Y52409573D01*
X-15240808Y52378698D01*
X-15291438Y52337147D01*
X-15345913Y52300748D01*
X-15392239Y52254422D01*
X-15442870Y52212870D01*
X-15484421Y52162240D01*
X-15530748Y52115913D01*
X-15567147Y52061438D01*
X-15608698Y52010808D01*
X-15639573Y51953045D01*
X-15675972Y51898570D01*
X-15701044Y51838041D01*
X-15731919Y51780278D01*
X-15750932Y51717601D01*
X-15776004Y51657072D01*
X-15788785Y51592817D01*
X-15807799Y51530137D01*
X-15814219Y51464952D01*
X-15827000Y51400698D01*
X-15827000Y51335184D01*
X-15833420Y51270000D01*
X-15827000Y51204816D01*
X-15827000Y51139302D01*
X-15814219Y51075048D01*
X-15807799Y51009863D01*
X-15788785Y50947183D01*
X-15776004Y50882928D01*
X-15750932Y50822399D01*
X-15731919Y50759722D01*
X-15701044Y50701959D01*
X-15675972Y50641430D01*
X-15639573Y50586955D01*
X-15608698Y50529192D01*
X-15567147Y50478562D01*
X-15530748Y50424087D01*
X-15484423Y50377762D01*
X-15442870Y50327130D01*
X-15392240Y50285579D01*
X-15345913Y50239252D01*
X-15291438Y50202853D01*
X-15240808Y50161302D01*
X-15183045Y50130427D01*
X-15128570Y50094028D01*
X-15068041Y50068956D01*
X-15010278Y50038081D01*
X-14947601Y50019068D01*
X-14887072Y49993996D01*
X-14822817Y49981215D01*
X-14760137Y49962201D01*
X-14694952Y49955781D01*
X-14630698Y49943000D01*
X-13819660Y49943000D01*
X-12826999Y48950338D01*
X-12827000Y45065174D01*
X-12833419Y45000000D01*
X-12827000Y44934826D01*
X-12827000Y44934817D01*
X-12807799Y44739864D01*
X-12744719Y44531919D01*
X-12731919Y44489723D01*
X-12608698Y44259192D01*
X-12537903Y44172929D01*
X-12442870Y44057130D01*
X-12392235Y44015575D01*
X-10784421Y42407760D01*
X-10742870Y42357130D01*
X-10692240Y42315579D01*
X-10692239Y42315578D01*
X-10540809Y42191302D01*
X-10386490Y42108817D01*
X-10310278Y42068081D01*
X-10060137Y41992201D01*
X-9865184Y41973000D01*
X-9865175Y41973000D01*
X-9800001Y41966581D01*
X-9734827Y41973000D01*
X9673001Y41973000D01*
X9673000Y36027000D01*
X-7034826Y36027000D01*
X-7100000Y36033419D01*
X-7165174Y36027000D01*
X-7165184Y36027000D01*
X-7360137Y36007799D01*
X-7605330Y35933420D01*
X-7610278Y35931919D01*
X-7840809Y35808698D01*
X-7992239Y35684422D01*
X-8042870Y35642870D01*
X-8084421Y35592240D01*
X-11849660Y31827000D01*
X-13184654Y31827000D01*
X-13199102Y31841448D01*
X-13481959Y32030447D01*
X-13796253Y32160632D01*
X-14129905Y32227000D01*
X-14470095Y32227000D01*
X-14803747Y32160632D01*
X-15118041Y32030447D01*
X-15400898Y31841448D01*
X-15641448Y31600898D01*
X-15830447Y31318041D01*
X-15960632Y31003747D01*
X-16027000Y30670095D01*
X-16027000Y30329905D01*
X-15960632Y29996253D01*
X-15830447Y29681959D01*
X-15641448Y29399102D01*
X-15400898Y29158552D01*
X-15118041Y28969553D01*
X-14803747Y28839368D01*
X-14470095Y28773000D01*
X-14129905Y28773000D01*
X-13796253Y28839368D01*
X-13481959Y28969553D01*
X-13199102Y29158552D01*
X-13184654Y29173000D01*
X-11365174Y29173000D01*
X-11300000Y29166581D01*
X-11234826Y29173000D01*
X-11234816Y29173000D01*
X-11039863Y29192201D01*
X-10789722Y29268081D01*
X-10559192Y29391302D01*
X-10357130Y29557130D01*
X-10315575Y29607765D01*
X-6550339Y33373000D01*
X9473000Y33373000D01*
X9473000Y33365174D01*
X9466581Y33300000D01*
X9473000Y33234826D01*
X9473000Y33234816D01*
X9492201Y33039863D01*
X9568081Y32789722D01*
X9575460Y32775917D01*
X9691302Y32559192D01*
X9778546Y32452886D01*
X9857131Y32357130D01*
X9907761Y32315579D01*
X10615575Y31607765D01*
X10657130Y31557130D01*
X10748497Y31482147D01*
X10859191Y31391302D01*
X11058419Y31284813D01*
X11089722Y31268081D01*
X11119580Y31259024D01*
X11270817Y31178186D01*
X11289722Y31168081D01*
X11539863Y31092201D01*
X11734816Y31073000D01*
X11734826Y31073000D01*
X11800000Y31066581D01*
X11865174Y31073000D01*
X20883938Y31073000D01*
X20900000Y31071418D01*
X23750889Y31071418D01*
X23800000Y31066581D01*
X23849111Y31071418D01*
X25900000Y31071418D01*
X26061648Y31087339D01*
X26217085Y31134490D01*
X26289132Y31173000D01*
X34495918Y31173000D01*
X34494064Y31170740D01*
X30000324Y26677000D01*
X28043001Y26677000D01*
X28080776Y26714775D01*
X28111866Y26752659D01*
X28147649Y26806213D01*
X28170752Y26849435D01*
X28195404Y26908949D01*
X28209630Y26955847D01*
X28222196Y27019018D01*
X28227000Y27067791D01*
X28228582Y27100000D01*
X28228582Y27900000D01*
X28227000Y27932209D01*
X28222982Y27973000D01*
X28236226Y27973000D01*
X28424980Y28010546D01*
X28602783Y28084194D01*
X28762801Y28191115D01*
X28898885Y28327199D01*
X29005806Y28487217D01*
X29079454Y28665020D01*
X29117000Y28853774D01*
X29117000Y29046226D01*
X29079454Y29234980D01*
X29005806Y29412783D01*
X28898885Y29572801D01*
X28762801Y29708885D01*
X28602783Y29815806D01*
X28424980Y29889454D01*
X28236226Y29927000D01*
X28043774Y29927000D01*
X27855020Y29889454D01*
X27677217Y29815806D01*
X27517199Y29708885D01*
X27381115Y29572801D01*
X27274194Y29412783D01*
X27200546Y29234980D01*
X27163000Y29046226D01*
X27163000Y28878582D01*
X25950000Y28878582D01*
X25917791Y28877000D01*
X25869018Y28872196D01*
X25805847Y28859630D01*
X25758949Y28845404D01*
X25699435Y28820752D01*
X25656213Y28797649D01*
X25602659Y28761866D01*
X25564775Y28730776D01*
X25519224Y28685225D01*
X25488134Y28647341D01*
X25452351Y28593787D01*
X25429248Y28550565D01*
X25404596Y28491051D01*
X25390370Y28444153D01*
X25377804Y28380982D01*
X25373000Y28332209D01*
X25371418Y28300000D01*
X25371418Y27100000D01*
X25373000Y27067791D01*
X25377804Y27019018D01*
X25390370Y26955847D01*
X25404596Y26908949D01*
X25429248Y26849435D01*
X25452351Y26806213D01*
X25488134Y26752659D01*
X25519224Y26714775D01*
X25556999Y26677000D01*
X6040678Y26677000D01*
X5858601Y26716715D01*
X5850272Y26719298D01*
X5812448Y26731028D01*
X5789031Y26733481D01*
X5530297Y26786599D01*
X5483979Y26800343D01*
X5460523Y26802510D01*
X5306029Y26832257D01*
X2679853Y29458432D01*
X2644259Y29544364D01*
X2564698Y29663436D01*
X2463436Y29764698D01*
X2344364Y29844259D01*
X2212058Y29899062D01*
X2071603Y29927000D01*
X1928397Y29927000D01*
X1787942Y29899062D01*
X1655636Y29844259D01*
X1536564Y29764698D01*
X1435302Y29663436D01*
X1355741Y29544364D01*
X1300938Y29412058D01*
X1273000Y29271603D01*
X1273000Y29128397D01*
X1300938Y28987942D01*
X1355741Y28855636D01*
X1435302Y28736564D01*
X1536564Y28635302D01*
X1655636Y28555741D01*
X1787942Y28500938D01*
X1928397Y28473000D01*
X2071603Y28473000D01*
X2212058Y28500938D01*
X2265891Y28523236D01*
X4287933Y26501193D01*
X4121290Y26533585D01*
X4120078Y26533773D01*
X4118875Y26534046D01*
X4094900Y26537671D01*
X4094583Y26537720D01*
X4094554Y26537722D01*
X2073512Y26771565D01*
X2072300Y26771658D01*
X2071070Y26771840D01*
X2046567Y26773639D01*
X24021Y26851337D01*
X17292Y26852000D01*
X-37017292Y26852000D01*
X-37017901Y26851940D01*
X-37029148Y26851901D01*
X-37044443Y26850348D01*
X-37059827Y26850455D01*
X-37064719Y26849975D01*
X-37841106Y26768373D01*
X-37872359Y26761958D01*
X-37903696Y26755980D01*
X-37908402Y26754559D01*
X-38654151Y26523711D01*
X-38683551Y26511352D01*
X-38713142Y26499397D01*
X-38717482Y26497089D01*
X-39404192Y26125786D01*
X-39430619Y26107961D01*
X-39457336Y26090478D01*
X-39461145Y26087371D01*
X-40062656Y25589758D01*
X-40085132Y25567125D01*
X-40107931Y25544798D01*
X-40111064Y25541011D01*
X-40604466Y24936040D01*
X-40622111Y24909482D01*
X-40640145Y24883144D01*
X-40642482Y24878820D01*
X-41008982Y24189536D01*
X-41021147Y24160020D01*
X-41033707Y24130716D01*
X-41035160Y24126021D01*
X-41260797Y23378676D01*
X-41266987Y23347415D01*
X-41273628Y23316174D01*
X-41274141Y23311286D01*
X-41350320Y22534349D01*
X-41352000Y22517291D01*
X-44073000Y22517291D01*
X-44073000Y30670095D01*
X-27427000Y30670095D01*
X-27427000Y30329905D01*
X-27360632Y29996253D01*
X-27230447Y29681959D01*
X-27041448Y29399102D01*
X-26800898Y29158552D01*
X-26518041Y28969553D01*
X-26203747Y28839368D01*
X-25870095Y28773000D01*
X-25529905Y28773000D01*
X-25196253Y28839368D01*
X-24881959Y28969553D01*
X-24599102Y29158552D01*
X-24358552Y29399102D01*
X-24169553Y29681959D01*
X-24039368Y29996253D01*
X-23973000Y30329905D01*
X-23973000Y30350340D01*
X-20300339Y34023000D01*
X-12847170Y34023000D01*
X-12781996Y34016581D01*
X-12716822Y34023000D01*
X-12716812Y34023000D01*
X-12521859Y34042201D01*
X-12271718Y34118081D01*
X-12041188Y34241302D01*
X-11839126Y34407130D01*
X-11797571Y34457765D01*
X-8657760Y37597575D01*
X-8607131Y37639125D01*
X-8549814Y37708966D01*
X-8441303Y37841185D01*
X-8318082Y38071717D01*
X-8310180Y38097766D01*
X-8309572Y38099769D01*
X-7769769Y38639573D01*
X-7741717Y38648082D01*
X-7511187Y38771303D01*
X-7362899Y38893000D01*
X6780698Y38893000D01*
X6844952Y38905781D01*
X6910137Y38912201D01*
X6972817Y38931215D01*
X7037072Y38943996D01*
X7097601Y38969068D01*
X7160278Y38988081D01*
X7218041Y39018956D01*
X7278570Y39044028D01*
X7333045Y39080427D01*
X7390808Y39111302D01*
X7441438Y39152853D01*
X7495913Y39189252D01*
X7542240Y39235579D01*
X7592870Y39277130D01*
X7634423Y39327762D01*
X7680748Y39374087D01*
X7717147Y39428562D01*
X7758698Y39479192D01*
X7789573Y39536955D01*
X7825972Y39591430D01*
X7851044Y39651959D01*
X7881919Y39709722D01*
X7900932Y39772399D01*
X7926004Y39832928D01*
X7938785Y39897183D01*
X7957799Y39959863D01*
X7964219Y40025048D01*
X7977000Y40089302D01*
X7977000Y40154816D01*
X7983420Y40220000D01*
X7977000Y40285184D01*
X7977000Y40350698D01*
X7964219Y40414952D01*
X7957799Y40480137D01*
X7938785Y40542817D01*
X7926004Y40607072D01*
X7900932Y40667601D01*
X7881919Y40730278D01*
X7851044Y40788041D01*
X7825972Y40848570D01*
X7789573Y40903045D01*
X7758698Y40960808D01*
X7717147Y41011438D01*
X7680748Y41065913D01*
X7634421Y41112240D01*
X7592870Y41162870D01*
X7542239Y41204422D01*
X7495913Y41250748D01*
X7441438Y41287147D01*
X7390808Y41328698D01*
X7333045Y41359573D01*
X7278570Y41395972D01*
X7218041Y41421044D01*
X7160278Y41451919D01*
X7097601Y41470932D01*
X7037072Y41496004D01*
X6972817Y41508785D01*
X6910137Y41527799D01*
X6844952Y41534219D01*
X6780698Y41547000D01*
X-7846823Y41547000D01*
X-7911997Y41553419D01*
X-7977171Y41547000D01*
X-7977180Y41547000D01*
X-8172133Y41527799D01*
X-8422274Y41451919D01*
X-8526943Y41395972D01*
X-8652805Y41328698D01*
X-8739725Y41257364D01*
X-8854866Y41162870D01*
X-8890183Y41119836D01*
X-8916279Y41111920D01*
X-9146811Y40988698D01*
X-9298240Y40864423D01*
X-9348871Y40822871D01*
X-9390422Y40772241D01*
X-10442241Y39720421D01*
X-10492870Y39678871D01*
X-10534422Y39628240D01*
X-10534423Y39628239D01*
X-10566076Y39589670D01*
X-10658699Y39476809D01*
X-10781920Y39246279D01*
X-10790429Y39218228D01*
X-11500218Y38508439D01*
X-11500938Y38512058D01*
X-11555741Y38644364D01*
X-11572799Y38669893D01*
X-11512829Y38709964D01*
X-11411567Y38811226D01*
X-11332006Y38930298D01*
X-11277203Y39062604D01*
X-11249265Y39203059D01*
X-11249265Y39346265D01*
X-11277203Y39486720D01*
X-11332006Y39619026D01*
X-11411567Y39738098D01*
X-11512829Y39839360D01*
X-11631901Y39918921D01*
X-11764207Y39973724D01*
X-11904662Y40001662D01*
X-12047868Y40001662D01*
X-12188323Y39973724D01*
X-12320629Y39918921D01*
X-12439701Y39839360D01*
X-12527399Y39751662D01*
X-12701924Y39751662D01*
X-12725339Y39753968D01*
X-12748754Y39751662D01*
X-12748761Y39751662D01*
X-12810000Y39745630D01*
X-12818847Y39744759D01*
X-12840805Y39738098D01*
X-12908761Y39717484D01*
X-12991627Y39673191D01*
X-13064259Y39613583D01*
X-13079189Y39595391D01*
X-14697570Y37977009D01*
X-16962361Y37977009D01*
X-17050059Y38064707D01*
X-17169131Y38144268D01*
X-17301437Y38199071D01*
X-17441892Y38227009D01*
X-17585098Y38227009D01*
X-17725553Y38199071D01*
X-17857859Y38144268D01*
X-17976931Y38064707D01*
X-18078193Y37963445D01*
X-18157754Y37844373D01*
X-18184033Y37780929D01*
X-18185540Y37784567D01*
X-18265101Y37903639D01*
X-18366363Y38004901D01*
X-18485435Y38084462D01*
X-18617741Y38139265D01*
X-18758196Y38167203D01*
X-18901402Y38167203D01*
X-19041857Y38139265D01*
X-19174163Y38084462D01*
X-19293235Y38004901D01*
X-19394497Y37903639D01*
X-19474058Y37784567D01*
X-19528861Y37652261D01*
X-19556799Y37511806D01*
X-19556799Y37368600D01*
X-19528861Y37228145D01*
X-19474058Y37095839D01*
X-19394497Y36976767D01*
X-19293235Y36875505D01*
X-19174163Y36795944D01*
X-19041857Y36741141D01*
X-18901402Y36713203D01*
X-18777379Y36713203D01*
X-18741176Y36677000D01*
X-20784826Y36677000D01*
X-20850000Y36683419D01*
X-20915174Y36677000D01*
X-20915184Y36677000D01*
X-21110137Y36657799D01*
X-21360278Y36581919D01*
X-21590809Y36458698D01*
X-21738962Y36337111D01*
X-21792870Y36292870D01*
X-21834421Y36242240D01*
X-25849660Y32227000D01*
X-25870095Y32227000D01*
X-26203747Y32160632D01*
X-26518041Y32030447D01*
X-26800898Y31841448D01*
X-27041448Y31600898D01*
X-27230447Y31318041D01*
X-27360632Y31003747D01*
X-27427000Y30670095D01*
X-44073000Y30670095D01*
X-44073000Y34930254D01*
X-40582337Y38420917D01*
X-40582338Y34256472D01*
X-40620036Y34218774D01*
X-40699597Y34099702D01*
X-40754400Y33967396D01*
X-40782338Y33826941D01*
X-40782338Y33683735D01*
X-40754400Y33543280D01*
X-40699597Y33410974D01*
X-40620036Y33291902D01*
X-40518774Y33190640D01*
X-40399702Y33111079D01*
X-40267396Y33056276D01*
X-40126941Y33028338D01*
X-39983735Y33028338D01*
X-39843280Y33056276D01*
X-39710974Y33111079D01*
X-39591902Y33190640D01*
X-39490640Y33291902D01*
X-39411079Y33410974D01*
X-39356276Y33543280D01*
X-39328338Y33683735D01*
X-39328338Y33826941D01*
X-39356276Y33967396D01*
X-39411079Y34099702D01*
X-39490640Y34218774D01*
X-39528338Y34256472D01*
X-39528338Y38626373D01*
X-36779710Y41375001D01*
X-20003582Y41375001D01*
X-20003582Y39724999D01*
X-19992465Y39612123D01*
X-19959540Y39503586D01*
X-19906074Y39403557D01*
X-19834120Y39315880D01*
X-19746443Y39243926D01*
X-19646414Y39190460D01*
X-19537877Y39157535D01*
X-19425001Y39146418D01*
X-17774999Y39146418D01*
X-17662123Y39157535D01*
X-17553586Y39190460D01*
X-17453557Y39243926D01*
X-17365880Y39315880D01*
X-17293926Y39403557D01*
X-17240460Y39503586D01*
X-17207535Y39612123D01*
X-17196418Y39724999D01*
X-17196418Y41375001D01*
X-17207535Y41487877D01*
X-17240460Y41596414D01*
X-17293926Y41696443D01*
X-17365880Y41784120D01*
X-17453557Y41856074D01*
X-17553586Y41909540D01*
X-17662123Y41942465D01*
X-17774999Y41953582D01*
X-19425001Y41953582D01*
X-19537877Y41942465D01*
X-19646414Y41909540D01*
X-19746443Y41856074D01*
X-19834120Y41784120D01*
X-19906074Y41696443D01*
X-19959540Y41596414D01*
X-19992465Y41487877D01*
X-20003582Y41375001D01*
X-36779710Y41375001D01*
X-34931720Y43222990D01*
X-31235483Y43222990D01*
X-31168305Y43195164D01*
X-31056830Y43172990D01*
X-30943170Y43172990D01*
X-30831695Y43195164D01*
X-30764517Y43222990D01*
X-18868279Y43222990D01*
X-18839158Y43193868D01*
X-18811331Y43126688D01*
X-18748185Y43032184D01*
X-18667816Y42951815D01*
X-18573312Y42888669D01*
X-18468305Y42845174D01*
X-18356830Y42823000D01*
X-18243170Y42823000D01*
X-18131695Y42845174D01*
X-18026688Y42888669D01*
X-17932184Y42951815D01*
X-17851815Y43032184D01*
X-17788669Y43126688D01*
X-17745174Y43231695D01*
X-17723000Y43343170D01*
X-17723000Y43456830D01*
X-17745174Y43568305D01*
X-17788669Y43673312D01*
X-17851815Y43767816D01*
X-17932184Y43848185D01*
X-18026688Y43911331D01*
X-18093868Y43939158D01*
X-18259035Y44104324D01*
X-18275542Y44124438D01*
X-18355788Y44190294D01*
X-18447340Y44239229D01*
X-18546680Y44269364D01*
X-18624109Y44276990D01*
X-18649990Y44279539D01*
X-18675871Y44276990D01*
X-22436164Y44276990D01*
X-22423000Y44343170D01*
X-22423000Y44456830D01*
X-22445174Y44568305D01*
X-22488669Y44673312D01*
X-22551815Y44767816D01*
X-22632184Y44848185D01*
X-22726688Y44911331D01*
X-22831695Y44954826D01*
X-22943170Y44977000D01*
X-23056830Y44977000D01*
X-23168305Y44954826D01*
X-23235483Y44927000D01*
X-34924795Y44927000D01*
X-34578795Y45273000D01*
X-22235484Y45273000D01*
X-22168306Y45245174D01*
X-22056831Y45223000D01*
X-21943171Y45223000D01*
X-21831696Y45245174D01*
X-21726689Y45288669D01*
X-21632185Y45351815D01*
X-21551816Y45432184D01*
X-21488670Y45526688D01*
X-21445175Y45631695D01*
X-21423001Y45743170D01*
X-21423001Y45856830D01*
X-21445175Y45968305D01*
X-21488670Y46073312D01*
X-21551816Y46167816D01*
X-21632185Y46248185D01*
X-21726689Y46311331D01*
X-21831696Y46354826D01*
X-21943171Y46377000D01*
X-22056831Y46377000D01*
X-22168306Y46354826D01*
X-22235484Y46327000D01*
X-34771205Y46327000D01*
X-34797086Y46329549D01*
X-34822967Y46327000D01*
X-34900396Y46319374D01*
X-34999736Y46289239D01*
X-35091288Y46240304D01*
X-35171534Y46174448D01*
X-35188032Y46154345D01*
X-45554349Y35788026D01*
X-45574458Y35771523D01*
X-45604850Y35734490D01*
X-45640315Y35691276D01*
X-45689250Y35599724D01*
X-45719385Y35500384D01*
X-45729560Y35397075D01*
X-47042712Y35397075D01*
X-46685805Y35886537D01*
X-44810412Y38202551D01*
X-42820248Y40420716D01*
X-40720409Y42535353D01*
X-38516279Y44541039D01*
X-36213480Y46432659D01*
X-33817938Y48205342D01*
X-31335779Y49854558D01*
X-29413081Y50996226D01*
X-22467000Y50996226D01*
X-22467000Y50803774D01*
X-22429454Y50615020D01*
X-22355806Y50437217D01*
X-22248885Y50277199D01*
X-22112801Y50141115D01*
X-21952783Y50034194D01*
X-21774980Y49960546D01*
X-21586226Y49923000D01*
X-21572982Y49923000D01*
X-21577000Y49882209D01*
X-21578582Y49850000D01*
X-21578582Y49050000D01*
X-21577000Y49017791D01*
X-21572196Y48969018D01*
X-21559630Y48905847D01*
X-21545404Y48858949D01*
X-21520752Y48799435D01*
X-21497649Y48756213D01*
X-21461866Y48702659D01*
X-21430776Y48664775D01*
X-21385225Y48619224D01*
X-21347341Y48588134D01*
X-21293787Y48552351D01*
X-21250565Y48529248D01*
X-21191051Y48504596D01*
X-21144153Y48490370D01*
X-21080982Y48477804D01*
X-21032209Y48473000D01*
X-21000000Y48471418D01*
X-19300000Y48471418D01*
X-19267791Y48473000D01*
X-19219018Y48477804D01*
X-19155847Y48490370D01*
X-19108949Y48504596D01*
X-19049435Y48529248D01*
X-19006213Y48552351D01*
X-18952659Y48588134D01*
X-18914775Y48619224D01*
X-18869224Y48664775D01*
X-18838134Y48702659D01*
X-18802351Y48756213D01*
X-18779248Y48799435D01*
X-18754596Y48858949D01*
X-18740370Y48905847D01*
X-18727804Y48969018D01*
X-18723000Y49017791D01*
X-18721418Y49050000D01*
X-18721418Y50250000D01*
X-18723000Y50282209D01*
X-18727804Y50330982D01*
X-18740370Y50394153D01*
X-18754596Y50441051D01*
X-18779248Y50500565D01*
X-18802351Y50543787D01*
X-18838134Y50597341D01*
X-18869224Y50635225D01*
X-18914775Y50680776D01*
X-18952659Y50711866D01*
X-19006213Y50747649D01*
X-19049435Y50770752D01*
X-19108949Y50795404D01*
X-19155847Y50809630D01*
X-19219018Y50822196D01*
X-19267791Y50827000D01*
X-19300000Y50828582D01*
X-20513000Y50828582D01*
X-20513000Y50996226D01*
X-20550546Y51184980D01*
X-20624194Y51362783D01*
X-20731115Y51522801D01*
X-20867199Y51658885D01*
X-21027217Y51765806D01*
X-21205020Y51839454D01*
X-21393774Y51877000D01*
X-21586226Y51877000D01*
X-21774980Y51839454D01*
X-21952783Y51765806D01*
X-22112801Y51658885D01*
X-22248885Y51522801D01*
X-22355806Y51362783D01*
X-22429454Y51184980D01*
X-22467000Y50996226D01*
X-29413081Y50996226D01*
X-28773358Y51376083D01*
X-26137247Y52766015D01*
X-23432460Y54021602D01*
X-21929851Y54647887D01*
X-13522990Y54634312D01*
G37*
X-13522990Y54634312D02*
X-12796177Y54563048D01*
X-12113889Y54357052D01*
X-11484603Y54022456D01*
X-10932288Y53572000D01*
X-10477991Y53022849D01*
X-10139008Y52395915D01*
X-9928253Y51715075D01*
X-9852000Y50989574D01*
X-9851999Y48977198D01*
X-9851940Y48976600D01*
X-9851901Y48965342D01*
X-9850347Y48950047D01*
X-9850455Y48934662D01*
X-9849975Y48929771D01*
X-9768373Y48153383D01*
X-9761956Y48122123D01*
X-9755980Y48090794D01*
X-9754559Y48086089D01*
X-9523711Y47340339D01*
X-9511364Y47310968D01*
X-9499397Y47281348D01*
X-9497089Y47277008D01*
X-9125786Y46590298D01*
X-9107943Y46563844D01*
X-9090477Y46537154D01*
X-9087371Y46533345D01*
X-8589757Y45931834D01*
X-8567180Y45909414D01*
X-8544799Y45886559D01*
X-8541011Y45883426D01*
X-7936041Y45390025D01*
X-7909483Y45372380D01*
X-7883144Y45354345D01*
X-7878820Y45352007D01*
X-7189536Y44985508D01*
X-7160046Y44973353D01*
X-7130717Y44960783D01*
X-7126021Y44959330D01*
X-6378676Y44733693D01*
X-6347415Y44727503D01*
X-6316174Y44720862D01*
X-6311288Y44720349D01*
X-6311286Y44720349D01*
X-5534564Y44644191D01*
X-5517292Y44642490D01*
X5517292Y44642490D01*
X5517901Y44642550D01*
X5529148Y44642589D01*
X5544443Y44644143D01*
X5559828Y44644035D01*
X5564719Y44644515D01*
X6341107Y44726117D01*
X6372367Y44732534D01*
X6403696Y44738510D01*
X6408401Y44739931D01*
X7154151Y44970779D01*
X7183522Y44983126D01*
X7213142Y44995093D01*
X7217482Y44997401D01*
X7904192Y45368704D01*
X7930646Y45386547D01*
X7957336Y45404013D01*
X7961145Y45407119D01*
X8562656Y45904733D01*
X8585076Y45927310D01*
X8607931Y45949691D01*
X8611064Y45953479D01*
X9104465Y46558449D01*
X9122110Y46585007D01*
X9140145Y46611346D01*
X9142483Y46615670D01*
X9508982Y47304954D01*
X9521137Y47334444D01*
X9533707Y47363773D01*
X9535160Y47368469D01*
X9760797Y48115814D01*
X9766987Y48147075D01*
X9773628Y48178316D01*
X9774141Y48183204D01*
X9850320Y48960141D01*
X9852000Y48977198D01*
X9852000Y50977275D01*
X9923131Y51702731D01*
X10128815Y52383988D01*
X10462910Y53012329D01*
X10912684Y53563806D01*
X11461005Y54017418D01*
X12086997Y54355891D01*
X12766805Y54566327D01*
X13491135Y54642457D01*
X13500341Y54642489D01*
X21920189Y54625036D01*
X24599471Y53473847D01*
X27273753Y52160754D01*
X29878184Y50714039D01*
X32406085Y49137409D01*
X34850967Y47434916D01*
X37206594Y45610901D01*
X39466917Y43670050D01*
X41626158Y41617321D01*
X43678781Y39457977D01*
X45619513Y37197569D01*
X47443419Y34841843D01*
X49145797Y32396868D01*
X50722291Y29868907D01*
X52168875Y27264412D01*
X53481837Y24590066D01*
X54657818Y21852708D01*
X55693796Y19059379D01*
X56587129Y16217202D01*
X57335521Y13333474D01*
X57937056Y10415587D01*
X58390202Y7470973D01*
X58693789Y4507218D01*
X58847042Y1531909D01*
X58849567Y-1447358D01*
X58701362Y-4422921D01*
X58402803Y-7387186D01*
X57954654Y-10332559D01*
X57358071Y-13251449D01*
X56614564Y-16136468D01*
X55726051Y-18980162D01*
X54694818Y-21775231D01*
X53523483Y-24514574D01*
X52215063Y-27191136D01*
X50772896Y-29798086D01*
X49200683Y-32328732D01*
X47502451Y-34776594D01*
X45682566Y-37135383D01*
X43745651Y-39399102D01*
X41696703Y-41561914D01*
X39539582Y-43619607D01*
X38356649Y-44661341D01*
X-38374486Y-44659227D01*
X-40495400Y-42749626D01*
X-42606369Y-40646098D01*
X-44608198Y-38438479D01*
X-46495796Y-36132380D01*
X-48264282Y-33733767D01*
X-49909172Y-31248719D01*
X-51426224Y-28683642D01*
X-52811550Y-26045118D01*
X-54061616Y-23339871D01*
X-55173218Y-20574838D01*
X-56143501Y-17757118D01*
X-56969985Y-14893917D01*
X-57650554Y-11992563D01*
X-58183464Y-9060492D01*
X-58567348Y-6105216D01*
X-58801225Y-3134317D01*
X-58884495Y-155362D01*
X-58816945Y2823989D01*
X-58598750Y5796072D01*
X-58230465Y8753339D01*
X-57713034Y11688182D01*
X-57047784Y14593088D01*
X-56236418Y17460620D01*
X-55281019Y20283413D01*
X-54184024Y23054273D01*
X-52948249Y25766079D01*
X-51576867Y28411876D01*
X-50073369Y30984926D01*
X-48441627Y33478602D01*
X-47042712Y35397075D01*
X-45729560Y35397075D01*
X-45727010Y35371184D01*
X-45727011Y-9705494D01*
X-45729560Y-9731375D01*
X-45727011Y-9757255D01*
X-45719385Y-9834684D01*
X-45689250Y-9934024D01*
X-45640315Y-10025577D01*
X-45574459Y-10105823D01*
X-45554345Y-10122330D01*
X-42092693Y-13583984D01*
X-42092693Y-13637296D01*
X-42064755Y-13777751D01*
X-42009952Y-13910057D01*
X-41930391Y-14029129D01*
X-41829129Y-14130391D01*
X-41710057Y-14209952D01*
X-41577751Y-14264755D01*
X-41437296Y-14292693D01*
X-41294090Y-14292693D01*
X-41153635Y-14264755D01*
X-41021329Y-14209952D01*
X-40902257Y-14130391D01*
X-40800995Y-14029129D01*
X-40721434Y-13910057D01*
X-40696186Y-13849103D01*
X-38826999Y-15718291D01*
X-38827000Y-22498866D01*
X-38864698Y-22536564D01*
X-38944259Y-22655636D01*
X-38999062Y-22787942D01*
X-39027000Y-22928397D01*
X-39027000Y-23071603D01*
X-38999062Y-23212058D01*
X-38944259Y-23344364D01*
X-38864698Y-23463436D01*
X-38763436Y-23564698D01*
X-38644364Y-23644259D01*
X-38512058Y-23699062D01*
X-38371603Y-23727000D01*
X-38228397Y-23727000D01*
X-38087942Y-23699062D01*
X-37955636Y-23644259D01*
X-37836564Y-23564698D01*
X-37735302Y-23463436D01*
X-37655741Y-23344364D01*
X-37600938Y-23212058D01*
X-37573000Y-23071603D01*
X-37573000Y-22928397D01*
X-37600938Y-22787942D01*
X-37655741Y-22655636D01*
X-37735302Y-22536564D01*
X-37773000Y-22498866D01*
X-37773000Y-15525877D01*
X-37770451Y-15499999D01*
X-37773000Y-15474119D01*
X-37780626Y-15396690D01*
X-37810761Y-15297350D01*
X-37859696Y-15205798D01*
X-37925552Y-15125552D01*
X-37945661Y-15109049D01*
X-44073000Y-8981711D01*
X-44073000Y22517291D01*
X-41352000Y22517291D01*
X-41351999Y2482708D01*
X-41351940Y2482110D01*
X-41351901Y2470852D01*
X-41350347Y2455557D01*
X-41350455Y2440172D01*
X-41349975Y2435281D01*
X-41268373Y1658893D01*
X-41261956Y1627633D01*
X-41255980Y1596304D01*
X-41254559Y1591599D01*
X-41023711Y845849D01*
X-41011364Y816478D01*
X-40999397Y786858D01*
X-40997089Y782518D01*
X-40625786Y95808D01*
X-40607943Y69354D01*
X-40590477Y42664D01*
X-40587371Y38855D01*
X-40089757Y-562656D01*
X-40067180Y-585076D01*
X-40044799Y-607931D01*
X-40041011Y-611064D01*
X-39436041Y-1104465D01*
X-39409483Y-1122110D01*
X-39383144Y-1140145D01*
X-39378820Y-1142483D01*
X-38689536Y-1508982D01*
X-38660046Y-1521137D01*
X-38630717Y-1533707D01*
X-38626021Y-1535160D01*
X-37878676Y-1760797D01*
X-37847415Y-1766987D01*
X-37816174Y-1773628D01*
X-37811288Y-1774141D01*
X-37811286Y-1774141D01*
X-37034564Y-1850299D01*
X-37017292Y-1852000D01*
X-30017215Y-1852000D01*
X-29291759Y-1923131D01*
X-28610502Y-2128815D01*
X-27982161Y-2462910D01*
X-27430684Y-2912684D01*
X-26977072Y-3461005D01*
X-26638599Y-4086997D01*
X-26428163Y-4766805D01*
X-26352033Y-5491135D01*
X-26352000Y-5500648D01*
X-26351999Y-22517292D01*
X-26351940Y-22517890D01*
X-26351901Y-22529148D01*
X-26350347Y-22544443D01*
X-26350455Y-22559828D01*
X-26349975Y-22564719D01*
X-26268373Y-23341107D01*
X-26261956Y-23372367D01*
X-26255980Y-23403696D01*
X-26254559Y-23408401D01*
X-26023711Y-24154151D01*
X-26011364Y-24183522D01*
X-25999397Y-24213142D01*
X-25997089Y-24217482D01*
X-25625786Y-24904192D01*
X-25607943Y-24930646D01*
X-25590477Y-24957336D01*
X-25587371Y-24961145D01*
X-25089757Y-25562656D01*
X-25067180Y-25585076D01*
X-25044799Y-25607931D01*
X-25041011Y-25611064D01*
X-24436041Y-26104465D01*
X-24409483Y-26122110D01*
X-24383144Y-26140145D01*
X-24378820Y-26142483D01*
X-23689536Y-26508982D01*
X-23660046Y-26521137D01*
X-23630717Y-26533707D01*
X-23626021Y-26535160D01*
X-22878676Y-26760797D01*
X-22847415Y-26766987D01*
X-22816174Y-26773628D01*
X-22811288Y-26774141D01*
X-22811286Y-26774141D01*
X-22034564Y-26850299D01*
X-22017292Y-26852000D01*
X17292Y-26852000D01*
X23409Y-26851398D01*
X1860832Y-26787233D01*
X1861445Y-26787188D01*
X1862060Y-26787188D01*
X1886563Y-26785388D01*
X3909216Y-26565658D01*
X3910420Y-26565480D01*
X3911658Y-26565385D01*
X3935677Y-26561752D01*
X3935951Y-26561711D01*
X3935976Y-26561705D01*
X5935786Y-26187451D01*
X5936979Y-26187180D01*
X5938200Y-26186991D01*
X5962139Y-26181464D01*
X7927368Y-25654883D01*
X7928540Y-25654520D01*
X7929739Y-25654239D01*
X7952926Y-25646972D01*
X7953184Y-25646892D01*
X7953207Y-25646883D01*
X9872222Y-24971091D01*
X9873361Y-24970640D01*
X9874537Y-24970267D01*
X9897349Y-24961143D01*
X11758883Y-24140108D01*
X11759982Y-24139572D01*
X11761128Y-24139109D01*
X11783173Y-24128261D01*
X13576232Y-23166831D01*
X13577288Y-23166212D01*
X13578395Y-23165662D01*
X13599333Y-23153279D01*
X13599542Y-23153156D01*
X13599560Y-23153143D01*
X15313557Y-22056997D01*
X15314563Y-22056298D01*
X15315623Y-22055666D01*
X15335749Y-22041574D01*
X16960616Y-20817149D01*
X16961567Y-20816373D01*
X16962574Y-20815663D01*
X16981559Y-20800068D01*
X18507700Y-19454593D01*
X18508584Y-19453751D01*
X18509538Y-19452962D01*
X18527271Y-19435956D01*
X19945691Y-17977363D01*
X19946509Y-17976454D01*
X19947398Y-17975596D01*
X19963774Y-17957280D01*
X21266112Y-16394166D01*
X21266861Y-16393193D01*
X21267679Y-16392272D01*
X21282601Y-16372754D01*
X22461179Y-14714332D01*
X22461849Y-14713308D01*
X22462596Y-14712324D01*
X22475892Y-14691848D01*
X22475977Y-14691719D01*
X22475983Y-14691707D01*
X23523850Y-12947765D01*
X23524436Y-12946700D01*
X23525109Y-12945655D01*
X23536688Y-12924416D01*
X23536870Y-12924084D01*
X23536884Y-12924052D01*
X23927165Y-12144679D01*
X34123000Y-12144679D01*
X34123000Y-12455321D01*
X34183604Y-12759994D01*
X34302481Y-13046989D01*
X34475064Y-13305279D01*
X34694721Y-13524936D01*
X34953011Y-13697519D01*
X35240006Y-13816396D01*
X35544679Y-13877000D01*
X35855321Y-13877000D01*
X36159994Y-13816396D01*
X36446989Y-13697519D01*
X36705279Y-13524936D01*
X36924936Y-13305279D01*
X37097519Y-13046989D01*
X37216396Y-12759994D01*
X37277000Y-12455321D01*
X37277000Y-12144679D01*
X37216396Y-11840006D01*
X37097519Y-11553011D01*
X36924936Y-11294721D01*
X36705279Y-11075064D01*
X36446989Y-10902481D01*
X36159994Y-10783604D01*
X35855321Y-10723000D01*
X35544679Y-10723000D01*
X35240006Y-10783604D01*
X34953011Y-10902481D01*
X34694721Y-11075064D01*
X34475064Y-11294721D01*
X34302481Y-11553011D01*
X34183604Y-11840006D01*
X34123000Y-12144679D01*
X23927165Y-12144679D01*
X24447859Y-11104878D01*
X24448365Y-11103762D01*
X24448952Y-11102677D01*
X24458918Y-11080502D01*
X24459024Y-11080267D01*
X24459032Y-11080244D01*
X25227760Y-9196534D01*
X25228176Y-9195393D01*
X25228682Y-9194255D01*
X25237004Y-9171139D01*
X25654977Y-7869302D01*
X31123000Y-7869302D01*
X31123000Y-8130698D01*
X31173996Y-8387072D01*
X31274028Y-8628570D01*
X31419252Y-8845913D01*
X31604087Y-9030748D01*
X31821430Y-9175972D01*
X32062928Y-9276004D01*
X32319302Y-9327000D01*
X32580698Y-9327000D01*
X32837072Y-9276004D01*
X33078570Y-9175972D01*
X33295913Y-9030748D01*
X33480748Y-8845913D01*
X33625972Y-8628570D01*
X33726004Y-8387072D01*
X33777000Y-8130698D01*
X33777000Y-7869302D01*
X37623000Y-7869302D01*
X37623000Y-8130698D01*
X37673996Y-8387072D01*
X37774028Y-8628570D01*
X37919252Y-8845913D01*
X38104087Y-9030748D01*
X38321430Y-9175972D01*
X38562928Y-9276004D01*
X38819302Y-9327000D01*
X39080698Y-9327000D01*
X39337072Y-9276004D01*
X39578570Y-9175972D01*
X39795913Y-9030748D01*
X39980748Y-8845913D01*
X40125972Y-8628570D01*
X40226004Y-8387072D01*
X40277000Y-8130698D01*
X40277000Y-7869302D01*
X40226004Y-7612928D01*
X40125972Y-7371430D01*
X39980748Y-7154087D01*
X39795913Y-6969252D01*
X39578570Y-6824028D01*
X39337072Y-6723996D01*
X39080698Y-6673000D01*
X38819302Y-6673000D01*
X38562928Y-6723996D01*
X38321430Y-6824028D01*
X38104087Y-6969252D01*
X37919252Y-7154087D01*
X37774028Y-7371430D01*
X37673996Y-7612928D01*
X37623000Y-7869302D01*
X33777000Y-7869302D01*
X33726004Y-7612928D01*
X33625972Y-7371430D01*
X33480748Y-7154087D01*
X33295913Y-6969252D01*
X33078570Y-6824028D01*
X32837072Y-6723996D01*
X32580698Y-6673000D01*
X32319302Y-6673000D01*
X32062928Y-6723996D01*
X31821430Y-6824028D01*
X31604087Y-6969252D01*
X31419252Y-7154087D01*
X31274028Y-7371430D01*
X31173996Y-7612928D01*
X31123000Y-7869302D01*
X25654977Y-7869302D01*
X25858957Y-7233980D01*
X25859285Y-7232805D01*
X25859701Y-7231637D01*
X25866225Y-7207950D01*
X26337729Y-5228785D01*
X26337965Y-5227591D01*
X26338291Y-5226393D01*
X26342926Y-5202545D01*
X26342979Y-5202275D01*
X26342982Y-5202249D01*
X26661252Y-3192770D01*
X26661396Y-3191561D01*
X26661629Y-3190341D01*
X26664420Y-3166212D01*
X26664453Y-3165935D01*
X26664454Y-3165909D01*
X26827621Y-1137935D01*
X26827672Y-1136713D01*
X26827810Y-1135485D01*
X26828753Y-1110934D01*
X26830692Y-555465D01*
X26841879Y-591605D01*
X26854226Y-620976D01*
X26866193Y-650596D01*
X26868500Y-654935D01*
X26961325Y-826612D01*
X26979158Y-853050D01*
X26996635Y-879758D01*
X26999742Y-883567D01*
X27124146Y-1033945D01*
X27146759Y-1056400D01*
X27169104Y-1079219D01*
X27172892Y-1082351D01*
X27324134Y-1205701D01*
X27350676Y-1223336D01*
X27377031Y-1241381D01*
X27381354Y-1243719D01*
X27553677Y-1335344D01*
X27583167Y-1347499D01*
X27612496Y-1360069D01*
X27617191Y-1361523D01*
X27804027Y-1417932D01*
X27835304Y-1424125D01*
X27866528Y-1430762D01*
X27871416Y-1431275D01*
X28065650Y-1450320D01*
X28082708Y-1452000D01*
X43317292Y-1452000D01*
X43332678Y-1450485D01*
X43338884Y-1450528D01*
X43343776Y-1450048D01*
X43537873Y-1429647D01*
X43569145Y-1423228D01*
X43600462Y-1417254D01*
X43605165Y-1415834D01*
X43605171Y-1415832D01*
X43791605Y-1358121D01*
X43820976Y-1345774D01*
X43850596Y-1333807D01*
X43854935Y-1331500D01*
X44026612Y-1238675D01*
X44053050Y-1220842D01*
X44079758Y-1203365D01*
X44083567Y-1200258D01*
X44221589Y-1086076D01*
X44221589Y-7688856D01*
X41473958Y-10436489D01*
X41473947Y-10436498D01*
X41145615Y-10764831D01*
X40935321Y-10723000D01*
X40624679Y-10723000D01*
X40320006Y-10783604D01*
X40033011Y-10902481D01*
X39774721Y-11075064D01*
X39555064Y-11294721D01*
X39382481Y-11553011D01*
X39263604Y-11840006D01*
X39203000Y-12144679D01*
X39203000Y-12455321D01*
X39263604Y-12759994D01*
X39382481Y-13046989D01*
X39555064Y-13305279D01*
X39774721Y-13524936D01*
X40033011Y-13697519D01*
X40320006Y-13816396D01*
X40624679Y-13877000D01*
X40935321Y-13877000D01*
X41239994Y-13816396D01*
X41526989Y-13697519D01*
X41785279Y-13524936D01*
X42004936Y-13305279D01*
X42177519Y-13046989D01*
X42296396Y-12759994D01*
X42357000Y-12455321D01*
X42357000Y-12144679D01*
X44043000Y-12144679D01*
X44043000Y-12455321D01*
X44103604Y-12759994D01*
X44222481Y-13046989D01*
X44395064Y-13305279D01*
X44614721Y-13524936D01*
X44873011Y-13697519D01*
X45160006Y-13816396D01*
X45464679Y-13877000D01*
X45775321Y-13877000D01*
X46079994Y-13816396D01*
X46366989Y-13697519D01*
X46472761Y-13626845D01*
X46666139Y-13607799D01*
X46916280Y-13531919D01*
X47146810Y-13408698D01*
X47348872Y-13242870D01*
X47390427Y-13192235D01*
X48437983Y-12144679D01*
X54203000Y-12144679D01*
X54203000Y-12455321D01*
X54263604Y-12759994D01*
X54382481Y-13046989D01*
X54555064Y-13305279D01*
X54774721Y-13524936D01*
X55033011Y-13697519D01*
X55320006Y-13816396D01*
X55624679Y-13877000D01*
X55935321Y-13877000D01*
X56239994Y-13816396D01*
X56526989Y-13697519D01*
X56785279Y-13524936D01*
X57004936Y-13305279D01*
X57177519Y-13046989D01*
X57296396Y-12759994D01*
X57357000Y-12455321D01*
X57357000Y-12144679D01*
X57296396Y-11840006D01*
X57177519Y-11553011D01*
X57004936Y-11294721D01*
X56785279Y-11075064D01*
X56526989Y-10902481D01*
X56239994Y-10783604D01*
X55935321Y-10723000D01*
X55624679Y-10723000D01*
X55320006Y-10783604D01*
X55033011Y-10902481D01*
X54774721Y-11075064D01*
X54555064Y-11294721D01*
X54382481Y-11553011D01*
X54263604Y-11840006D01*
X54203000Y-12144679D01*
X48437983Y-12144679D01*
X51092240Y-9490423D01*
X51142870Y-9448872D01*
X51187308Y-9394724D01*
X51308697Y-9246812D01*
X51431919Y-9016280D01*
X51441901Y-8983373D01*
X51507799Y-8766139D01*
X51527000Y-8571186D01*
X51527000Y-8571174D01*
X51533419Y-8506003D01*
X51527000Y-8440831D01*
X51527000Y-7869302D01*
X52623000Y-7869302D01*
X52623000Y-8130698D01*
X52673996Y-8387072D01*
X52774028Y-8628570D01*
X52919252Y-8845913D01*
X53104087Y-9030748D01*
X53321430Y-9175972D01*
X53562928Y-9276004D01*
X53819302Y-9327000D01*
X54080698Y-9327000D01*
X54337072Y-9276004D01*
X54578570Y-9175972D01*
X54795913Y-9030748D01*
X54980748Y-8845913D01*
X55125972Y-8628570D01*
X55226004Y-8387072D01*
X55277000Y-8130698D01*
X55277000Y-7869302D01*
X55226004Y-7612928D01*
X55125972Y-7371430D01*
X54980748Y-7154087D01*
X54795913Y-6969252D01*
X54578570Y-6824028D01*
X54337072Y-6723996D01*
X54080698Y-6673000D01*
X53819302Y-6673000D01*
X53562928Y-6723996D01*
X53321430Y-6824028D01*
X53104087Y-6969252D01*
X52919252Y-7154087D01*
X52774028Y-7371430D01*
X52673996Y-7612928D01*
X52623000Y-7869302D01*
X51527000Y-7869302D01*
X51527000Y6956342D01*
X52623000Y8052342D01*
X52623000Y7869302D01*
X52673996Y7612928D01*
X52774028Y7371430D01*
X52919252Y7154087D01*
X53104087Y6969252D01*
X53321430Y6824028D01*
X53562928Y6723996D01*
X53819302Y6673000D01*
X54080698Y6673000D01*
X54337072Y6723996D01*
X54578570Y6824028D01*
X54795913Y6969252D01*
X54980748Y7154087D01*
X55125972Y7371430D01*
X55226004Y7612928D01*
X55277000Y7869302D01*
X55277000Y8130698D01*
X55226004Y8387072D01*
X55125972Y8628570D01*
X54980748Y8845913D01*
X54795913Y9030748D01*
X54578570Y9175972D01*
X54337072Y9276004D01*
X54080698Y9327000D01*
X53897659Y9327000D01*
X55348579Y10777920D01*
X55624679Y10723000D01*
X55935321Y10723000D01*
X56239994Y10783604D01*
X56526989Y10902481D01*
X56785279Y11075064D01*
X57004936Y11294721D01*
X57177519Y11553011D01*
X57296396Y11840006D01*
X57357000Y12144679D01*
X57357000Y12455321D01*
X57296396Y12759994D01*
X57177519Y13046989D01*
X57004936Y13305279D01*
X56785279Y13524936D01*
X56526989Y13697519D01*
X56239994Y13816396D01*
X55935321Y13877000D01*
X55624679Y13877000D01*
X55320006Y13816396D01*
X55033011Y13697519D01*
X54927239Y13626845D01*
X54733861Y13607799D01*
X54498047Y13536265D01*
X54483720Y13531919D01*
X54253189Y13408698D01*
X54109617Y13290871D01*
X54051128Y13242870D01*
X54009577Y13192240D01*
X49307765Y8490427D01*
X49257130Y8448872D01*
X49174620Y8348332D01*
X49091302Y8246810D01*
X49029239Y8130698D01*
X48968081Y8016279D01*
X48892201Y7766138D01*
X48873000Y7571185D01*
X48873000Y7571176D01*
X48866581Y7506002D01*
X48873000Y7440828D01*
X48873001Y-7956340D01*
X48777000Y-8052341D01*
X48777000Y-7869302D01*
X48726004Y-7612928D01*
X48625972Y-7371430D01*
X48480748Y-7154087D01*
X48295913Y-6969252D01*
X48078570Y-6824028D01*
X47837072Y-6723996D01*
X47580698Y-6673000D01*
X47319302Y-6673000D01*
X47062928Y-6723996D01*
X46821430Y-6824028D01*
X46604087Y-6969252D01*
X46419252Y-7154087D01*
X46274028Y-7371430D01*
X46173996Y-7612928D01*
X46123000Y-7869302D01*
X46123000Y-8130698D01*
X46173996Y-8387072D01*
X46274028Y-8628570D01*
X46419252Y-8845913D01*
X46604087Y-9030748D01*
X46821430Y-9175972D01*
X47062928Y-9276004D01*
X47319302Y-9327000D01*
X47502341Y-9327000D01*
X46051421Y-10777920D01*
X45775321Y-10723000D01*
X45464679Y-10723000D01*
X45160006Y-10783604D01*
X44873011Y-10902481D01*
X44614721Y-11075064D01*
X44395064Y-11294721D01*
X44222481Y-11553011D01*
X44103604Y-11840006D01*
X44043000Y-12144679D01*
X42357000Y-12144679D01*
X42315169Y-11934385D01*
X42643502Y-11606053D01*
X42643511Y-11606042D01*
X45604647Y-8644908D01*
X45636194Y-8619018D01*
X45662084Y-8587471D01*
X45662091Y-8587464D01*
X45739540Y-8493092D01*
X45816333Y-8349423D01*
X45847747Y-8245865D01*
X45863622Y-8193532D01*
X45875588Y-8072036D01*
X45875588Y-8072026D01*
X45879588Y-8031412D01*
X45875588Y-7990798D01*
X45875588Y6223033D01*
X45879588Y6263647D01*
X45875588Y6304261D01*
X45875588Y6304270D01*
X45863622Y6425766D01*
X45816333Y6581656D01*
X45769979Y6668378D01*
X45739540Y6725326D01*
X45662090Y6819698D01*
X45662089Y6819699D01*
X45636194Y6851252D01*
X45604642Y6877146D01*
X44351090Y8130698D01*
X46123000Y8130698D01*
X46123000Y7869302D01*
X46173996Y7612928D01*
X46274028Y7371430D01*
X46419252Y7154087D01*
X46604087Y6969252D01*
X46821430Y6824028D01*
X47062928Y6723996D01*
X47319302Y6673000D01*
X47580698Y6673000D01*
X47837072Y6723996D01*
X48078570Y6824028D01*
X48295913Y6969252D01*
X48480748Y7154087D01*
X48625972Y7371430D01*
X48726004Y7612928D01*
X48777000Y7869302D01*
X48777000Y8130698D01*
X48726004Y8387072D01*
X48625972Y8628570D01*
X48480748Y8845913D01*
X48295913Y9030748D01*
X48078570Y9175972D01*
X47837072Y9276004D01*
X47580698Y9327000D01*
X47319302Y9327000D01*
X47062928Y9276004D01*
X46821430Y9175972D01*
X46604087Y9030748D01*
X46419252Y8845913D01*
X46274028Y8628570D01*
X46173996Y8387072D01*
X46123000Y8130698D01*
X44351090Y8130698D01*
X41607000Y10874787D01*
X41607000Y10955942D01*
X41785279Y11075064D01*
X42004936Y11294721D01*
X42177519Y11553011D01*
X42296396Y11840006D01*
X42357000Y12144679D01*
X42357000Y12455321D01*
X42296396Y12759994D01*
X42177519Y13046989D01*
X42004936Y13305279D01*
X41785279Y13524936D01*
X41526989Y13697519D01*
X41239994Y13816396D01*
X40935321Y13877000D01*
X40624679Y13877000D01*
X40414385Y13835169D01*
X34227000Y20022553D01*
X34227000Y23640624D01*
X34215034Y23762120D01*
X34167745Y23918010D01*
X34090952Y24061679D01*
X33987606Y24187606D01*
X33861679Y24290952D01*
X33718010Y24367745D01*
X33562120Y24415034D01*
X33400000Y24431001D01*
X33237881Y24415034D01*
X33081991Y24367745D01*
X32938322Y24290952D01*
X32812395Y24187606D01*
X32709049Y24061679D01*
X32632256Y23918010D01*
X32584967Y23762120D01*
X32573001Y23640624D01*
X32573000Y19720614D01*
X32569000Y19680000D01*
X32573000Y19639386D01*
X32573000Y19639377D01*
X32584966Y19517881D01*
X32632255Y19361991D01*
X32642866Y19342139D01*
X32709048Y19218321D01*
X32746657Y19172495D01*
X32812394Y19092394D01*
X32843952Y19066495D01*
X39244831Y12665615D01*
X39203000Y12455321D01*
X39203000Y12144679D01*
X39263604Y11840006D01*
X39382481Y11553011D01*
X39555064Y11294721D01*
X39774721Y11075064D01*
X39953001Y10955942D01*
X39953001Y10572857D01*
X39949000Y10532234D01*
X39964967Y10370114D01*
X40012256Y10214224D01*
X40089048Y10070555D01*
X40166498Y9976183D01*
X40192395Y9944628D01*
X40223948Y9918733D01*
X43976611Y6166070D01*
X43846324Y6235344D01*
X43816834Y6247499D01*
X43787505Y6260069D01*
X43782809Y6261522D01*
X43595973Y6317932D01*
X43564681Y6324128D01*
X43533471Y6330762D01*
X43528583Y6331275D01*
X43334350Y6350320D01*
X43317292Y6352000D01*
X43082708Y6352000D01*
X43067322Y6350485D01*
X43061115Y6350528D01*
X43056224Y6350048D01*
X42862127Y6329647D01*
X42830855Y6323228D01*
X42799538Y6317254D01*
X42794835Y6315834D01*
X42794829Y6315832D01*
X42608395Y6258121D01*
X42579024Y6245774D01*
X42549404Y6233807D01*
X42545065Y6231499D01*
X42373388Y6138675D01*
X42346950Y6120842D01*
X42320242Y6103365D01*
X42316433Y6100258D01*
X42166055Y5975854D01*
X42143600Y5953241D01*
X42120781Y5930896D01*
X42117649Y5927108D01*
X41994299Y5775866D01*
X41976676Y5749342D01*
X41958619Y5722970D01*
X41956281Y5718646D01*
X41864656Y5546324D01*
X41852501Y5516834D01*
X41839931Y5487505D01*
X41838478Y5482809D01*
X41782068Y5295973D01*
X41775872Y5264681D01*
X41769238Y5233471D01*
X41768725Y5228583D01*
X41749680Y5034350D01*
X41748000Y5017291D01*
X41748001Y1617223D01*
X41743526Y1571583D01*
X41735272Y1544245D01*
X41721868Y1519034D01*
X41703818Y1496903D01*
X41681814Y1478700D01*
X41656699Y1465120D01*
X41629422Y1456676D01*
X41584928Y1452000D01*
X29817213Y1452000D01*
X29771583Y1456474D01*
X29744245Y1464728D01*
X29719034Y1478132D01*
X29696903Y1496182D01*
X29678700Y1518186D01*
X29665120Y1543301D01*
X29656676Y1570578D01*
X29652000Y1615072D01*
X29652000Y5017292D01*
X29650485Y5032678D01*
X29650528Y5038885D01*
X29650048Y5043776D01*
X29629647Y5237873D01*
X29623228Y5269145D01*
X29617254Y5300462D01*
X29615833Y5305167D01*
X29558121Y5491605D01*
X29545774Y5520976D01*
X29533807Y5550596D01*
X29531499Y5554935D01*
X29438675Y5726612D01*
X29420842Y5753050D01*
X29403365Y5779758D01*
X29400258Y5783567D01*
X29275854Y5933945D01*
X29253241Y5956400D01*
X29230896Y5979219D01*
X29227108Y5982351D01*
X29075866Y6105701D01*
X29049342Y6123324D01*
X29022970Y6141381D01*
X29018646Y6143719D01*
X28846324Y6235344D01*
X28816834Y6247499D01*
X28787505Y6260069D01*
X28782809Y6261522D01*
X28595973Y6317932D01*
X28564681Y6324128D01*
X28533471Y6330762D01*
X28528583Y6331275D01*
X28334350Y6350320D01*
X28317292Y6352000D01*
X28082708Y6352000D01*
X28067322Y6350485D01*
X28061115Y6350528D01*
X28056224Y6350048D01*
X27862127Y6329647D01*
X27830855Y6323228D01*
X27799538Y6317254D01*
X27794835Y6315834D01*
X27794829Y6315832D01*
X27608395Y6258121D01*
X27579024Y6245774D01*
X27549404Y6233807D01*
X27545065Y6231499D01*
X27373388Y6138675D01*
X27346950Y6120842D01*
X27320242Y6103365D01*
X27316433Y6100258D01*
X27166055Y5975854D01*
X27143600Y5953241D01*
X27120781Y5930896D01*
X27117649Y5927108D01*
X26994299Y5775866D01*
X26976676Y5749342D01*
X26958619Y5722970D01*
X26956281Y5718646D01*
X26864656Y5546324D01*
X26852501Y5516834D01*
X26839931Y5487505D01*
X26838478Y5482809D01*
X26782068Y5295973D01*
X26775872Y5264681D01*
X26769238Y5233471D01*
X26768725Y5228583D01*
X26749680Y5034350D01*
X26748000Y5017291D01*
X26748001Y2134126D01*
X26685905Y2979707D01*
X26685769Y2980922D01*
X26685717Y2982157D01*
X26682924Y3006285D01*
X26682893Y3006563D01*
X26682888Y3006588D01*
X26378654Y5018241D01*
X26378426Y5019434D01*
X26378279Y5020671D01*
X26373642Y5044518D01*
X26373591Y5044788D01*
X26373584Y5044812D01*
X25915915Y7027196D01*
X25915596Y7028369D01*
X25915355Y7029588D01*
X25908830Y7053275D01*
X25571186Y8130698D01*
X31123000Y8130698D01*
X31123000Y7869302D01*
X31173996Y7612928D01*
X31274028Y7371430D01*
X31419252Y7154087D01*
X31604087Y6969252D01*
X31821430Y6824028D01*
X32062928Y6723996D01*
X32319302Y6673000D01*
X32580698Y6673000D01*
X32837072Y6723996D01*
X33078570Y6824028D01*
X33295913Y6969252D01*
X33480748Y7154087D01*
X33625972Y7371430D01*
X33726004Y7612928D01*
X33777000Y7869302D01*
X33777000Y8130698D01*
X37623000Y8130698D01*
X37623000Y7869302D01*
X37673996Y7612928D01*
X37774028Y7371430D01*
X37919252Y7154087D01*
X38104087Y6969252D01*
X38321430Y6824028D01*
X38562928Y6723996D01*
X38819302Y6673000D01*
X39080698Y6673000D01*
X39337072Y6723996D01*
X39578570Y6824028D01*
X39795913Y6969252D01*
X39980748Y7154087D01*
X40125972Y7371430D01*
X40226004Y7612928D01*
X40277000Y7869302D01*
X40277000Y8130698D01*
X40226004Y8387072D01*
X40125972Y8628570D01*
X39980748Y8845913D01*
X39795913Y9030748D01*
X39578570Y9175972D01*
X39337072Y9276004D01*
X39080698Y9327000D01*
X38819302Y9327000D01*
X38562928Y9276004D01*
X38321430Y9175972D01*
X38104087Y9030748D01*
X37919252Y8845913D01*
X37774028Y8628570D01*
X37673996Y8387072D01*
X37623000Y8130698D01*
X33777000Y8130698D01*
X33726004Y8387072D01*
X33625972Y8628570D01*
X33480748Y8845913D01*
X33295913Y9030748D01*
X33078570Y9175972D01*
X32837072Y9276004D01*
X32580698Y9327000D01*
X32319302Y9327000D01*
X32062928Y9276004D01*
X31821430Y9175972D01*
X31604087Y9030748D01*
X31419252Y8845913D01*
X31274028Y8628570D01*
X31173996Y8387072D01*
X31123000Y8130698D01*
X25571186Y8130698D01*
X25300415Y8994729D01*
X25300004Y8995885D01*
X25299672Y8997072D01*
X25291349Y9020189D01*
X24535782Y10909242D01*
X24535286Y10910356D01*
X24534862Y10911521D01*
X24524790Y10933931D01*
X23776174Y12455321D01*
X34123000Y12455321D01*
X34123000Y12144679D01*
X34183604Y11840006D01*
X34302481Y11553011D01*
X34475064Y11294721D01*
X34694721Y11075064D01*
X34953011Y10902481D01*
X35240006Y10783604D01*
X35544679Y10723000D01*
X35855321Y10723000D01*
X36159994Y10783604D01*
X36446989Y10902481D01*
X36705279Y11075064D01*
X36924936Y11294721D01*
X37097519Y11553011D01*
X37216396Y11840006D01*
X37277000Y12144679D01*
X37277000Y12455321D01*
X37216396Y12759994D01*
X37097519Y13046989D01*
X36924936Y13305279D01*
X36705279Y13524936D01*
X36446989Y13697519D01*
X36159994Y13816396D01*
X35855321Y13877000D01*
X35544679Y13877000D01*
X35240006Y13816396D01*
X34953011Y13697519D01*
X34694721Y13524936D01*
X34475064Y13305279D01*
X34302481Y13046989D01*
X34183604Y12759994D01*
X34123000Y12455321D01*
X23776174Y12455321D01*
X23626522Y12759452D01*
X23625941Y12760527D01*
X23625430Y12761653D01*
X23613850Y12782890D01*
X23613669Y12783225D01*
X23613650Y12783255D01*
X22577996Y14534451D01*
X22577332Y14535481D01*
X22576738Y14536562D01*
X22563357Y14557167D01*
X21396385Y16223776D01*
X21395643Y16224754D01*
X21394968Y16225785D01*
X21380182Y16245123D01*
X21380046Y16245302D01*
X21380033Y16245317D01*
X20088651Y17817470D01*
X20087840Y17818383D01*
X20087085Y17819364D01*
X20070849Y17837523D01*
X20070709Y17837680D01*
X20070695Y17837693D01*
X18662507Y19306139D01*
X18661625Y19306991D01*
X18660800Y19307907D01*
X18643214Y19324771D01*
X18643067Y19324913D01*
X18643052Y19324925D01*
X17126355Y20681009D01*
X17125409Y20681792D01*
X17124517Y20682641D01*
X17105672Y20698120D01*
X17105533Y20698235D01*
X17105520Y20698244D01*
X15489252Y21933974D01*
X15488252Y21934679D01*
X15487295Y21935460D01*
X15467169Y21949552D01*
X13760849Y23057649D01*
X13759798Y23058276D01*
X13758783Y23058981D01*
X13737760Y23071413D01*
X13737636Y23071487D01*
X13737625Y23071493D01*
X11951332Y24045412D01*
X11950231Y24045959D01*
X11949170Y24046581D01*
X11927353Y24057316D01*
X11927125Y24057429D01*
X11927103Y24057438D01*
X11276123Y24350000D01*
X25481418Y24350000D01*
X25481418Y22650000D01*
X25487732Y22585897D01*
X25506430Y22524257D01*
X25536794Y22467450D01*
X25577657Y22417657D01*
X25627450Y22376794D01*
X25684257Y22346430D01*
X25745897Y22327732D01*
X25810000Y22321418D01*
X27510000Y22321418D01*
X27574103Y22327732D01*
X27635743Y22346430D01*
X27692550Y22376794D01*
X27742343Y22417657D01*
X27783206Y22467450D01*
X27813570Y22524257D01*
X27832268Y22585897D01*
X27838582Y22650000D01*
X27838582Y24350000D01*
X27832268Y24414103D01*
X27813570Y24475743D01*
X27783206Y24532550D01*
X27742343Y24582343D01*
X27692550Y24623206D01*
X27635743Y24653570D01*
X27574103Y24672268D01*
X27510000Y24678582D01*
X25810000Y24678582D01*
X25745897Y24672268D01*
X25684257Y24653570D01*
X25627450Y24623206D01*
X25577657Y24582343D01*
X25536794Y24532550D01*
X25506430Y24475743D01*
X25487732Y24414103D01*
X25481418Y24350000D01*
X11276123Y24350000D01*
X10071368Y24891438D01*
X10070233Y24891897D01*
X10069123Y24892438D01*
X10046409Y24901523D01*
X10046311Y24901562D01*
X10046303Y24901565D01*
X8132038Y25590743D01*
X8130874Y25591112D01*
X8129723Y25591568D01*
X8106278Y25598915D01*
X7655790Y25723000D01*
X30174488Y25723000D01*
X30197903Y25720694D01*
X30221318Y25723000D01*
X30221326Y25723000D01*
X30291411Y25729903D01*
X30381326Y25757178D01*
X30464192Y25801471D01*
X30536824Y25861079D01*
X30551758Y25879276D01*
X35045494Y30373011D01*
X39521271Y30373011D01*
X39550892Y30357178D01*
X39640807Y30329903D01*
X39710892Y30323000D01*
X39710899Y30323000D01*
X39734314Y30320694D01*
X39749661Y30322205D01*
X39836564Y30235302D01*
X39955636Y30155741D01*
X40087942Y30100938D01*
X40228397Y30073000D01*
X40371603Y30073000D01*
X40512058Y30100938D01*
X40644364Y30155741D01*
X40763436Y30235302D01*
X40864698Y30336564D01*
X40944259Y30455636D01*
X40999062Y30587942D01*
X41027000Y30728397D01*
X41027000Y30871603D01*
X40999062Y31012058D01*
X40944259Y31144364D01*
X40925125Y31173000D01*
X44150340Y31173000D01*
X46873000Y28450339D01*
X46873000Y27425125D01*
X46844364Y27444259D01*
X46712058Y27499062D01*
X46571603Y27527000D01*
X46428397Y27527000D01*
X46287942Y27499062D01*
X46155636Y27444259D01*
X46036564Y27364698D01*
X45935302Y27263436D01*
X45855741Y27144364D01*
X45800938Y27012058D01*
X45773000Y26871603D01*
X45773000Y26747580D01*
X44979271Y25953850D01*
X44961080Y25938921D01*
X44946151Y25920730D01*
X44946148Y25920727D01*
X44935249Y25907446D01*
X44901472Y25866289D01*
X44881044Y25828071D01*
X44857178Y25783422D01*
X44829903Y25693507D01*
X44820694Y25600000D01*
X44823001Y25576575D01*
X44823000Y24106132D01*
X44735302Y24018434D01*
X44655741Y23899362D01*
X44600938Y23767056D01*
X44573000Y23626601D01*
X44573000Y23483395D01*
X44600938Y23342940D01*
X44655741Y23210634D01*
X44735302Y23091562D01*
X44836564Y22990300D01*
X44955636Y22910739D01*
X45087942Y22855936D01*
X45228397Y22827998D01*
X45371603Y22827998D01*
X45512058Y22855936D01*
X45644364Y22910739D01*
X45763436Y22990300D01*
X45864698Y23091562D01*
X45944259Y23210634D01*
X45999062Y23342940D01*
X46027000Y23483395D01*
X46027000Y23626601D01*
X45999062Y23767056D01*
X45944259Y23899362D01*
X45864698Y24018434D01*
X45777000Y24106132D01*
X45777000Y25402421D01*
X46447580Y26073000D01*
X46571603Y26073000D01*
X46712058Y26100938D01*
X46844364Y26155741D01*
X46873001Y26174875D01*
X46873001Y25200008D01*
X46873000Y25200000D01*
X46873000Y23265174D01*
X46866581Y23200000D01*
X46873000Y23134826D01*
X46873001Y15429662D01*
X45284499Y13841160D01*
X45160006Y13816396D01*
X44873011Y13697519D01*
X44614721Y13524936D01*
X44395064Y13305279D01*
X44222481Y13046989D01*
X44103604Y12759994D01*
X44043000Y12455321D01*
X44043000Y12144679D01*
X44103604Y11840006D01*
X44222481Y11553011D01*
X44395064Y11294721D01*
X44614721Y11075064D01*
X44873011Y10902481D01*
X45160006Y10783604D01*
X45464679Y10723000D01*
X45775321Y10723000D01*
X46079994Y10783604D01*
X46366989Y10902481D01*
X46625279Y11075064D01*
X46844936Y11294721D01*
X47017519Y11553011D01*
X47136396Y11840006D01*
X47161160Y11964499D01*
X49092240Y13895579D01*
X49142870Y13937130D01*
X49197361Y14003527D01*
X49308698Y14139191D01*
X49431919Y14369722D01*
X49454420Y14443898D01*
X49507799Y14619863D01*
X49527000Y14814816D01*
X49527000Y14814826D01*
X49533419Y14880000D01*
X49527000Y14945174D01*
X49527000Y21273000D01*
X50800000Y21273000D01*
X50863795Y21279283D01*
X50925137Y21297891D01*
X50981671Y21328109D01*
X51031224Y21368776D01*
X51071891Y21418329D01*
X51102109Y21474863D01*
X51120717Y21536205D01*
X51127000Y21600000D01*
X51127000Y25200000D01*
X51120717Y25263795D01*
X51102109Y25325137D01*
X51071891Y25381671D01*
X51031224Y25431224D01*
X50981671Y25471891D01*
X50925137Y25502109D01*
X50863795Y25520717D01*
X50800000Y25527000D01*
X49527000Y25527000D01*
X49527000Y28934829D01*
X49533419Y29000001D01*
X49527000Y29065172D01*
X49527000Y29065184D01*
X49507799Y29260137D01*
X49431919Y29510278D01*
X49308698Y29740808D01*
X49308697Y29740810D01*
X49184422Y29892239D01*
X49184421Y29892240D01*
X49142870Y29942870D01*
X49092241Y29984420D01*
X45684425Y33392235D01*
X45642870Y33442870D01*
X45440808Y33608698D01*
X45210278Y33731919D01*
X44960137Y33807799D01*
X44765184Y33827000D01*
X44765174Y33827000D01*
X44700000Y33833419D01*
X44634826Y33827000D01*
X40734816Y33827000D01*
X40725000Y33826033D01*
X40715184Y33827000D01*
X26635623Y33827000D01*
X26665510Y33882915D01*
X26712661Y34038352D01*
X26728582Y34200000D01*
X26728582Y35200000D01*
X26712661Y35361648D01*
X26665510Y35517085D01*
X26588941Y35660335D01*
X26485896Y35785896D01*
X26407785Y35850000D01*
X26485896Y35914104D01*
X26588941Y36039665D01*
X26665510Y36182915D01*
X26712661Y36338352D01*
X26728582Y36500000D01*
X26728582Y37500000D01*
X26712661Y37661648D01*
X26665510Y37817085D01*
X26588941Y37960335D01*
X26485896Y38085896D01*
X26360335Y38188941D01*
X26217085Y38265510D01*
X26061648Y38312661D01*
X25900000Y38328582D01*
X24727000Y38328582D01*
X24727000Y39850340D01*
X26092241Y41215580D01*
X26142870Y41257130D01*
X26184422Y41307761D01*
X26308697Y41459190D01*
X26431919Y41689722D01*
X26443160Y41726778D01*
X26507799Y41939863D01*
X26527000Y42134816D01*
X26527000Y42134828D01*
X26533419Y42199999D01*
X26527000Y42265171D01*
X26527000Y45743231D01*
X26619124Y45835355D01*
X26819066Y46134591D01*
X26956789Y46467084D01*
X27027000Y46820056D01*
X27027000Y47179944D01*
X26956789Y47532916D01*
X26819066Y47865409D01*
X26619124Y48164645D01*
X26364645Y48419124D01*
X26065409Y48619066D01*
X25732916Y48756789D01*
X25379944Y48827000D01*
X25020056Y48827000D01*
X24667084Y48756789D01*
X24334591Y48619066D01*
X24035355Y48419124D01*
X23780876Y48164645D01*
X23580934Y47865409D01*
X23443211Y47532916D01*
X23373000Y47179944D01*
X23373000Y47173768D01*
X23215409Y47279066D01*
X22882916Y47416789D01*
X22529944Y47487000D01*
X22170056Y47487000D01*
X21817084Y47416789D01*
X21484591Y47279066D01*
X21185355Y47079124D01*
X20930876Y46824645D01*
X20730934Y46525409D01*
X20593211Y46192916D01*
X20523000Y45839944D01*
X20523000Y45480056D01*
X20593211Y45127084D01*
X20730934Y44794591D01*
X20930876Y44495355D01*
X21185355Y44240876D01*
X21484591Y44040934D01*
X21817084Y43903211D01*
X22170056Y43833000D01*
X22529944Y43833000D01*
X22882916Y43903211D01*
X23215409Y44040934D01*
X23514645Y44240876D01*
X23769124Y44495355D01*
X23873001Y44650818D01*
X23873000Y42749661D01*
X22507761Y41384421D01*
X22457131Y41342870D01*
X22415580Y41292240D01*
X22415578Y41292238D01*
X22291302Y41140808D01*
X22168081Y40910277D01*
X22092202Y40660137D01*
X22066581Y40400000D01*
X22073001Y40334816D01*
X22073000Y38328582D01*
X20900000Y38328582D01*
X20738352Y38312661D01*
X20582915Y38265510D01*
X20439665Y38188941D01*
X20314104Y38085896D01*
X20211059Y37960335D01*
X20134490Y37817085D01*
X20087339Y37661648D01*
X20071418Y37500000D01*
X20071418Y36500000D01*
X20087339Y36338352D01*
X20134490Y36182915D01*
X20211059Y36039665D01*
X20221453Y36027000D01*
X18266225Y36027000D01*
X18343920Y36104695D01*
X18361169Y36118851D01*
X18417653Y36187677D01*
X18459624Y36266200D01*
X18481511Y36338352D01*
X18485470Y36351402D01*
X18494197Y36440009D01*
X18492010Y36462214D01*
X18492010Y39937786D01*
X18494197Y39959991D01*
X18485470Y40048598D01*
X18473122Y40089302D01*
X18459624Y40133800D01*
X18417653Y40212323D01*
X18361169Y40281149D01*
X18343921Y40295303D01*
X17485323Y41153900D01*
X17471159Y41171159D01*
X17402333Y41227643D01*
X17323810Y41269614D01*
X17238607Y41295460D01*
X17150000Y41304187D01*
X17127795Y41302000D01*
X16852106Y41302000D01*
X16763312Y41361331D01*
X16658305Y41404826D01*
X16546830Y41427000D01*
X16433170Y41427000D01*
X16321695Y41404826D01*
X16216688Y41361331D01*
X16122184Y41298185D01*
X16041815Y41217816D01*
X15978669Y41123312D01*
X15935174Y41018305D01*
X15913000Y40906830D01*
X15913000Y40793170D01*
X15935174Y40681695D01*
X15978669Y40576688D01*
X16041815Y40482184D01*
X16122184Y40401815D01*
X16216688Y40338669D01*
X16321695Y40295174D01*
X16433170Y40273000D01*
X16546830Y40273000D01*
X16658305Y40295174D01*
X16763312Y40338669D01*
X16852106Y40398000D01*
X16962777Y40398000D01*
X17588010Y39772765D01*
X17588011Y36627235D01*
X17509680Y36548904D01*
X17481671Y36571891D01*
X17425137Y36602109D01*
X17363795Y36620717D01*
X17300000Y36627000D01*
X15600000Y36627000D01*
X15536205Y36620717D01*
X15474863Y36602109D01*
X15418329Y36571891D01*
X15368776Y36531224D01*
X15328109Y36481671D01*
X15297891Y36425137D01*
X15279283Y36363795D01*
X15273000Y36300000D01*
X15273000Y33900000D01*
X15279283Y33836205D01*
X15297891Y33774863D01*
X15323474Y33727000D01*
X13419481Y33727000D01*
X13410278Y33731919D01*
X13160137Y33807799D01*
X12965184Y33827000D01*
X12327000Y33827000D01*
X12327000Y43234817D01*
X12333420Y43300000D01*
X12327000Y43365184D01*
X12327000Y43850340D01*
X13649661Y45173000D01*
X13979944Y45173000D01*
X14332916Y45243211D01*
X14665409Y45380934D01*
X14823000Y45486232D01*
X14823000Y45480056D01*
X14893211Y45127084D01*
X15030934Y44794591D01*
X15230876Y44495355D01*
X15485355Y44240876D01*
X15784591Y44040934D01*
X16117084Y43903211D01*
X16470056Y43833000D01*
X16829944Y43833000D01*
X17182916Y43903211D01*
X17515409Y44040934D01*
X17814645Y44240876D01*
X18069124Y44495355D01*
X18269066Y44794591D01*
X18406789Y45127084D01*
X18477000Y45480056D01*
X18477000Y45839944D01*
X18406789Y46192916D01*
X18269066Y46525409D01*
X18069124Y46824645D01*
X17814645Y47079124D01*
X17515409Y47279066D01*
X17182916Y47416789D01*
X16829944Y47487000D01*
X16470056Y47487000D01*
X16117084Y47416789D01*
X15784591Y47279066D01*
X15627000Y47173768D01*
X15627000Y47179944D01*
X15556789Y47532916D01*
X15419066Y47865409D01*
X15219124Y48164645D01*
X14964645Y48419124D01*
X14665409Y48619066D01*
X14332916Y48756789D01*
X13979944Y48827000D01*
X13620056Y48827000D01*
X13267084Y48756789D01*
X12934591Y48619066D01*
X12635355Y48419124D01*
X12380876Y48164645D01*
X12180934Y47865409D01*
X12043211Y47532916D01*
X11990311Y47266972D01*
X10107761Y45384421D01*
X10057131Y45342870D01*
X10015579Y45292239D01*
X10015578Y45292238D01*
X9971138Y45238088D01*
X9891302Y45140808D01*
X9768081Y44910278D01*
X9692201Y44660137D01*
X9688937Y44627000D01*
X-9250339Y44627000D01*
X-10173000Y45549660D01*
X-10173000Y49434827D01*
X-10166581Y49500001D01*
X-10173000Y49565175D01*
X-10173000Y49565184D01*
X-10192201Y49760137D01*
X-10268081Y50010278D01*
X-10283872Y50039821D01*
X-10391302Y50240809D01*
X-10515578Y50392239D01*
X-10515579Y50392240D01*
X-10557130Y50442870D01*
X-10607760Y50484421D01*
X-12285575Y52162235D01*
X-12327130Y52212870D01*
X-12529192Y52378698D01*
X-12759722Y52501919D01*
X-13009863Y52577799D01*
X-13204816Y52597000D01*
X-13204826Y52597000D01*
X-13270000Y52603419D01*
X-13335174Y52597000D01*
X-14630698Y52597000D01*
X-14694952Y52584219D01*
X-14760137Y52577799D01*
X-14822817Y52558785D01*
X-14887072Y52546004D01*
X-14947601Y52520932D01*
X-15010278Y52501919D01*
X-15068041Y52471044D01*
X-15128570Y52445972D01*
X-15183045Y52409573D01*
X-15240808Y52378698D01*
X-15291438Y52337147D01*
X-15345913Y52300748D01*
X-15392239Y52254422D01*
X-15442870Y52212870D01*
X-15484421Y52162240D01*
X-15530748Y52115913D01*
X-15567147Y52061438D01*
X-15608698Y52010808D01*
X-15639573Y51953045D01*
X-15675972Y51898570D01*
X-15701044Y51838041D01*
X-15731919Y51780278D01*
X-15750932Y51717601D01*
X-15776004Y51657072D01*
X-15788785Y51592817D01*
X-15807799Y51530137D01*
X-15814219Y51464952D01*
X-15827000Y51400698D01*
X-15827000Y51335184D01*
X-15833420Y51270000D01*
X-15827000Y51204816D01*
X-15827000Y51139302D01*
X-15814219Y51075048D01*
X-15807799Y51009863D01*
X-15788785Y50947183D01*
X-15776004Y50882928D01*
X-15750932Y50822399D01*
X-15731919Y50759722D01*
X-15701044Y50701959D01*
X-15675972Y50641430D01*
X-15639573Y50586955D01*
X-15608698Y50529192D01*
X-15567147Y50478562D01*
X-15530748Y50424087D01*
X-15484423Y50377762D01*
X-15442870Y50327130D01*
X-15392240Y50285579D01*
X-15345913Y50239252D01*
X-15291438Y50202853D01*
X-15240808Y50161302D01*
X-15183045Y50130427D01*
X-15128570Y50094028D01*
X-15068041Y50068956D01*
X-15010278Y50038081D01*
X-14947601Y50019068D01*
X-14887072Y49993996D01*
X-14822817Y49981215D01*
X-14760137Y49962201D01*
X-14694952Y49955781D01*
X-14630698Y49943000D01*
X-13819660Y49943000D01*
X-12826999Y48950338D01*
X-12827000Y45065174D01*
X-12833419Y45000000D01*
X-12827000Y44934826D01*
X-12827000Y44934817D01*
X-12807799Y44739864D01*
X-12744719Y44531919D01*
X-12731919Y44489723D01*
X-12608698Y44259192D01*
X-12537903Y44172929D01*
X-12442870Y44057130D01*
X-12392235Y44015575D01*
X-10784421Y42407760D01*
X-10742870Y42357130D01*
X-10692240Y42315579D01*
X-10692239Y42315578D01*
X-10540809Y42191302D01*
X-10386490Y42108817D01*
X-10310278Y42068081D01*
X-10060137Y41992201D01*
X-9865184Y41973000D01*
X-9865175Y41973000D01*
X-9800001Y41966581D01*
X-9734827Y41973000D01*
X9673001Y41973000D01*
X9673000Y36027000D01*
X-7034826Y36027000D01*
X-7100000Y36033419D01*
X-7165174Y36027000D01*
X-7165184Y36027000D01*
X-7360137Y36007799D01*
X-7605330Y35933420D01*
X-7610278Y35931919D01*
X-7840809Y35808698D01*
X-7992239Y35684422D01*
X-8042870Y35642870D01*
X-8084421Y35592240D01*
X-11849660Y31827000D01*
X-13184654Y31827000D01*
X-13199102Y31841448D01*
X-13481959Y32030447D01*
X-13796253Y32160632D01*
X-14129905Y32227000D01*
X-14470095Y32227000D01*
X-14803747Y32160632D01*
X-15118041Y32030447D01*
X-15400898Y31841448D01*
X-15641448Y31600898D01*
X-15830447Y31318041D01*
X-15960632Y31003747D01*
X-16027000Y30670095D01*
X-16027000Y30329905D01*
X-15960632Y29996253D01*
X-15830447Y29681959D01*
X-15641448Y29399102D01*
X-15400898Y29158552D01*
X-15118041Y28969553D01*
X-14803747Y28839368D01*
X-14470095Y28773000D01*
X-14129905Y28773000D01*
X-13796253Y28839368D01*
X-13481959Y28969553D01*
X-13199102Y29158552D01*
X-13184654Y29173000D01*
X-11365174Y29173000D01*
X-11300000Y29166581D01*
X-11234826Y29173000D01*
X-11234816Y29173000D01*
X-11039863Y29192201D01*
X-10789722Y29268081D01*
X-10559192Y29391302D01*
X-10357130Y29557130D01*
X-10315575Y29607765D01*
X-6550339Y33373000D01*
X9473000Y33373000D01*
X9473000Y33365174D01*
X9466581Y33300000D01*
X9473000Y33234826D01*
X9473000Y33234816D01*
X9492201Y33039863D01*
X9568081Y32789722D01*
X9575460Y32775917D01*
X9691302Y32559192D01*
X9778546Y32452886D01*
X9857131Y32357130D01*
X9907761Y32315579D01*
X10615575Y31607765D01*
X10657130Y31557130D01*
X10748497Y31482147D01*
X10859191Y31391302D01*
X11058419Y31284813D01*
X11089722Y31268081D01*
X11119580Y31259024D01*
X11270817Y31178186D01*
X11289722Y31168081D01*
X11539863Y31092201D01*
X11734816Y31073000D01*
X11734826Y31073000D01*
X11800000Y31066581D01*
X11865174Y31073000D01*
X20883938Y31073000D01*
X20900000Y31071418D01*
X23750889Y31071418D01*
X23800000Y31066581D01*
X23849111Y31071418D01*
X25900000Y31071418D01*
X26061648Y31087339D01*
X26217085Y31134490D01*
X26289132Y31173000D01*
X34495918Y31173000D01*
X34494064Y31170740D01*
X30000324Y26677000D01*
X28043001Y26677000D01*
X28080776Y26714775D01*
X28111866Y26752659D01*
X28147649Y26806213D01*
X28170752Y26849435D01*
X28195404Y26908949D01*
X28209630Y26955847D01*
X28222196Y27019018D01*
X28227000Y27067791D01*
X28228582Y27100000D01*
X28228582Y27900000D01*
X28227000Y27932209D01*
X28222982Y27973000D01*
X28236226Y27973000D01*
X28424980Y28010546D01*
X28602783Y28084194D01*
X28762801Y28191115D01*
X28898885Y28327199D01*
X29005806Y28487217D01*
X29079454Y28665020D01*
X29117000Y28853774D01*
X29117000Y29046226D01*
X29079454Y29234980D01*
X29005806Y29412783D01*
X28898885Y29572801D01*
X28762801Y29708885D01*
X28602783Y29815806D01*
X28424980Y29889454D01*
X28236226Y29927000D01*
X28043774Y29927000D01*
X27855020Y29889454D01*
X27677217Y29815806D01*
X27517199Y29708885D01*
X27381115Y29572801D01*
X27274194Y29412783D01*
X27200546Y29234980D01*
X27163000Y29046226D01*
X27163000Y28878582D01*
X25950000Y28878582D01*
X25917791Y28877000D01*
X25869018Y28872196D01*
X25805847Y28859630D01*
X25758949Y28845404D01*
X25699435Y28820752D01*
X25656213Y28797649D01*
X25602659Y28761866D01*
X25564775Y28730776D01*
X25519224Y28685225D01*
X25488134Y28647341D01*
X25452351Y28593787D01*
X25429248Y28550565D01*
X25404596Y28491051D01*
X25390370Y28444153D01*
X25377804Y28380982D01*
X25373000Y28332209D01*
X25371418Y28300000D01*
X25371418Y27100000D01*
X25373000Y27067791D01*
X25377804Y27019018D01*
X25390370Y26955847D01*
X25404596Y26908949D01*
X25429248Y26849435D01*
X25452351Y26806213D01*
X25488134Y26752659D01*
X25519224Y26714775D01*
X25556999Y26677000D01*
X6040678Y26677000D01*
X5858601Y26716715D01*
X5850272Y26719298D01*
X5812448Y26731028D01*
X5789031Y26733481D01*
X5530297Y26786599D01*
X5483979Y26800343D01*
X5460523Y26802510D01*
X5306029Y26832257D01*
X2679853Y29458432D01*
X2644259Y29544364D01*
X2564698Y29663436D01*
X2463436Y29764698D01*
X2344364Y29844259D01*
X2212058Y29899062D01*
X2071603Y29927000D01*
X1928397Y29927000D01*
X1787942Y29899062D01*
X1655636Y29844259D01*
X1536564Y29764698D01*
X1435302Y29663436D01*
X1355741Y29544364D01*
X1300938Y29412058D01*
X1273000Y29271603D01*
X1273000Y29128397D01*
X1300938Y28987942D01*
X1355741Y28855636D01*
X1435302Y28736564D01*
X1536564Y28635302D01*
X1655636Y28555741D01*
X1787942Y28500938D01*
X1928397Y28473000D01*
X2071603Y28473000D01*
X2212058Y28500938D01*
X2265891Y28523236D01*
X4287933Y26501193D01*
X4121290Y26533585D01*
X4120078Y26533773D01*
X4118875Y26534046D01*
X4094900Y26537671D01*
X4094583Y26537720D01*
X4094554Y26537722D01*
X2073512Y26771565D01*
X2072300Y26771658D01*
X2071070Y26771840D01*
X2046567Y26773639D01*
X24021Y26851337D01*
X17292Y26852000D01*
X-37017292Y26852000D01*
X-37017901Y26851940D01*
X-37029148Y26851901D01*
X-37044443Y26850348D01*
X-37059827Y26850455D01*
X-37064719Y26849975D01*
X-37841106Y26768373D01*
X-37872359Y26761958D01*
X-37903696Y26755980D01*
X-37908402Y26754559D01*
X-38654151Y26523711D01*
X-38683551Y26511352D01*
X-38713142Y26499397D01*
X-38717482Y26497089D01*
X-39404192Y26125786D01*
X-39430619Y26107961D01*
X-39457336Y26090478D01*
X-39461145Y26087371D01*
X-40062656Y25589758D01*
X-40085132Y25567125D01*
X-40107931Y25544798D01*
X-40111064Y25541011D01*
X-40604466Y24936040D01*
X-40622111Y24909482D01*
X-40640145Y24883144D01*
X-40642482Y24878820D01*
X-41008982Y24189536D01*
X-41021147Y24160020D01*
X-41033707Y24130716D01*
X-41035160Y24126021D01*
X-41260797Y23378676D01*
X-41266987Y23347415D01*
X-41273628Y23316174D01*
X-41274141Y23311286D01*
X-41350320Y22534349D01*
X-41352000Y22517291D01*
X-44073000Y22517291D01*
X-44073000Y30670095D01*
X-27427000Y30670095D01*
X-27427000Y30329905D01*
X-27360632Y29996253D01*
X-27230447Y29681959D01*
X-27041448Y29399102D01*
X-26800898Y29158552D01*
X-26518041Y28969553D01*
X-26203747Y28839368D01*
X-25870095Y28773000D01*
X-25529905Y28773000D01*
X-25196253Y28839368D01*
X-24881959Y28969553D01*
X-24599102Y29158552D01*
X-24358552Y29399102D01*
X-24169553Y29681959D01*
X-24039368Y29996253D01*
X-23973000Y30329905D01*
X-23973000Y30350340D01*
X-20300339Y34023000D01*
X-12847170Y34023000D01*
X-12781996Y34016581D01*
X-12716822Y34023000D01*
X-12716812Y34023000D01*
X-12521859Y34042201D01*
X-12271718Y34118081D01*
X-12041188Y34241302D01*
X-11839126Y34407130D01*
X-11797571Y34457765D01*
X-8657760Y37597575D01*
X-8607131Y37639125D01*
X-8549814Y37708966D01*
X-8441303Y37841185D01*
X-8318082Y38071717D01*
X-8310180Y38097766D01*
X-8309572Y38099769D01*
X-7769769Y38639573D01*
X-7741717Y38648082D01*
X-7511187Y38771303D01*
X-7362899Y38893000D01*
X6780698Y38893000D01*
X6844952Y38905781D01*
X6910137Y38912201D01*
X6972817Y38931215D01*
X7037072Y38943996D01*
X7097601Y38969068D01*
X7160278Y38988081D01*
X7218041Y39018956D01*
X7278570Y39044028D01*
X7333045Y39080427D01*
X7390808Y39111302D01*
X7441438Y39152853D01*
X7495913Y39189252D01*
X7542240Y39235579D01*
X7592870Y39277130D01*
X7634423Y39327762D01*
X7680748Y39374087D01*
X7717147Y39428562D01*
X7758698Y39479192D01*
X7789573Y39536955D01*
X7825972Y39591430D01*
X7851044Y39651959D01*
X7881919Y39709722D01*
X7900932Y39772399D01*
X7926004Y39832928D01*
X7938785Y39897183D01*
X7957799Y39959863D01*
X7964219Y40025048D01*
X7977000Y40089302D01*
X7977000Y40154816D01*
X7983420Y40220000D01*
X7977000Y40285184D01*
X7977000Y40350698D01*
X7964219Y40414952D01*
X7957799Y40480137D01*
X7938785Y40542817D01*
X7926004Y40607072D01*
X7900932Y40667601D01*
X7881919Y40730278D01*
X7851044Y40788041D01*
X7825972Y40848570D01*
X7789573Y40903045D01*
X7758698Y40960808D01*
X7717147Y41011438D01*
X7680748Y41065913D01*
X7634421Y41112240D01*
X7592870Y41162870D01*
X7542239Y41204422D01*
X7495913Y41250748D01*
X7441438Y41287147D01*
X7390808Y41328698D01*
X7333045Y41359573D01*
X7278570Y41395972D01*
X7218041Y41421044D01*
X7160278Y41451919D01*
X7097601Y41470932D01*
X7037072Y41496004D01*
X6972817Y41508785D01*
X6910137Y41527799D01*
X6844952Y41534219D01*
X6780698Y41547000D01*
X-7846823Y41547000D01*
X-7911997Y41553419D01*
X-7977171Y41547000D01*
X-7977180Y41547000D01*
X-8172133Y41527799D01*
X-8422274Y41451919D01*
X-8526943Y41395972D01*
X-8652805Y41328698D01*
X-8739725Y41257364D01*
X-8854866Y41162870D01*
X-8890183Y41119836D01*
X-8916279Y41111920D01*
X-9146811Y40988698D01*
X-9298240Y40864423D01*
X-9348871Y40822871D01*
X-9390422Y40772241D01*
X-10442241Y39720421D01*
X-10492870Y39678871D01*
X-10534422Y39628240D01*
X-10534423Y39628239D01*
X-10566076Y39589670D01*
X-10658699Y39476809D01*
X-10781920Y39246279D01*
X-10790429Y39218228D01*
X-11500218Y38508439D01*
X-11500938Y38512058D01*
X-11555741Y38644364D01*
X-11572799Y38669893D01*
X-11512829Y38709964D01*
X-11411567Y38811226D01*
X-11332006Y38930298D01*
X-11277203Y39062604D01*
X-11249265Y39203059D01*
X-11249265Y39346265D01*
X-11277203Y39486720D01*
X-11332006Y39619026D01*
X-11411567Y39738098D01*
X-11512829Y39839360D01*
X-11631901Y39918921D01*
X-11764207Y39973724D01*
X-11904662Y40001662D01*
X-12047868Y40001662D01*
X-12188323Y39973724D01*
X-12320629Y39918921D01*
X-12439701Y39839360D01*
X-12527399Y39751662D01*
X-12701924Y39751662D01*
X-12725339Y39753968D01*
X-12748754Y39751662D01*
X-12748761Y39751662D01*
X-12810000Y39745630D01*
X-12818847Y39744759D01*
X-12840805Y39738098D01*
X-12908761Y39717484D01*
X-12991627Y39673191D01*
X-13064259Y39613583D01*
X-13079189Y39595391D01*
X-14697570Y37977009D01*
X-16962361Y37977009D01*
X-17050059Y38064707D01*
X-17169131Y38144268D01*
X-17301437Y38199071D01*
X-17441892Y38227009D01*
X-17585098Y38227009D01*
X-17725553Y38199071D01*
X-17857859Y38144268D01*
X-17976931Y38064707D01*
X-18078193Y37963445D01*
X-18157754Y37844373D01*
X-18184033Y37780929D01*
X-18185540Y37784567D01*
X-18265101Y37903639D01*
X-18366363Y38004901D01*
X-18485435Y38084462D01*
X-18617741Y38139265D01*
X-18758196Y38167203D01*
X-18901402Y38167203D01*
X-19041857Y38139265D01*
X-19174163Y38084462D01*
X-19293235Y38004901D01*
X-19394497Y37903639D01*
X-19474058Y37784567D01*
X-19528861Y37652261D01*
X-19556799Y37511806D01*
X-19556799Y37368600D01*
X-19528861Y37228145D01*
X-19474058Y37095839D01*
X-19394497Y36976767D01*
X-19293235Y36875505D01*
X-19174163Y36795944D01*
X-19041857Y36741141D01*
X-18901402Y36713203D01*
X-18777379Y36713203D01*
X-18741176Y36677000D01*
X-20784826Y36677000D01*
X-20850000Y36683419D01*
X-20915174Y36677000D01*
X-20915184Y36677000D01*
X-21110137Y36657799D01*
X-21360278Y36581919D01*
X-21590809Y36458698D01*
X-21738962Y36337111D01*
X-21792870Y36292870D01*
X-21834421Y36242240D01*
X-25849660Y32227000D01*
X-25870095Y32227000D01*
X-26203747Y32160632D01*
X-26518041Y32030447D01*
X-26800898Y31841448D01*
X-27041448Y31600898D01*
X-27230447Y31318041D01*
X-27360632Y31003747D01*
X-27427000Y30670095D01*
X-44073000Y30670095D01*
X-44073000Y34930254D01*
X-40582337Y38420917D01*
X-40582338Y34256472D01*
X-40620036Y34218774D01*
X-40699597Y34099702D01*
X-40754400Y33967396D01*
X-40782338Y33826941D01*
X-40782338Y33683735D01*
X-40754400Y33543280D01*
X-40699597Y33410974D01*
X-40620036Y33291902D01*
X-40518774Y33190640D01*
X-40399702Y33111079D01*
X-40267396Y33056276D01*
X-40126941Y33028338D01*
X-39983735Y33028338D01*
X-39843280Y33056276D01*
X-39710974Y33111079D01*
X-39591902Y33190640D01*
X-39490640Y33291902D01*
X-39411079Y33410974D01*
X-39356276Y33543280D01*
X-39328338Y33683735D01*
X-39328338Y33826941D01*
X-39356276Y33967396D01*
X-39411079Y34099702D01*
X-39490640Y34218774D01*
X-39528338Y34256472D01*
X-39528338Y38626373D01*
X-36779710Y41375001D01*
X-20003582Y41375001D01*
X-20003582Y39724999D01*
X-19992465Y39612123D01*
X-19959540Y39503586D01*
X-19906074Y39403557D01*
X-19834120Y39315880D01*
X-19746443Y39243926D01*
X-19646414Y39190460D01*
X-19537877Y39157535D01*
X-19425001Y39146418D01*
X-17774999Y39146418D01*
X-17662123Y39157535D01*
X-17553586Y39190460D01*
X-17453557Y39243926D01*
X-17365880Y39315880D01*
X-17293926Y39403557D01*
X-17240460Y39503586D01*
X-17207535Y39612123D01*
X-17196418Y39724999D01*
X-17196418Y41375001D01*
X-17207535Y41487877D01*
X-17240460Y41596414D01*
X-17293926Y41696443D01*
X-17365880Y41784120D01*
X-17453557Y41856074D01*
X-17553586Y41909540D01*
X-17662123Y41942465D01*
X-17774999Y41953582D01*
X-19425001Y41953582D01*
X-19537877Y41942465D01*
X-19646414Y41909540D01*
X-19746443Y41856074D01*
X-19834120Y41784120D01*
X-19906074Y41696443D01*
X-19959540Y41596414D01*
X-19992465Y41487877D01*
X-20003582Y41375001D01*
X-36779710Y41375001D01*
X-34931720Y43222990D01*
X-31235483Y43222990D01*
X-31168305Y43195164D01*
X-31056830Y43172990D01*
X-30943170Y43172990D01*
X-30831695Y43195164D01*
X-30764517Y43222990D01*
X-18868279Y43222990D01*
X-18839158Y43193868D01*
X-18811331Y43126688D01*
X-18748185Y43032184D01*
X-18667816Y42951815D01*
X-18573312Y42888669D01*
X-18468305Y42845174D01*
X-18356830Y42823000D01*
X-18243170Y42823000D01*
X-18131695Y42845174D01*
X-18026688Y42888669D01*
X-17932184Y42951815D01*
X-17851815Y43032184D01*
X-17788669Y43126688D01*
X-17745174Y43231695D01*
X-17723000Y43343170D01*
X-17723000Y43456830D01*
X-17745174Y43568305D01*
X-17788669Y43673312D01*
X-17851815Y43767816D01*
X-17932184Y43848185D01*
X-18026688Y43911331D01*
X-18093868Y43939158D01*
X-18259035Y44104324D01*
X-18275542Y44124438D01*
X-18355788Y44190294D01*
X-18447340Y44239229D01*
X-18546680Y44269364D01*
X-18624109Y44276990D01*
X-18649990Y44279539D01*
X-18675871Y44276990D01*
X-22436164Y44276990D01*
X-22423000Y44343170D01*
X-22423000Y44456830D01*
X-22445174Y44568305D01*
X-22488669Y44673312D01*
X-22551815Y44767816D01*
X-22632184Y44848185D01*
X-22726688Y44911331D01*
X-22831695Y44954826D01*
X-22943170Y44977000D01*
X-23056830Y44977000D01*
X-23168305Y44954826D01*
X-23235483Y44927000D01*
X-34924795Y44927000D01*
X-34578795Y45273000D01*
X-22235484Y45273000D01*
X-22168306Y45245174D01*
X-22056831Y45223000D01*
X-21943171Y45223000D01*
X-21831696Y45245174D01*
X-21726689Y45288669D01*
X-21632185Y45351815D01*
X-21551816Y45432184D01*
X-21488670Y45526688D01*
X-21445175Y45631695D01*
X-21423001Y45743170D01*
X-21423001Y45856830D01*
X-21445175Y45968305D01*
X-21488670Y46073312D01*
X-21551816Y46167816D01*
X-21632185Y46248185D01*
X-21726689Y46311331D01*
X-21831696Y46354826D01*
X-21943171Y46377000D01*
X-22056831Y46377000D01*
X-22168306Y46354826D01*
X-22235484Y46327000D01*
X-34771205Y46327000D01*
X-34797086Y46329549D01*
X-34822967Y46327000D01*
X-34900396Y46319374D01*
X-34999736Y46289239D01*
X-35091288Y46240304D01*
X-35171534Y46174448D01*
X-35188032Y46154345D01*
X-45554349Y35788026D01*
X-45574458Y35771523D01*
X-45604850Y35734490D01*
X-45640315Y35691276D01*
X-45689250Y35599724D01*
X-45719385Y35500384D01*
X-45729560Y35397075D01*
X-47042712Y35397075D01*
X-46685805Y35886537D01*
X-44810412Y38202551D01*
X-42820248Y40420716D01*
X-40720409Y42535353D01*
X-38516279Y44541039D01*
X-36213480Y46432659D01*
X-33817938Y48205342D01*
X-31335779Y49854558D01*
X-29413081Y50996226D01*
X-22467000Y50996226D01*
X-22467000Y50803774D01*
X-22429454Y50615020D01*
X-22355806Y50437217D01*
X-22248885Y50277199D01*
X-22112801Y50141115D01*
X-21952783Y50034194D01*
X-21774980Y49960546D01*
X-21586226Y49923000D01*
X-21572982Y49923000D01*
X-21577000Y49882209D01*
X-21578582Y49850000D01*
X-21578582Y49050000D01*
X-21577000Y49017791D01*
X-21572196Y48969018D01*
X-21559630Y48905847D01*
X-21545404Y48858949D01*
X-21520752Y48799435D01*
X-21497649Y48756213D01*
X-21461866Y48702659D01*
X-21430776Y48664775D01*
X-21385225Y48619224D01*
X-21347341Y48588134D01*
X-21293787Y48552351D01*
X-21250565Y48529248D01*
X-21191051Y48504596D01*
X-21144153Y48490370D01*
X-21080982Y48477804D01*
X-21032209Y48473000D01*
X-21000000Y48471418D01*
X-19300000Y48471418D01*
X-19267791Y48473000D01*
X-19219018Y48477804D01*
X-19155847Y48490370D01*
X-19108949Y48504596D01*
X-19049435Y48529248D01*
X-19006213Y48552351D01*
X-18952659Y48588134D01*
X-18914775Y48619224D01*
X-18869224Y48664775D01*
X-18838134Y48702659D01*
X-18802351Y48756213D01*
X-18779248Y48799435D01*
X-18754596Y48858949D01*
X-18740370Y48905847D01*
X-18727804Y48969018D01*
X-18723000Y49017791D01*
X-18721418Y49050000D01*
X-18721418Y50250000D01*
X-18723000Y50282209D01*
X-18727804Y50330982D01*
X-18740370Y50394153D01*
X-18754596Y50441051D01*
X-18779248Y50500565D01*
X-18802351Y50543787D01*
X-18838134Y50597341D01*
X-18869224Y50635225D01*
X-18914775Y50680776D01*
X-18952659Y50711866D01*
X-19006213Y50747649D01*
X-19049435Y50770752D01*
X-19108949Y50795404D01*
X-19155847Y50809630D01*
X-19219018Y50822196D01*
X-19267791Y50827000D01*
X-19300000Y50828582D01*
X-20513000Y50828582D01*
X-20513000Y50996226D01*
X-20550546Y51184980D01*
X-20624194Y51362783D01*
X-20731115Y51522801D01*
X-20867199Y51658885D01*
X-21027217Y51765806D01*
X-21205020Y51839454D01*
X-21393774Y51877000D01*
X-21586226Y51877000D01*
X-21774980Y51839454D01*
X-21952783Y51765806D01*
X-22112801Y51658885D01*
X-22248885Y51522801D01*
X-22355806Y51362783D01*
X-22429454Y51184980D01*
X-22467000Y50996226D01*
X-29413081Y50996226D01*
X-28773358Y51376083D01*
X-26137247Y52766015D01*
X-23432460Y54021602D01*
X-21929851Y54647887D01*
X-13522990Y54634312D01*
%TO.N,Net-(C15-Pad2)*%
G36*
X17173000Y34027000D02*
G01*
X15727000Y34027000D01*
X15727000Y36173000D01*
X17173000Y36173000D01*
X17173000Y34027000D01*
G37*
X17173000Y34027000D02*
X15727000Y34027000D01*
X15727000Y36173000D01*
X17173000Y36173000D01*
X17173000Y34027000D01*
%TO.N,+12V*%
G36*
X50673000Y21727000D02*
G01*
X47327000Y21727000D01*
X47327000Y25073000D01*
X50673000Y25073000D01*
X50673000Y21727000D01*
G37*
X50673000Y21727000D02*
X47327000Y21727000D01*
X47327000Y25073000D01*
X50673000Y25073000D01*
X50673000Y21727000D01*
%TD*%
M02*
