%TF.GenerationSoftware,KiCad,Pcbnew,5.1.5+dfsg1-2build2*%
%TF.CreationDate,2021-12-22T23:08:45+01:00*%
%TF.ProjectId,uHoubolt_PCB_PMU,75486f75-626f-46c7-945f-5043425f504d,rev?*%
%TF.SameCoordinates,PX8583b00PY5f5e100*%
%TF.FileFunction,Legend,Bot*%
%TF.FilePolarity,Positive*%
%FSLAX46Y46*%
G04 Gerber Fmt 4.6, Leading zero omitted, Abs format (unit mm)*
G04 Created by KiCad (PCBNEW 5.1.5+dfsg1-2build2) date 2021-12-22 23:08:45*
%MOMM*%
%LPD*%
G04 APERTURE LIST*
%ADD10C,0.300000*%
%ADD11C,0.120000*%
%ADD12C,0.150000*%
G04 APERTURE END LIST*
D10*
X17928571Y31571429D02*
X18785714Y31571429D01*
X18357142Y31571429D02*
X18357142Y33071429D01*
X18500000Y32857143D01*
X18642857Y32714286D01*
X18785714Y32642858D01*
X17357142Y32928572D02*
X17285714Y33000000D01*
X17142857Y33071429D01*
X16785714Y33071429D01*
X16642857Y33000000D01*
X16571428Y32928572D01*
X16500000Y32785715D01*
X16500000Y32642858D01*
X16571428Y32428572D01*
X17428571Y31571429D01*
X16500000Y31571429D01*
X16071428Y33071429D02*
X15571428Y31571429D01*
X15071428Y33071429D01*
X19071428Y36321429D02*
X19071428Y37821429D01*
X18500000Y37821429D01*
X18357142Y37750000D01*
X18285714Y37678572D01*
X18214285Y37535715D01*
X18214285Y37321429D01*
X18285714Y37178572D01*
X18357142Y37107143D01*
X18500000Y37035715D01*
X19071428Y37035715D01*
X17285714Y37035715D02*
X17285714Y36321429D01*
X17785714Y37821429D02*
X17285714Y37035715D01*
X16785714Y37821429D01*
X15428571Y36321429D02*
X15928571Y37035715D01*
X16285714Y36321429D02*
X16285714Y37821429D01*
X15714285Y37821429D01*
X15571428Y37750000D01*
X15500000Y37678572D01*
X15428571Y37535715D01*
X15428571Y37321429D01*
X15500000Y37178572D01*
X15571428Y37107143D01*
X15714285Y37035715D01*
X16285714Y37035715D01*
X14500000Y37821429D02*
X14214285Y37821429D01*
X14071428Y37750000D01*
X13928571Y37607143D01*
X13857142Y37321429D01*
X13857142Y36821429D01*
X13928571Y36535715D01*
X14071428Y36392858D01*
X14214285Y36321429D01*
X14500000Y36321429D01*
X14642857Y36392858D01*
X14785714Y36535715D01*
X14857142Y36821429D01*
X14857142Y37321429D01*
X14785714Y37607143D01*
X14642857Y37750000D01*
X14500000Y37821429D01*
X27057142Y41457143D02*
X27057142Y42657143D01*
X26600000Y42657143D01*
X26485714Y42600000D01*
X26428571Y42542858D01*
X26371428Y42428572D01*
X26371428Y42257143D01*
X26428571Y42142858D01*
X26485714Y42085715D01*
X26600000Y42028572D01*
X27057142Y42028572D01*
X25628571Y42028572D02*
X25628571Y41457143D01*
X26028571Y42657143D02*
X25628571Y42028572D01*
X25228571Y42657143D01*
X24142857Y41457143D02*
X24542857Y42028572D01*
X24828571Y41457143D02*
X24828571Y42657143D01*
X24371428Y42657143D01*
X24257142Y42600000D01*
X24200000Y42542858D01*
X24142857Y42428572D01*
X24142857Y42257143D01*
X24200000Y42142858D01*
X24257142Y42085715D01*
X24371428Y42028572D01*
X24828571Y42028572D01*
X23400000Y42657143D02*
X23171428Y42657143D01*
X23057142Y42600000D01*
X22942857Y42485715D01*
X22885714Y42257143D01*
X22885714Y41857143D01*
X22942857Y41628572D01*
X23057142Y41514286D01*
X23171428Y41457143D01*
X23400000Y41457143D01*
X23514285Y41514286D01*
X23628571Y41628572D01*
X23685714Y41857143D01*
X23685714Y42257143D01*
X23628571Y42485715D01*
X23514285Y42600000D01*
X23400000Y42657143D01*
X20414285Y42600000D02*
X20528571Y42657143D01*
X20700000Y42657143D01*
X20871428Y42600000D01*
X20985714Y42485715D01*
X21042857Y42371429D01*
X21100000Y42142858D01*
X21100000Y41971429D01*
X21042857Y41742858D01*
X20985714Y41628572D01*
X20871428Y41514286D01*
X20700000Y41457143D01*
X20585714Y41457143D01*
X20414285Y41514286D01*
X20357142Y41571429D01*
X20357142Y41971429D01*
X20585714Y41971429D01*
X19842857Y41457143D02*
X19842857Y42657143D01*
X19157142Y41457143D01*
X19157142Y42657143D01*
X18585714Y41457143D02*
X18585714Y42657143D01*
X18300000Y42657143D01*
X18128571Y42600000D01*
X18014285Y42485715D01*
X17957142Y42371429D01*
X17900000Y42142858D01*
X17900000Y41971429D01*
X17957142Y41742858D01*
X18014285Y41628572D01*
X18128571Y41514286D01*
X18300000Y41457143D01*
X18585714Y41457143D01*
X14742857Y41457143D02*
X15428571Y41457143D01*
X15085714Y41457143D02*
X15085714Y42657143D01*
X15200000Y42485715D01*
X15314285Y42371429D01*
X15428571Y42314286D01*
X14285714Y42542858D02*
X14228571Y42600000D01*
X14114285Y42657143D01*
X13828571Y42657143D01*
X13714285Y42600000D01*
X13657142Y42542858D01*
X13600000Y42428572D01*
X13600000Y42314286D01*
X13657142Y42142858D01*
X14342857Y41457143D01*
X13600000Y41457143D01*
X13257142Y42657143D02*
X12857142Y41457143D01*
X12457142Y42657143D01*
X-23428572Y49392858D02*
X-24571429Y49392858D01*
X-24000000Y48821429D02*
X-24000000Y49964286D01*
X-10928572Y51392858D02*
X-12071429Y51392858D01*
X-11500000Y50821429D02*
X-11500000Y51964286D01*
X-13057143Y44357143D02*
X-12371429Y44357143D01*
X-12714286Y44357143D02*
X-12714286Y45557143D01*
X-12600000Y45385715D01*
X-12485715Y45271429D01*
X-12371429Y45214286D01*
X-13514286Y45442858D02*
X-13571429Y45500000D01*
X-13685715Y45557143D01*
X-13971429Y45557143D01*
X-14085715Y45500000D01*
X-14142858Y45442858D01*
X-14200000Y45328572D01*
X-14200000Y45214286D01*
X-14142858Y45042858D01*
X-13457143Y44357143D01*
X-14200000Y44357143D01*
X-14542858Y45557143D02*
X-14942858Y44357143D01*
X-15342858Y45557143D01*
X-19185715Y45771429D02*
X-19128572Y45714286D01*
X-18957143Y45657143D01*
X-18842858Y45657143D01*
X-18671429Y45714286D01*
X-18557143Y45828572D01*
X-18500000Y45942858D01*
X-18442858Y46171429D01*
X-18442858Y46342858D01*
X-18500000Y46571429D01*
X-18557143Y46685715D01*
X-18671429Y46800000D01*
X-18842858Y46857143D01*
X-18957143Y46857143D01*
X-19128572Y46800000D01*
X-19185715Y46742858D01*
X-19700000Y45657143D02*
X-19700000Y46857143D01*
X-20214286Y45657143D02*
X-20214286Y46285715D01*
X-20157143Y46400000D01*
X-20042858Y46457143D01*
X-19871429Y46457143D01*
X-19757143Y46400000D01*
X-19700000Y46342858D01*
X-21300000Y45657143D02*
X-21300000Y46285715D01*
X-21242858Y46400000D01*
X-21128572Y46457143D01*
X-20900000Y46457143D01*
X-20785715Y46400000D01*
X-21300000Y45714286D02*
X-21185715Y45657143D01*
X-20900000Y45657143D01*
X-20785715Y45714286D01*
X-20728572Y45828572D01*
X-20728572Y45942858D01*
X-20785715Y46057143D01*
X-20900000Y46114286D01*
X-21185715Y46114286D01*
X-21300000Y46171429D01*
X-21871429Y45657143D02*
X-21871429Y46457143D01*
X-21871429Y46228572D02*
X-21928572Y46342858D01*
X-21985715Y46400000D01*
X-22100000Y46457143D01*
X-22214286Y46457143D01*
X-23128572Y46457143D02*
X-23128572Y45485715D01*
X-23071429Y45371429D01*
X-23014286Y45314286D01*
X-22900000Y45257143D01*
X-22728572Y45257143D01*
X-22614286Y45314286D01*
X-23128572Y45714286D02*
X-23014286Y45657143D01*
X-22785715Y45657143D01*
X-22671429Y45714286D01*
X-22614286Y45771429D01*
X-22557143Y45885715D01*
X-22557143Y46228572D01*
X-22614286Y46342858D01*
X-22671429Y46400000D01*
X-22785715Y46457143D01*
X-23014286Y46457143D01*
X-23128572Y46400000D01*
X-24157143Y45714286D02*
X-24042858Y45657143D01*
X-23814286Y45657143D01*
X-23700000Y45714286D01*
X-23642858Y45828572D01*
X-23642858Y46285715D01*
X-23700000Y46400000D01*
X-23814286Y46457143D01*
X-24042858Y46457143D01*
X-24157143Y46400000D01*
X-24214286Y46285715D01*
X-24214286Y46171429D01*
X-23642858Y46057143D01*
X-24728572Y45657143D02*
X-24728572Y46457143D01*
X-24728572Y46228572D02*
X-24785715Y46342858D01*
X-24842858Y46400000D01*
X-24957143Y46457143D01*
X-25071429Y46457143D01*
D11*
%TO.C,J8*%
X-17100000Y53800000D02*
X-17100000Y46200000D01*
X-10400000Y53800000D02*
X-17100000Y53800000D01*
X-10400000Y46200000D02*
X-10400000Y53800000D01*
X-17100000Y46200000D02*
X-10400000Y46200000D01*
%TO.C,JP1*%
X26500000Y38100000D02*
X20300000Y38100000D01*
X26500000Y31300000D02*
X26500000Y38100000D01*
X20300000Y31300000D02*
X26500000Y31300000D01*
X20300000Y38100000D02*
X20300000Y31300000D01*
%TO.C,J3*%
X15500000Y54300000D02*
X15500000Y50500000D01*
X23500000Y54300000D02*
X15500000Y54300000D01*
X23500000Y50500000D02*
X23500000Y54300000D01*
D12*
X28500000Y43500000D02*
X10500000Y43500000D01*
X10500000Y43500000D02*
X10500000Y50500000D01*
X10500000Y50500000D02*
X28500000Y50500000D01*
X28500000Y50500000D02*
X28500000Y43500000D01*
D11*
%TO.C,J7*%
X-9950000Y42750000D02*
X-9950000Y35150000D01*
X-3250000Y42750000D02*
X-9950000Y42750000D01*
X-3250000Y35150000D02*
X-3250000Y42750000D01*
X-9950000Y35150000D02*
X-3250000Y35150000D01*
%TO.C,J6*%
X-2950000Y42750000D02*
X-2950000Y35150000D01*
X3750000Y42750000D02*
X-2950000Y42750000D01*
X3750000Y35150000D02*
X3750000Y42750000D01*
X-2950000Y35150000D02*
X3750000Y35150000D01*
%TO.C,J4*%
X4050000Y42750000D02*
X4050000Y35150000D01*
X10750000Y42750000D02*
X4050000Y42750000D01*
X10750000Y35150000D02*
X10750000Y42750000D01*
X4050000Y35150000D02*
X10750000Y35150000D01*
%TO.C,J1*%
X-18300000Y50900000D02*
X-18300000Y47820000D01*
X-18300000Y47820000D02*
X-22000000Y47820000D01*
X-22000000Y47820000D02*
X-22000000Y48190000D01*
X-22000000Y48190000D02*
X-24860000Y48190000D01*
X-24860000Y48190000D02*
X-24860000Y50900000D01*
X-18300000Y50900000D02*
X-18300000Y53980000D01*
X-18300000Y53980000D02*
X-22000000Y53980000D01*
X-22000000Y53980000D02*
X-22000000Y53610000D01*
X-22000000Y53610000D02*
X-24860000Y53610000D01*
X-24860000Y53610000D02*
X-24860000Y50900000D01*
%TO.C,J8*%
D12*
X-10247620Y50333334D02*
X-9533334Y50333334D01*
X-9390477Y50380953D01*
X-9295239Y50476191D01*
X-9247620Y50619048D01*
X-9247620Y50714286D01*
X-9819048Y49714286D02*
X-9866667Y49809524D01*
X-9914286Y49857143D01*
X-10009524Y49904762D01*
X-10057143Y49904762D01*
X-10152381Y49857143D01*
X-10200000Y49809524D01*
X-10247620Y49714286D01*
X-10247620Y49523810D01*
X-10200000Y49428572D01*
X-10152381Y49380953D01*
X-10057143Y49333334D01*
X-10009524Y49333334D01*
X-9914286Y49380953D01*
X-9866667Y49428572D01*
X-9819048Y49523810D01*
X-9819048Y49714286D01*
X-9771429Y49809524D01*
X-9723810Y49857143D01*
X-9628572Y49904762D01*
X-9438096Y49904762D01*
X-9342858Y49857143D01*
X-9295239Y49809524D01*
X-9247620Y49714286D01*
X-9247620Y49523810D01*
X-9295239Y49428572D01*
X-9342858Y49380953D01*
X-9438096Y49333334D01*
X-9628572Y49333334D01*
X-9723810Y49380953D01*
X-9771429Y49428572D01*
X-9819048Y49523810D01*
%TD*%
M02*
