%TF.GenerationSoftware,KiCad,Pcbnew,6.0.5-a6ca702e91~116~ubuntu20.04.1*%
%TF.CreationDate,2022-05-11T20:42:12+02:00*%
%TF.ProjectId,uHoubolt_PCB_PMU,75486f75-626f-46c7-945f-5043425f504d,rev?*%
%TF.SameCoordinates,PX8583b00PY5f5e100*%
%TF.FileFunction,Plated,1,4,PTH,Drill*%
%TF.FilePolarity,Positive*%
%FSLAX46Y46*%
G04 Gerber Fmt 4.6, Leading zero omitted, Abs format (unit mm)*
G04 Created by KiCad (PCBNEW 6.0.5-a6ca702e91~116~ubuntu20.04.1) date 2022-05-11 20:42:12*
%MOMM*%
%LPD*%
G01*
G04 APERTURE LIST*
%TA.AperFunction,ViaDrill*%
%ADD10C,0.200000*%
%TD*%
%TA.AperFunction,ComponentDrill*%
%ADD11C,0.200000*%
%TD*%
%TA.AperFunction,ViaDrill*%
%ADD12C,0.300000*%
%TD*%
%TA.AperFunction,ComponentDrill*%
%ADD13C,0.300000*%
%TD*%
%TA.AperFunction,ComponentDrill*%
%ADD14C,0.500000*%
%TD*%
%TA.AperFunction,ComponentDrill*%
%ADD15C,1.000000*%
%TD*%
%TA.AperFunction,ComponentDrill*%
%ADD16C,1.100000*%
%TD*%
%TA.AperFunction,ComponentDrill*%
%ADD17C,1.200000*%
%TD*%
%TA.AperFunction,ComponentDrill*%
%ADD18C,1.800000*%
%TD*%
%TA.AperFunction,ComponentDrill*%
%ADD19C,2.000000*%
%TD*%
%TA.AperFunction,ComponentDrill*%
%ADD20C,3.200000*%
%TD*%
G04 APERTURE END LIST*
D10*
X-53300000Y-2250000D03*
X-52675000Y-8100000D03*
X-51700000Y-15900000D03*
X-51675000Y-2650000D03*
X-51325000Y-9550000D03*
X-51012500Y-1212500D03*
X-50300000Y-11500000D03*
X-49900000Y6350000D03*
X-49350000Y-7175000D03*
X-48700000Y7050000D03*
X-48550000Y14550000D03*
X-48550000Y13650000D03*
X-48500000Y-15400000D03*
X-47950000Y11500000D03*
X-47900000Y17500000D03*
X-47500000Y13000000D03*
X-47500000Y12000000D03*
X-47500000Y11000000D03*
X-47100000Y-4375000D03*
X-46850000Y1750000D03*
X-46800000Y600000D03*
X-46575000Y-275000D03*
X-46400000Y-10900000D03*
X-45300000Y-15700000D03*
X-44600000Y22700000D03*
X-44500000Y-15600000D03*
X-44437500Y10862500D03*
X-43650000Y4875000D03*
X-43175000Y5450000D03*
X-42800000Y3100000D03*
X-42600000Y-9400000D03*
X-42400000Y-12200000D03*
X-42200000Y3000000D03*
X-42000000Y-1500000D03*
X-41100000Y-600000D03*
X-41025000Y-10200000D03*
X-40900000Y24950000D03*
X-40450000Y24950000D03*
X-40200000Y9900000D03*
X-40200000Y-8175000D03*
X-39900000Y22700000D03*
X-39900000Y20900000D03*
X-39525000Y17875000D03*
X-39500000Y20600000D03*
X-39150000Y8100000D03*
X-38950000Y26000000D03*
X-38850000Y20450000D03*
X-38075000Y9450000D03*
X-38050000Y21050000D03*
X-38050000Y20550000D03*
X-37650000Y12400000D03*
X-37450000Y9300000D03*
X-36875000Y9425000D03*
X-36325000Y-8100000D03*
X-36075000Y9575000D03*
X-35450000Y10250000D03*
X-34775000Y9850000D03*
X-34500000Y25500000D03*
X-34500000Y24500000D03*
X-34350000Y-7775000D03*
X-34000000Y25000000D03*
X-33900000Y17500000D03*
X-33500000Y25500000D03*
X-33500000Y24500000D03*
X-33400000Y-27300000D03*
X-33100000Y-32950000D03*
X-32950000Y20750000D03*
X-32825000Y-12550000D03*
X-32700000Y-2500000D03*
X-32450000Y-7100000D03*
X-32200000Y17350000D03*
X-31900000Y-100000D03*
X-31700000Y-5125000D03*
X-31050000Y7550000D03*
X-30125000Y46375000D03*
X-29550000Y-28700000D03*
X-29550000Y-37450000D03*
X-28850000Y-32250000D03*
X-28700000Y500000D03*
X-28650000Y13600000D03*
X-28600000Y7600000D03*
X-28300000Y22850000D03*
X-27700000Y-32250000D03*
X-27700000Y-32850000D03*
X-26950000Y18650000D03*
X-26100000Y-39900000D03*
X-25250000Y45150000D03*
X-22200000Y-39750000D03*
X-20500000Y54000000D03*
X-20500000Y51500000D03*
X-18425000Y49750000D03*
X-18000000Y54000000D03*
X-18000000Y51500000D03*
X-17600000Y46400000D03*
X-16100000Y-39850000D03*
X-15925000Y46875000D03*
X-15500000Y54000000D03*
X-15500000Y51500000D03*
X-15050000Y48250000D03*
X-14900000Y44750000D03*
X-13000000Y56500000D03*
X-13000000Y54000000D03*
X-12200000Y-40100000D03*
X-11250000Y27600000D03*
X-10500000Y56500000D03*
X-10500000Y54000000D03*
X-10500000Y51500000D03*
X-10500000Y41000000D03*
X-8425000Y49575000D03*
X-8275000Y31800000D03*
X-8000000Y56500000D03*
X-8000000Y54000000D03*
X-8000000Y51500000D03*
X-7800000Y46600000D03*
X-7375000Y32000000D03*
X-5950000Y46950000D03*
X-5500000Y56500000D03*
X-5500000Y54000000D03*
X-5500000Y51500000D03*
X-5125000Y48200000D03*
X-4725000Y37000000D03*
X-3000000Y56500000D03*
X-3000000Y54000000D03*
X-3000000Y51500000D03*
X-500000Y56500000D03*
X-500000Y54000000D03*
X-500000Y51500000D03*
X0Y41450000D03*
X900000Y42750000D03*
X2000000Y56500000D03*
X2000000Y54000000D03*
X2000000Y51500000D03*
X4500000Y56500000D03*
X4500000Y54000000D03*
X4700000Y43550000D03*
X7000000Y56500000D03*
X7000000Y54000000D03*
X7000000Y51500000D03*
X9000000Y38500000D03*
X9000000Y37500000D03*
X9500000Y56500000D03*
X9500000Y54000000D03*
X9500000Y38000000D03*
X10000000Y38500000D03*
X10000000Y37500000D03*
X10500000Y38000000D03*
X11000000Y38500000D03*
X11000000Y37500000D03*
X11500000Y38000000D03*
X12000000Y56500000D03*
X12000000Y54000000D03*
X12000000Y38500000D03*
X12000000Y37500000D03*
X12350000Y28150000D03*
X14500000Y56500000D03*
X14500000Y54000000D03*
X15225000Y48725000D03*
X15500000Y31000000D03*
X15500000Y30000000D03*
X15500000Y29000000D03*
X15800000Y32475000D03*
X16000000Y30500000D03*
X16000000Y29500000D03*
X17000000Y54000000D03*
X17000000Y51500000D03*
X18000000Y31000000D03*
X18000000Y30000000D03*
X18000000Y29000000D03*
X19500000Y54000000D03*
X19500000Y51500000D03*
X19500000Y49000000D03*
X21350000Y-47700000D03*
X21725000Y33050000D03*
X22000000Y54000000D03*
X22000000Y51500000D03*
X22000000Y49000000D03*
X23300000Y26600000D03*
X24400000Y29750000D03*
X24500000Y51500000D03*
X24500000Y49000000D03*
X24500000Y46500000D03*
X24500000Y44000000D03*
X24500000Y41500000D03*
X24500000Y39000000D03*
X26800000Y-30850000D03*
X27000000Y51500000D03*
X27000000Y49000000D03*
X27000000Y46500000D03*
X27000000Y44000000D03*
X27000000Y41500000D03*
X27000000Y39000000D03*
X27000000Y21500000D03*
X27000000Y19000000D03*
X27000000Y16500000D03*
X27200000Y-26000000D03*
X28550000Y-35450000D03*
X29500000Y49000000D03*
X29500000Y46500000D03*
X29500000Y41500000D03*
X29500000Y39000000D03*
X29500000Y26500000D03*
X29500000Y24000000D03*
X29500000Y21500000D03*
X29500000Y19000000D03*
X29500000Y16500000D03*
X30400000Y-38800000D03*
X31100000Y-30050000D03*
X32000000Y49000000D03*
X32000000Y46500000D03*
X32000000Y41500000D03*
X32000000Y39000000D03*
X32000000Y29000000D03*
X32000000Y26500000D03*
X32000000Y24000000D03*
X32000000Y21500000D03*
X32000000Y19000000D03*
X32000000Y16500000D03*
X32725000Y-35350000D03*
X34500000Y46500000D03*
X34500000Y44000000D03*
X34500000Y41500000D03*
X34500000Y31500000D03*
X34500000Y29000000D03*
X34500000Y26500000D03*
X34500000Y24000000D03*
X34500000Y21500000D03*
X34500000Y19000000D03*
X34500000Y16500000D03*
X37000000Y44000000D03*
X37000000Y41500000D03*
X37000000Y31500000D03*
X37000000Y29000000D03*
X37000000Y26500000D03*
X37000000Y24000000D03*
X37000000Y19000000D03*
X37000000Y16500000D03*
X39500000Y41500000D03*
X39500000Y34000000D03*
X39500000Y31500000D03*
X39500000Y29000000D03*
X39500000Y26500000D03*
X39500000Y24000000D03*
X39500000Y16500000D03*
X42000000Y39000000D03*
X42000000Y36500000D03*
X42000000Y34000000D03*
X42000000Y29000000D03*
X42000000Y26500000D03*
X42000000Y24000000D03*
X42000000Y16500000D03*
X44500000Y36500000D03*
X44500000Y34000000D03*
X44500000Y31500000D03*
X44500000Y26500000D03*
X44500000Y24000000D03*
X44500000Y19000000D03*
X44500000Y16500000D03*
X47000000Y34000000D03*
X47000000Y31500000D03*
X47000000Y29000000D03*
X47000000Y24000000D03*
X47000000Y16500000D03*
X47300000Y-10700000D03*
X49500000Y29000000D03*
X49500000Y26500000D03*
X49500000Y19000000D03*
X49500000Y16500000D03*
X52000000Y24000000D03*
X52000000Y16500000D03*
D11*
%TO.C,U13*%
X-42975000Y23575000D03*
X-42975000Y22325000D03*
X-41725000Y23575000D03*
X-41725000Y22325000D03*
%TO.C,U3*%
X-31625000Y-32075000D03*
X-31625000Y-33325000D03*
X-30375000Y-32075000D03*
X-30375000Y-33325000D03*
%TD*%
D12*
X-55500000Y16500000D03*
X-55500000Y14000000D03*
X-55500000Y11500000D03*
X-55500000Y9000000D03*
X-55500000Y6500000D03*
X-55500000Y4000000D03*
X-55500000Y-3500000D03*
X-55500000Y-6000000D03*
X-55500000Y-8500000D03*
X-55500000Y-13500000D03*
X-55500000Y-16000000D03*
X-55500000Y-18500000D03*
X-53000000Y24000000D03*
X-53000000Y21500000D03*
X-53000000Y19000000D03*
X-53000000Y16500000D03*
X-53000000Y11500000D03*
X-53000000Y9000000D03*
X-53000000Y6500000D03*
X-53000000Y4000000D03*
X-53000000Y-3500000D03*
X-53000000Y-6000000D03*
X-53000000Y-16000000D03*
X-53000000Y-18500000D03*
X-53000000Y-21000000D03*
X-53000000Y-23500000D03*
X-50500000Y29000000D03*
X-50500000Y26500000D03*
X-50500000Y24000000D03*
X-50500000Y21500000D03*
X-50500000Y19000000D03*
X-50500000Y11500000D03*
X-50500000Y9000000D03*
X-50500000Y6500000D03*
X-50500000Y-23500000D03*
X-50500000Y-26000000D03*
X-50500000Y-28500000D03*
X-48000000Y31500000D03*
X-48000000Y29000000D03*
X-48000000Y26500000D03*
X-48000000Y24000000D03*
X-48000000Y21500000D03*
X-48000000Y-23500000D03*
X-48000000Y-26000000D03*
X-48000000Y-28500000D03*
X-48000000Y-31000000D03*
X-48000000Y-33500000D03*
X-45500000Y36500000D03*
X-45500000Y34000000D03*
X-45500000Y31500000D03*
X-45500000Y29000000D03*
X-45500000Y26500000D03*
X-45500000Y24000000D03*
X-45500000Y9000000D03*
X-45500000Y4000000D03*
X-45500000Y-1000000D03*
X-45500000Y-23500000D03*
X-45500000Y-26000000D03*
X-45500000Y-28500000D03*
X-45500000Y-31000000D03*
X-45500000Y-33500000D03*
X-45500000Y-36000000D03*
X-43150000Y-5400000D03*
X-43000000Y39000000D03*
X-43000000Y36500000D03*
X-43000000Y34000000D03*
X-43000000Y31500000D03*
X-43000000Y29000000D03*
X-43000000Y14000000D03*
X-43000000Y9000000D03*
X-43000000Y-3500000D03*
X-43000000Y-13500000D03*
X-43000000Y-23500000D03*
X-43000000Y-26000000D03*
X-43000000Y-28500000D03*
X-43000000Y-31000000D03*
X-43000000Y-33500000D03*
X-43000000Y-36000000D03*
X-43000000Y-38500000D03*
X-40925000Y9750000D03*
X-40675000Y-13850000D03*
X-40500000Y41500000D03*
X-40500000Y34000000D03*
X-40500000Y31500000D03*
X-40500000Y29000000D03*
X-40500000Y-1000000D03*
X-40500000Y-3500000D03*
X-40500000Y-16000000D03*
X-40500000Y-18500000D03*
X-40500000Y-21000000D03*
X-40500000Y-23500000D03*
X-40500000Y-26000000D03*
X-40500000Y-31000000D03*
X-40500000Y-33500000D03*
X-40500000Y-41000000D03*
X-39850000Y11675000D03*
X-38000000Y44000000D03*
X-38000000Y41500000D03*
X-38000000Y31500000D03*
X-38000000Y29000000D03*
X-38000000Y26500000D03*
X-38000000Y14000000D03*
X-38000000Y-1000000D03*
X-38000000Y-3500000D03*
X-38000000Y-16000000D03*
X-38000000Y-23500000D03*
X-38000000Y-31000000D03*
X-38000000Y-33500000D03*
X-38000000Y-41000000D03*
X-38000000Y-43500000D03*
X-35500000Y46500000D03*
X-35500000Y44000000D03*
X-35500000Y41500000D03*
X-35500000Y34000000D03*
X-35500000Y31500000D03*
X-35500000Y29000000D03*
X-35500000Y26500000D03*
X-35500000Y19000000D03*
X-35500000Y16500000D03*
X-35500000Y11500000D03*
X-35500000Y-23500000D03*
X-35500000Y-31000000D03*
X-35500000Y-33500000D03*
X-35500000Y-41000000D03*
X-35500000Y-43500000D03*
X-35500000Y-46000000D03*
X-33000000Y46500000D03*
X-33000000Y44000000D03*
X-33000000Y41500000D03*
X-33000000Y39000000D03*
X-33000000Y36500000D03*
X-33000000Y34000000D03*
X-33000000Y31500000D03*
X-33000000Y29000000D03*
X-33000000Y26500000D03*
X-33000000Y-23500000D03*
X-33000000Y-26000000D03*
X-33000000Y-41000000D03*
X-33000000Y-43500000D03*
X-33000000Y-46000000D03*
X-30500000Y-3500000D03*
X-30500000Y-6000000D03*
X-30500000Y-13500000D03*
X-30500000Y-16000000D03*
X-30500000Y-26000000D03*
X-30500000Y-46000000D03*
X-30500000Y-48500000D03*
X-28000000Y36500000D03*
X-28000000Y31500000D03*
X-28000000Y26500000D03*
X-28000000Y9000000D03*
X-28000000Y4000000D03*
X-28000000Y-16000000D03*
X-28000000Y-23500000D03*
X-28000000Y-26000000D03*
X-28000000Y-28500000D03*
X-28000000Y-33500000D03*
X-28000000Y-38500000D03*
X-28000000Y-41000000D03*
X-28000000Y-43500000D03*
X-28000000Y-48500000D03*
X-28000000Y-51000000D03*
X-25675000Y-45950000D03*
X-25500000Y51500000D03*
X-25500000Y44000000D03*
X-25500000Y26500000D03*
X-25500000Y11500000D03*
X-25500000Y-13500000D03*
X-25500000Y-18500000D03*
X-25500000Y-21000000D03*
X-25500000Y-23500000D03*
X-25500000Y-26000000D03*
X-25500000Y-28500000D03*
X-25500000Y-33500000D03*
X-25500000Y-38500000D03*
X-23000000Y51500000D03*
X-23000000Y44000000D03*
X-23000000Y41500000D03*
X-23000000Y39000000D03*
X-23000000Y36500000D03*
X-23000000Y34000000D03*
X-23000000Y31500000D03*
X-23000000Y29000000D03*
X-23000000Y-16000000D03*
X-23000000Y-21000000D03*
X-23000000Y-23500000D03*
X-23000000Y-26000000D03*
X-23000000Y-28500000D03*
X-23000000Y-31000000D03*
X-23000000Y-33500000D03*
X-23000000Y-36000000D03*
X-23000000Y-38500000D03*
X-23000000Y-53500000D03*
X-20500000Y39000000D03*
X-20500000Y36500000D03*
X-20500000Y34000000D03*
X-20500000Y31500000D03*
X-20500000Y-18500000D03*
X-20500000Y-23500000D03*
X-20500000Y-26000000D03*
X-20500000Y-28500000D03*
X-20500000Y-31000000D03*
X-20500000Y-33500000D03*
X-20500000Y-36000000D03*
X-20500000Y-38500000D03*
X-20500000Y-53500000D03*
X-18000000Y39000000D03*
X-18000000Y36500000D03*
X-18000000Y34000000D03*
X-18000000Y26500000D03*
X-18000000Y24000000D03*
X-18000000Y-21000000D03*
X-18000000Y-26000000D03*
X-18000000Y-28500000D03*
X-18000000Y-31000000D03*
X-18000000Y-33500000D03*
X-18000000Y-36000000D03*
X-18000000Y-38500000D03*
X-18000000Y-53500000D03*
X-15675000Y-45925000D03*
X-15500000Y56500000D03*
X-15500000Y41500000D03*
X-15500000Y36500000D03*
X-15500000Y34000000D03*
X-15500000Y26500000D03*
X-15500000Y-23500000D03*
X-15500000Y-28500000D03*
X-15500000Y-31000000D03*
X-15500000Y-33500000D03*
X-15500000Y-36000000D03*
X-15500000Y-38500000D03*
X-15500000Y-53500000D03*
X-15500000Y-56000000D03*
X-13000000Y39000000D03*
X-13000000Y36500000D03*
X-13000000Y34000000D03*
X-13000000Y24000000D03*
X-13000000Y-23500000D03*
X-13000000Y-26000000D03*
X-13000000Y-31000000D03*
X-13000000Y-33500000D03*
X-13000000Y-36000000D03*
X-13000000Y-38500000D03*
X-13000000Y-51000000D03*
X-13000000Y-53500000D03*
X-13000000Y-56000000D03*
X-10500000Y39000000D03*
X-10500000Y36500000D03*
X-10500000Y34000000D03*
X-10500000Y26500000D03*
X-10500000Y-26000000D03*
X-10500000Y-28500000D03*
X-10500000Y-33500000D03*
X-10500000Y-36000000D03*
X-10500000Y-38500000D03*
X-10500000Y-51000000D03*
X-10500000Y-53500000D03*
X-10500000Y-56000000D03*
X-8000000Y26500000D03*
X-8000000Y-26000000D03*
X-8000000Y-28500000D03*
X-8000000Y-31000000D03*
X-8000000Y-38500000D03*
X-8000000Y-41000000D03*
X-8000000Y-43500000D03*
X-8000000Y-51000000D03*
X-8000000Y-53500000D03*
X-8000000Y-56000000D03*
X-5500000Y41500000D03*
X-5500000Y26500000D03*
X-5500000Y-28500000D03*
X-5500000Y-31000000D03*
X-5500000Y-38500000D03*
X-5500000Y-41000000D03*
X-5500000Y-51000000D03*
X-5500000Y-53500000D03*
X-5500000Y-56000000D03*
X-3000000Y-28500000D03*
X-3000000Y-31000000D03*
X-3000000Y-38500000D03*
X-3000000Y-41000000D03*
X-3000000Y-51000000D03*
X-3000000Y-53500000D03*
X-3000000Y-56000000D03*
X-500000Y-28500000D03*
X-500000Y-31000000D03*
X-500000Y-38500000D03*
X-500000Y-41000000D03*
X-500000Y-51000000D03*
X-500000Y-53500000D03*
X-500000Y-56000000D03*
X2000000Y-28500000D03*
X2000000Y-31000000D03*
X2000000Y-36000000D03*
X2000000Y-38500000D03*
X2000000Y-51000000D03*
X2000000Y-53500000D03*
X2000000Y-56000000D03*
X3450000Y-45975000D03*
X4500000Y26500000D03*
X4500000Y-28500000D03*
X4500000Y-31000000D03*
X4500000Y-33500000D03*
X4500000Y-53500000D03*
X4500000Y-56000000D03*
X7000000Y26500000D03*
X7000000Y-28500000D03*
X7000000Y-31000000D03*
X7000000Y-33500000D03*
X7000000Y-36000000D03*
X7000000Y-38500000D03*
X7000000Y-51000000D03*
X7000000Y-53500000D03*
X7000000Y-56000000D03*
X9500000Y26500000D03*
X9500000Y-26000000D03*
X9500000Y-28500000D03*
X9500000Y-31000000D03*
X9500000Y-33500000D03*
X9500000Y-36000000D03*
X9500000Y-38500000D03*
X9500000Y-51000000D03*
X9500000Y-53500000D03*
X9500000Y-56000000D03*
X12000000Y26500000D03*
X12000000Y24000000D03*
X12000000Y-26000000D03*
X12000000Y-28500000D03*
X12000000Y-31000000D03*
X12000000Y-33500000D03*
X12000000Y-36000000D03*
X12000000Y-38500000D03*
X12000000Y-53500000D03*
X12000000Y-56000000D03*
X13450000Y-51250000D03*
X13500000Y-45950000D03*
X14500000Y44000000D03*
X14500000Y41500000D03*
X14500000Y39000000D03*
X14500000Y36500000D03*
X14500000Y24000000D03*
X14500000Y-53500000D03*
X14500000Y-56000000D03*
X17000000Y39000000D03*
X17000000Y36500000D03*
X17000000Y21500000D03*
X17000000Y-26000000D03*
X17000000Y-28500000D03*
X17000000Y-31000000D03*
X17000000Y-33500000D03*
X17000000Y-36000000D03*
X17000000Y-38500000D03*
X17000000Y-51000000D03*
X17000000Y-53500000D03*
X17000000Y-56000000D03*
X19500000Y21500000D03*
X19500000Y19000000D03*
X19500000Y-28500000D03*
X19500000Y-31000000D03*
X19500000Y-38500000D03*
X19500000Y-51000000D03*
X19500000Y-53500000D03*
X22000000Y39000000D03*
X22000000Y36500000D03*
X22000000Y31500000D03*
X22000000Y26500000D03*
X22000000Y24000000D03*
X22000000Y21500000D03*
X22000000Y19000000D03*
X22000000Y16500000D03*
X22000000Y-21000000D03*
X22000000Y-41000000D03*
X22000000Y-43500000D03*
X22000000Y-51000000D03*
X22000000Y-53500000D03*
X24500000Y36500000D03*
X24500000Y34000000D03*
X24500000Y31500000D03*
X24500000Y21500000D03*
X24500000Y19000000D03*
X24500000Y16500000D03*
X24500000Y14000000D03*
X24500000Y11500000D03*
X24500000Y-18500000D03*
X24500000Y-21000000D03*
X24500000Y-51000000D03*
X27000000Y36500000D03*
X27000000Y34000000D03*
X27000000Y31500000D03*
X27000000Y14000000D03*
X27000000Y11500000D03*
X27000000Y9000000D03*
X27000000Y6500000D03*
X27000000Y-3500000D03*
X27000000Y-6000000D03*
X27000000Y-8500000D03*
X27000000Y-16000000D03*
X27000000Y-18500000D03*
X27000000Y-21000000D03*
X27000000Y-23500000D03*
X27000000Y-51000000D03*
X29500000Y31500000D03*
X29500000Y14000000D03*
X29500000Y9000000D03*
X29500000Y6500000D03*
X29500000Y-3500000D03*
X29500000Y-8500000D03*
X29500000Y-11000000D03*
X32000000Y31500000D03*
X32000000Y14000000D03*
X32000000Y6500000D03*
X32000000Y4000000D03*
X32000000Y-6000000D03*
X32000000Y-11000000D03*
X34500000Y14000000D03*
X34500000Y9000000D03*
X34500000Y6500000D03*
X34500000Y4000000D03*
X34500000Y-6000000D03*
X34500000Y-8500000D03*
X34500000Y-11000000D03*
X34500000Y-13500000D03*
X34500000Y-16000000D03*
X34500000Y-18500000D03*
X34500000Y-23500000D03*
X37000000Y14000000D03*
X37000000Y9000000D03*
X37000000Y6500000D03*
X37000000Y4000000D03*
X37000000Y-6000000D03*
X37000000Y-8500000D03*
X37000000Y-11000000D03*
X37000000Y-13500000D03*
X37000000Y-16000000D03*
X37000000Y-18500000D03*
X37000000Y-23500000D03*
X37000000Y-26000000D03*
X37000000Y-28500000D03*
X37000000Y-31000000D03*
X39500000Y6500000D03*
X39500000Y4000000D03*
X39500000Y-6000000D03*
X39500000Y-11000000D03*
X39500000Y-13500000D03*
X39500000Y-16000000D03*
X39500000Y-18500000D03*
X39500000Y-23500000D03*
X39500000Y-26000000D03*
X39500000Y-28500000D03*
X39500000Y-31000000D03*
X39500000Y-33500000D03*
X39500000Y-41000000D03*
X42000000Y14000000D03*
X42000000Y9000000D03*
X42000000Y6500000D03*
X42000000Y-6000000D03*
X42000000Y-8500000D03*
X42000000Y-11000000D03*
X42000000Y-13500000D03*
X42000000Y-16000000D03*
X42000000Y-23500000D03*
X42000000Y-26000000D03*
X42000000Y-28500000D03*
X42000000Y-31000000D03*
X42000000Y-33500000D03*
X42000000Y-36000000D03*
X42000000Y-38500000D03*
X44500000Y14000000D03*
X44500000Y9000000D03*
X44500000Y6500000D03*
X44500000Y-6000000D03*
X44500000Y-8500000D03*
X44500000Y-11000000D03*
X44500000Y-16000000D03*
X44500000Y-18500000D03*
X44500000Y-21000000D03*
X44500000Y-23500000D03*
X44500000Y-26000000D03*
X44500000Y-28500000D03*
X44500000Y-31000000D03*
X44500000Y-33500000D03*
X44500000Y-36000000D03*
X47000000Y14000000D03*
X47000000Y6500000D03*
X47000000Y4000000D03*
X47000000Y1500000D03*
X47000000Y-3500000D03*
X47000000Y-6000000D03*
X47000000Y-13500000D03*
X47000000Y-16000000D03*
X47000000Y-21000000D03*
X47000000Y-23500000D03*
X47000000Y-26000000D03*
X47000000Y-28500000D03*
X47000000Y-31000000D03*
X47000000Y-33500000D03*
X49500000Y14000000D03*
X49500000Y9000000D03*
X49500000Y6500000D03*
X49500000Y4000000D03*
X49500000Y-1000000D03*
X49500000Y-3500000D03*
X49500000Y-6000000D03*
X49500000Y-11000000D03*
X49500000Y-13500000D03*
X49500000Y-16000000D03*
X49500000Y-23500000D03*
X49500000Y-26000000D03*
X49500000Y-28500000D03*
X49500000Y-31000000D03*
X52000000Y6500000D03*
X52000000Y4000000D03*
X52000000Y1500000D03*
X52000000Y-1000000D03*
X52000000Y-3500000D03*
X52000000Y-8500000D03*
X52000000Y-11000000D03*
X52000000Y-13500000D03*
X52000000Y-18500000D03*
X52000000Y-21000000D03*
X52000000Y-23500000D03*
X52000000Y-26000000D03*
X54500000Y21500000D03*
X54500000Y19000000D03*
X54500000Y6500000D03*
X54500000Y4000000D03*
X54500000Y-6000000D03*
X54500000Y-11000000D03*
X54500000Y-16000000D03*
X54500000Y-18500000D03*
X54500000Y-21000000D03*
X57000000Y-3500000D03*
X57000000Y-6000000D03*
X57000000Y-8500000D03*
X57000000Y-11000000D03*
D13*
%TO.C,U4*%
X1975000Y41875000D03*
X1975000Y41100000D03*
X1975000Y40325000D03*
X2750000Y41875000D03*
X2750000Y41100000D03*
X2750000Y40325000D03*
X3525000Y41875000D03*
X3525000Y41100000D03*
X3525000Y40325000D03*
%TO.C,U14*%
X27750000Y-31979651D03*
X27750000Y-32754651D03*
X27750000Y-33529651D03*
X28525000Y-31979651D03*
X28525000Y-32754651D03*
X28525000Y-33529651D03*
X29300000Y-31979651D03*
X29300000Y-32754651D03*
X29300000Y-33529651D03*
D14*
%TO.C,H4*%
X-39900000Y37500000D03*
%TO.C,H3*%
X-39900000Y-37500000D03*
%TO.C,H4*%
X-39197056Y39197056D03*
X-39197056Y35802944D03*
%TO.C,H3*%
X-39197056Y-35802944D03*
X-39197056Y-39197056D03*
%TO.C,H4*%
X-37500000Y39900000D03*
X-37500000Y35100000D03*
%TO.C,H3*%
X-37500000Y-35100000D03*
X-37500000Y-39900000D03*
%TO.C,H4*%
X-35802944Y39197056D03*
X-35802944Y35802944D03*
%TO.C,H3*%
X-35802944Y-35802944D03*
X-35802944Y-39197056D03*
%TO.C,H4*%
X-35100000Y37500000D03*
%TO.C,H3*%
X-35100000Y-37500000D03*
%TO.C,H2*%
X35100000Y37500000D03*
%TO.C,H1*%
X35100000Y-37500000D03*
%TO.C,H2*%
X35802944Y39197056D03*
X35802944Y35802944D03*
%TO.C,H1*%
X35802944Y-35802944D03*
X35802944Y-39197056D03*
%TO.C,H2*%
X37500000Y39900000D03*
X37500000Y35100000D03*
%TO.C,H1*%
X37500000Y-35100000D03*
X37500000Y-39900000D03*
%TO.C,H2*%
X39197056Y39197056D03*
X39197056Y35802944D03*
%TO.C,H1*%
X39197056Y-35802944D03*
X39197056Y-39197056D03*
%TO.C,H2*%
X39900000Y37500000D03*
%TO.C,H1*%
X39900000Y-37500000D03*
D15*
%TO.C,TH1*%
X-775000Y34975000D03*
X-775000Y32435000D03*
%TO.C,TH2*%
X34568750Y-25589651D03*
X34568750Y-28129651D03*
D16*
%TO.C,J8*%
X28575000Y43550000D03*
%TO.C,J25*%
X28575000Y36550000D03*
%TO.C,J8*%
X31115000Y43550000D03*
%TO.C,J25*%
X31115000Y36550000D03*
%TO.C,J4*%
X31500000Y-18230000D03*
X31500000Y-20770000D03*
%TO.C,J11*%
X40900000Y-18230000D03*
X40900000Y-20770000D03*
%TO.C,J6*%
X49900000Y-18230000D03*
X49900000Y-20770000D03*
D17*
%TO.C,J20*%
X-22000000Y-48400000D03*
X-19500000Y-48400000D03*
%TO.C,J21*%
X-12000000Y-48400000D03*
X-9500000Y-48400000D03*
%TO.C,J23*%
X-3750000Y-48400000D03*
X-1250000Y-48400000D03*
%TO.C,J22*%
X7200000Y-48400000D03*
X9700000Y-48400000D03*
%TO.C,J24*%
X17200000Y-48400000D03*
%TO.C,J1*%
X17950000Y43350000D03*
X17950000Y40850000D03*
%TO.C,J24*%
X19700000Y-48400000D03*
%TO.C,J26*%
X21075000Y43350000D03*
X21075000Y40850000D03*
%TO.C,J7*%
X29750000Y-42400000D03*
X29750000Y-44900000D03*
%TO.C,SW1*%
X30620000Y12300000D03*
%TO.C,SW2*%
X30620000Y-12300000D03*
%TO.C,SW1*%
X35700000Y12300000D03*
%TO.C,SW2*%
X35700000Y-12300000D03*
%TO.C,SW1*%
X40780000Y12300000D03*
%TO.C,SW2*%
X40780000Y-12300000D03*
%TO.C,SW3*%
X45620000Y12300000D03*
%TO.C,SW4*%
X45620000Y-12300000D03*
%TO.C,SW3*%
X50700000Y12300000D03*
%TO.C,SW4*%
X50700000Y-12300000D03*
%TO.C,SW3*%
X55780000Y12300000D03*
%TO.C,SW4*%
X55780000Y-12300000D03*
D18*
%TO.C,J2*%
X-26800000Y40050000D03*
X-26800000Y34350000D03*
X-26800000Y28650000D03*
%TO.C,J3*%
X37900000Y21150000D03*
X43600000Y21150000D03*
X49300000Y21150000D03*
D19*
%TO.C,SW1*%
X32450000Y8000000D03*
%TO.C,SW2*%
X32450000Y-8000000D03*
%TO.C,SW1*%
X38950000Y8000000D03*
%TO.C,SW2*%
X38950000Y-8000000D03*
%TO.C,SW3*%
X47450000Y8000000D03*
%TO.C,SW4*%
X47450000Y-8000000D03*
%TO.C,SW3*%
X53950000Y8000000D03*
%TO.C,SW4*%
X53950000Y-8000000D03*
D20*
%TO.C,H4*%
X-37500000Y37500000D03*
%TO.C,H3*%
X-37500000Y-37500000D03*
%TO.C,H2*%
X37500000Y37500000D03*
%TO.C,H1*%
X37500000Y-37500000D03*
M02*
