G04 #@! TF.GenerationSoftware,KiCad,Pcbnew,(6.0.0)*
G04 #@! TF.CreationDate,2022-08-29T10:28:43+02:00*
G04 #@! TF.ProjectId,uHoubolt_PCB_PMU,75486f75-626f-46c7-945f-5043425f504d,rev?*
G04 #@! TF.SameCoordinates,Original*
G04 #@! TF.FileFunction,Legend,Bot*
G04 #@! TF.FilePolarity,Positive*
%FSLAX46Y46*%
G04 Gerber Fmt 4.6, Leading zero omitted, Abs format (unit mm)*
G04 Created by KiCad (PCBNEW (6.0.0)) date 2022-08-29 10:28:43*
%MOMM*%
%LPD*%
G01*
G04 APERTURE LIST*
G04 Aperture macros list*
%AMRoundRect*
0 Rectangle with rounded corners*
0 $1 Rounding radius*
0 $2 $3 $4 $5 $6 $7 $8 $9 X,Y pos of 4 corners*
0 Add a 4 corners polygon primitive as box body*
4,1,4,$2,$3,$4,$5,$6,$7,$8,$9,$2,$3,0*
0 Add four circle primitives for the rounded corners*
1,1,$1+$1,$2,$3*
1,1,$1+$1,$4,$5*
1,1,$1+$1,$6,$7*
1,1,$1+$1,$8,$9*
0 Add four rect primitives between the rounded corners*
20,1,$1+$1,$2,$3,$4,$5,0*
20,1,$1+$1,$4,$5,$6,$7,0*
20,1,$1+$1,$6,$7,$8,$9,0*
20,1,$1+$1,$8,$9,$2,$3,0*%
%AMFreePoly0*
4,1,23,0.945671,0.830970,1.026777,0.776777,1.080970,0.695671,1.100000,0.600000,1.100000,-0.600000,1.080970,-0.695671,1.026777,-0.776777,0.945671,-0.830970,0.850000,-0.850000,-0.450000,-0.850000,-0.545671,-0.830970,-0.626777,-0.776777,-0.626779,-0.776774,-1.026777,-0.376777,-1.080970,-0.295671,-1.100000,-0.200000,-1.100000,0.600000,-1.080970,0.695671,-1.026777,0.776777,-0.945671,0.830970,
-0.850000,0.850000,0.850000,0.850000,0.945671,0.830970,0.945671,0.830970,$1*%
%AMFreePoly1*
4,1,22,0.500000,-0.750000,0.000000,-0.750000,0.000000,-0.745033,-0.079941,-0.743568,-0.215256,-0.701293,-0.333266,-0.622738,-0.424486,-0.514219,-0.481581,-0.384460,-0.499164,-0.250000,-0.500000,-0.250000,-0.500000,0.250000,-0.499164,0.250000,-0.499963,0.256109,-0.478152,0.396186,-0.417904,0.524511,-0.324060,0.630769,-0.204165,0.706417,-0.067858,0.745374,0.000000,0.744959,0.000000,0.750000,
0.500000,0.750000,0.500000,-0.750000,0.500000,-0.750000,$1*%
%AMFreePoly2*
4,1,20,0.000000,0.744959,0.073905,0.744508,0.209726,0.703889,0.328688,0.626782,0.421226,0.519385,0.479903,0.390333,0.500000,0.250000,0.500000,-0.250000,0.499851,-0.262216,0.476331,-0.402017,0.414519,-0.529596,0.319384,-0.634700,0.198574,-0.708877,0.061801,-0.746166,0.000000,-0.745033,0.000000,-0.750000,-0.500000,-0.750000,-0.500000,0.750000,0.000000,0.750000,0.000000,0.744959,
0.000000,0.744959,$1*%
G04 Aperture macros list end*
%ADD10C,0.120000*%
%ADD11C,0.200000*%
%ADD12C,0.300000*%
%ADD13C,0.010000*%
%ADD14C,0.150000*%
%ADD15C,1.300000*%
%ADD16RoundRect,0.250000X0.600000X-0.850000X0.600000X0.850000X-0.600000X0.850000X-0.600000X-0.850000X0*%
%ADD17O,1.700000X2.200000*%
%ADD18C,2.000000*%
%ADD19C,2.500000*%
%ADD20C,6.400000*%
%ADD21C,0.800000*%
%ADD22C,3.000000*%
%ADD23FreePoly0,180.000000*%
%ADD24O,2.200000X1.700000*%
%ADD25FreePoly0,90.000000*%
%ADD26RoundRect,0.150000X0.150000X0.700000X-0.150000X0.700000X-0.150000X-0.700000X0.150000X-0.700000X0*%
%ADD27RoundRect,0.250000X0.250000X1.150000X-0.250000X1.150000X-0.250000X-1.150000X0.250000X-1.150000X0*%
%ADD28RoundRect,0.150000X-0.150000X-0.700000X0.150000X-0.700000X0.150000X0.700000X-0.150000X0.700000X0*%
%ADD29RoundRect,0.250000X-0.250000X-1.150000X0.250000X-1.150000X0.250000X1.150000X-0.250000X1.150000X0*%
%ADD30FreePoly1,270.000000*%
%ADD31FreePoly2,270.000000*%
%ADD32R,2.400000X0.740000*%
%ADD33R,2.510000X1.000000*%
%ADD34R,1.270000X2.540000*%
%ADD35R,3.430000X1.650000*%
G04 APERTURE END LIST*
D10*
X117300000Y-60700000D02*
X127100000Y-60700000D01*
X127100000Y-60700000D02*
X127100000Y-45700000D01*
X127100000Y-45700000D02*
X117300000Y-45700000D01*
X117300000Y-45700000D02*
X117300000Y-60700000D01*
X137100000Y-60700000D02*
X127300000Y-60700000D01*
X127300000Y-60700000D02*
X127300000Y-45700000D01*
X127300000Y-45700000D02*
X137100000Y-45700000D01*
X137100000Y-45700000D02*
X137100000Y-60700000D01*
D11*
X139568095Y-42328571D02*
X140330000Y-42328571D01*
X139949047Y-41947619D02*
X139949047Y-42709523D01*
X141330000Y-41947619D02*
X140758571Y-41947619D01*
X141044285Y-41947619D02*
X141044285Y-42947619D01*
X140949047Y-42804761D01*
X140853809Y-42709523D01*
X140758571Y-42661904D01*
X141710952Y-42852380D02*
X141758571Y-42900000D01*
X141853809Y-42947619D01*
X142091904Y-42947619D01*
X142187142Y-42900000D01*
X142234761Y-42852380D01*
X142282380Y-42757142D01*
X142282380Y-42661904D01*
X142234761Y-42519047D01*
X141663333Y-41947619D01*
X142282380Y-41947619D01*
X142568095Y-42947619D02*
X142901428Y-41947619D01*
X143234761Y-42947619D01*
X110004495Y-76576180D02*
X110575923Y-76576180D01*
X110290209Y-76576180D02*
X110290209Y-75576180D01*
X110385447Y-75719038D01*
X110480685Y-75814276D01*
X110575923Y-75861895D01*
X151531904Y-152502380D02*
X151531904Y-151502380D01*
X150960476Y-152502380D01*
X150960476Y-151502380D01*
X150055714Y-152502380D02*
X150055714Y-151978571D01*
X150103333Y-151883333D01*
X150198571Y-151835714D01*
X150389047Y-151835714D01*
X150484285Y-151883333D01*
X150055714Y-152454761D02*
X150150952Y-152502380D01*
X150389047Y-152502380D01*
X150484285Y-152454761D01*
X150531904Y-152359523D01*
X150531904Y-152264285D01*
X150484285Y-152169047D01*
X150389047Y-152121428D01*
X150150952Y-152121428D01*
X150055714Y-152073809D01*
X149722380Y-151835714D02*
X149341428Y-151835714D01*
X149579523Y-151502380D02*
X149579523Y-152359523D01*
X149531904Y-152454761D01*
X149436666Y-152502380D01*
X149341428Y-152502380D01*
X149008095Y-152502380D02*
X149008095Y-151502380D01*
X148579523Y-152502380D02*
X148579523Y-151978571D01*
X148627142Y-151883333D01*
X148722380Y-151835714D01*
X148865238Y-151835714D01*
X148960476Y-151883333D01*
X149008095Y-151930952D01*
X147674761Y-152502380D02*
X147674761Y-151978571D01*
X147722380Y-151883333D01*
X147817619Y-151835714D01*
X148008095Y-151835714D01*
X148103333Y-151883333D01*
X147674761Y-152454761D02*
X147770000Y-152502380D01*
X148008095Y-152502380D01*
X148103333Y-152454761D01*
X148150952Y-152359523D01*
X148150952Y-152264285D01*
X148103333Y-152169047D01*
X148008095Y-152121428D01*
X147770000Y-152121428D01*
X147674761Y-152073809D01*
X147198571Y-151835714D02*
X147198571Y-152502380D01*
X147198571Y-151930952D02*
X147150952Y-151883333D01*
X147055714Y-151835714D01*
X146912857Y-151835714D01*
X146817619Y-151883333D01*
X146770000Y-151978571D01*
X146770000Y-152502380D01*
X144960476Y-152502380D02*
X145293809Y-152026190D01*
X145531904Y-152502380D02*
X145531904Y-151502380D01*
X145150952Y-151502380D01*
X145055714Y-151550000D01*
X145008095Y-151597619D01*
X144960476Y-151692857D01*
X144960476Y-151835714D01*
X145008095Y-151930952D01*
X145055714Y-151978571D01*
X145150952Y-152026190D01*
X145531904Y-152026190D01*
X144103333Y-151835714D02*
X144103333Y-152502380D01*
X144531904Y-151835714D02*
X144531904Y-152359523D01*
X144484285Y-152454761D01*
X144389047Y-152502380D01*
X144246190Y-152502380D01*
X144150952Y-152454761D01*
X144103333Y-152407142D01*
X143627142Y-151835714D02*
X143627142Y-152502380D01*
X143627142Y-151930952D02*
X143579523Y-151883333D01*
X143484285Y-151835714D01*
X143341428Y-151835714D01*
X143246190Y-151883333D01*
X143198571Y-151978571D01*
X143198571Y-152502380D01*
X142293809Y-151835714D02*
X142293809Y-152645238D01*
X142341428Y-152740476D01*
X142389047Y-152788095D01*
X142484285Y-152835714D01*
X142627142Y-152835714D01*
X142722380Y-152788095D01*
X142293809Y-152454761D02*
X142389047Y-152502380D01*
X142579523Y-152502380D01*
X142674761Y-152454761D01*
X142722380Y-152407142D01*
X142770000Y-152311904D01*
X142770000Y-152026190D01*
X142722380Y-151930952D01*
X142674761Y-151883333D01*
X142579523Y-151835714D01*
X142389047Y-151835714D01*
X142293809Y-151883333D01*
X141389047Y-151835714D02*
X141389047Y-152645238D01*
X141436666Y-152740476D01*
X141484285Y-152788095D01*
X141579523Y-152835714D01*
X141722380Y-152835714D01*
X141817619Y-152788095D01*
X141389047Y-152454761D02*
X141484285Y-152502380D01*
X141674761Y-152502380D01*
X141770000Y-152454761D01*
X141817619Y-152407142D01*
X141865238Y-152311904D01*
X141865238Y-152026190D01*
X141817619Y-151930952D01*
X141770000Y-151883333D01*
X141674761Y-151835714D01*
X141484285Y-151835714D01*
X141389047Y-151883333D01*
X140484285Y-152502380D02*
X140484285Y-151978571D01*
X140531904Y-151883333D01*
X140627142Y-151835714D01*
X140817619Y-151835714D01*
X140912857Y-151883333D01*
X140484285Y-152454761D02*
X140579523Y-152502380D01*
X140817619Y-152502380D01*
X140912857Y-152454761D01*
X140960476Y-152359523D01*
X140960476Y-152264285D01*
X140912857Y-152169047D01*
X140817619Y-152121428D01*
X140579523Y-152121428D01*
X140484285Y-152073809D01*
X139865238Y-152502380D02*
X139960476Y-152454761D01*
X140008095Y-152359523D01*
X140008095Y-151502380D01*
X139055714Y-152502380D02*
X139055714Y-151502380D01*
X139055714Y-152454761D02*
X139150952Y-152502380D01*
X139341428Y-152502380D01*
X139436666Y-152454761D01*
X139484285Y-152407142D01*
X139531904Y-152311904D01*
X139531904Y-152026190D01*
X139484285Y-151930952D01*
X139436666Y-151883333D01*
X139341428Y-151835714D01*
X139150952Y-151835714D01*
X139055714Y-151883333D01*
X138579523Y-152502380D02*
X138579523Y-151835714D01*
X138579523Y-151502380D02*
X138627142Y-151550000D01*
X138579523Y-151597619D01*
X138531904Y-151550000D01*
X138579523Y-151502380D01*
X138579523Y-151597619D01*
X137722380Y-152454761D02*
X137817619Y-152502380D01*
X138008095Y-152502380D01*
X138103333Y-152454761D01*
X138150952Y-152359523D01*
X138150952Y-151978571D01*
X138103333Y-151883333D01*
X138008095Y-151835714D01*
X137817619Y-151835714D01*
X137722380Y-151883333D01*
X137674761Y-151978571D01*
X137674761Y-152073809D01*
X138150952Y-152169047D01*
X137246190Y-152502380D02*
X137246190Y-151835714D01*
X137246190Y-152026190D02*
X137198571Y-151930952D01*
X137150952Y-151883333D01*
X137055714Y-151835714D01*
X136960476Y-151835714D01*
X135674761Y-151502380D02*
X135579523Y-151502380D01*
X135484285Y-151550000D01*
X135436666Y-151597619D01*
X135389047Y-151692857D01*
X135341428Y-151883333D01*
X135341428Y-152121428D01*
X135389047Y-152311904D01*
X135436666Y-152407142D01*
X135484285Y-152454761D01*
X135579523Y-152502380D01*
X135674761Y-152502380D01*
X135770000Y-152454761D01*
X135817619Y-152407142D01*
X135865238Y-152311904D01*
X135912857Y-152121428D01*
X135912857Y-151883333D01*
X135865238Y-151692857D01*
X135817619Y-151597619D01*
X135770000Y-151550000D01*
X135674761Y-151502380D01*
X134770000Y-151930952D02*
X134865238Y-151883333D01*
X134912857Y-151835714D01*
X134960476Y-151740476D01*
X134960476Y-151692857D01*
X134912857Y-151597619D01*
X134865238Y-151550000D01*
X134770000Y-151502380D01*
X134579523Y-151502380D01*
X134484285Y-151550000D01*
X134436666Y-151597619D01*
X134389047Y-151692857D01*
X134389047Y-151740476D01*
X134436666Y-151835714D01*
X134484285Y-151883333D01*
X134579523Y-151930952D01*
X134770000Y-151930952D01*
X134865238Y-151978571D01*
X134912857Y-152026190D01*
X134960476Y-152121428D01*
X134960476Y-152311904D01*
X134912857Y-152407142D01*
X134865238Y-152454761D01*
X134770000Y-152502380D01*
X134579523Y-152502380D01*
X134484285Y-152454761D01*
X134436666Y-152407142D01*
X134389047Y-152311904D01*
X134389047Y-152121428D01*
X134436666Y-152026190D01*
X134484285Y-151978571D01*
X134579523Y-151930952D01*
X133246190Y-151454761D02*
X134103333Y-152740476D01*
X132960476Y-151597619D02*
X132912857Y-151550000D01*
X132817619Y-151502380D01*
X132579523Y-151502380D01*
X132484285Y-151550000D01*
X132436666Y-151597619D01*
X132389047Y-151692857D01*
X132389047Y-151788095D01*
X132436666Y-151930952D01*
X133008095Y-152502380D01*
X132389047Y-152502380D01*
X131770000Y-151502380D02*
X131674761Y-151502380D01*
X131579523Y-151550000D01*
X131531904Y-151597619D01*
X131484285Y-151692857D01*
X131436666Y-151883333D01*
X131436666Y-152121428D01*
X131484285Y-152311904D01*
X131531904Y-152407142D01*
X131579523Y-152454761D01*
X131674761Y-152502380D01*
X131770000Y-152502380D01*
X131865238Y-152454761D01*
X131912857Y-152407142D01*
X131960476Y-152311904D01*
X132008095Y-152121428D01*
X132008095Y-151883333D01*
X131960476Y-151692857D01*
X131912857Y-151597619D01*
X131865238Y-151550000D01*
X131770000Y-151502380D01*
X131055714Y-151597619D02*
X131008095Y-151550000D01*
X130912857Y-151502380D01*
X130674761Y-151502380D01*
X130579523Y-151550000D01*
X130531904Y-151597619D01*
X130484285Y-151692857D01*
X130484285Y-151788095D01*
X130531904Y-151930952D01*
X131103333Y-152502380D01*
X130484285Y-152502380D01*
X130103333Y-151597619D02*
X130055714Y-151550000D01*
X129960476Y-151502380D01*
X129722380Y-151502380D01*
X129627142Y-151550000D01*
X129579523Y-151597619D01*
X129531904Y-151692857D01*
X129531904Y-151788095D01*
X129579523Y-151930952D01*
X130150952Y-152502380D01*
X129531904Y-152502380D01*
X193375000Y-102391904D02*
X193327380Y-102296666D01*
X193327380Y-102153809D01*
X193375000Y-102010952D01*
X193470238Y-101915714D01*
X193565476Y-101868095D01*
X193755952Y-101820476D01*
X193898809Y-101820476D01*
X194089285Y-101868095D01*
X194184523Y-101915714D01*
X194279761Y-102010952D01*
X194327380Y-102153809D01*
X194327380Y-102249047D01*
X194279761Y-102391904D01*
X194232142Y-102439523D01*
X193898809Y-102439523D01*
X193898809Y-102249047D01*
X194327380Y-102868095D02*
X193327380Y-102868095D01*
X194327380Y-103439523D01*
X193327380Y-103439523D01*
X194327380Y-103915714D02*
X193327380Y-103915714D01*
X193327380Y-104153809D01*
X193375000Y-104296666D01*
X193470238Y-104391904D01*
X193565476Y-104439523D01*
X193755952Y-104487142D01*
X193898809Y-104487142D01*
X194089285Y-104439523D01*
X194184523Y-104391904D01*
X194279761Y-104296666D01*
X194327380Y-104153809D01*
X194327380Y-103915714D01*
X121039523Y-46042857D02*
X120991904Y-45995238D01*
X120849047Y-45947619D01*
X120753809Y-45947619D01*
X120610952Y-45995238D01*
X120515714Y-46090476D01*
X120468095Y-46185714D01*
X120420476Y-46376190D01*
X120420476Y-46519047D01*
X120468095Y-46709523D01*
X120515714Y-46804761D01*
X120610952Y-46900000D01*
X120753809Y-46947619D01*
X120849047Y-46947619D01*
X120991904Y-46900000D01*
X121039523Y-46852380D01*
X121420476Y-46233333D02*
X121896666Y-46233333D01*
X121325238Y-45947619D02*
X121658571Y-46947619D01*
X121991904Y-45947619D01*
X122325238Y-45947619D02*
X122325238Y-46947619D01*
X122896666Y-45947619D01*
X122896666Y-46947619D01*
X123325238Y-46852380D02*
X123372857Y-46900000D01*
X123468095Y-46947619D01*
X123706190Y-46947619D01*
X123801428Y-46900000D01*
X123849047Y-46852380D01*
X123896666Y-46757142D01*
X123896666Y-46661904D01*
X123849047Y-46519047D01*
X123277619Y-45947619D01*
X123896666Y-45947619D01*
X179578571Y-72481904D02*
X179578571Y-71720000D01*
X179197619Y-72100952D02*
X179959523Y-72100952D01*
X179197619Y-70720000D02*
X179197619Y-71291428D01*
X179197619Y-71005714D02*
X180197619Y-71005714D01*
X180054761Y-71100952D01*
X179959523Y-71196190D01*
X179911904Y-71291428D01*
X180102380Y-70339047D02*
X180150000Y-70291428D01*
X180197619Y-70196190D01*
X180197619Y-69958095D01*
X180150000Y-69862857D01*
X180102380Y-69815238D01*
X180007142Y-69767619D01*
X179911904Y-69767619D01*
X179769047Y-69815238D01*
X179197619Y-70386666D01*
X179197619Y-69767619D01*
X180197619Y-69481904D02*
X179197619Y-69148571D01*
X180197619Y-68815238D01*
D12*
X147364285Y-150754761D02*
X147364285Y-148754761D01*
X146602380Y-148754761D01*
X146411904Y-148850000D01*
X146316666Y-148945238D01*
X146221428Y-149135714D01*
X146221428Y-149421428D01*
X146316666Y-149611904D01*
X146411904Y-149707142D01*
X146602380Y-149802380D01*
X147364285Y-149802380D01*
X145364285Y-150754761D02*
X145364285Y-148754761D01*
X144697619Y-150183333D01*
X144030952Y-148754761D01*
X144030952Y-150754761D01*
X143078571Y-148754761D02*
X143078571Y-150373809D01*
X142983333Y-150564285D01*
X142888095Y-150659523D01*
X142697619Y-150754761D01*
X142316666Y-150754761D01*
X142126190Y-150659523D01*
X142030952Y-150564285D01*
X141935714Y-150373809D01*
X141935714Y-148754761D01*
X139745238Y-148754761D02*
X139078571Y-150754761D01*
X138411904Y-148754761D01*
X137935714Y-148754761D02*
X136697619Y-148754761D01*
X137364285Y-149516666D01*
X137078571Y-149516666D01*
X136888095Y-149611904D01*
X136792857Y-149707142D01*
X136697619Y-149897619D01*
X136697619Y-150373809D01*
X136792857Y-150564285D01*
X136888095Y-150659523D01*
X137078571Y-150754761D01*
X137650000Y-150754761D01*
X137840476Y-150659523D01*
X137935714Y-150564285D01*
X135840476Y-150564285D02*
X135745238Y-150659523D01*
X135840476Y-150754761D01*
X135935714Y-150659523D01*
X135840476Y-150564285D01*
X135840476Y-150754761D01*
X134507142Y-148754761D02*
X134316666Y-148754761D01*
X134126190Y-148850000D01*
X134030952Y-148945238D01*
X133935714Y-149135714D01*
X133840476Y-149516666D01*
X133840476Y-149992857D01*
X133935714Y-150373809D01*
X134030952Y-150564285D01*
X134126190Y-150659523D01*
X134316666Y-150754761D01*
X134507142Y-150754761D01*
X134697619Y-150659523D01*
X134792857Y-150564285D01*
X134888095Y-150373809D01*
X134983333Y-149992857D01*
X134983333Y-149516666D01*
X134888095Y-149135714D01*
X134792857Y-148945238D01*
X134697619Y-148850000D01*
X134507142Y-148754761D01*
D11*
X180150000Y-77158095D02*
X180197619Y-77253333D01*
X180197619Y-77396190D01*
X180150000Y-77539047D01*
X180054761Y-77634285D01*
X179959523Y-77681904D01*
X179769047Y-77729523D01*
X179626190Y-77729523D01*
X179435714Y-77681904D01*
X179340476Y-77634285D01*
X179245238Y-77539047D01*
X179197619Y-77396190D01*
X179197619Y-77300952D01*
X179245238Y-77158095D01*
X179292857Y-77110476D01*
X179626190Y-77110476D01*
X179626190Y-77300952D01*
X179197619Y-76681904D02*
X180197619Y-76681904D01*
X179197619Y-76110476D01*
X180197619Y-76110476D01*
X179197619Y-75634285D02*
X180197619Y-75634285D01*
X180197619Y-75396190D01*
X180150000Y-75253333D01*
X180054761Y-75158095D01*
X179959523Y-75110476D01*
X179769047Y-75062857D01*
X179626190Y-75062857D01*
X179435714Y-75110476D01*
X179340476Y-75158095D01*
X179245238Y-75253333D01*
X179197619Y-75396190D01*
X179197619Y-75634285D01*
D12*
X165607142Y-72428571D02*
X165607142Y-73571428D01*
X166178571Y-73000000D02*
X165035714Y-73000000D01*
X189771428Y-78554761D02*
X189771428Y-77988095D01*
X188880952Y-77745238D02*
X188880952Y-78554761D01*
X190580952Y-78554761D01*
X190580952Y-77745238D01*
X189042857Y-76045238D02*
X188961904Y-76126190D01*
X188880952Y-76369047D01*
X188880952Y-76530952D01*
X188961904Y-76773809D01*
X189123809Y-76935714D01*
X189285714Y-77016666D01*
X189609523Y-77097619D01*
X189852380Y-77097619D01*
X190176190Y-77016666D01*
X190338095Y-76935714D01*
X190500000Y-76773809D01*
X190580952Y-76530952D01*
X190580952Y-76369047D01*
X190500000Y-76126190D01*
X190419047Y-76045238D01*
X190580952Y-75316666D02*
X189204761Y-75316666D01*
X189042857Y-75235714D01*
X188961904Y-75154761D01*
X188880952Y-74992857D01*
X188880952Y-74669047D01*
X188961904Y-74507142D01*
X189042857Y-74426190D01*
X189204761Y-74345238D01*
X190580952Y-74345238D01*
D11*
X179197619Y-83481904D02*
X180197619Y-83481904D01*
X180197619Y-83100952D01*
X180150000Y-83005714D01*
X180102380Y-82958095D01*
X180007142Y-82910476D01*
X179864285Y-82910476D01*
X179769047Y-82958095D01*
X179721428Y-83005714D01*
X179673809Y-83100952D01*
X179673809Y-83481904D01*
X179673809Y-82291428D02*
X179197619Y-82291428D01*
X180197619Y-82624761D02*
X179673809Y-82291428D01*
X180197619Y-81958095D01*
X179197619Y-81053333D02*
X179673809Y-81386666D01*
X179197619Y-81624761D02*
X180197619Y-81624761D01*
X180197619Y-81243809D01*
X180150000Y-81148571D01*
X180102380Y-81100952D01*
X180007142Y-81053333D01*
X179864285Y-81053333D01*
X179769047Y-81100952D01*
X179721428Y-81148571D01*
X179673809Y-81243809D01*
X179673809Y-81624761D01*
X180197619Y-80434285D02*
X180197619Y-80243809D01*
X180150000Y-80148571D01*
X180054761Y-80053333D01*
X179864285Y-80005714D01*
X179530952Y-80005714D01*
X179340476Y-80053333D01*
X179245238Y-80148571D01*
X179197619Y-80243809D01*
X179197619Y-80434285D01*
X179245238Y-80529523D01*
X179340476Y-80624761D01*
X179530952Y-80672380D01*
X179864285Y-80672380D01*
X180054761Y-80624761D01*
X180150000Y-80529523D01*
X180197619Y-80434285D01*
X196152380Y-101868095D02*
X196961904Y-101868095D01*
X197057142Y-101915714D01*
X197104761Y-101963333D01*
X197152380Y-102058571D01*
X197152380Y-102249047D01*
X197104761Y-102344285D01*
X197057142Y-102391904D01*
X196961904Y-102439523D01*
X196152380Y-102439523D01*
X197152380Y-102915714D02*
X196485714Y-102915714D01*
X196580952Y-102915714D02*
X196533333Y-102963333D01*
X196485714Y-103058571D01*
X196485714Y-103201428D01*
X196533333Y-103296666D01*
X196628571Y-103344285D01*
X197152380Y-103344285D01*
X196628571Y-103344285D02*
X196533333Y-103391904D01*
X196485714Y-103487142D01*
X196485714Y-103630000D01*
X196533333Y-103725238D01*
X196628571Y-103772857D01*
X197152380Y-103772857D01*
X197152380Y-104249047D02*
X196152380Y-104249047D01*
X196533333Y-104249047D02*
X196485714Y-104344285D01*
X196485714Y-104534761D01*
X196533333Y-104630000D01*
X196580952Y-104677619D01*
X196676190Y-104725238D01*
X196961904Y-104725238D01*
X197057142Y-104677619D01*
X197104761Y-104630000D01*
X197152380Y-104534761D01*
X197152380Y-104344285D01*
X197104761Y-104249047D01*
X197152380Y-105153809D02*
X196485714Y-105153809D01*
X196152380Y-105153809D02*
X196200000Y-105106190D01*
X196247619Y-105153809D01*
X196200000Y-105201428D01*
X196152380Y-105153809D01*
X196247619Y-105153809D01*
X197152380Y-105772857D02*
X197104761Y-105677619D01*
X197009523Y-105630000D01*
X196152380Y-105630000D01*
X197152380Y-106153809D02*
X196485714Y-106153809D01*
X196152380Y-106153809D02*
X196200000Y-106106190D01*
X196247619Y-106153809D01*
X196200000Y-106201428D01*
X196152380Y-106153809D01*
X196247619Y-106153809D01*
X197104761Y-107058571D02*
X197152380Y-106963333D01*
X197152380Y-106772857D01*
X197104761Y-106677619D01*
X197057142Y-106630000D01*
X196961904Y-106582380D01*
X196676190Y-106582380D01*
X196580952Y-106630000D01*
X196533333Y-106677619D01*
X196485714Y-106772857D01*
X196485714Y-106963333D01*
X196533333Y-107058571D01*
X197152380Y-107915714D02*
X196628571Y-107915714D01*
X196533333Y-107868095D01*
X196485714Y-107772857D01*
X196485714Y-107582380D01*
X196533333Y-107487142D01*
X197104761Y-107915714D02*
X197152380Y-107820476D01*
X197152380Y-107582380D01*
X197104761Y-107487142D01*
X197009523Y-107439523D01*
X196914285Y-107439523D01*
X196819047Y-107487142D01*
X196771428Y-107582380D01*
X196771428Y-107820476D01*
X196723809Y-107915714D01*
X197152380Y-108534761D02*
X197104761Y-108439523D01*
X197009523Y-108391904D01*
X196152380Y-108391904D01*
X131439523Y-46042857D02*
X131391904Y-45995238D01*
X131249047Y-45947619D01*
X131153809Y-45947619D01*
X131010952Y-45995238D01*
X130915714Y-46090476D01*
X130868095Y-46185714D01*
X130820476Y-46376190D01*
X130820476Y-46519047D01*
X130868095Y-46709523D01*
X130915714Y-46804761D01*
X131010952Y-46900000D01*
X131153809Y-46947619D01*
X131249047Y-46947619D01*
X131391904Y-46900000D01*
X131439523Y-46852380D01*
X131820476Y-46233333D02*
X132296666Y-46233333D01*
X131725238Y-45947619D02*
X132058571Y-46947619D01*
X132391904Y-45947619D01*
X132725238Y-45947619D02*
X132725238Y-46947619D01*
X133296666Y-45947619D01*
X133296666Y-46947619D01*
X134296666Y-45947619D02*
X133725238Y-45947619D01*
X134010952Y-45947619D02*
X134010952Y-46947619D01*
X133915714Y-46804761D01*
X133820476Y-46709523D01*
X133725238Y-46661904D01*
D12*
X144092857Y-43028571D02*
X144092857Y-44171428D01*
X143521428Y-43600000D02*
X144664285Y-43600000D01*
D13*
X139909410Y-137731017D02*
X139667653Y-137733071D01*
X139667653Y-137733071D02*
X139495843Y-137737665D01*
X139495843Y-137737665D02*
X139382772Y-137745757D01*
X139382772Y-137745757D02*
X139317232Y-137758303D01*
X139317232Y-137758303D02*
X139288017Y-137776263D01*
X139288017Y-137776263D02*
X139283919Y-137800593D01*
X139283919Y-137800593D02*
X139286513Y-137811364D01*
X139286513Y-137811364D02*
X139313756Y-137915704D01*
X139313756Y-137915704D02*
X139340099Y-138030727D01*
X139340099Y-138030727D02*
X139364943Y-138150662D01*
X139364943Y-138150662D02*
X139389834Y-138233649D01*
X139389834Y-138233649D02*
X139430390Y-138286447D01*
X139430390Y-138286447D02*
X139502233Y-138315814D01*
X139502233Y-138315814D02*
X139620983Y-138328510D01*
X139620983Y-138328510D02*
X139802261Y-138331293D01*
X139802261Y-138331293D02*
X140033839Y-138330909D01*
X140033839Y-138330909D02*
X140292599Y-138332712D01*
X140292599Y-138332712D02*
X140471525Y-138338971D01*
X140471525Y-138338971D02*
X140583093Y-138350965D01*
X140583093Y-138350965D02*
X140639778Y-138369969D01*
X140639778Y-138369969D02*
X140654182Y-138394409D01*
X140654182Y-138394409D02*
X140662864Y-138483111D01*
X140662864Y-138483111D02*
X140683045Y-138602227D01*
X140683045Y-138602227D02*
X140711909Y-138746545D01*
X140711909Y-138746545D02*
X140128863Y-138746545D01*
X140128863Y-138746545D02*
X139909012Y-138749402D01*
X139909012Y-138749402D02*
X139727081Y-138757205D01*
X139727081Y-138757205D02*
X139600470Y-138768806D01*
X139600470Y-138768806D02*
X139546576Y-138783058D01*
X139546576Y-138783058D02*
X139545818Y-138785025D01*
X139545818Y-138785025D02*
X139554320Y-138848281D01*
X139554320Y-138848281D02*
X139576287Y-138971633D01*
X139576287Y-138971633D02*
X139598375Y-139085207D01*
X139598375Y-139085207D02*
X139650933Y-139346909D01*
X139650933Y-139346909D02*
X140242195Y-139346909D01*
X140242195Y-139346909D02*
X140465929Y-139349464D01*
X140465929Y-139349464D02*
X140654040Y-139356446D01*
X140654040Y-139356446D02*
X140788470Y-139366831D01*
X140788470Y-139366831D02*
X140851167Y-139379597D01*
X140851167Y-139379597D02*
X140853209Y-139381545D01*
X140853209Y-139381545D02*
X140873684Y-139446242D01*
X140873684Y-139446242D02*
X140899085Y-139561884D01*
X140899085Y-139561884D02*
X140904209Y-139589364D01*
X140904209Y-139589364D02*
X140935458Y-139762545D01*
X140935458Y-139762545D02*
X139726360Y-139762545D01*
X139726360Y-139762545D02*
X139758739Y-139935727D01*
X139758739Y-139935727D02*
X139789124Y-140085024D01*
X139789124Y-140085024D02*
X139819554Y-140215604D01*
X139819554Y-140215604D02*
X139821850Y-140224364D01*
X139821850Y-140224364D02*
X139852583Y-140339818D01*
X139852583Y-140339818D02*
X140807564Y-140352300D01*
X140807564Y-140352300D02*
X141132606Y-140355727D01*
X141132606Y-140355727D02*
X141376340Y-140355927D01*
X141376340Y-140355927D02*
X141549787Y-140352266D01*
X141549787Y-140352266D02*
X141663968Y-140344108D01*
X141663968Y-140344108D02*
X141729901Y-140330818D01*
X141729901Y-140330818D02*
X141758606Y-140311761D01*
X141758606Y-140311761D02*
X141762545Y-140297261D01*
X141762545Y-140297261D02*
X141753063Y-140237985D01*
X141753063Y-140237985D02*
X141726713Y-140103157D01*
X141726713Y-140103157D02*
X141686646Y-139907393D01*
X141686646Y-139907393D02*
X141636009Y-139665311D01*
X141636009Y-139665311D02*
X141577952Y-139391527D01*
X141577952Y-139391527D02*
X141515621Y-139100659D01*
X141515621Y-139100659D02*
X141452167Y-138807323D01*
X141452167Y-138807323D02*
X141390737Y-138526136D01*
X141390737Y-138526136D02*
X141334480Y-138271714D01*
X141334480Y-138271714D02*
X141286545Y-138058676D01*
X141286545Y-138058676D02*
X141250079Y-137901636D01*
X141250079Y-137901636D02*
X141228232Y-137815214D01*
X141228232Y-137815214D02*
X141227079Y-137811364D01*
X141227079Y-137811364D02*
X141211796Y-137784327D01*
X141211796Y-137784327D02*
X141177056Y-137764051D01*
X141177056Y-137764051D02*
X141111073Y-137749578D01*
X141111073Y-137749578D02*
X141002060Y-137739950D01*
X141002060Y-137739950D02*
X140838229Y-137734209D01*
X140838229Y-137734209D02*
X140607793Y-137731399D01*
X140607793Y-137731399D02*
X140298964Y-137730561D01*
X140298964Y-137730561D02*
X140232321Y-137730545D01*
X140232321Y-137730545D02*
X139909410Y-137731017D01*
X139909410Y-137731017D02*
X139909410Y-137731017D01*
G36*
X140298964Y-137730561D02*
G01*
X140607793Y-137731399D01*
X140838229Y-137734209D01*
X141002060Y-137739950D01*
X141111073Y-137749578D01*
X141177056Y-137764051D01*
X141211796Y-137784327D01*
X141227079Y-137811364D01*
X141228232Y-137815214D01*
X141250079Y-137901636D01*
X141286545Y-138058676D01*
X141334480Y-138271714D01*
X141390737Y-138526136D01*
X141452167Y-138807323D01*
X141515621Y-139100659D01*
X141577952Y-139391527D01*
X141636009Y-139665311D01*
X141686646Y-139907393D01*
X141726713Y-140103157D01*
X141753063Y-140237985D01*
X141762545Y-140297261D01*
X141758606Y-140311761D01*
X141729901Y-140330818D01*
X141663968Y-140344108D01*
X141549787Y-140352266D01*
X141376340Y-140355927D01*
X141132606Y-140355727D01*
X140807564Y-140352300D01*
X139852583Y-140339818D01*
X139821850Y-140224364D01*
X139819554Y-140215604D01*
X139789124Y-140085024D01*
X139758739Y-139935727D01*
X139726360Y-139762545D01*
X140935458Y-139762545D01*
X140904209Y-139589364D01*
X140899085Y-139561884D01*
X140873684Y-139446242D01*
X140853209Y-139381545D01*
X140851167Y-139379597D01*
X140788470Y-139366831D01*
X140654040Y-139356446D01*
X140465929Y-139349464D01*
X140242195Y-139346909D01*
X139650933Y-139346909D01*
X139598375Y-139085207D01*
X139576287Y-138971633D01*
X139554320Y-138848281D01*
X139545818Y-138785025D01*
X139546576Y-138783058D01*
X139600470Y-138768806D01*
X139727081Y-138757205D01*
X139909012Y-138749402D01*
X140128863Y-138746545D01*
X140711909Y-138746545D01*
X140683045Y-138602227D01*
X140662864Y-138483111D01*
X140654182Y-138394409D01*
X140639778Y-138369969D01*
X140583093Y-138350965D01*
X140471525Y-138338971D01*
X140292599Y-138332712D01*
X140033839Y-138330909D01*
X139802261Y-138331293D01*
X139620983Y-138328510D01*
X139502233Y-138315814D01*
X139430390Y-138286447D01*
X139389834Y-138233649D01*
X139364943Y-138150662D01*
X139340099Y-138030727D01*
X139313756Y-137915704D01*
X139286513Y-137811364D01*
X139283919Y-137800593D01*
X139288017Y-137776263D01*
X139317232Y-137758303D01*
X139382772Y-137745757D01*
X139495843Y-137737665D01*
X139667653Y-137733071D01*
X139909410Y-137731017D01*
X140232321Y-137730545D01*
X140298964Y-137730561D01*
G37*
X140298964Y-137730561D02*
X140607793Y-137731399D01*
X140838229Y-137734209D01*
X141002060Y-137739950D01*
X141111073Y-137749578D01*
X141177056Y-137764051D01*
X141211796Y-137784327D01*
X141227079Y-137811364D01*
X141228232Y-137815214D01*
X141250079Y-137901636D01*
X141286545Y-138058676D01*
X141334480Y-138271714D01*
X141390737Y-138526136D01*
X141452167Y-138807323D01*
X141515621Y-139100659D01*
X141577952Y-139391527D01*
X141636009Y-139665311D01*
X141686646Y-139907393D01*
X141726713Y-140103157D01*
X141753063Y-140237985D01*
X141762545Y-140297261D01*
X141758606Y-140311761D01*
X141729901Y-140330818D01*
X141663968Y-140344108D01*
X141549787Y-140352266D01*
X141376340Y-140355927D01*
X141132606Y-140355727D01*
X140807564Y-140352300D01*
X139852583Y-140339818D01*
X139821850Y-140224364D01*
X139819554Y-140215604D01*
X139789124Y-140085024D01*
X139758739Y-139935727D01*
X139726360Y-139762545D01*
X140935458Y-139762545D01*
X140904209Y-139589364D01*
X140899085Y-139561884D01*
X140873684Y-139446242D01*
X140853209Y-139381545D01*
X140851167Y-139379597D01*
X140788470Y-139366831D01*
X140654040Y-139356446D01*
X140465929Y-139349464D01*
X140242195Y-139346909D01*
X139650933Y-139346909D01*
X139598375Y-139085207D01*
X139576287Y-138971633D01*
X139554320Y-138848281D01*
X139545818Y-138785025D01*
X139546576Y-138783058D01*
X139600470Y-138768806D01*
X139727081Y-138757205D01*
X139909012Y-138749402D01*
X140128863Y-138746545D01*
X140711909Y-138746545D01*
X140683045Y-138602227D01*
X140662864Y-138483111D01*
X140654182Y-138394409D01*
X140639778Y-138369969D01*
X140583093Y-138350965D01*
X140471525Y-138338971D01*
X140292599Y-138332712D01*
X140033839Y-138330909D01*
X139802261Y-138331293D01*
X139620983Y-138328510D01*
X139502233Y-138315814D01*
X139430390Y-138286447D01*
X139389834Y-138233649D01*
X139364943Y-138150662D01*
X139340099Y-138030727D01*
X139313756Y-137915704D01*
X139286513Y-137811364D01*
X139283919Y-137800593D01*
X139288017Y-137776263D01*
X139317232Y-137758303D01*
X139382772Y-137745757D01*
X139495843Y-137737665D01*
X139667653Y-137733071D01*
X139909410Y-137731017D01*
X140232321Y-137730545D01*
X140298964Y-137730561D01*
X149626562Y-137740201D02*
X149332334Y-137834467D01*
X149332334Y-137834467D02*
X149091176Y-137965213D01*
X149091176Y-137965213D02*
X148973295Y-138048423D01*
X148973295Y-138048423D02*
X148895358Y-138113283D01*
X148895358Y-138113283D02*
X148876320Y-138138988D01*
X148876320Y-138138988D02*
X148905632Y-138186484D01*
X148905632Y-138186484D02*
X148980662Y-138281514D01*
X148980662Y-138281514D02*
X149082269Y-138400182D01*
X149082269Y-138400182D02*
X149195124Y-138522512D01*
X149195124Y-138522512D02*
X149269164Y-138583732D01*
X149269164Y-138583732D02*
X149323053Y-138595033D01*
X149323053Y-138595033D02*
X149369131Y-138572213D01*
X149369131Y-138572213D02*
X149577281Y-138449381D01*
X149577281Y-138449381D02*
X149790543Y-138366841D01*
X149790543Y-138366841D02*
X149988634Y-138328800D01*
X149988634Y-138328800D02*
X150151266Y-138339460D01*
X150151266Y-138339460D02*
X150246813Y-138390294D01*
X150246813Y-138390294D02*
X150287931Y-138450528D01*
X150287931Y-138450528D02*
X150277976Y-138508637D01*
X150277976Y-138508637D02*
X150208222Y-138571965D01*
X150208222Y-138571965D02*
X150069941Y-138647856D01*
X150069941Y-138647856D02*
X149854407Y-138743652D01*
X149854407Y-138743652D02*
X149799793Y-138766456D01*
X149799793Y-138766456D02*
X149491550Y-138915844D01*
X149491550Y-138915844D02*
X149271215Y-139074821D01*
X149271215Y-139074821D02*
X149134404Y-139249373D01*
X149134404Y-139249373D02*
X149076734Y-139445485D01*
X149076734Y-139445485D02*
X149093818Y-139669144D01*
X149093818Y-139669144D02*
X149105070Y-139714935D01*
X149105070Y-139714935D02*
X149214758Y-139954624D01*
X149214758Y-139954624D02*
X149395286Y-140147672D01*
X149395286Y-140147672D02*
X149634871Y-140288719D01*
X149634871Y-140288719D02*
X149921728Y-140372408D01*
X149921728Y-140372408D02*
X150244073Y-140393381D01*
X150244073Y-140393381D02*
X150524636Y-140360413D01*
X150524636Y-140360413D02*
X150730029Y-140304865D01*
X150730029Y-140304865D02*
X150934530Y-140224088D01*
X150934530Y-140224088D02*
X151119052Y-140128771D01*
X151119052Y-140128771D02*
X151264508Y-140029604D01*
X151264508Y-140029604D02*
X151351811Y-139937275D01*
X151351811Y-139937275D02*
X151368363Y-139887904D01*
X151368363Y-139887904D02*
X151340695Y-139832211D01*
X151340695Y-139832211D02*
X151268672Y-139730526D01*
X151268672Y-139730526D02*
X151182558Y-139622712D01*
X151182558Y-139622712D02*
X150996753Y-139400788D01*
X150996753Y-139400788D02*
X150768264Y-139554549D01*
X150768264Y-139554549D02*
X150537239Y-139680807D01*
X150537239Y-139680807D02*
X150304416Y-139756720D01*
X150304416Y-139756720D02*
X150094417Y-139776023D01*
X150094417Y-139776023D02*
X149980923Y-139754933D01*
X149980923Y-139754933D02*
X149857035Y-139689487D01*
X149857035Y-139689487D02*
X149823212Y-139612722D01*
X149823212Y-139612722D02*
X149878162Y-139526889D01*
X149878162Y-139526889D02*
X150020588Y-139434239D01*
X150020588Y-139434239D02*
X150213818Y-139350154D01*
X150213818Y-139350154D02*
X150521286Y-139219633D01*
X150521286Y-139219633D02*
X150746251Y-139088222D01*
X150746251Y-139088222D02*
X150898179Y-138946476D01*
X150898179Y-138946476D02*
X150986534Y-138784948D01*
X150986534Y-138784948D02*
X151020781Y-138594192D01*
X151020781Y-138594192D02*
X151022000Y-138543502D01*
X151022000Y-138543502D02*
X150981058Y-138298109D01*
X150981058Y-138298109D02*
X150866541Y-138090039D01*
X150866541Y-138090039D02*
X150690912Y-137923026D01*
X150690912Y-137923026D02*
X150466636Y-137800802D01*
X150466636Y-137800802D02*
X150206177Y-137727102D01*
X150206177Y-137727102D02*
X149921997Y-137705657D01*
X149921997Y-137705657D02*
X149626562Y-137740201D01*
X149626562Y-137740201D02*
X149626562Y-137740201D01*
G36*
X150206177Y-137727102D02*
G01*
X150466636Y-137800802D01*
X150690912Y-137923026D01*
X150866541Y-138090039D01*
X150981058Y-138298109D01*
X151022000Y-138543502D01*
X151020781Y-138594192D01*
X150986534Y-138784948D01*
X150898179Y-138946476D01*
X150746251Y-139088222D01*
X150521286Y-139219633D01*
X150213818Y-139350154D01*
X150020588Y-139434239D01*
X149878162Y-139526889D01*
X149823212Y-139612722D01*
X149857035Y-139689487D01*
X149980923Y-139754933D01*
X150094417Y-139776023D01*
X150304416Y-139756720D01*
X150537239Y-139680807D01*
X150768264Y-139554549D01*
X150996753Y-139400788D01*
X151182558Y-139622712D01*
X151268672Y-139730526D01*
X151340695Y-139832211D01*
X151368363Y-139887904D01*
X151351811Y-139937275D01*
X151264508Y-140029604D01*
X151119052Y-140128771D01*
X150934530Y-140224088D01*
X150730029Y-140304865D01*
X150524636Y-140360413D01*
X150244073Y-140393381D01*
X149921728Y-140372408D01*
X149634871Y-140288719D01*
X149395286Y-140147672D01*
X149214758Y-139954624D01*
X149105070Y-139714935D01*
X149093818Y-139669144D01*
X149076734Y-139445485D01*
X149134404Y-139249373D01*
X149271215Y-139074821D01*
X149491550Y-138915844D01*
X149799793Y-138766456D01*
X149854407Y-138743652D01*
X150069941Y-138647856D01*
X150208222Y-138571965D01*
X150277976Y-138508637D01*
X150287931Y-138450528D01*
X150246813Y-138390294D01*
X150151266Y-138339460D01*
X149988634Y-138328800D01*
X149790543Y-138366841D01*
X149577281Y-138449381D01*
X149369131Y-138572213D01*
X149323053Y-138595033D01*
X149269164Y-138583732D01*
X149195124Y-138522512D01*
X149082269Y-138400182D01*
X148980662Y-138281514D01*
X148905632Y-138186484D01*
X148876320Y-138138988D01*
X148895358Y-138113283D01*
X148973295Y-138048423D01*
X149091176Y-137965213D01*
X149332334Y-137834467D01*
X149626562Y-137740201D01*
X149921997Y-137705657D01*
X150206177Y-137727102D01*
G37*
X150206177Y-137727102D02*
X150466636Y-137800802D01*
X150690912Y-137923026D01*
X150866541Y-138090039D01*
X150981058Y-138298109D01*
X151022000Y-138543502D01*
X151020781Y-138594192D01*
X150986534Y-138784948D01*
X150898179Y-138946476D01*
X150746251Y-139088222D01*
X150521286Y-139219633D01*
X150213818Y-139350154D01*
X150020588Y-139434239D01*
X149878162Y-139526889D01*
X149823212Y-139612722D01*
X149857035Y-139689487D01*
X149980923Y-139754933D01*
X150094417Y-139776023D01*
X150304416Y-139756720D01*
X150537239Y-139680807D01*
X150768264Y-139554549D01*
X150996753Y-139400788D01*
X151182558Y-139622712D01*
X151268672Y-139730526D01*
X151340695Y-139832211D01*
X151368363Y-139887904D01*
X151351811Y-139937275D01*
X151264508Y-140029604D01*
X151119052Y-140128771D01*
X150934530Y-140224088D01*
X150730029Y-140304865D01*
X150524636Y-140360413D01*
X150244073Y-140393381D01*
X149921728Y-140372408D01*
X149634871Y-140288719D01*
X149395286Y-140147672D01*
X149214758Y-139954624D01*
X149105070Y-139714935D01*
X149093818Y-139669144D01*
X149076734Y-139445485D01*
X149134404Y-139249373D01*
X149271215Y-139074821D01*
X149491550Y-138915844D01*
X149799793Y-138766456D01*
X149854407Y-138743652D01*
X150069941Y-138647856D01*
X150208222Y-138571965D01*
X150277976Y-138508637D01*
X150287931Y-138450528D01*
X150246813Y-138390294D01*
X150151266Y-138339460D01*
X149988634Y-138328800D01*
X149790543Y-138366841D01*
X149577281Y-138449381D01*
X149369131Y-138572213D01*
X149323053Y-138595033D01*
X149269164Y-138583732D01*
X149195124Y-138522512D01*
X149082269Y-138400182D01*
X148980662Y-138281514D01*
X148905632Y-138186484D01*
X148876320Y-138138988D01*
X148895358Y-138113283D01*
X148973295Y-138048423D01*
X149091176Y-137965213D01*
X149332334Y-137834467D01*
X149626562Y-137740201D01*
X149921997Y-137705657D01*
X150206177Y-137727102D01*
X137641598Y-139209778D02*
X137370360Y-139213746D01*
X137370360Y-139213746D02*
X137145242Y-139219858D01*
X137145242Y-139219858D02*
X136979032Y-139227703D01*
X136979032Y-139227703D02*
X136884517Y-139236871D01*
X136884517Y-139236871D02*
X136867530Y-139243000D01*
X136867530Y-139243000D02*
X136878266Y-139307244D01*
X136878266Y-139307244D02*
X136904275Y-139419708D01*
X136904275Y-139419708D02*
X136909230Y-139439273D01*
X136909230Y-139439273D02*
X136946701Y-139590094D01*
X136946701Y-139590094D02*
X136978933Y-139727051D01*
X136978933Y-139727051D02*
X136979125Y-139727909D01*
X136979125Y-139727909D02*
X136997223Y-139791551D01*
X136997223Y-139791551D02*
X137029955Y-139829329D01*
X137029955Y-139829329D02*
X137097952Y-139847986D01*
X137097952Y-139847986D02*
X137221848Y-139854266D01*
X137221848Y-139854266D02*
X137367712Y-139854909D01*
X137367712Y-139854909D02*
X137727846Y-139854909D01*
X137727846Y-139854909D02*
X137928337Y-140790091D01*
X137928337Y-140790091D02*
X137989644Y-141074245D01*
X137989644Y-141074245D02*
X138045406Y-141329289D01*
X138045406Y-141329289D02*
X138092412Y-141540814D01*
X138092412Y-141540814D02*
X138127452Y-141694412D01*
X138127452Y-141694412D02*
X138147317Y-141775673D01*
X138147317Y-141775673D02*
X138149537Y-141783000D01*
X138149537Y-141783000D02*
X138201919Y-141813815D01*
X138201919Y-141813815D02*
X138315081Y-141833828D01*
X138315081Y-141833828D02*
X138462009Y-141842998D01*
X138462009Y-141842998D02*
X138615688Y-141841286D01*
X138615688Y-141841286D02*
X138749106Y-141828653D01*
X138749106Y-141828653D02*
X138835246Y-141805060D01*
X138835246Y-141805060D02*
X138853091Y-141784025D01*
X138853091Y-141784025D02*
X138843650Y-141725039D01*
X138843650Y-141725039D02*
X138817775Y-141592953D01*
X138817775Y-141592953D02*
X138779134Y-141404815D01*
X138779134Y-141404815D02*
X138731396Y-141177672D01*
X138731396Y-141177672D02*
X138678231Y-140928575D01*
X138678231Y-140928575D02*
X138623308Y-140674571D01*
X138623308Y-140674571D02*
X138570296Y-140432708D01*
X138570296Y-140432708D02*
X138522863Y-140220035D01*
X138522863Y-140220035D02*
X138484680Y-140053601D01*
X138484680Y-140053601D02*
X138459415Y-139950454D01*
X138459415Y-139950454D02*
X138455303Y-139935727D01*
X138455303Y-139935727D02*
X138452547Y-139894568D01*
X138452547Y-139894568D02*
X138486201Y-139870257D01*
X138486201Y-139870257D02*
X138573562Y-139858499D01*
X138573562Y-139858499D02*
X138731925Y-139854998D01*
X138731925Y-139854998D02*
X138780706Y-139854909D01*
X138780706Y-139854909D02*
X138962471Y-139853918D01*
X138962471Y-139853918D02*
X139070283Y-139838892D01*
X139070283Y-139838892D02*
X139118093Y-139791749D01*
X139118093Y-139791749D02*
X139119851Y-139694411D01*
X139119851Y-139694411D02*
X139089505Y-139528796D01*
X139089505Y-139528796D02*
X139077624Y-139470066D01*
X139077624Y-139470066D02*
X139025067Y-139208364D01*
X139025067Y-139208364D02*
X137946170Y-139208364D01*
X137946170Y-139208364D02*
X137641598Y-139209778D01*
X137641598Y-139209778D02*
X137641598Y-139209778D01*
G36*
X139077624Y-139470066D02*
G01*
X139089505Y-139528796D01*
X139119851Y-139694411D01*
X139118093Y-139791749D01*
X139070283Y-139838892D01*
X138962471Y-139853918D01*
X138780706Y-139854909D01*
X138731925Y-139854998D01*
X138573562Y-139858499D01*
X138486201Y-139870257D01*
X138452547Y-139894568D01*
X138455303Y-139935727D01*
X138459415Y-139950454D01*
X138484680Y-140053601D01*
X138522863Y-140220035D01*
X138570296Y-140432708D01*
X138623308Y-140674571D01*
X138678231Y-140928575D01*
X138731396Y-141177672D01*
X138779134Y-141404815D01*
X138817775Y-141592953D01*
X138843650Y-141725039D01*
X138853091Y-141784025D01*
X138835246Y-141805060D01*
X138749106Y-141828653D01*
X138615688Y-141841286D01*
X138462009Y-141842998D01*
X138315081Y-141833828D01*
X138201919Y-141813815D01*
X138149537Y-141783000D01*
X138147317Y-141775673D01*
X138127452Y-141694412D01*
X138092412Y-141540814D01*
X138045406Y-141329289D01*
X137989644Y-141074245D01*
X137928337Y-140790091D01*
X137727846Y-139854909D01*
X137367712Y-139854909D01*
X137221848Y-139854266D01*
X137097952Y-139847986D01*
X137029955Y-139829329D01*
X136997223Y-139791551D01*
X136979125Y-139727909D01*
X136978933Y-139727051D01*
X136946701Y-139590094D01*
X136909230Y-139439273D01*
X136904275Y-139419708D01*
X136878266Y-139307244D01*
X136867530Y-139243000D01*
X136884517Y-139236871D01*
X136979032Y-139227703D01*
X137145242Y-139219858D01*
X137370360Y-139213746D01*
X137641598Y-139209778D01*
X137946170Y-139208364D01*
X139025067Y-139208364D01*
X139077624Y-139470066D01*
G37*
X139077624Y-139470066D02*
X139089505Y-139528796D01*
X139119851Y-139694411D01*
X139118093Y-139791749D01*
X139070283Y-139838892D01*
X138962471Y-139853918D01*
X138780706Y-139854909D01*
X138731925Y-139854998D01*
X138573562Y-139858499D01*
X138486201Y-139870257D01*
X138452547Y-139894568D01*
X138455303Y-139935727D01*
X138459415Y-139950454D01*
X138484680Y-140053601D01*
X138522863Y-140220035D01*
X138570296Y-140432708D01*
X138623308Y-140674571D01*
X138678231Y-140928575D01*
X138731396Y-141177672D01*
X138779134Y-141404815D01*
X138817775Y-141592953D01*
X138843650Y-141725039D01*
X138853091Y-141784025D01*
X138835246Y-141805060D01*
X138749106Y-141828653D01*
X138615688Y-141841286D01*
X138462009Y-141842998D01*
X138315081Y-141833828D01*
X138201919Y-141813815D01*
X138149537Y-141783000D01*
X138147317Y-141775673D01*
X138127452Y-141694412D01*
X138092412Y-141540814D01*
X138045406Y-141329289D01*
X137989644Y-141074245D01*
X137928337Y-140790091D01*
X137727846Y-139854909D01*
X137367712Y-139854909D01*
X137221848Y-139854266D01*
X137097952Y-139847986D01*
X137029955Y-139829329D01*
X136997223Y-139791551D01*
X136979125Y-139727909D01*
X136978933Y-139727051D01*
X136946701Y-139590094D01*
X136909230Y-139439273D01*
X136904275Y-139419708D01*
X136878266Y-139307244D01*
X136867530Y-139243000D01*
X136884517Y-139236871D01*
X136979032Y-139227703D01*
X137145242Y-139219858D01*
X137370360Y-139213746D01*
X137641598Y-139209778D01*
X137946170Y-139208364D01*
X139025067Y-139208364D01*
X139077624Y-139470066D01*
X140597876Y-136218091D02*
X140584909Y-136783818D01*
X140584909Y-136783818D02*
X140295917Y-136218091D01*
X140295917Y-136218091D02*
X140176093Y-135987564D01*
X140176093Y-135987564D02*
X140086911Y-135828224D01*
X140086911Y-135828224D02*
X140019655Y-135727699D01*
X140019655Y-135727699D02*
X139965610Y-135673618D01*
X139965610Y-135673618D02*
X139916061Y-135653609D01*
X139916061Y-135653609D02*
X139897380Y-135652364D01*
X139897380Y-135652364D02*
X139851765Y-135655708D01*
X139851765Y-135655708D02*
X139819876Y-135675788D01*
X139819876Y-135675788D02*
X139797975Y-135727669D01*
X139797975Y-135727669D02*
X139782324Y-135826420D01*
X139782324Y-135826420D02*
X139769184Y-135987108D01*
X139769184Y-135987108D02*
X139754820Y-136224800D01*
X139754820Y-136224800D02*
X139754652Y-136227716D01*
X139754652Y-136227716D02*
X139721466Y-136803068D01*
X139721466Y-136803068D02*
X139439843Y-136227716D01*
X139439843Y-136227716D02*
X139327182Y-135999203D01*
X139327182Y-135999203D02*
X139245011Y-135840942D01*
X139245011Y-135840942D02*
X139183599Y-135740038D01*
X139183599Y-135740038D02*
X139133214Y-135683594D01*
X139133214Y-135683594D02*
X139084125Y-135658718D01*
X139084125Y-135658718D02*
X139026602Y-135652512D01*
X139026602Y-135652512D02*
X139005655Y-135652364D01*
X139005655Y-135652364D02*
X138902411Y-135658628D01*
X138902411Y-135658628D02*
X138853666Y-135673916D01*
X138853666Y-135673916D02*
X138853091Y-135675967D01*
X138853091Y-135675967D02*
X138872811Y-135722713D01*
X138872811Y-135722713D02*
X138927712Y-135838793D01*
X138927712Y-135838793D02*
X139011405Y-136011061D01*
X139011405Y-136011061D02*
X139117498Y-136226372D01*
X139117498Y-136226372D02*
X139239602Y-136471580D01*
X139239602Y-136471580D02*
X139247296Y-136486951D01*
X139247296Y-136486951D02*
X139641501Y-137274332D01*
X139641501Y-137274332D02*
X139938363Y-137245636D01*
X139938363Y-137245636D02*
X139951471Y-136749182D01*
X139951471Y-136749182D02*
X139959807Y-136547566D01*
X139959807Y-136547566D02*
X139972248Y-136385330D01*
X139972248Y-136385330D02*
X139986976Y-136281330D01*
X139986976Y-136281330D02*
X139999329Y-136252727D01*
X139999329Y-136252727D02*
X140031888Y-136291728D01*
X140031888Y-136291728D02*
X140095321Y-136398081D01*
X140095321Y-136398081D02*
X140180651Y-136555812D01*
X140180651Y-136555812D02*
X140278906Y-136748948D01*
X140278906Y-136748948D02*
X140284727Y-136760727D01*
X140284727Y-136760727D02*
X140390949Y-136973537D01*
X140390949Y-136973537D02*
X140467911Y-137116793D01*
X140467911Y-137116793D02*
X140526314Y-137204213D01*
X140526314Y-137204213D02*
X140576854Y-137249518D01*
X140576854Y-137249518D02*
X140630231Y-137266426D01*
X140630231Y-137266426D02*
X140680865Y-137268727D01*
X140680865Y-137268727D02*
X140826353Y-137268727D01*
X140826353Y-137268727D02*
X140857263Y-136726091D01*
X140857263Y-136726091D02*
X140872404Y-136479608D01*
X140872404Y-136479608D02*
X140889178Y-136237342D01*
X140889178Y-136237342D02*
X140905284Y-136031157D01*
X140905284Y-136031157D02*
X140915688Y-135917909D01*
X140915688Y-135917909D02*
X140943203Y-135652364D01*
X140943203Y-135652364D02*
X140777023Y-135652364D01*
X140777023Y-135652364D02*
X140610843Y-135652363D01*
X140610843Y-135652363D02*
X140597876Y-136218091D01*
X140597876Y-136218091D02*
X140597876Y-136218091D01*
G36*
X140777023Y-135652364D02*
G01*
X140943203Y-135652364D01*
X140915688Y-135917909D01*
X140905284Y-136031157D01*
X140889178Y-136237342D01*
X140872404Y-136479608D01*
X140857263Y-136726091D01*
X140826353Y-137268727D01*
X140680865Y-137268727D01*
X140630231Y-137266426D01*
X140576854Y-137249518D01*
X140526314Y-137204213D01*
X140467911Y-137116793D01*
X140390949Y-136973537D01*
X140284727Y-136760727D01*
X140278906Y-136748948D01*
X140180651Y-136555812D01*
X140095321Y-136398081D01*
X140031888Y-136291728D01*
X139999329Y-136252727D01*
X139986976Y-136281330D01*
X139972248Y-136385330D01*
X139959807Y-136547566D01*
X139951471Y-136749182D01*
X139938363Y-137245636D01*
X139641501Y-137274332D01*
X139247296Y-136486951D01*
X139239602Y-136471580D01*
X139117498Y-136226372D01*
X139011405Y-136011061D01*
X138927712Y-135838793D01*
X138872811Y-135722713D01*
X138853091Y-135675967D01*
X138853666Y-135673916D01*
X138902411Y-135658628D01*
X139005655Y-135652364D01*
X139026602Y-135652512D01*
X139084125Y-135658718D01*
X139133214Y-135683594D01*
X139183599Y-135740038D01*
X139245011Y-135840942D01*
X139327182Y-135999203D01*
X139439843Y-136227716D01*
X139721466Y-136803068D01*
X139754652Y-136227716D01*
X139754820Y-136224800D01*
X139769184Y-135987108D01*
X139782324Y-135826420D01*
X139797975Y-135727669D01*
X139819876Y-135675788D01*
X139851765Y-135655708D01*
X139897380Y-135652364D01*
X139916061Y-135653609D01*
X139965610Y-135673618D01*
X140019655Y-135727699D01*
X140086911Y-135828224D01*
X140176093Y-135987564D01*
X140295917Y-136218091D01*
X140584909Y-136783818D01*
X140597876Y-136218091D01*
X140610843Y-135652363D01*
X140777023Y-135652364D01*
G37*
X140777023Y-135652364D02*
X140943203Y-135652364D01*
X140915688Y-135917909D01*
X140905284Y-136031157D01*
X140889178Y-136237342D01*
X140872404Y-136479608D01*
X140857263Y-136726091D01*
X140826353Y-137268727D01*
X140680865Y-137268727D01*
X140630231Y-137266426D01*
X140576854Y-137249518D01*
X140526314Y-137204213D01*
X140467911Y-137116793D01*
X140390949Y-136973537D01*
X140284727Y-136760727D01*
X140278906Y-136748948D01*
X140180651Y-136555812D01*
X140095321Y-136398081D01*
X140031888Y-136291728D01*
X139999329Y-136252727D01*
X139986976Y-136281330D01*
X139972248Y-136385330D01*
X139959807Y-136547566D01*
X139951471Y-136749182D01*
X139938363Y-137245636D01*
X139641501Y-137274332D01*
X139247296Y-136486951D01*
X139239602Y-136471580D01*
X139117498Y-136226372D01*
X139011405Y-136011061D01*
X138927712Y-135838793D01*
X138872811Y-135722713D01*
X138853091Y-135675967D01*
X138853666Y-135673916D01*
X138902411Y-135658628D01*
X139005655Y-135652364D01*
X139026602Y-135652512D01*
X139084125Y-135658718D01*
X139133214Y-135683594D01*
X139183599Y-135740038D01*
X139245011Y-135840942D01*
X139327182Y-135999203D01*
X139439843Y-136227716D01*
X139721466Y-136803068D01*
X139754652Y-136227716D01*
X139754820Y-136224800D01*
X139769184Y-135987108D01*
X139782324Y-135826420D01*
X139797975Y-135727669D01*
X139819876Y-135675788D01*
X139851765Y-135655708D01*
X139897380Y-135652364D01*
X139916061Y-135653609D01*
X139965610Y-135673618D01*
X140019655Y-135727699D01*
X140086911Y-135828224D01*
X140176093Y-135987564D01*
X140295917Y-136218091D01*
X140584909Y-136783818D01*
X140597876Y-136218091D01*
X140610843Y-135652363D01*
X140777023Y-135652364D01*
X137713407Y-132134617D02*
X137681898Y-132240189D01*
X137681898Y-132240189D02*
X137665893Y-132409696D01*
X137665893Y-132409696D02*
X137666297Y-132629433D01*
X137666297Y-132629433D02*
X137684016Y-132885698D01*
X137684016Y-132885698D02*
X137699235Y-133020000D01*
X137699235Y-133020000D02*
X137724599Y-133279734D01*
X137724599Y-133279734D02*
X137742654Y-133585511D01*
X137742654Y-133585511D02*
X137751119Y-133891147D01*
X137751119Y-133891147D02*
X137750573Y-134059091D01*
X137750573Y-134059091D02*
X137753632Y-134390278D01*
X137753632Y-134390278D02*
X137775430Y-134663230D01*
X137775430Y-134663230D02*
X137814448Y-134869058D01*
X137814448Y-134869058D02*
X137869165Y-134998873D01*
X137869165Y-134998873D02*
X137918522Y-135040659D01*
X137918522Y-135040659D02*
X137970767Y-135014632D01*
X137970767Y-135014632D02*
X138049261Y-134928014D01*
X138049261Y-134928014D02*
X138120683Y-134824805D01*
X138120683Y-134824805D02*
X138201513Y-134700356D01*
X138201513Y-134700356D02*
X138263402Y-134615284D01*
X138263402Y-134615284D02*
X138289159Y-134590182D01*
X138289159Y-134590182D02*
X138337646Y-134612468D01*
X138337646Y-134612468D02*
X138439486Y-134670074D01*
X138439486Y-134670074D02*
X138536950Y-134728727D01*
X138536950Y-134728727D02*
X138667355Y-134804392D01*
X138667355Y-134804392D02*
X138768324Y-134854715D01*
X138768324Y-134854715D02*
X138807603Y-134867273D01*
X138807603Y-134867273D02*
X138847363Y-134828310D01*
X138847363Y-134828310D02*
X138852814Y-134722944D01*
X138852814Y-134722944D02*
X138828731Y-134568462D01*
X138828731Y-134568462D02*
X138779888Y-134382147D01*
X138779888Y-134382147D02*
X138711059Y-134181285D01*
X138711059Y-134181285D02*
X138627017Y-133983161D01*
X138627017Y-133983161D02*
X138532537Y-133805061D01*
X138532537Y-133805061D02*
X138500122Y-133753987D01*
X138500122Y-133753987D02*
X138420937Y-133608175D01*
X138420937Y-133608175D02*
X138337959Y-133411927D01*
X138337959Y-133411927D02*
X138267750Y-133204900D01*
X138267750Y-133204900D02*
X138261087Y-133181636D01*
X138261087Y-133181636D02*
X138197481Y-132982646D01*
X138197481Y-132982646D02*
X138116007Y-132768005D01*
X138116007Y-132768005D02*
X138025343Y-132556314D01*
X138025343Y-132556314D02*
X137934167Y-132366171D01*
X137934167Y-132366171D02*
X137851157Y-132216176D01*
X137851157Y-132216176D02*
X137784992Y-132124927D01*
X137784992Y-132124927D02*
X137759517Y-132106683D01*
X137759517Y-132106683D02*
X137713407Y-132134617D01*
X137713407Y-132134617D02*
X137713407Y-132134617D01*
G36*
X137784992Y-132124927D02*
G01*
X137851157Y-132216176D01*
X137934167Y-132366171D01*
X138025343Y-132556314D01*
X138116007Y-132768005D01*
X138197481Y-132982646D01*
X138261087Y-133181636D01*
X138267750Y-133204900D01*
X138337959Y-133411927D01*
X138420937Y-133608175D01*
X138500122Y-133753987D01*
X138532537Y-133805061D01*
X138627017Y-133983161D01*
X138711059Y-134181285D01*
X138779888Y-134382147D01*
X138828731Y-134568462D01*
X138852814Y-134722944D01*
X138847363Y-134828310D01*
X138807603Y-134867273D01*
X138768324Y-134854715D01*
X138667355Y-134804392D01*
X138536950Y-134728727D01*
X138439486Y-134670074D01*
X138337646Y-134612468D01*
X138289159Y-134590182D01*
X138263402Y-134615284D01*
X138201513Y-134700356D01*
X138120683Y-134824805D01*
X138049261Y-134928014D01*
X137970767Y-135014632D01*
X137918522Y-135040659D01*
X137869165Y-134998873D01*
X137814448Y-134869058D01*
X137775430Y-134663230D01*
X137753632Y-134390278D01*
X137750573Y-134059091D01*
X137751119Y-133891147D01*
X137742654Y-133585511D01*
X137724599Y-133279734D01*
X137699235Y-133020000D01*
X137684016Y-132885698D01*
X137666297Y-132629433D01*
X137665893Y-132409696D01*
X137681898Y-132240189D01*
X137713407Y-132134617D01*
X137759517Y-132106683D01*
X137784992Y-132124927D01*
G37*
X137784992Y-132124927D02*
X137851157Y-132216176D01*
X137934167Y-132366171D01*
X138025343Y-132556314D01*
X138116007Y-132768005D01*
X138197481Y-132982646D01*
X138261087Y-133181636D01*
X138267750Y-133204900D01*
X138337959Y-133411927D01*
X138420937Y-133608175D01*
X138500122Y-133753987D01*
X138532537Y-133805061D01*
X138627017Y-133983161D01*
X138711059Y-134181285D01*
X138779888Y-134382147D01*
X138828731Y-134568462D01*
X138852814Y-134722944D01*
X138847363Y-134828310D01*
X138807603Y-134867273D01*
X138768324Y-134854715D01*
X138667355Y-134804392D01*
X138536950Y-134728727D01*
X138439486Y-134670074D01*
X138337646Y-134612468D01*
X138289159Y-134590182D01*
X138263402Y-134615284D01*
X138201513Y-134700356D01*
X138120683Y-134824805D01*
X138049261Y-134928014D01*
X137970767Y-135014632D01*
X137918522Y-135040659D01*
X137869165Y-134998873D01*
X137814448Y-134869058D01*
X137775430Y-134663230D01*
X137753632Y-134390278D01*
X137750573Y-134059091D01*
X137751119Y-133891147D01*
X137742654Y-133585511D01*
X137724599Y-133279734D01*
X137699235Y-133020000D01*
X137684016Y-132885698D01*
X137666297Y-132629433D01*
X137665893Y-132409696D01*
X137681898Y-132240189D01*
X137713407Y-132134617D01*
X137759517Y-132106683D01*
X137784992Y-132124927D01*
X138373874Y-134923799D02*
X138343921Y-134942195D01*
X138343921Y-134942195D02*
X138318381Y-134962640D01*
X138318381Y-134962640D02*
X138261377Y-135049456D01*
X138261377Y-135049456D02*
X138252727Y-135095296D01*
X138252727Y-135095296D02*
X138262772Y-135150451D01*
X138262772Y-135150451D02*
X138291982Y-135289463D01*
X138291982Y-135289463D02*
X138338976Y-135506140D01*
X138338976Y-135506140D02*
X138402370Y-135794289D01*
X138402370Y-135794289D02*
X138480780Y-136147719D01*
X138480780Y-136147719D02*
X138572823Y-136560238D01*
X138572823Y-136560238D02*
X138677116Y-137025653D01*
X138677116Y-137025653D02*
X138792275Y-137537774D01*
X138792275Y-137537774D02*
X138916916Y-138090406D01*
X138916916Y-138090406D02*
X139049658Y-138677360D01*
X139049658Y-138677360D02*
X139189115Y-139292443D01*
X139189115Y-139292443D02*
X139268727Y-139642900D01*
X139268727Y-139642900D02*
X139411112Y-140269443D01*
X139411112Y-140269443D02*
X139547565Y-140870245D01*
X139547565Y-140870245D02*
X139676710Y-141439223D01*
X139676710Y-141439223D02*
X139797168Y-141970290D01*
X139797168Y-141970290D02*
X139907562Y-142457362D01*
X139907562Y-142457362D02*
X140006514Y-142894353D01*
X140006514Y-142894353D02*
X140092648Y-143275178D01*
X140092648Y-143275178D02*
X140164585Y-143593751D01*
X140164585Y-143593751D02*
X140220947Y-143843987D01*
X140220947Y-143843987D02*
X140260358Y-144019801D01*
X140260358Y-144019801D02*
X140281440Y-144115108D01*
X140281440Y-144115108D02*
X140284727Y-144131077D01*
X140284727Y-144131077D02*
X140324192Y-144145453D01*
X140324192Y-144145453D02*
X140394286Y-144149818D01*
X140394286Y-144149818D02*
X140503845Y-144149818D01*
X140503845Y-144149818D02*
X140401660Y-143676454D01*
X140401660Y-143676454D02*
X140376852Y-143560990D01*
X140376852Y-143560990D02*
X140334359Y-143362560D01*
X140334359Y-143362560D02*
X140275753Y-143088530D01*
X140275753Y-143088530D02*
X140202608Y-142746268D01*
X140202608Y-142746268D02*
X140116496Y-142343141D01*
X140116496Y-142343141D02*
X140018992Y-141886516D01*
X140018992Y-141886516D02*
X139911667Y-141383761D01*
X139911667Y-141383761D02*
X139796096Y-140842241D01*
X139796096Y-140842241D02*
X139673850Y-140269326D01*
X139673850Y-140269326D02*
X139546505Y-139672381D01*
X139546505Y-139672381D02*
X139426207Y-139108363D01*
X139426207Y-139108363D02*
X139272752Y-138389110D01*
X139272752Y-138389110D02*
X139137155Y-137755051D01*
X139137155Y-137755051D02*
X139018041Y-137201040D01*
X139018041Y-137201040D02*
X138914035Y-136721933D01*
X138914035Y-136721933D02*
X138823762Y-136312583D01*
X138823762Y-136312583D02*
X138745847Y-135967846D01*
X138745847Y-135967846D02*
X138678916Y-135682576D01*
X138678916Y-135682576D02*
X138621593Y-135451628D01*
X138621593Y-135451628D02*
X138572504Y-135269856D01*
X138572504Y-135269856D02*
X138530273Y-135132116D01*
X138530273Y-135132116D02*
X138493526Y-135033262D01*
X138493526Y-135033262D02*
X138460887Y-134968148D01*
X138460887Y-134968148D02*
X138430982Y-134931630D01*
X138430982Y-134931630D02*
X138402436Y-134918562D01*
X138402436Y-134918562D02*
X138373874Y-134923799D01*
X138373874Y-134923799D02*
X138373874Y-134923799D01*
G36*
X138430982Y-134931630D02*
G01*
X138460887Y-134968148D01*
X138493526Y-135033262D01*
X138530273Y-135132116D01*
X138572504Y-135269856D01*
X138621593Y-135451628D01*
X138678916Y-135682576D01*
X138745847Y-135967846D01*
X138823762Y-136312583D01*
X138914035Y-136721933D01*
X139018041Y-137201040D01*
X139137155Y-137755051D01*
X139272752Y-138389110D01*
X139426207Y-139108363D01*
X139546505Y-139672381D01*
X139673850Y-140269326D01*
X139796096Y-140842241D01*
X139911667Y-141383761D01*
X140018992Y-141886516D01*
X140116496Y-142343141D01*
X140202608Y-142746268D01*
X140275753Y-143088530D01*
X140334359Y-143362560D01*
X140376852Y-143560990D01*
X140401660Y-143676454D01*
X140503845Y-144149818D01*
X140394286Y-144149818D01*
X140324192Y-144145453D01*
X140284727Y-144131077D01*
X140281440Y-144115108D01*
X140260358Y-144019801D01*
X140220947Y-143843987D01*
X140164585Y-143593751D01*
X140092648Y-143275178D01*
X140006514Y-142894353D01*
X139907562Y-142457362D01*
X139797168Y-141970290D01*
X139676710Y-141439223D01*
X139547565Y-140870245D01*
X139411112Y-140269443D01*
X139268727Y-139642900D01*
X139189115Y-139292443D01*
X139049658Y-138677360D01*
X138916916Y-138090406D01*
X138792275Y-137537774D01*
X138677116Y-137025653D01*
X138572823Y-136560238D01*
X138480780Y-136147719D01*
X138402370Y-135794289D01*
X138338976Y-135506140D01*
X138291982Y-135289463D01*
X138262772Y-135150451D01*
X138252727Y-135095296D01*
X138261377Y-135049456D01*
X138318381Y-134962640D01*
X138343921Y-134942195D01*
X138373874Y-134923799D01*
X138402436Y-134918562D01*
X138430982Y-134931630D01*
G37*
X138430982Y-134931630D02*
X138460887Y-134968148D01*
X138493526Y-135033262D01*
X138530273Y-135132116D01*
X138572504Y-135269856D01*
X138621593Y-135451628D01*
X138678916Y-135682576D01*
X138745847Y-135967846D01*
X138823762Y-136312583D01*
X138914035Y-136721933D01*
X139018041Y-137201040D01*
X139137155Y-137755051D01*
X139272752Y-138389110D01*
X139426207Y-139108363D01*
X139546505Y-139672381D01*
X139673850Y-140269326D01*
X139796096Y-140842241D01*
X139911667Y-141383761D01*
X140018992Y-141886516D01*
X140116496Y-142343141D01*
X140202608Y-142746268D01*
X140275753Y-143088530D01*
X140334359Y-143362560D01*
X140376852Y-143560990D01*
X140401660Y-143676454D01*
X140503845Y-144149818D01*
X140394286Y-144149818D01*
X140324192Y-144145453D01*
X140284727Y-144131077D01*
X140281440Y-144115108D01*
X140260358Y-144019801D01*
X140220947Y-143843987D01*
X140164585Y-143593751D01*
X140092648Y-143275178D01*
X140006514Y-142894353D01*
X139907562Y-142457362D01*
X139797168Y-141970290D01*
X139676710Y-141439223D01*
X139547565Y-140870245D01*
X139411112Y-140269443D01*
X139268727Y-139642900D01*
X139189115Y-139292443D01*
X139049658Y-138677360D01*
X138916916Y-138090406D01*
X138792275Y-137537774D01*
X138677116Y-137025653D01*
X138572823Y-136560238D01*
X138480780Y-136147719D01*
X138402370Y-135794289D01*
X138338976Y-135506140D01*
X138291982Y-135289463D01*
X138262772Y-135150451D01*
X138252727Y-135095296D01*
X138261377Y-135049456D01*
X138318381Y-134962640D01*
X138343921Y-134942195D01*
X138373874Y-134923799D01*
X138402436Y-134918562D01*
X138430982Y-134931630D01*
X142546232Y-137717388D02*
X142393103Y-137737998D01*
X142393103Y-137737998D02*
X142260209Y-137781585D01*
X142260209Y-137781585D02*
X142155091Y-137832161D01*
X142155091Y-137832161D02*
X141995002Y-137932838D01*
X141995002Y-137932838D02*
X141840852Y-138058843D01*
X141840852Y-138058843D02*
X141706190Y-138194713D01*
X141706190Y-138194713D02*
X141604566Y-138324985D01*
X141604566Y-138324985D02*
X141549530Y-138434197D01*
X141549530Y-138434197D02*
X141554630Y-138506886D01*
X141554630Y-138506886D02*
X141559408Y-138511954D01*
X141559408Y-138511954D02*
X141622015Y-138544868D01*
X141622015Y-138544868D02*
X141745649Y-138594404D01*
X141745649Y-138594404D02*
X141898391Y-138648087D01*
X141898391Y-138648087D02*
X142059717Y-138699417D01*
X142059717Y-138699417D02*
X142159316Y-138716306D01*
X142159316Y-138716306D02*
X142223437Y-138692451D01*
X142223437Y-138692451D02*
X142278326Y-138621549D01*
X142278326Y-138621549D02*
X142321991Y-138546363D01*
X142321991Y-138546363D02*
X142407042Y-138464364D01*
X142407042Y-138464364D02*
X142545513Y-138389897D01*
X142545513Y-138389897D02*
X142699034Y-138340795D01*
X142699034Y-138340795D02*
X142785572Y-138330909D01*
X142785572Y-138330909D02*
X142988821Y-138373637D01*
X142988821Y-138373637D02*
X143185104Y-138489500D01*
X143185104Y-138489500D02*
X143355744Y-138660013D01*
X143355744Y-138660013D02*
X143482065Y-138866691D01*
X143482065Y-138866691D02*
X143544280Y-139081798D01*
X143544280Y-139081798D02*
X143533217Y-139304345D01*
X143533217Y-139304345D02*
X143450041Y-139490693D01*
X143450041Y-139490693D02*
X143310660Y-139632628D01*
X143310660Y-139632628D02*
X143130984Y-139721934D01*
X143130984Y-139721934D02*
X142926921Y-139750398D01*
X142926921Y-139750398D02*
X142714381Y-139709803D01*
X142714381Y-139709803D02*
X142527921Y-139606615D01*
X142527921Y-139606615D02*
X142424971Y-139532390D01*
X142424971Y-139532390D02*
X142354699Y-139489593D01*
X142354699Y-139489593D02*
X142342363Y-139485454D01*
X142342363Y-139485454D02*
X142280440Y-139510658D01*
X142280440Y-139510658D02*
X142176795Y-139573970D01*
X142176795Y-139573970D02*
X142057167Y-139656937D01*
X142057167Y-139656937D02*
X141947294Y-139741111D01*
X141947294Y-139741111D02*
X141872912Y-139808039D01*
X141872912Y-139808039D02*
X141855739Y-139834304D01*
X141855739Y-139834304D02*
X141891774Y-139909415D01*
X141891774Y-139909415D02*
X141987404Y-140010416D01*
X141987404Y-140010416D02*
X142121043Y-140119144D01*
X142121043Y-140119144D02*
X142271106Y-140217434D01*
X142271106Y-140217434D02*
X142373241Y-140269804D01*
X142373241Y-140269804D02*
X142626537Y-140348458D01*
X142626537Y-140348458D02*
X142916388Y-140386981D01*
X142916388Y-140386981D02*
X143200786Y-140382070D01*
X143200786Y-140382070D02*
X143381192Y-140349053D01*
X143381192Y-140349053D02*
X143556869Y-140285554D01*
X143556869Y-140285554D02*
X143730434Y-140202312D01*
X143730434Y-140202312D02*
X143766608Y-140181177D01*
X143766608Y-140181177D02*
X143998953Y-139988555D01*
X143998953Y-139988555D02*
X144162027Y-139750232D01*
X144162027Y-139750232D02*
X144257796Y-139479299D01*
X144257796Y-139479299D02*
X144288225Y-139188846D01*
X144288225Y-139188846D02*
X144255279Y-138891965D01*
X144255279Y-138891965D02*
X144160925Y-138601746D01*
X144160925Y-138601746D02*
X144007126Y-138331281D01*
X144007126Y-138331281D02*
X143795849Y-138093659D01*
X143795849Y-138093659D02*
X143529058Y-137901973D01*
X143529058Y-137901973D02*
X143415877Y-137844954D01*
X143415877Y-137844954D02*
X143234656Y-137771951D01*
X143234656Y-137771951D02*
X143070841Y-137731430D01*
X143070841Y-137731430D02*
X142881299Y-137714747D01*
X142881299Y-137714747D02*
X142755454Y-137712615D01*
X142755454Y-137712615D02*
X142546232Y-137717388D01*
X142546232Y-137717388D02*
X142546232Y-137717388D01*
G36*
X142881299Y-137714747D02*
G01*
X143070841Y-137731430D01*
X143234656Y-137771951D01*
X143415877Y-137844954D01*
X143529058Y-137901973D01*
X143795849Y-138093659D01*
X144007126Y-138331281D01*
X144160925Y-138601746D01*
X144255279Y-138891965D01*
X144288225Y-139188846D01*
X144257796Y-139479299D01*
X144162027Y-139750232D01*
X143998953Y-139988555D01*
X143766608Y-140181177D01*
X143730434Y-140202312D01*
X143556869Y-140285554D01*
X143381192Y-140349053D01*
X143200786Y-140382070D01*
X142916388Y-140386981D01*
X142626537Y-140348458D01*
X142373241Y-140269804D01*
X142271106Y-140217434D01*
X142121043Y-140119144D01*
X141987404Y-140010416D01*
X141891774Y-139909415D01*
X141855739Y-139834304D01*
X141872912Y-139808039D01*
X141947294Y-139741111D01*
X142057167Y-139656937D01*
X142176795Y-139573970D01*
X142280440Y-139510658D01*
X142342363Y-139485454D01*
X142354699Y-139489593D01*
X142424971Y-139532390D01*
X142527921Y-139606615D01*
X142714381Y-139709803D01*
X142926921Y-139750398D01*
X143130984Y-139721934D01*
X143310660Y-139632628D01*
X143450041Y-139490693D01*
X143533217Y-139304345D01*
X143544280Y-139081798D01*
X143482065Y-138866691D01*
X143355744Y-138660013D01*
X143185104Y-138489500D01*
X142988821Y-138373637D01*
X142785572Y-138330909D01*
X142699034Y-138340795D01*
X142545513Y-138389897D01*
X142407042Y-138464364D01*
X142321991Y-138546363D01*
X142278326Y-138621549D01*
X142223437Y-138692451D01*
X142159316Y-138716306D01*
X142059717Y-138699417D01*
X141898391Y-138648087D01*
X141745649Y-138594404D01*
X141622015Y-138544868D01*
X141559408Y-138511954D01*
X141554630Y-138506886D01*
X141549530Y-138434197D01*
X141604566Y-138324985D01*
X141706190Y-138194713D01*
X141840852Y-138058843D01*
X141995002Y-137932838D01*
X142155091Y-137832161D01*
X142260209Y-137781585D01*
X142393103Y-137737998D01*
X142546232Y-137717388D01*
X142755454Y-137712615D01*
X142881299Y-137714747D01*
G37*
X142881299Y-137714747D02*
X143070841Y-137731430D01*
X143234656Y-137771951D01*
X143415877Y-137844954D01*
X143529058Y-137901973D01*
X143795849Y-138093659D01*
X144007126Y-138331281D01*
X144160925Y-138601746D01*
X144255279Y-138891965D01*
X144288225Y-139188846D01*
X144257796Y-139479299D01*
X144162027Y-139750232D01*
X143998953Y-139988555D01*
X143766608Y-140181177D01*
X143730434Y-140202312D01*
X143556869Y-140285554D01*
X143381192Y-140349053D01*
X143200786Y-140382070D01*
X142916388Y-140386981D01*
X142626537Y-140348458D01*
X142373241Y-140269804D01*
X142271106Y-140217434D01*
X142121043Y-140119144D01*
X141987404Y-140010416D01*
X141891774Y-139909415D01*
X141855739Y-139834304D01*
X141872912Y-139808039D01*
X141947294Y-139741111D01*
X142057167Y-139656937D01*
X142176795Y-139573970D01*
X142280440Y-139510658D01*
X142342363Y-139485454D01*
X142354699Y-139489593D01*
X142424971Y-139532390D01*
X142527921Y-139606615D01*
X142714381Y-139709803D01*
X142926921Y-139750398D01*
X143130984Y-139721934D01*
X143310660Y-139632628D01*
X143450041Y-139490693D01*
X143533217Y-139304345D01*
X143544280Y-139081798D01*
X143482065Y-138866691D01*
X143355744Y-138660013D01*
X143185104Y-138489500D01*
X142988821Y-138373637D01*
X142785572Y-138330909D01*
X142699034Y-138340795D01*
X142545513Y-138389897D01*
X142407042Y-138464364D01*
X142321991Y-138546363D01*
X142278326Y-138621549D01*
X142223437Y-138692451D01*
X142159316Y-138716306D01*
X142059717Y-138699417D01*
X141898391Y-138648087D01*
X141745649Y-138594404D01*
X141622015Y-138544868D01*
X141559408Y-138511954D01*
X141554630Y-138506886D01*
X141549530Y-138434197D01*
X141604566Y-138324985D01*
X141706190Y-138194713D01*
X141840852Y-138058843D01*
X141995002Y-137932838D01*
X142155091Y-137832161D01*
X142260209Y-137781585D01*
X142393103Y-137737998D01*
X142546232Y-137717388D01*
X142755454Y-137712615D01*
X142881299Y-137714747D01*
X143004516Y-135664011D02*
X142963282Y-135692072D01*
X142963282Y-135692072D02*
X142963273Y-135692550D01*
X142963273Y-135692550D02*
X142972930Y-135751508D01*
X142972930Y-135751508D02*
X142999098Y-135880376D01*
X142999098Y-135880376D02*
X143037573Y-136059054D01*
X143037573Y-136059054D02*
X143075956Y-136231293D01*
X143075956Y-136231293D02*
X143124894Y-136455552D01*
X143124894Y-136455552D02*
X143152616Y-136610187D01*
X143152616Y-136610187D02*
X143160650Y-136715094D01*
X143160650Y-136715094D02*
X143150524Y-136790167D01*
X143150524Y-136790167D02*
X143123846Y-136855146D01*
X143123846Y-136855146D02*
X143012435Y-136985039D01*
X143012435Y-136985039D02*
X142863989Y-137038933D01*
X142863989Y-137038933D02*
X142698421Y-137013545D01*
X142698421Y-137013545D02*
X142580298Y-136944732D01*
X142580298Y-136944732D02*
X142521092Y-136890670D01*
X142521092Y-136890670D02*
X142472452Y-136822682D01*
X142472452Y-136822682D02*
X142428735Y-136725445D01*
X142428735Y-136725445D02*
X142384297Y-136583636D01*
X142384297Y-136583636D02*
X142333495Y-136381933D01*
X142333495Y-136381933D02*
X142270687Y-136105013D01*
X142270687Y-136105013D02*
X142270161Y-136102636D01*
X142270161Y-136102636D02*
X142223913Y-135898081D01*
X142223913Y-135898081D02*
X142188651Y-135767297D01*
X142188651Y-135767297D02*
X142155790Y-135693791D01*
X142155790Y-135693791D02*
X142116748Y-135661067D01*
X142116748Y-135661067D02*
X142062941Y-135652632D01*
X142062941Y-135652632D02*
X142035845Y-135652364D01*
X142035845Y-135652364D02*
X141940193Y-135664250D01*
X141940193Y-135664250D02*
X141901091Y-135692339D01*
X141901091Y-135692339D02*
X141912194Y-135771713D01*
X141912194Y-135771713D02*
X141941874Y-135917811D01*
X141941874Y-135917811D02*
X141984686Y-136108168D01*
X141984686Y-136108168D02*
X142035185Y-136320323D01*
X142035185Y-136320323D02*
X142087926Y-136531814D01*
X142087926Y-136531814D02*
X142137464Y-136720177D01*
X142137464Y-136720177D02*
X142178354Y-136862951D01*
X142178354Y-136862951D02*
X142200572Y-136927810D01*
X142200572Y-136927810D02*
X142285493Y-137057760D01*
X142285493Y-137057760D02*
X142405994Y-137167613D01*
X142405994Y-137167613D02*
X142417857Y-137175180D01*
X142417857Y-137175180D02*
X142607736Y-137247098D01*
X142607736Y-137247098D02*
X142834835Y-137270070D01*
X142834835Y-137270070D02*
X143059396Y-137243935D01*
X143059396Y-137243935D02*
X143226303Y-137178399D01*
X143226303Y-137178399D02*
X143340093Y-137089244D01*
X143340093Y-137089244D02*
X143411654Y-136977618D01*
X143411654Y-136977618D02*
X143442940Y-136829323D01*
X143442940Y-136829323D02*
X143435906Y-136630156D01*
X143435906Y-136630156D02*
X143392507Y-136365918D01*
X143392507Y-136365918D02*
X143359351Y-136211884D01*
X143359351Y-136211884D02*
X143312677Y-136004294D01*
X143312677Y-136004294D02*
X143274601Y-135832350D01*
X143274601Y-135832350D02*
X143249158Y-135714460D01*
X143249158Y-135714460D02*
X143240363Y-135669248D01*
X143240363Y-135669248D02*
X143200145Y-135657382D01*
X143200145Y-135657382D02*
X143103273Y-135652364D01*
X143103273Y-135652364D02*
X143101818Y-135652364D01*
X143101818Y-135652364D02*
X143004516Y-135664011D01*
X143004516Y-135664011D02*
X143004516Y-135664011D01*
G36*
X143200145Y-135657382D02*
G01*
X143240363Y-135669248D01*
X143249158Y-135714460D01*
X143274601Y-135832350D01*
X143312677Y-136004294D01*
X143359351Y-136211884D01*
X143392507Y-136365918D01*
X143435906Y-136630156D01*
X143442940Y-136829323D01*
X143411654Y-136977618D01*
X143340093Y-137089244D01*
X143226303Y-137178399D01*
X143059396Y-137243935D01*
X142834835Y-137270070D01*
X142607736Y-137247098D01*
X142417857Y-137175180D01*
X142405994Y-137167613D01*
X142285493Y-137057760D01*
X142200572Y-136927810D01*
X142178354Y-136862951D01*
X142137464Y-136720177D01*
X142087926Y-136531814D01*
X142035185Y-136320323D01*
X141984686Y-136108168D01*
X141941874Y-135917811D01*
X141912194Y-135771713D01*
X141901091Y-135692339D01*
X141940193Y-135664250D01*
X142035845Y-135652364D01*
X142062941Y-135652632D01*
X142116748Y-135661067D01*
X142155790Y-135693791D01*
X142188651Y-135767297D01*
X142223913Y-135898081D01*
X142270161Y-136102636D01*
X142270687Y-136105013D01*
X142333495Y-136381933D01*
X142384297Y-136583636D01*
X142428735Y-136725445D01*
X142472452Y-136822682D01*
X142521092Y-136890670D01*
X142580298Y-136944732D01*
X142698421Y-137013545D01*
X142863989Y-137038933D01*
X143012435Y-136985039D01*
X143123846Y-136855146D01*
X143150524Y-136790167D01*
X143160650Y-136715094D01*
X143152616Y-136610187D01*
X143124894Y-136455552D01*
X143075956Y-136231293D01*
X143037573Y-136059054D01*
X142999098Y-135880376D01*
X142972930Y-135751508D01*
X142963273Y-135692550D01*
X142963282Y-135692072D01*
X143004516Y-135664011D01*
X143101818Y-135652364D01*
X143103273Y-135652364D01*
X143200145Y-135657382D01*
G37*
X143200145Y-135657382D02*
X143240363Y-135669248D01*
X143249158Y-135714460D01*
X143274601Y-135832350D01*
X143312677Y-136004294D01*
X143359351Y-136211884D01*
X143392507Y-136365918D01*
X143435906Y-136630156D01*
X143442940Y-136829323D01*
X143411654Y-136977618D01*
X143340093Y-137089244D01*
X143226303Y-137178399D01*
X143059396Y-137243935D01*
X142834835Y-137270070D01*
X142607736Y-137247098D01*
X142417857Y-137175180D01*
X142405994Y-137167613D01*
X142285493Y-137057760D01*
X142200572Y-136927810D01*
X142178354Y-136862951D01*
X142137464Y-136720177D01*
X142087926Y-136531814D01*
X142035185Y-136320323D01*
X141984686Y-136108168D01*
X141941874Y-135917811D01*
X141912194Y-135771713D01*
X141901091Y-135692339D01*
X141940193Y-135664250D01*
X142035845Y-135652364D01*
X142062941Y-135652632D01*
X142116748Y-135661067D01*
X142155790Y-135693791D01*
X142188651Y-135767297D01*
X142223913Y-135898081D01*
X142270161Y-136102636D01*
X142270687Y-136105013D01*
X142333495Y-136381933D01*
X142384297Y-136583636D01*
X142428735Y-136725445D01*
X142472452Y-136822682D01*
X142521092Y-136890670D01*
X142580298Y-136944732D01*
X142698421Y-137013545D01*
X142863989Y-137038933D01*
X143012435Y-136985039D01*
X143123846Y-136855146D01*
X143150524Y-136790167D01*
X143160650Y-136715094D01*
X143152616Y-136610187D01*
X143124894Y-136455552D01*
X143075956Y-136231293D01*
X143037573Y-136059054D01*
X142999098Y-135880376D01*
X142972930Y-135751508D01*
X142963273Y-135692550D01*
X142963282Y-135692072D01*
X143004516Y-135664011D01*
X143101818Y-135652364D01*
X143103273Y-135652364D01*
X143200145Y-135657382D01*
X132827788Y-139358454D02*
X132813316Y-139446934D01*
X132813316Y-139446934D02*
X132787154Y-139611302D01*
X132787154Y-139611302D02*
X132751722Y-139836168D01*
X132751722Y-139836168D02*
X132709443Y-140106142D01*
X132709443Y-140106142D02*
X132662738Y-140405833D01*
X132662738Y-140405833D02*
X132640712Y-140547636D01*
X132640712Y-140547636D02*
X132592883Y-140854010D01*
X132592883Y-140854010D02*
X132548307Y-141136021D01*
X132548307Y-141136021D02*
X132509397Y-141378687D01*
X132509397Y-141378687D02*
X132478563Y-141567028D01*
X132478563Y-141567028D02*
X132458218Y-141686065D01*
X132458218Y-141686065D02*
X132452983Y-141713727D01*
X132452983Y-141713727D02*
X132426479Y-141840727D01*
X132426479Y-141840727D02*
X133171636Y-141840727D01*
X133171636Y-141840727D02*
X133230714Y-141471273D01*
X133230714Y-141471273D02*
X133744357Y-141471397D01*
X133744357Y-141471397D02*
X134258000Y-141471522D01*
X134258000Y-141471522D02*
X134350424Y-141644579D01*
X134350424Y-141644579D02*
X134442847Y-141817636D01*
X134442847Y-141817636D02*
X135816696Y-141829951D01*
X135816696Y-141829951D02*
X136214417Y-141832991D01*
X136214417Y-141832991D02*
X136529049Y-141833934D01*
X136529049Y-141833934D02*
X136769854Y-141832408D01*
X136769854Y-141832408D02*
X136946090Y-141828043D01*
X136946090Y-141828043D02*
X137067018Y-141820468D01*
X137067018Y-141820468D02*
X137141896Y-141809312D01*
X137141896Y-141809312D02*
X137179985Y-141794203D01*
X137179985Y-141794203D02*
X137190545Y-141774912D01*
X137190545Y-141774912D02*
X137181062Y-141715665D01*
X137181062Y-141715665D02*
X137154713Y-141580866D01*
X137154713Y-141580866D02*
X137114645Y-141385131D01*
X137114645Y-141385131D02*
X137064008Y-141143076D01*
X137064008Y-141143076D02*
X137005951Y-140869316D01*
X137005951Y-140869316D02*
X136943620Y-140578470D01*
X136943620Y-140578470D02*
X136880166Y-140285152D01*
X136880166Y-140285152D02*
X136818737Y-140003979D01*
X136818737Y-140003979D02*
X136762482Y-139749567D01*
X136762482Y-139749567D02*
X136714548Y-139536534D01*
X136714548Y-139536534D02*
X136678085Y-139379494D01*
X136678085Y-139379494D02*
X136656241Y-139293064D01*
X136656241Y-139293064D02*
X136655079Y-139289182D01*
X136655079Y-139289182D02*
X136639810Y-139262168D01*
X136639810Y-139262168D02*
X136605102Y-139241902D01*
X136605102Y-139241902D02*
X136539180Y-139227430D01*
X136539180Y-139227430D02*
X136430268Y-139217797D01*
X136430268Y-139217797D02*
X136266591Y-139212048D01*
X136266591Y-139212048D02*
X136036371Y-139209227D01*
X136036371Y-139209227D02*
X135727833Y-139208380D01*
X135727833Y-139208380D02*
X135658492Y-139208364D01*
X135658492Y-139208364D02*
X135324327Y-139209456D01*
X135324327Y-139209456D02*
X135073080Y-139213125D01*
X135073080Y-139213125D02*
X134895328Y-139219954D01*
X134895328Y-139219954D02*
X134781648Y-139230528D01*
X134781648Y-139230528D02*
X134722615Y-139245433D01*
X134722615Y-139245433D02*
X134708807Y-139265254D01*
X134708807Y-139265254D02*
X134709452Y-139267276D01*
X134709452Y-139267276D02*
X134730748Y-139342576D01*
X134730748Y-139342576D02*
X134762080Y-139475343D01*
X134762080Y-139475343D02*
X134786940Y-139590549D01*
X134786940Y-139590549D02*
X134841821Y-139854909D01*
X134841821Y-139854909D02*
X136070636Y-139854909D01*
X136070636Y-139854909D02*
X136099500Y-139999227D01*
X136099500Y-139999227D02*
X136119797Y-140112458D01*
X136119797Y-140112458D02*
X136128362Y-140183575D01*
X136128362Y-140183575D02*
X136128363Y-140183954D01*
X136128363Y-140183954D02*
X136085101Y-140199262D01*
X136085101Y-140199262D02*
X135966971Y-140211909D01*
X135966971Y-140211909D02*
X135791458Y-140220672D01*
X135791458Y-140220672D02*
X135576046Y-140224326D01*
X135576046Y-140224326D02*
X135551091Y-140224364D01*
X135551091Y-140224364D02*
X135332410Y-140227247D01*
X135332410Y-140227247D02*
X135151737Y-140235122D01*
X135151737Y-140235122D02*
X135026557Y-140246821D01*
X135026557Y-140246821D02*
X134974354Y-140261180D01*
X134974354Y-140261180D02*
X134973818Y-140262843D01*
X134973818Y-140262843D02*
X134982320Y-140326099D01*
X134982320Y-140326099D02*
X135004287Y-140449451D01*
X135004287Y-140449451D02*
X135026375Y-140563025D01*
X135026375Y-140563025D02*
X135078933Y-140824727D01*
X135078933Y-140824727D02*
X135670195Y-140824727D01*
X135670195Y-140824727D02*
X135893929Y-140827282D01*
X135893929Y-140827282D02*
X136082040Y-140834264D01*
X136082040Y-140834264D02*
X136216470Y-140844650D01*
X136216470Y-140844650D02*
X136279167Y-140857415D01*
X136279167Y-140857415D02*
X136281209Y-140859364D01*
X136281209Y-140859364D02*
X136301684Y-140924060D01*
X136301684Y-140924060D02*
X136327085Y-141039702D01*
X136327085Y-141039702D02*
X136332209Y-141067182D01*
X136332209Y-141067182D02*
X136363458Y-141240364D01*
X136363458Y-141240364D02*
X135151207Y-141240364D01*
X135151207Y-141240364D02*
X135182093Y-141390454D01*
X135182093Y-141390454D02*
X135212068Y-141535827D01*
X135212068Y-141535827D02*
X135236928Y-141656000D01*
X135236928Y-141656000D02*
X135250511Y-141735166D01*
X135250511Y-141735166D02*
X135232371Y-141730385D01*
X135232371Y-141730385D02*
X135193589Y-141679091D01*
X135193589Y-141679091D02*
X135153568Y-141616919D01*
X135153568Y-141616919D02*
X135073087Y-141485977D01*
X135073087Y-141485977D02*
X134958633Y-141297037D01*
X134958633Y-141297037D02*
X134816697Y-141060869D01*
X134816697Y-141060869D02*
X134693757Y-140855158D01*
X134693757Y-140855158D02*
X133911636Y-140855158D01*
X133911636Y-140855158D02*
X133869333Y-140862889D01*
X133869333Y-140862889D02*
X133757927Y-140868508D01*
X133757927Y-140868508D02*
X133600673Y-140870891D01*
X133600673Y-140870891D02*
X133585251Y-140870909D01*
X133585251Y-140870909D02*
X133415236Y-140868449D01*
X133415236Y-140868449D02*
X133319796Y-140857911D01*
X133319796Y-140857911D02*
X133281204Y-140834559D01*
X133281204Y-140834559D02*
X133281732Y-140793656D01*
X133281732Y-140793656D02*
X133282753Y-140790091D01*
X133282753Y-140790091D02*
X133298461Y-140706086D01*
X133298461Y-140706086D02*
X133317593Y-140560024D01*
X133317593Y-140560024D02*
X133336267Y-140381925D01*
X133336267Y-140381925D02*
X133338015Y-140362909D01*
X133338015Y-140362909D02*
X133355961Y-140190843D01*
X133355961Y-140190843D02*
X133374488Y-140055149D01*
X133374488Y-140055149D02*
X133389971Y-139981775D01*
X133389971Y-139981775D02*
X133391772Y-139977809D01*
X133391772Y-139977809D02*
X133418785Y-140003690D01*
X133418785Y-140003690D02*
X133479158Y-140091445D01*
X133479158Y-140091445D02*
X133561632Y-140222074D01*
X133561632Y-140222074D02*
X133654952Y-140376578D01*
X133654952Y-140376578D02*
X133747858Y-140535958D01*
X133747858Y-140535958D02*
X133829093Y-140681216D01*
X133829093Y-140681216D02*
X133887399Y-140793352D01*
X133887399Y-140793352D02*
X133911519Y-140853368D01*
X133911519Y-140853368D02*
X133911636Y-140855158D01*
X133911636Y-140855158D02*
X134693757Y-140855158D01*
X134693757Y-140855158D02*
X134653767Y-140788245D01*
X134653767Y-140788245D02*
X134476332Y-140489936D01*
X134476332Y-140489936D02*
X134421539Y-140397545D01*
X134421539Y-140397545D02*
X133716778Y-139208364D01*
X133716778Y-139208364D02*
X132853640Y-139208364D01*
X132853640Y-139208364D02*
X132827788Y-139358454D01*
X132827788Y-139358454D02*
X132827788Y-139358454D01*
G36*
X134958633Y-141297037D02*
G01*
X135073087Y-141485977D01*
X135153568Y-141616919D01*
X135193589Y-141679091D01*
X135232371Y-141730385D01*
X135250511Y-141735166D01*
X135236928Y-141656000D01*
X135212068Y-141535827D01*
X135182093Y-141390454D01*
X135151207Y-141240364D01*
X136363458Y-141240364D01*
X136332209Y-141067182D01*
X136327085Y-141039702D01*
X136301684Y-140924060D01*
X136281209Y-140859364D01*
X136279167Y-140857415D01*
X136216470Y-140844650D01*
X136082040Y-140834264D01*
X135893929Y-140827282D01*
X135670195Y-140824727D01*
X135078933Y-140824727D01*
X135026375Y-140563025D01*
X135004287Y-140449451D01*
X134982320Y-140326099D01*
X134973818Y-140262843D01*
X134974354Y-140261180D01*
X135026557Y-140246821D01*
X135151737Y-140235122D01*
X135332410Y-140227247D01*
X135551091Y-140224364D01*
X135576046Y-140224326D01*
X135791458Y-140220672D01*
X135966971Y-140211909D01*
X136085101Y-140199262D01*
X136128363Y-140183954D01*
X136128362Y-140183575D01*
X136119797Y-140112458D01*
X136099500Y-139999227D01*
X136070636Y-139854909D01*
X134841821Y-139854909D01*
X134786940Y-139590549D01*
X134762080Y-139475343D01*
X134730748Y-139342576D01*
X134709452Y-139267276D01*
X134708807Y-139265254D01*
X134722615Y-139245433D01*
X134781648Y-139230528D01*
X134895328Y-139219954D01*
X135073080Y-139213125D01*
X135324327Y-139209456D01*
X135658492Y-139208364D01*
X135727833Y-139208380D01*
X136036371Y-139209227D01*
X136266591Y-139212048D01*
X136430268Y-139217797D01*
X136539180Y-139227430D01*
X136605102Y-139241902D01*
X136639810Y-139262168D01*
X136655079Y-139289182D01*
X136656241Y-139293064D01*
X136678085Y-139379494D01*
X136714548Y-139536534D01*
X136762482Y-139749567D01*
X136818737Y-140003979D01*
X136880166Y-140285152D01*
X136943620Y-140578470D01*
X137005951Y-140869316D01*
X137064008Y-141143076D01*
X137114645Y-141385131D01*
X137154713Y-141580866D01*
X137181062Y-141715665D01*
X137190545Y-141774912D01*
X137179985Y-141794203D01*
X137141896Y-141809312D01*
X137067018Y-141820468D01*
X136946090Y-141828043D01*
X136769854Y-141832408D01*
X136529049Y-141833934D01*
X136214417Y-141832991D01*
X135816696Y-141829951D01*
X134442847Y-141817636D01*
X134350424Y-141644579D01*
X134258000Y-141471522D01*
X133744357Y-141471397D01*
X133230714Y-141471273D01*
X133171636Y-141840727D01*
X132426479Y-141840727D01*
X132452983Y-141713727D01*
X132458218Y-141686065D01*
X132478563Y-141567028D01*
X132509397Y-141378687D01*
X132548307Y-141136021D01*
X132592883Y-140854010D01*
X132595920Y-140834559D01*
X133281204Y-140834559D01*
X133319796Y-140857911D01*
X133415236Y-140868449D01*
X133585251Y-140870909D01*
X133600673Y-140870891D01*
X133757927Y-140868508D01*
X133869333Y-140862889D01*
X133911636Y-140855158D01*
X133911519Y-140853368D01*
X133887399Y-140793352D01*
X133829093Y-140681216D01*
X133747858Y-140535958D01*
X133654952Y-140376578D01*
X133561632Y-140222074D01*
X133479158Y-140091445D01*
X133418785Y-140003690D01*
X133391772Y-139977809D01*
X133389971Y-139981775D01*
X133374488Y-140055149D01*
X133355961Y-140190843D01*
X133338015Y-140362909D01*
X133336267Y-140381925D01*
X133317593Y-140560024D01*
X133298461Y-140706086D01*
X133282753Y-140790091D01*
X133281732Y-140793656D01*
X133281204Y-140834559D01*
X132595920Y-140834559D01*
X132640712Y-140547636D01*
X132662738Y-140405833D01*
X132709443Y-140106142D01*
X132751722Y-139836168D01*
X132787154Y-139611302D01*
X132813316Y-139446934D01*
X132827788Y-139358454D01*
X132853640Y-139208364D01*
X133716778Y-139208364D01*
X134421539Y-140397545D01*
X134476332Y-140489936D01*
X134653767Y-140788245D01*
X134693757Y-140855158D01*
X134816697Y-141060869D01*
X134958633Y-141297037D01*
G37*
X134958633Y-141297037D02*
X135073087Y-141485977D01*
X135153568Y-141616919D01*
X135193589Y-141679091D01*
X135232371Y-141730385D01*
X135250511Y-141735166D01*
X135236928Y-141656000D01*
X135212068Y-141535827D01*
X135182093Y-141390454D01*
X135151207Y-141240364D01*
X136363458Y-141240364D01*
X136332209Y-141067182D01*
X136327085Y-141039702D01*
X136301684Y-140924060D01*
X136281209Y-140859364D01*
X136279167Y-140857415D01*
X136216470Y-140844650D01*
X136082040Y-140834264D01*
X135893929Y-140827282D01*
X135670195Y-140824727D01*
X135078933Y-140824727D01*
X135026375Y-140563025D01*
X135004287Y-140449451D01*
X134982320Y-140326099D01*
X134973818Y-140262843D01*
X134974354Y-140261180D01*
X135026557Y-140246821D01*
X135151737Y-140235122D01*
X135332410Y-140227247D01*
X135551091Y-140224364D01*
X135576046Y-140224326D01*
X135791458Y-140220672D01*
X135966971Y-140211909D01*
X136085101Y-140199262D01*
X136128363Y-140183954D01*
X136128362Y-140183575D01*
X136119797Y-140112458D01*
X136099500Y-139999227D01*
X136070636Y-139854909D01*
X134841821Y-139854909D01*
X134786940Y-139590549D01*
X134762080Y-139475343D01*
X134730748Y-139342576D01*
X134709452Y-139267276D01*
X134708807Y-139265254D01*
X134722615Y-139245433D01*
X134781648Y-139230528D01*
X134895328Y-139219954D01*
X135073080Y-139213125D01*
X135324327Y-139209456D01*
X135658492Y-139208364D01*
X135727833Y-139208380D01*
X136036371Y-139209227D01*
X136266591Y-139212048D01*
X136430268Y-139217797D01*
X136539180Y-139227430D01*
X136605102Y-139241902D01*
X136639810Y-139262168D01*
X136655079Y-139289182D01*
X136656241Y-139293064D01*
X136678085Y-139379494D01*
X136714548Y-139536534D01*
X136762482Y-139749567D01*
X136818737Y-140003979D01*
X136880166Y-140285152D01*
X136943620Y-140578470D01*
X137005951Y-140869316D01*
X137064008Y-141143076D01*
X137114645Y-141385131D01*
X137154713Y-141580866D01*
X137181062Y-141715665D01*
X137190545Y-141774912D01*
X137179985Y-141794203D01*
X137141896Y-141809312D01*
X137067018Y-141820468D01*
X136946090Y-141828043D01*
X136769854Y-141832408D01*
X136529049Y-141833934D01*
X136214417Y-141832991D01*
X135816696Y-141829951D01*
X134442847Y-141817636D01*
X134350424Y-141644579D01*
X134258000Y-141471522D01*
X133744357Y-141471397D01*
X133230714Y-141471273D01*
X133171636Y-141840727D01*
X132426479Y-141840727D01*
X132452983Y-141713727D01*
X132458218Y-141686065D01*
X132478563Y-141567028D01*
X132509397Y-141378687D01*
X132548307Y-141136021D01*
X132592883Y-140854010D01*
X132595920Y-140834559D01*
X133281204Y-140834559D01*
X133319796Y-140857911D01*
X133415236Y-140868449D01*
X133585251Y-140870909D01*
X133600673Y-140870891D01*
X133757927Y-140868508D01*
X133869333Y-140862889D01*
X133911636Y-140855158D01*
X133911519Y-140853368D01*
X133887399Y-140793352D01*
X133829093Y-140681216D01*
X133747858Y-140535958D01*
X133654952Y-140376578D01*
X133561632Y-140222074D01*
X133479158Y-140091445D01*
X133418785Y-140003690D01*
X133391772Y-139977809D01*
X133389971Y-139981775D01*
X133374488Y-140055149D01*
X133355961Y-140190843D01*
X133338015Y-140362909D01*
X133336267Y-140381925D01*
X133317593Y-140560024D01*
X133298461Y-140706086D01*
X133282753Y-140790091D01*
X133281732Y-140793656D01*
X133281204Y-140834559D01*
X132595920Y-140834559D01*
X132640712Y-140547636D01*
X132662738Y-140405833D01*
X132709443Y-140106142D01*
X132751722Y-139836168D01*
X132787154Y-139611302D01*
X132813316Y-139446934D01*
X132827788Y-139358454D01*
X132853640Y-139208364D01*
X133716778Y-139208364D01*
X134421539Y-140397545D01*
X134476332Y-140489936D01*
X134653767Y-140788245D01*
X134693757Y-140855158D01*
X134816697Y-141060869D01*
X134958633Y-141297037D01*
X137357463Y-135652946D02*
X137203351Y-135656448D01*
X137203351Y-135656448D02*
X137112226Y-135665901D01*
X137112226Y-135665901D02*
X137069398Y-135684237D01*
X137069398Y-135684237D02*
X137060179Y-135714386D01*
X137060179Y-135714386D02*
X137069074Y-135756273D01*
X137069074Y-135756273D02*
X137091377Y-135852131D01*
X137091377Y-135852131D02*
X137097551Y-135894818D01*
X137097551Y-135894818D02*
X137140583Y-135910073D01*
X137140583Y-135910073D02*
X137255316Y-135921900D01*
X137255316Y-135921900D02*
X137421105Y-135928580D01*
X137421105Y-135928580D02*
X137513818Y-135929454D01*
X137513818Y-135929454D02*
X137720676Y-135932708D01*
X137720676Y-135932708D02*
X137849441Y-135943902D01*
X137849441Y-135943902D02*
X137914204Y-135965191D01*
X137914204Y-135965191D02*
X137929454Y-135992954D01*
X137929454Y-135992954D02*
X137938137Y-136081657D01*
X137938137Y-136081657D02*
X137958318Y-136200773D01*
X137958318Y-136200773D02*
X137987182Y-136345091D01*
X137987182Y-136345091D02*
X137611954Y-136345091D01*
X137611954Y-136345091D02*
X137426988Y-136346275D01*
X137426988Y-136346275D02*
X137315683Y-136353665D01*
X137315683Y-136353665D02*
X137259340Y-136373014D01*
X137259340Y-136373014D02*
X137239257Y-136410076D01*
X137239257Y-136410076D02*
X137236727Y-136460545D01*
X137236727Y-136460545D02*
X137240107Y-136515505D01*
X137240107Y-136515505D02*
X137262179Y-136549488D01*
X137262179Y-136549488D02*
X137320841Y-136567536D01*
X137320841Y-136567536D02*
X137433992Y-136574692D01*
X137433992Y-136574692D02*
X137619528Y-136575997D01*
X137619528Y-136575997D02*
X137646591Y-136576000D01*
X137646591Y-136576000D02*
X138056454Y-136576000D01*
X138056454Y-136576000D02*
X138085318Y-136720318D01*
X138085318Y-136720318D02*
X138108969Y-136851467D01*
X138108969Y-136851467D02*
X138105080Y-136931618D01*
X138105080Y-136931618D02*
X138057893Y-136973327D01*
X138057893Y-136973327D02*
X137951644Y-136989148D01*
X137951644Y-136989148D02*
X137770575Y-136991637D01*
X137770575Y-136991637D02*
X137744727Y-136991636D01*
X137744727Y-136991636D02*
X137375273Y-136991636D01*
X137375273Y-136991636D02*
X137375273Y-137268727D01*
X137375273Y-137268727D02*
X137934841Y-137268727D01*
X137934841Y-137268727D02*
X138169498Y-137268223D01*
X138169498Y-137268223D02*
X138326356Y-137264816D01*
X138326356Y-137264816D02*
X138419977Y-137255662D01*
X138419977Y-137255662D02*
X138464926Y-137237916D01*
X138464926Y-137237916D02*
X138475766Y-137208735D01*
X138475766Y-137208735D02*
X138467060Y-137165274D01*
X138467060Y-137165274D02*
X138466939Y-137164818D01*
X138466939Y-137164818D02*
X138447958Y-137084727D01*
X138447958Y-137084727D02*
X138413827Y-136932775D01*
X138413827Y-136932775D02*
X138368631Y-136727438D01*
X138368631Y-136727438D02*
X138316452Y-136487195D01*
X138316452Y-136487195D02*
X138288371Y-136356737D01*
X138288371Y-136356737D02*
X138137273Y-135652565D01*
X138137273Y-135652565D02*
X137589250Y-135652464D01*
X137589250Y-135652464D02*
X137357463Y-135652946D01*
X137357463Y-135652946D02*
X137357463Y-135652946D01*
G36*
X138137273Y-135652565D02*
G01*
X138288371Y-136356737D01*
X138316452Y-136487195D01*
X138368631Y-136727438D01*
X138413827Y-136932775D01*
X138447958Y-137084727D01*
X138466939Y-137164818D01*
X138467060Y-137165274D01*
X138475766Y-137208735D01*
X138464926Y-137237916D01*
X138419977Y-137255662D01*
X138326356Y-137264816D01*
X138169498Y-137268223D01*
X137934841Y-137268727D01*
X137375273Y-137268727D01*
X137375273Y-136991636D01*
X137744727Y-136991636D01*
X137770575Y-136991637D01*
X137951644Y-136989148D01*
X138057893Y-136973327D01*
X138105080Y-136931618D01*
X138108969Y-136851467D01*
X138085318Y-136720318D01*
X138056454Y-136576000D01*
X137646591Y-136576000D01*
X137619528Y-136575997D01*
X137433992Y-136574692D01*
X137320841Y-136567536D01*
X137262179Y-136549488D01*
X137240107Y-136515505D01*
X137236727Y-136460545D01*
X137239257Y-136410076D01*
X137259340Y-136373014D01*
X137315683Y-136353665D01*
X137426988Y-136346275D01*
X137611954Y-136345091D01*
X137987182Y-136345091D01*
X137958318Y-136200773D01*
X137938137Y-136081657D01*
X137929454Y-135992954D01*
X137914204Y-135965191D01*
X137849441Y-135943902D01*
X137720676Y-135932708D01*
X137513818Y-135929454D01*
X137421105Y-135928580D01*
X137255316Y-135921900D01*
X137140583Y-135910073D01*
X137097551Y-135894818D01*
X137091377Y-135852131D01*
X137069074Y-135756273D01*
X137060179Y-135714386D01*
X137069398Y-135684237D01*
X137112226Y-135665901D01*
X137203351Y-135656448D01*
X137357463Y-135652946D01*
X137589250Y-135652464D01*
X138137273Y-135652565D01*
G37*
X138137273Y-135652565D02*
X138288371Y-136356737D01*
X138316452Y-136487195D01*
X138368631Y-136727438D01*
X138413827Y-136932775D01*
X138447958Y-137084727D01*
X138466939Y-137164818D01*
X138467060Y-137165274D01*
X138475766Y-137208735D01*
X138464926Y-137237916D01*
X138419977Y-137255662D01*
X138326356Y-137264816D01*
X138169498Y-137268223D01*
X137934841Y-137268727D01*
X137375273Y-137268727D01*
X137375273Y-136991636D01*
X137744727Y-136991636D01*
X137770575Y-136991637D01*
X137951644Y-136989148D01*
X138057893Y-136973327D01*
X138105080Y-136931618D01*
X138108969Y-136851467D01*
X138085318Y-136720318D01*
X138056454Y-136576000D01*
X137646591Y-136576000D01*
X137619528Y-136575997D01*
X137433992Y-136574692D01*
X137320841Y-136567536D01*
X137262179Y-136549488D01*
X137240107Y-136515505D01*
X137236727Y-136460545D01*
X137239257Y-136410076D01*
X137259340Y-136373014D01*
X137315683Y-136353665D01*
X137426988Y-136346275D01*
X137611954Y-136345091D01*
X137987182Y-136345091D01*
X137958318Y-136200773D01*
X137938137Y-136081657D01*
X137929454Y-135992954D01*
X137914204Y-135965191D01*
X137849441Y-135943902D01*
X137720676Y-135932708D01*
X137513818Y-135929454D01*
X137421105Y-135928580D01*
X137255316Y-135921900D01*
X137140583Y-135910073D01*
X137097551Y-135894818D01*
X137091377Y-135852131D01*
X137069074Y-135756273D01*
X137060179Y-135714386D01*
X137069398Y-135684237D01*
X137112226Y-135665901D01*
X137203351Y-135656448D01*
X137357463Y-135652946D01*
X137589250Y-135652464D01*
X138137273Y-135652565D01*
X147431705Y-137754428D02*
X147223650Y-137758050D01*
X147223650Y-137758050D02*
X147075164Y-137766367D01*
X147075164Y-137766367D02*
X146969853Y-137781249D01*
X146969853Y-137781249D02*
X146891323Y-137804561D01*
X146891323Y-137804561D02*
X146823179Y-137838171D01*
X146823179Y-137838171D02*
X146788095Y-137859287D01*
X146788095Y-137859287D02*
X146601515Y-138024918D01*
X146601515Y-138024918D02*
X146483885Y-138235851D01*
X146483885Y-138235851D02*
X146436066Y-138474978D01*
X146436066Y-138474978D02*
X146458920Y-138725188D01*
X146458920Y-138725188D02*
X146553309Y-138969374D01*
X146553309Y-138969374D02*
X146720093Y-139190427D01*
X146720093Y-139190427D02*
X146721014Y-139191349D01*
X146721014Y-139191349D02*
X146864744Y-139315188D01*
X146864744Y-139315188D02*
X147019235Y-139400254D01*
X147019235Y-139400254D02*
X147205346Y-139452772D01*
X147205346Y-139452772D02*
X147443936Y-139478970D01*
X147443936Y-139478970D02*
X147705342Y-139485197D01*
X147705342Y-139485197D02*
X147909140Y-139487608D01*
X147909140Y-139487608D02*
X148038496Y-139496699D01*
X148038496Y-139496699D02*
X148111269Y-139515709D01*
X148111269Y-139515709D02*
X148145317Y-139547876D01*
X148145317Y-139547876D02*
X148152418Y-139566273D01*
X148152418Y-139566273D02*
X148172814Y-139648549D01*
X148172814Y-139648549D02*
X148205852Y-139792727D01*
X148205852Y-139792727D02*
X148245039Y-139970348D01*
X148245039Y-139970348D02*
X148252529Y-140005000D01*
X148252529Y-140005000D02*
X148329635Y-140362909D01*
X148329635Y-140362909D02*
X148671363Y-140362909D01*
X148671363Y-140362909D02*
X148848609Y-140360107D01*
X148848609Y-140360107D02*
X148952197Y-140348764D01*
X148952197Y-140348764D02*
X149000740Y-140324475D01*
X149000740Y-140324475D02*
X149012850Y-140282836D01*
X149012850Y-140282836D02*
X149012849Y-140282091D01*
X149012849Y-140282091D02*
X149003144Y-140216936D01*
X149003144Y-140216936D02*
X148975902Y-140074264D01*
X148975902Y-140074264D02*
X148933733Y-139866693D01*
X148933733Y-139866693D02*
X148879247Y-139606846D01*
X148879247Y-139606846D02*
X148815054Y-139307343D01*
X148815054Y-139307343D02*
X148743766Y-138980805D01*
X148743766Y-138980805D02*
X148743028Y-138977454D01*
X148743028Y-138977454D02*
X148713513Y-138843462D01*
X148713513Y-138843462D02*
X147993534Y-138843462D01*
X147993534Y-138843462D02*
X147976921Y-138874785D01*
X147976921Y-138874785D02*
X147915345Y-138886302D01*
X147915345Y-138886302D02*
X147790435Y-138883589D01*
X147790435Y-138883589D02*
X147683616Y-138877801D01*
X147683616Y-138877801D02*
X147471933Y-138856403D01*
X147471933Y-138856403D02*
X147332443Y-138817732D01*
X147332443Y-138817732D02*
X147261574Y-138772706D01*
X147261574Y-138772706D02*
X147171236Y-138650768D01*
X147171236Y-138650768D02*
X147165034Y-138536049D01*
X147165034Y-138536049D02*
X147234774Y-138438300D01*
X147234774Y-138438300D02*
X147372263Y-138367273D01*
X147372263Y-138367273D02*
X147569308Y-138332720D01*
X147569308Y-138332720D02*
X147632772Y-138330909D01*
X147632772Y-138330909D02*
X147894448Y-138330909D01*
X147894448Y-138330909D02*
X147925831Y-138504091D01*
X147925831Y-138504091D02*
X147954221Y-138651133D01*
X147954221Y-138651133D02*
X147981388Y-138777604D01*
X147981388Y-138777604D02*
X147983558Y-138786755D01*
X147983558Y-138786755D02*
X147993534Y-138843462D01*
X147993534Y-138843462D02*
X148713513Y-138843462D01*
X148713513Y-138843462D02*
X148473448Y-137753636D01*
X148473448Y-137753636D02*
X147715724Y-137753636D01*
X147715724Y-137753636D02*
X147431705Y-137754428D01*
X147431705Y-137754428D02*
X147431705Y-137754428D01*
G36*
X148743766Y-138980805D02*
G01*
X148815054Y-139307343D01*
X148879247Y-139606846D01*
X148933733Y-139866693D01*
X148975902Y-140074264D01*
X149003144Y-140216936D01*
X149012849Y-140282091D01*
X149012850Y-140282836D01*
X149000740Y-140324475D01*
X148952197Y-140348764D01*
X148848609Y-140360107D01*
X148671363Y-140362909D01*
X148329635Y-140362909D01*
X148252529Y-140005000D01*
X148245039Y-139970348D01*
X148205852Y-139792727D01*
X148172814Y-139648549D01*
X148152418Y-139566273D01*
X148145317Y-139547876D01*
X148111269Y-139515709D01*
X148038496Y-139496699D01*
X147909140Y-139487608D01*
X147705342Y-139485197D01*
X147443936Y-139478970D01*
X147205346Y-139452772D01*
X147019235Y-139400254D01*
X146864744Y-139315188D01*
X146721014Y-139191349D01*
X146720093Y-139190427D01*
X146553309Y-138969374D01*
X146458920Y-138725188D01*
X146441644Y-138536049D01*
X147165034Y-138536049D01*
X147171236Y-138650768D01*
X147261574Y-138772706D01*
X147332443Y-138817732D01*
X147471933Y-138856403D01*
X147683616Y-138877801D01*
X147790435Y-138883589D01*
X147915345Y-138886302D01*
X147976921Y-138874785D01*
X147993534Y-138843462D01*
X147983558Y-138786755D01*
X147981388Y-138777604D01*
X147954221Y-138651133D01*
X147925831Y-138504091D01*
X147894448Y-138330909D01*
X147632772Y-138330909D01*
X147569308Y-138332720D01*
X147372263Y-138367273D01*
X147234774Y-138438300D01*
X147165034Y-138536049D01*
X146441644Y-138536049D01*
X146436066Y-138474978D01*
X146483885Y-138235851D01*
X146601515Y-138024918D01*
X146788095Y-137859287D01*
X146823179Y-137838171D01*
X146891323Y-137804561D01*
X146969853Y-137781249D01*
X147075164Y-137766367D01*
X147223650Y-137758050D01*
X147431705Y-137754428D01*
X147715724Y-137753636D01*
X148473448Y-137753636D01*
X148713513Y-138843462D01*
X148743028Y-138977454D01*
X148743766Y-138980805D01*
G37*
X148743766Y-138980805D02*
X148815054Y-139307343D01*
X148879247Y-139606846D01*
X148933733Y-139866693D01*
X148975902Y-140074264D01*
X149003144Y-140216936D01*
X149012849Y-140282091D01*
X149012850Y-140282836D01*
X149000740Y-140324475D01*
X148952197Y-140348764D01*
X148848609Y-140360107D01*
X148671363Y-140362909D01*
X148329635Y-140362909D01*
X148252529Y-140005000D01*
X148245039Y-139970348D01*
X148205852Y-139792727D01*
X148172814Y-139648549D01*
X148152418Y-139566273D01*
X148145317Y-139547876D01*
X148111269Y-139515709D01*
X148038496Y-139496699D01*
X147909140Y-139487608D01*
X147705342Y-139485197D01*
X147443936Y-139478970D01*
X147205346Y-139452772D01*
X147019235Y-139400254D01*
X146864744Y-139315188D01*
X146721014Y-139191349D01*
X146720093Y-139190427D01*
X146553309Y-138969374D01*
X146458920Y-138725188D01*
X146441644Y-138536049D01*
X147165034Y-138536049D01*
X147171236Y-138650768D01*
X147261574Y-138772706D01*
X147332443Y-138817732D01*
X147471933Y-138856403D01*
X147683616Y-138877801D01*
X147790435Y-138883589D01*
X147915345Y-138886302D01*
X147976921Y-138874785D01*
X147993534Y-138843462D01*
X147983558Y-138786755D01*
X147981388Y-138777604D01*
X147954221Y-138651133D01*
X147925831Y-138504091D01*
X147894448Y-138330909D01*
X147632772Y-138330909D01*
X147569308Y-138332720D01*
X147372263Y-138367273D01*
X147234774Y-138438300D01*
X147165034Y-138536049D01*
X146441644Y-138536049D01*
X146436066Y-138474978D01*
X146483885Y-138235851D01*
X146601515Y-138024918D01*
X146788095Y-137859287D01*
X146823179Y-137838171D01*
X146891323Y-137804561D01*
X146969853Y-137781249D01*
X147075164Y-137766367D01*
X147223650Y-137758050D01*
X147431705Y-137754428D01*
X147715724Y-137753636D01*
X148473448Y-137753636D01*
X148713513Y-138843462D01*
X148743028Y-138977454D01*
X148743766Y-138980805D01*
X143571983Y-135778001D02*
X143587972Y-135853532D01*
X143587972Y-135853532D02*
X143629972Y-135893851D01*
X143629972Y-135893851D02*
X143722699Y-135912691D01*
X143722699Y-135912691D02*
X143828041Y-135920283D01*
X143828041Y-135920283D02*
X143918257Y-135924480D01*
X143918257Y-135924480D02*
X143985722Y-135933220D01*
X143985722Y-135933220D02*
X144036605Y-135958661D01*
X144036605Y-135958661D02*
X144077079Y-136012963D01*
X144077079Y-136012963D02*
X144113314Y-136108285D01*
X144113314Y-136108285D02*
X144151480Y-136256785D01*
X144151480Y-136256785D02*
X144197750Y-136470622D01*
X144197750Y-136470622D02*
X144258294Y-136761956D01*
X144258294Y-136761956D02*
X144260448Y-136772273D01*
X144260448Y-136772273D02*
X144306623Y-136989254D01*
X144306623Y-136989254D02*
X144341670Y-137131523D01*
X144341670Y-137131523D02*
X144373034Y-137214844D01*
X144373034Y-137214844D02*
X144408164Y-137254981D01*
X144408164Y-137254981D02*
X144454507Y-137267698D01*
X144454507Y-137267698D02*
X144494982Y-137268727D01*
X144494982Y-137268727D02*
X144594981Y-137250473D01*
X144594981Y-137250473D02*
X144624370Y-137189232D01*
X144624370Y-137189232D02*
X144624352Y-137187909D01*
X144624352Y-137187909D02*
X144614201Y-137113946D01*
X144614201Y-137113946D02*
X144587514Y-136969773D01*
X144587514Y-136969773D02*
X144548186Y-136775259D01*
X144548186Y-136775259D02*
X144500111Y-136550271D01*
X144500111Y-136550271D02*
X144493081Y-136518273D01*
X144493081Y-136518273D02*
X144363275Y-135929454D01*
X144363275Y-135929454D02*
X144589978Y-135929454D01*
X144589978Y-135929454D02*
X144724653Y-135926415D01*
X144724653Y-135926415D02*
X144789391Y-135908349D01*
X144789391Y-135908349D02*
X144806604Y-135861837D01*
X144806604Y-135861837D02*
X144802067Y-135802454D01*
X144802067Y-135802454D02*
X144787454Y-135675454D01*
X144787454Y-135675454D02*
X143557238Y-135649638D01*
X143557238Y-135649638D02*
X143571983Y-135778001D01*
X143571983Y-135778001D02*
X143571983Y-135778001D01*
G36*
X144787454Y-135675454D02*
G01*
X144802067Y-135802454D01*
X144806604Y-135861837D01*
X144789391Y-135908349D01*
X144724653Y-135926415D01*
X144589978Y-135929454D01*
X144363275Y-135929454D01*
X144493081Y-136518273D01*
X144500111Y-136550271D01*
X144548186Y-136775259D01*
X144587514Y-136969773D01*
X144614201Y-137113946D01*
X144624352Y-137187909D01*
X144624370Y-137189232D01*
X144594981Y-137250473D01*
X144494982Y-137268727D01*
X144454507Y-137267698D01*
X144408164Y-137254981D01*
X144373034Y-137214844D01*
X144341670Y-137131523D01*
X144306623Y-136989254D01*
X144260448Y-136772273D01*
X144258294Y-136761956D01*
X144197750Y-136470622D01*
X144151480Y-136256785D01*
X144113314Y-136108285D01*
X144077079Y-136012963D01*
X144036605Y-135958661D01*
X143985722Y-135933220D01*
X143918257Y-135924480D01*
X143828041Y-135920283D01*
X143722699Y-135912691D01*
X143629972Y-135893851D01*
X143587972Y-135853532D01*
X143571983Y-135778001D01*
X143557238Y-135649638D01*
X144787454Y-135675454D01*
G37*
X144787454Y-135675454D02*
X144802067Y-135802454D01*
X144806604Y-135861837D01*
X144789391Y-135908349D01*
X144724653Y-135926415D01*
X144589978Y-135929454D01*
X144363275Y-135929454D01*
X144493081Y-136518273D01*
X144500111Y-136550271D01*
X144548186Y-136775259D01*
X144587514Y-136969773D01*
X144614201Y-137113946D01*
X144624352Y-137187909D01*
X144624370Y-137189232D01*
X144594981Y-137250473D01*
X144494982Y-137268727D01*
X144454507Y-137267698D01*
X144408164Y-137254981D01*
X144373034Y-137214844D01*
X144341670Y-137131523D01*
X144306623Y-136989254D01*
X144260448Y-136772273D01*
X144258294Y-136761956D01*
X144197750Y-136470622D01*
X144151480Y-136256785D01*
X144113314Y-136108285D01*
X144077079Y-136012963D01*
X144036605Y-135958661D01*
X143985722Y-135933220D01*
X143918257Y-135924480D01*
X143828041Y-135920283D01*
X143722699Y-135912691D01*
X143629972Y-135893851D01*
X143587972Y-135853532D01*
X143571983Y-135778001D01*
X143557238Y-135649638D01*
X144787454Y-135675454D01*
X135382352Y-135662471D02*
X135343273Y-135686338D01*
X135343273Y-135686338D02*
X135352769Y-135740543D01*
X135352769Y-135740543D02*
X135379085Y-135869477D01*
X135379085Y-135869477D02*
X135418961Y-136057712D01*
X135418961Y-136057712D02*
X135469139Y-136289824D01*
X135469139Y-136289824D02*
X135514020Y-136494520D01*
X135514020Y-136494520D02*
X135684767Y-137268727D01*
X135684767Y-137268727D02*
X135817381Y-137268727D01*
X135817381Y-137268727D02*
X135873747Y-137263482D01*
X135873747Y-137263482D02*
X135922189Y-137238875D01*
X135922189Y-137238875D02*
X135972106Y-137181600D01*
X135972106Y-137181600D02*
X136032901Y-137078352D01*
X136032901Y-137078352D02*
X136113975Y-136915824D01*
X136113975Y-136915824D02*
X136208930Y-136714545D01*
X136208930Y-136714545D02*
X136306580Y-136509765D01*
X136306580Y-136509765D02*
X136391690Y-136339149D01*
X136391690Y-136339149D02*
X136456251Y-136218185D01*
X136456251Y-136218185D02*
X136492251Y-136162364D01*
X136492251Y-136162364D02*
X136495540Y-136160364D01*
X136495540Y-136160364D02*
X136515297Y-136202707D01*
X136515297Y-136202707D02*
X136548773Y-136318071D01*
X136548773Y-136318071D02*
X136591328Y-136488956D01*
X136591328Y-136488956D02*
X136638321Y-136697861D01*
X136638321Y-136697861D02*
X136639423Y-136703000D01*
X136639423Y-136703000D02*
X136755630Y-137245636D01*
X136755630Y-137245636D02*
X136905460Y-137260230D01*
X136905460Y-137260230D02*
X137006163Y-137263280D01*
X137006163Y-137263280D02*
X137038805Y-137233348D01*
X137038805Y-137233348D02*
X137029821Y-137167867D01*
X137029821Y-137167867D02*
X137011202Y-137086448D01*
X137011202Y-137086448D02*
X136976913Y-136933567D01*
X136976913Y-136933567D02*
X136931135Y-136727967D01*
X136931135Y-136727967D02*
X136878047Y-136488391D01*
X136878047Y-136488391D02*
X136851494Y-136368182D01*
X136851494Y-136368182D02*
X136698637Y-135675454D01*
X136698637Y-135675454D02*
X136560820Y-135661637D01*
X136560820Y-135661637D02*
X136504791Y-135659412D01*
X136504791Y-135659412D02*
X136458414Y-135673970D01*
X136458414Y-135673970D02*
X136412625Y-135717952D01*
X136412625Y-135717952D02*
X136358359Y-135803998D01*
X136358359Y-135803998D02*
X136286549Y-135944749D01*
X136286549Y-135944749D02*
X136188131Y-136152845D01*
X136188131Y-136152845D02*
X136150344Y-136233989D01*
X136150344Y-136233989D02*
X136042467Y-136463667D01*
X136042467Y-136463667D02*
X135965935Y-136618623D01*
X135965935Y-136618623D02*
X135914310Y-136708416D01*
X135914310Y-136708416D02*
X135881150Y-136742604D01*
X135881150Y-136742604D02*
X135860016Y-136730747D01*
X135860016Y-136730747D02*
X135845451Y-136686533D01*
X135845451Y-136686533D02*
X135821524Y-136583882D01*
X135821524Y-136583882D02*
X135783868Y-136418491D01*
X135783868Y-136418491D02*
X135738709Y-136217802D01*
X135738709Y-136217802D02*
X135712999Y-136102636D01*
X135712999Y-136102636D02*
X135666454Y-135898102D01*
X135666454Y-135898102D02*
X135630990Y-135767323D01*
X135630990Y-135767323D02*
X135598004Y-135693809D01*
X135598004Y-135693809D02*
X135558892Y-135661075D01*
X135558892Y-135661075D02*
X135505050Y-135652632D01*
X135505050Y-135652632D02*
X135478027Y-135652364D01*
X135478027Y-135652364D02*
X135382352Y-135662471D01*
X135382352Y-135662471D02*
X135382352Y-135662471D01*
G36*
X135505050Y-135652632D02*
G01*
X135558892Y-135661075D01*
X135598004Y-135693809D01*
X135630990Y-135767323D01*
X135666454Y-135898102D01*
X135712999Y-136102636D01*
X135738709Y-136217802D01*
X135783868Y-136418491D01*
X135821524Y-136583882D01*
X135845451Y-136686533D01*
X135860016Y-136730747D01*
X135881150Y-136742604D01*
X135914310Y-136708416D01*
X135965935Y-136618623D01*
X136042467Y-136463667D01*
X136150344Y-136233989D01*
X136188131Y-136152845D01*
X136286549Y-135944749D01*
X136358359Y-135803998D01*
X136412625Y-135717952D01*
X136458414Y-135673970D01*
X136504791Y-135659412D01*
X136560820Y-135661637D01*
X136698637Y-135675454D01*
X136851494Y-136368182D01*
X136878047Y-136488391D01*
X136931135Y-136727967D01*
X136976913Y-136933567D01*
X137011202Y-137086448D01*
X137029821Y-137167867D01*
X137038805Y-137233348D01*
X137006163Y-137263280D01*
X136905460Y-137260230D01*
X136755630Y-137245636D01*
X136639423Y-136703000D01*
X136638321Y-136697861D01*
X136591328Y-136488956D01*
X136548773Y-136318071D01*
X136515297Y-136202707D01*
X136495540Y-136160364D01*
X136492251Y-136162364D01*
X136456251Y-136218185D01*
X136391690Y-136339149D01*
X136306580Y-136509765D01*
X136208930Y-136714545D01*
X136113975Y-136915824D01*
X136032901Y-137078352D01*
X135972106Y-137181600D01*
X135922189Y-137238875D01*
X135873747Y-137263482D01*
X135817381Y-137268727D01*
X135684767Y-137268727D01*
X135514020Y-136494520D01*
X135469139Y-136289824D01*
X135418961Y-136057712D01*
X135379085Y-135869477D01*
X135352769Y-135740543D01*
X135343273Y-135686338D01*
X135382352Y-135662471D01*
X135478027Y-135652364D01*
X135505050Y-135652632D01*
G37*
X135505050Y-135652632D02*
X135558892Y-135661075D01*
X135598004Y-135693809D01*
X135630990Y-135767323D01*
X135666454Y-135898102D01*
X135712999Y-136102636D01*
X135738709Y-136217802D01*
X135783868Y-136418491D01*
X135821524Y-136583882D01*
X135845451Y-136686533D01*
X135860016Y-136730747D01*
X135881150Y-136742604D01*
X135914310Y-136708416D01*
X135965935Y-136618623D01*
X136042467Y-136463667D01*
X136150344Y-136233989D01*
X136188131Y-136152845D01*
X136286549Y-135944749D01*
X136358359Y-135803998D01*
X136412625Y-135717952D01*
X136458414Y-135673970D01*
X136504791Y-135659412D01*
X136560820Y-135661637D01*
X136698637Y-135675454D01*
X136851494Y-136368182D01*
X136878047Y-136488391D01*
X136931135Y-136727967D01*
X136976913Y-136933567D01*
X137011202Y-137086448D01*
X137029821Y-137167867D01*
X137038805Y-137233348D01*
X137006163Y-137263280D01*
X136905460Y-137260230D01*
X136755630Y-137245636D01*
X136639423Y-136703000D01*
X136638321Y-136697861D01*
X136591328Y-136488956D01*
X136548773Y-136318071D01*
X136515297Y-136202707D01*
X136495540Y-136160364D01*
X136492251Y-136162364D01*
X136456251Y-136218185D01*
X136391690Y-136339149D01*
X136306580Y-136509765D01*
X136208930Y-136714545D01*
X136113975Y-136915824D01*
X136032901Y-137078352D01*
X135972106Y-137181600D01*
X135922189Y-137238875D01*
X135873747Y-137263482D01*
X135817381Y-137268727D01*
X135684767Y-137268727D01*
X135514020Y-136494520D01*
X135469139Y-136289824D01*
X135418961Y-136057712D01*
X135379085Y-135869477D01*
X135352769Y-135740543D01*
X135343273Y-135686338D01*
X135382352Y-135662471D01*
X135478027Y-135652364D01*
X135505050Y-135652632D01*
X144543004Y-139012091D02*
X144491684Y-139345584D01*
X144491684Y-139345584D02*
X144445440Y-139649210D01*
X144445440Y-139649210D02*
X144406053Y-139911021D01*
X144406053Y-139911021D02*
X144375304Y-140119071D01*
X144375304Y-140119071D02*
X144354973Y-140261413D01*
X144354973Y-140261413D02*
X144346842Y-140326102D01*
X144346842Y-140326102D02*
X144346779Y-140328273D01*
X144346779Y-140328273D02*
X144390261Y-140344366D01*
X144390261Y-140344366D02*
X144504081Y-140356481D01*
X144504081Y-140356481D02*
X144666232Y-140362565D01*
X144666232Y-140362565D02*
X144718182Y-140362909D01*
X144718182Y-140362909D02*
X145087636Y-140362909D01*
X145087636Y-140362909D02*
X145087636Y-140228141D01*
X145087636Y-140228141D02*
X145091303Y-140109279D01*
X145091303Y-140109279D02*
X145112609Y-140029792D01*
X145112609Y-140029792D02*
X145167012Y-139981764D01*
X145167012Y-139981764D02*
X145269971Y-139957280D01*
X145269971Y-139957280D02*
X145436945Y-139948424D01*
X145436945Y-139948424D02*
X145636178Y-139947273D01*
X145636178Y-139947273D02*
X146128656Y-139947273D01*
X146128656Y-139947273D02*
X146242182Y-140155091D01*
X146242182Y-140155091D02*
X146355707Y-140362909D01*
X146355707Y-140362909D02*
X147174941Y-140362909D01*
X147174941Y-140362909D02*
X147074949Y-140189727D01*
X147074949Y-140189727D02*
X147025598Y-140105382D01*
X147025598Y-140105382D02*
X146936156Y-139953661D01*
X146936156Y-139953661D02*
X146813734Y-139746578D01*
X146813734Y-139746578D02*
X146665442Y-139496149D01*
X146665442Y-139496149D02*
X146563266Y-139323812D01*
X146563266Y-139323812D02*
X145780363Y-139323812D01*
X145780363Y-139323812D02*
X145738190Y-139335475D01*
X145738190Y-139335475D02*
X145627677Y-139343778D01*
X145627677Y-139343778D02*
X145474279Y-139346909D01*
X145474279Y-139346909D02*
X145168195Y-139346909D01*
X145168195Y-139346909D02*
X145194731Y-139173727D01*
X145194731Y-139173727D02*
X145214482Y-139031075D01*
X145214482Y-139031075D02*
X145237616Y-138844611D01*
X145237616Y-138844611D02*
X145253145Y-138708691D01*
X145253145Y-138708691D02*
X145285022Y-138416837D01*
X145285022Y-138416837D02*
X145532693Y-138858776D01*
X145532693Y-138858776D02*
X145632753Y-139039302D01*
X145632753Y-139039302D02*
X145713441Y-139188647D01*
X145713441Y-139188647D02*
X145765509Y-139289446D01*
X145765509Y-139289446D02*
X145780363Y-139323812D01*
X145780363Y-139323812D02*
X146563266Y-139323812D01*
X146563266Y-139323812D02*
X146498390Y-139214389D01*
X146498390Y-139214389D02*
X146319689Y-138913314D01*
X146319689Y-138913314D02*
X146296842Y-138874845D01*
X146296842Y-138874845D02*
X145618727Y-137733145D01*
X145618727Y-137733145D02*
X145179953Y-137731845D01*
X145179953Y-137731845D02*
X144741178Y-137730545D01*
X144741178Y-137730545D02*
X144543004Y-139012091D01*
X144543004Y-139012091D02*
X144543004Y-139012091D01*
G36*
X146813734Y-139746578D02*
G01*
X146936156Y-139953661D01*
X147025598Y-140105382D01*
X147074949Y-140189727D01*
X147174941Y-140362909D01*
X146355707Y-140362909D01*
X146242182Y-140155091D01*
X146128656Y-139947273D01*
X145636178Y-139947273D01*
X145436945Y-139948424D01*
X145269971Y-139957280D01*
X145167012Y-139981764D01*
X145112609Y-140029792D01*
X145091303Y-140109279D01*
X145087636Y-140228141D01*
X145087636Y-140362909D01*
X144718182Y-140362909D01*
X144666232Y-140362565D01*
X144504081Y-140356481D01*
X144390261Y-140344366D01*
X144346779Y-140328273D01*
X144346842Y-140326102D01*
X144354973Y-140261413D01*
X144375304Y-140119071D01*
X144406053Y-139911021D01*
X144445440Y-139649210D01*
X144491482Y-139346909D01*
X145168195Y-139346909D01*
X145474279Y-139346909D01*
X145627677Y-139343778D01*
X145738190Y-139335475D01*
X145780363Y-139323812D01*
X145765509Y-139289446D01*
X145713441Y-139188647D01*
X145632753Y-139039302D01*
X145532693Y-138858776D01*
X145285022Y-138416837D01*
X145253145Y-138708691D01*
X145237616Y-138844611D01*
X145214482Y-139031075D01*
X145194731Y-139173727D01*
X145168195Y-139346909D01*
X144491482Y-139346909D01*
X144491684Y-139345584D01*
X144543004Y-139012091D01*
X144741178Y-137730545D01*
X145179953Y-137731845D01*
X145618727Y-137733145D01*
X146296842Y-138874845D01*
X146319689Y-138913314D01*
X146498390Y-139214389D01*
X146563266Y-139323812D01*
X146665442Y-139496149D01*
X146813734Y-139746578D01*
G37*
X146813734Y-139746578D02*
X146936156Y-139953661D01*
X147025598Y-140105382D01*
X147074949Y-140189727D01*
X147174941Y-140362909D01*
X146355707Y-140362909D01*
X146242182Y-140155091D01*
X146128656Y-139947273D01*
X145636178Y-139947273D01*
X145436945Y-139948424D01*
X145269971Y-139957280D01*
X145167012Y-139981764D01*
X145112609Y-140029792D01*
X145091303Y-140109279D01*
X145087636Y-140228141D01*
X145087636Y-140362909D01*
X144718182Y-140362909D01*
X144666232Y-140362565D01*
X144504081Y-140356481D01*
X144390261Y-140344366D01*
X144346779Y-140328273D01*
X144346842Y-140326102D01*
X144354973Y-140261413D01*
X144375304Y-140119071D01*
X144406053Y-139911021D01*
X144445440Y-139649210D01*
X144491482Y-139346909D01*
X145168195Y-139346909D01*
X145474279Y-139346909D01*
X145627677Y-139343778D01*
X145738190Y-139335475D01*
X145780363Y-139323812D01*
X145765509Y-139289446D01*
X145713441Y-139188647D01*
X145632753Y-139039302D01*
X145532693Y-138858776D01*
X145285022Y-138416837D01*
X145253145Y-138708691D01*
X145237616Y-138844611D01*
X145214482Y-139031075D01*
X145194731Y-139173727D01*
X145168195Y-139346909D01*
X144491482Y-139346909D01*
X144491684Y-139345584D01*
X144543004Y-139012091D01*
X144741178Y-137730545D01*
X145179953Y-137731845D01*
X145618727Y-137733145D01*
X146296842Y-138874845D01*
X146319689Y-138913314D01*
X146498390Y-139214389D01*
X146563266Y-139323812D01*
X146665442Y-139496149D01*
X146813734Y-139746578D01*
X130727597Y-139904602D02*
X130621408Y-140600841D01*
X130621408Y-140600841D02*
X130205640Y-139904602D01*
X130205640Y-139904602D02*
X129789872Y-139208364D01*
X129789872Y-139208364D02*
X129310754Y-139208364D01*
X129310754Y-139208364D02*
X129091070Y-139210496D01*
X129091070Y-139210496D02*
X128948626Y-139218354D01*
X128948626Y-139218354D02*
X128868367Y-139234130D01*
X128868367Y-139234130D02*
X128835237Y-139260015D01*
X128835237Y-139260015D02*
X128831636Y-139278106D01*
X128831636Y-139278106D02*
X128841139Y-139337828D01*
X128841139Y-139337828D02*
X128867543Y-139473066D01*
X128867543Y-139473066D02*
X128907689Y-139669175D01*
X128907689Y-139669175D02*
X128958417Y-139911513D01*
X128958417Y-139911513D02*
X129016570Y-140185436D01*
X129016570Y-140185436D02*
X129078988Y-140476300D01*
X129078988Y-140476300D02*
X129142513Y-140769462D01*
X129142513Y-140769462D02*
X129203985Y-141050277D01*
X129203985Y-141050277D02*
X129260246Y-141304103D01*
X129260246Y-141304103D02*
X129308137Y-141516296D01*
X129308137Y-141516296D02*
X129344500Y-141672213D01*
X129344500Y-141672213D02*
X129366175Y-141757209D01*
X129366175Y-141757209D02*
X129366994Y-141759909D01*
X129366994Y-141759909D02*
X129394810Y-141802391D01*
X129394810Y-141802391D02*
X129458725Y-141827112D01*
X129458725Y-141827112D02*
X129578543Y-141838418D01*
X129578543Y-141838418D02*
X129735294Y-141840727D01*
X129735294Y-141840727D02*
X129928430Y-141835228D01*
X129928430Y-141835228D02*
X130039274Y-141817666D01*
X130039274Y-141817666D02*
X130077303Y-141786442D01*
X130077303Y-141786442D02*
X130077480Y-141783000D01*
X130077480Y-141783000D02*
X130067357Y-141719748D01*
X130067357Y-141719748D02*
X130040157Y-141583589D01*
X130040157Y-141583589D02*
X129999470Y-141391635D01*
X129999470Y-141391635D02*
X129948884Y-141161002D01*
X129948884Y-141161002D02*
X129920103Y-141032545D01*
X129920103Y-141032545D02*
X129866842Y-140793404D01*
X129866842Y-140793404D02*
X129822589Y-140588724D01*
X129822589Y-140588724D02*
X129790621Y-140434151D01*
X129790621Y-140434151D02*
X129774216Y-140345336D01*
X129774216Y-140345336D02*
X129773016Y-140330182D01*
X129773016Y-140330182D02*
X129798338Y-140364785D01*
X129798338Y-140364785D02*
X129863403Y-140466876D01*
X129863403Y-140466876D02*
X129960831Y-140624503D01*
X129960831Y-140624503D02*
X130083240Y-140825714D01*
X130083240Y-140825714D02*
X130223251Y-141058559D01*
X130223251Y-141058559D02*
X130236450Y-141080636D01*
X130236450Y-141080636D02*
X130690659Y-141840727D01*
X130690659Y-141840727D02*
X131034581Y-141840727D01*
X131034581Y-141840727D02*
X131137359Y-141159545D01*
X131137359Y-141159545D02*
X131175344Y-140914753D01*
X131175344Y-140914753D02*
X131210744Y-140699300D01*
X131210744Y-140699300D02*
X131240441Y-140531255D01*
X131240441Y-140531255D02*
X131261316Y-140428688D01*
X131261316Y-140428688D02*
X131266851Y-140409091D01*
X131266851Y-140409091D02*
X131277154Y-140380267D01*
X131277154Y-140380267D02*
X131285820Y-140364341D01*
X131285820Y-140364341D02*
X131296022Y-140372395D01*
X131296022Y-140372395D02*
X131310934Y-140415510D01*
X131310934Y-140415510D02*
X131333728Y-140504770D01*
X131333728Y-140504770D02*
X131367577Y-140651256D01*
X131367577Y-140651256D02*
X131415654Y-140866051D01*
X131415654Y-140866051D02*
X131478406Y-141148000D01*
X131478406Y-141148000D02*
X131627621Y-141817636D01*
X131627621Y-141817636D02*
X131990057Y-141831224D01*
X131990057Y-141831224D02*
X132170755Y-141836885D01*
X132170755Y-141836885D02*
X132276833Y-141833859D01*
X132276833Y-141833859D02*
X132325951Y-141817309D01*
X132325951Y-141817309D02*
X132335772Y-141782399D01*
X132335772Y-141782399D02*
X132327407Y-141738860D01*
X132327407Y-141738860D02*
X132311029Y-141666622D01*
X132311029Y-141666622D02*
X132277701Y-141517221D01*
X132277701Y-141517221D02*
X132230313Y-141303699D01*
X132230313Y-141303699D02*
X132171756Y-141039101D01*
X132171756Y-141039101D02*
X132104920Y-140736471D01*
X132104920Y-140736471D02*
X132035292Y-140420636D01*
X132035292Y-140420636D02*
X131768262Y-139208364D01*
X131768262Y-139208364D02*
X130833786Y-139208364D01*
X130833786Y-139208364D02*
X130727597Y-139904602D01*
X130727597Y-139904602D02*
X130727597Y-139904602D01*
G36*
X130205640Y-139904602D02*
G01*
X130621408Y-140600841D01*
X130727597Y-139904602D01*
X130833786Y-139208364D01*
X131768262Y-139208364D01*
X132035292Y-140420636D01*
X132104920Y-140736471D01*
X132171756Y-141039101D01*
X132230313Y-141303699D01*
X132277701Y-141517221D01*
X132311029Y-141666622D01*
X132327407Y-141738860D01*
X132335772Y-141782399D01*
X132325951Y-141817309D01*
X132276833Y-141833859D01*
X132170755Y-141836885D01*
X131990057Y-141831224D01*
X131627621Y-141817636D01*
X131478406Y-141148000D01*
X131415654Y-140866051D01*
X131367577Y-140651256D01*
X131333728Y-140504770D01*
X131310934Y-140415510D01*
X131296022Y-140372395D01*
X131285820Y-140364341D01*
X131277154Y-140380267D01*
X131266851Y-140409091D01*
X131261316Y-140428688D01*
X131240441Y-140531255D01*
X131210744Y-140699300D01*
X131175344Y-140914753D01*
X131137359Y-141159545D01*
X131034581Y-141840727D01*
X130690659Y-141840727D01*
X130236450Y-141080636D01*
X130223251Y-141058559D01*
X130083240Y-140825714D01*
X129960831Y-140624503D01*
X129863403Y-140466876D01*
X129798338Y-140364785D01*
X129773016Y-140330182D01*
X129774216Y-140345336D01*
X129790621Y-140434151D01*
X129822589Y-140588724D01*
X129866842Y-140793404D01*
X129920103Y-141032545D01*
X129948884Y-141161002D01*
X129999470Y-141391635D01*
X130040157Y-141583589D01*
X130067357Y-141719748D01*
X130077480Y-141783000D01*
X130077303Y-141786442D01*
X130039274Y-141817666D01*
X129928430Y-141835228D01*
X129735294Y-141840727D01*
X129578543Y-141838418D01*
X129458725Y-141827112D01*
X129394810Y-141802391D01*
X129366994Y-141759909D01*
X129366175Y-141757209D01*
X129344500Y-141672213D01*
X129308137Y-141516296D01*
X129260246Y-141304103D01*
X129203985Y-141050277D01*
X129142513Y-140769462D01*
X129078988Y-140476300D01*
X129016570Y-140185436D01*
X128958417Y-139911513D01*
X128907689Y-139669175D01*
X128867543Y-139473066D01*
X128841139Y-139337828D01*
X128831636Y-139278106D01*
X128835237Y-139260015D01*
X128868367Y-139234130D01*
X128948626Y-139218354D01*
X129091070Y-139210496D01*
X129310754Y-139208364D01*
X129789872Y-139208364D01*
X130205640Y-139904602D01*
G37*
X130205640Y-139904602D02*
X130621408Y-140600841D01*
X130727597Y-139904602D01*
X130833786Y-139208364D01*
X131768262Y-139208364D01*
X132035292Y-140420636D01*
X132104920Y-140736471D01*
X132171756Y-141039101D01*
X132230313Y-141303699D01*
X132277701Y-141517221D01*
X132311029Y-141666622D01*
X132327407Y-141738860D01*
X132335772Y-141782399D01*
X132325951Y-141817309D01*
X132276833Y-141833859D01*
X132170755Y-141836885D01*
X131990057Y-141831224D01*
X131627621Y-141817636D01*
X131478406Y-141148000D01*
X131415654Y-140866051D01*
X131367577Y-140651256D01*
X131333728Y-140504770D01*
X131310934Y-140415510D01*
X131296022Y-140372395D01*
X131285820Y-140364341D01*
X131277154Y-140380267D01*
X131266851Y-140409091D01*
X131261316Y-140428688D01*
X131240441Y-140531255D01*
X131210744Y-140699300D01*
X131175344Y-140914753D01*
X131137359Y-141159545D01*
X131034581Y-141840727D01*
X130690659Y-141840727D01*
X130236450Y-141080636D01*
X130223251Y-141058559D01*
X130083240Y-140825714D01*
X129960831Y-140624503D01*
X129863403Y-140466876D01*
X129798338Y-140364785D01*
X129773016Y-140330182D01*
X129774216Y-140345336D01*
X129790621Y-140434151D01*
X129822589Y-140588724D01*
X129866842Y-140793404D01*
X129920103Y-141032545D01*
X129948884Y-141161002D01*
X129999470Y-141391635D01*
X130040157Y-141583589D01*
X130067357Y-141719748D01*
X130077480Y-141783000D01*
X130077303Y-141786442D01*
X130039274Y-141817666D01*
X129928430Y-141835228D01*
X129735294Y-141840727D01*
X129578543Y-141838418D01*
X129458725Y-141827112D01*
X129394810Y-141802391D01*
X129366994Y-141759909D01*
X129366175Y-141757209D01*
X129344500Y-141672213D01*
X129308137Y-141516296D01*
X129260246Y-141304103D01*
X129203985Y-141050277D01*
X129142513Y-140769462D01*
X129078988Y-140476300D01*
X129016570Y-140185436D01*
X128958417Y-139911513D01*
X128907689Y-139669175D01*
X128867543Y-139473066D01*
X128841139Y-139337828D01*
X128831636Y-139278106D01*
X128835237Y-139260015D01*
X128868367Y-139234130D01*
X128948626Y-139218354D01*
X129091070Y-139210496D01*
X129310754Y-139208364D01*
X129789872Y-139208364D01*
X130205640Y-139904602D01*
D10*
X191700000Y-80250000D02*
X191700000Y-72250000D01*
D14*
X180900000Y-85250000D02*
X180900000Y-67250000D01*
D10*
X187900000Y-80250000D02*
X191700000Y-80250000D01*
X191700000Y-72250000D02*
X187900000Y-72250000D01*
D14*
X187900000Y-85250000D02*
X180900000Y-85250000D01*
X180900000Y-67250000D02*
X187900000Y-67250000D01*
X187900000Y-67250000D02*
X187900000Y-85250000D01*
D10*
X117965000Y-50060000D02*
X117965000Y-51660000D01*
X125165000Y-47190000D02*
X119235000Y-47190000D01*
X126435000Y-50060000D02*
X126435000Y-51660000D01*
X126435000Y-51660000D02*
X124635000Y-51660000D01*
X124635000Y-51660000D02*
X124635000Y-52600000D01*
X117965000Y-51660000D02*
X119765000Y-51660000D01*
X127965000Y-55340000D02*
X129765000Y-55340000D01*
X136435000Y-56940000D02*
X136435000Y-55340000D01*
X129235000Y-59810000D02*
X135165000Y-59810000D01*
X136435000Y-55340000D02*
X134635000Y-55340000D01*
X127965000Y-56940000D02*
X127965000Y-55340000D01*
X129765000Y-55340000D02*
X129765000Y-54400000D01*
X196500000Y-101275000D02*
X197100000Y-101275000D01*
X195800000Y-99175000D02*
X195800000Y-100575000D01*
X197800000Y-100575000D02*
X197800000Y-99175000D01*
X197100000Y-98475000D02*
X196500000Y-98475000D01*
X197800000Y-99175000D02*
G75*
G03*
X197100000Y-98475000I-699999J1D01*
G01*
X196500000Y-98475000D02*
G75*
G03*
X195800000Y-99175000I-1J-699999D01*
G01*
X195800000Y-100575000D02*
G75*
G03*
X196500000Y-101275000I699999J-1D01*
G01*
X197100000Y-101275000D02*
G75*
G03*
X197800000Y-100575000I1J699999D01*
G01*
X127965000Y-51660000D02*
X129765000Y-51660000D01*
X135165000Y-47190000D02*
X129235000Y-47190000D01*
X136435000Y-50060000D02*
X136435000Y-51660000D01*
X134635000Y-51660000D02*
X134635000Y-52600000D01*
X127965000Y-50060000D02*
X127965000Y-51660000D01*
X136435000Y-51660000D02*
X134635000Y-51660000D01*
X126435000Y-56940000D02*
X126435000Y-55340000D01*
X117965000Y-55340000D02*
X119765000Y-55340000D01*
X126435000Y-55340000D02*
X124635000Y-55340000D01*
X119765000Y-55340000D02*
X119765000Y-54400000D01*
X117965000Y-56940000D02*
X117965000Y-55340000D01*
X119235000Y-59810000D02*
X125165000Y-59810000D01*
X194875000Y-100625000D02*
X194875000Y-99225000D01*
X192875000Y-99225000D02*
X192875000Y-100625000D01*
X194175000Y-98525000D02*
X193575000Y-98525000D01*
X193575000Y-101325000D02*
X194175000Y-101325000D01*
X192875000Y-100625000D02*
G75*
G03*
X193575000Y-101325000I699999J-1D01*
G01*
X194175000Y-101325000D02*
G75*
G03*
X194875000Y-100625000I1J699999D01*
G01*
X193575000Y-98525000D02*
G75*
G03*
X192875000Y-99225000I-1J-699999D01*
G01*
X194875000Y-99225000D02*
G75*
G03*
X194175000Y-98525000I-699999J1D01*
G01*
X112285000Y-80085000D02*
X112285000Y-80150000D01*
X117140000Y-75015000D02*
X115815000Y-75015000D01*
X115815000Y-80150000D02*
X112285000Y-80150000D01*
X115815000Y-74950000D02*
X115815000Y-75015000D01*
X112285000Y-74950000D02*
X112285000Y-75015000D01*
X115815000Y-74950000D02*
X112285000Y-74950000D01*
X115815000Y-80085000D02*
X115815000Y-80150000D01*
X104780000Y-80030000D02*
X104780000Y-83590000D01*
X107440000Y-77490000D02*
X107440000Y-81050000D01*
X104780000Y-90190000D02*
X104780000Y-90760000D01*
X107440000Y-72410000D02*
X107440000Y-75970000D01*
X104780000Y-74950000D02*
X104780000Y-78510000D01*
X107440000Y-90760000D02*
X104780000Y-90760000D01*
X107440000Y-82570000D02*
X107440000Y-86130000D01*
X104780000Y-85110000D02*
X104780000Y-88670000D01*
X104780000Y-70320000D02*
X104780000Y-73430000D01*
X107440000Y-87650000D02*
X107440000Y-90760000D01*
X107440000Y-70320000D02*
X104780000Y-70320000D01*
X107440000Y-70320000D02*
X107440000Y-70890000D01*
X107440000Y-70890000D02*
X108960000Y-70890000D01*
X166200000Y-54300000D02*
X153200000Y-54300000D01*
X161200000Y-54800000D02*
X158200000Y-54800000D01*
X166525000Y-50300000D02*
X152875000Y-50300000D01*
%LPC*%
D15*
X169250000Y-71187500D03*
D16*
X165500000Y-69847500D03*
D17*
X168000000Y-69847500D03*
X170500000Y-69847500D03*
X173000000Y-69847500D03*
D18*
X172450000Y-92000000D03*
X178950000Y-92000000D03*
D19*
X170620000Y-87700000D03*
X180780000Y-87700000D03*
X175700000Y-87700000D03*
D18*
X178950000Y-108000000D03*
X172450000Y-108000000D03*
D19*
X170620000Y-112300000D03*
X180780000Y-112300000D03*
X175700000Y-112300000D03*
D18*
X187450000Y-92000000D03*
X193950000Y-92000000D03*
D19*
X185620000Y-87700000D03*
X195780000Y-87700000D03*
X190700000Y-87700000D03*
D18*
X193950000Y-108000000D03*
X187450000Y-108000000D03*
D19*
X185620000Y-112300000D03*
X195780000Y-112300000D03*
X190700000Y-112300000D03*
D20*
X102500000Y-62500000D03*
D21*
X104900000Y-62500000D03*
X104197056Y-60802944D03*
X102500000Y-60100000D03*
X100100000Y-62500000D03*
X100802944Y-60802944D03*
X100802944Y-64197056D03*
X102500000Y-64900000D03*
X104197056Y-64197056D03*
X175802944Y-64197056D03*
X177500000Y-64900000D03*
X179197056Y-60802944D03*
X179900000Y-62500000D03*
X175100000Y-62500000D03*
X175802944Y-60802944D03*
D20*
X177500000Y-62500000D03*
D21*
X179197056Y-64197056D03*
X177500000Y-60100000D03*
X102500000Y-135100000D03*
X104900000Y-137500000D03*
X104197056Y-139197056D03*
X100802944Y-135802944D03*
X100100000Y-137500000D03*
X102500000Y-139900000D03*
X100802944Y-139197056D03*
D20*
X102500000Y-137500000D03*
D21*
X104197056Y-135802944D03*
D22*
X112500000Y-69840000D03*
X118200000Y-69840000D03*
X121050000Y-68500000D03*
X115350000Y-68500000D03*
X109650000Y-68500000D03*
D21*
X175802944Y-135802944D03*
X175100000Y-137500000D03*
X175802944Y-139197056D03*
X177500000Y-135100000D03*
X179900000Y-137500000D03*
X179197056Y-139197056D03*
D20*
X177500000Y-137500000D03*
D21*
X179197056Y-135802944D03*
X177500000Y-139900000D03*
D15*
X146990000Y-130850000D03*
D23*
X145650000Y-132100000D03*
D24*
X145650000Y-129600000D03*
D15*
X146450000Y-146340000D03*
D25*
X145200000Y-145000000D03*
D17*
X147700000Y-145000000D03*
D15*
X136184000Y-146340000D03*
D25*
X134934000Y-145000000D03*
D17*
X137434000Y-145000000D03*
D15*
X125775000Y-146367500D03*
D25*
X124525000Y-145027500D03*
D17*
X127025000Y-145027500D03*
D18*
X139954000Y-45720000D03*
X142494000Y-45720000D03*
X171330000Y-117600000D03*
X173870000Y-117600000D03*
D15*
X185200000Y-118487500D03*
D16*
X181450000Y-117147500D03*
D17*
X183950000Y-117147500D03*
X186450000Y-117147500D03*
X188950000Y-117147500D03*
D15*
X115217384Y-146340000D03*
D25*
X113967384Y-145000000D03*
D17*
X116467384Y-145000000D03*
D22*
X183060000Y-79100000D03*
X183060000Y-73400000D03*
X184400000Y-70550000D03*
X184400000Y-76250000D03*
X184400000Y-81950000D03*
D26*
X124075000Y-51750000D03*
X122825000Y-51750000D03*
X121575000Y-51750000D03*
X120325000Y-51750000D03*
D27*
X118475000Y-48400000D03*
X125925000Y-48400000D03*
D28*
X130325000Y-55250000D03*
X131575000Y-55250000D03*
X132825000Y-55250000D03*
X134075000Y-55250000D03*
D29*
X128475000Y-58600000D03*
X135925000Y-58600000D03*
D30*
X196800000Y-99225000D03*
D31*
X196800000Y-100525000D03*
D26*
X134075000Y-51750000D03*
X132825000Y-51750000D03*
X131575000Y-51750000D03*
X130325000Y-51750000D03*
D27*
X128475000Y-48400000D03*
X135925000Y-48400000D03*
D28*
X120325000Y-55250000D03*
X121575000Y-55250000D03*
X122825000Y-55250000D03*
X124075000Y-55250000D03*
D29*
X125925000Y-58600000D03*
X118475000Y-58600000D03*
D30*
X193875000Y-99275000D03*
D31*
X193875000Y-100575000D03*
D32*
X116000000Y-75645000D03*
X112100000Y-75645000D03*
X116000000Y-76915000D03*
X112100000Y-76915000D03*
X116000000Y-78185000D03*
X112100000Y-78185000D03*
X116000000Y-79455000D03*
X112100000Y-79455000D03*
D33*
X107765000Y-71650000D03*
X104455000Y-74190000D03*
X107765000Y-76730000D03*
X104455000Y-79270000D03*
X107765000Y-81810000D03*
X104455000Y-84350000D03*
X107765000Y-86890000D03*
X104455000Y-89430000D03*
D34*
X161200000Y-56220000D03*
X158200000Y-56220000D03*
D35*
X154315000Y-52800000D03*
X165085000Y-52800000D03*
M02*
