M48
; DRILL file {KiCad (6.0.0)} date Mon Aug 29 10:29:08 2022
; FORMAT={-:-/ absolute / metric / decimal}
; #@! TF.CreationDate,2022-08-29T10:29:08+02:00
; #@! TF.GenerationSoftware,Kicad,Pcbnew,(6.0.0)
; #@! TF.FileFunction,Plated,1,4,PTH
FMAT,2
METRIC
; #@! TA.AperFunction,Plated,PTH,ViaDrill
T1C0.200
; #@! TA.AperFunction,Plated,PTH,ComponentDrill
T2C0.200
; #@! TA.AperFunction,Plated,PTH,ComponentDrill
T3C0.500
; #@! TA.AperFunction,Plated,PTH,ComponentDrill
T4C1.100
; #@! TA.AperFunction,Plated,PTH,ComponentDrill
T5C1.200
; #@! TA.AperFunction,Plated,PTH,ComponentDrill
T6C1.800
; #@! TA.AperFunction,Plated,PTH,ComponentDrill
T7C2.000
; #@! TA.AperFunction,Plated,PTH,ComponentDrill
T8C3.200
%
G90
G05
T1
X84.836Y-83.312
X84.836Y-88.392
X84.836Y-93.472
X84.836Y-103.632
X84.836Y-108.712
X84.836Y-113.792
X84.836Y-118.872
X86.7Y-102.25
X87.325Y-108.1
X88.29Y-87.757
X88.29Y-89.154
X88.3Y-115.9
X88.325Y-102.65
X88.341Y-85.928
X88.675Y-109.55
X88.875Y-88.443
X89.256Y-85.928
X89.408Y-89.179
X89.916Y-73.152
X89.916Y-78.232
X89.916Y-93.472
X89.916Y-113.792
X89.916Y-123.952
X89.916Y-129.032
X90.7Y-95.54
X91.5Y-115.4
X92.11Y-108.65
X92.29Y-106.52
X93.12Y-111.09
X93.23Y-75.57
X93.67Y-108.04
X93.675Y-101.3
X93.89Y-92.24
X94.793Y-84.099
X94.996Y-62.992
X94.996Y-68.072
X94.996Y-98.552
X94.996Y-123.952
X94.996Y-134.112
X95.0Y-129.03
X95.12Y-114.38
X95.74Y-114.39
X96.75Y-112.95
X97.3Y-100.975
X97.33Y-94.4
X97.75Y-98.15
X97.85Y-94.9
X97.93Y-75.57
X98.02Y-107.98
X98.35Y-99.175
X98.539Y-88.634
X98.6Y-90.125
X98.675Y-129.725
X98.85Y-98.65
X98.925Y-134.05
X99.0Y-114.0
X99.45Y-129.375
X99.8Y-108.175
X100.076Y-57.912
X100.076Y-68.072
X100.076Y-73.152
X100.076Y-103.632
X100.076Y-118.872
X100.076Y-123.952
X100.076Y-134.112
X100.076Y-139.192
X100.279Y-90.195
X100.7Y-96.025
X100.85Y-80.175
X100.863Y-90.373
X100.863Y-92.35
X101.371Y-88.646
X101.45Y-74.05
X101.75Y-87.7
X102.0Y-114.0
X102.15Y-74.05
X102.387Y-91.415
X102.8Y-96.15
X102.85Y-72.65
X102.85Y-73.3
X102.85Y-74.05
X102.946Y-91.643
X103.2Y-96.7
X103.55Y-72.65
X103.55Y-73.3
X103.6Y-97.25
X105.0Y-92.0
X105.0Y-108.0
X105.156Y-57.912
X105.156Y-68.072
X105.156Y-78.232
X105.156Y-83.312
X105.156Y-88.392
X105.156Y-113.792
X105.156Y-123.952
X105.156Y-129.032
X105.156Y-139.192
X105.156Y-144.272
X105.4Y-87.4
X107.01Y-109.14
X107.2Y-80.8
X107.75Y-82.75
X108.0Y-70.35
X108.1Y-100.1
X108.25Y-111.95
X108.262Y-108.907
X108.3Y-105.125
X109.3Y-75.65
X109.3Y-104.65
X109.325Y-103.1
X110.0Y-81.0
X110.0Y-82.0
X110.22Y-57.9
X110.22Y-129.05
X110.22Y-134.13
X110.224Y-62.968
X110.236Y-93.472
X110.24Y-118.86
X110.25Y-123.95
X110.35Y-125.2
X110.55Y-55.08
X110.95Y-123.3
X111.1Y-98.1
X112.3Y-143.2
X113.0Y-147.0
X114.0Y-111.0
X115.3Y-62.98
X115.316Y-47.752
X115.316Y-57.912
X115.316Y-73.152
X115.316Y-88.392
X115.316Y-113.792
X115.316Y-123.952
X115.32Y-129.05
X115.32Y-134.13
X115.32Y-149.35
X117.0Y-121.4
X117.05Y-123.85
X118.0Y-147.0
X119.8Y-142.6
X120.396Y-47.752
X120.396Y-62.992
X120.396Y-118.872
X120.396Y-129.032
X120.396Y-154.432
X120.4Y-123.95
X120.4Y-134.1
X120.4Y-149.35
X120.5Y-74.85
X121.15Y-74.9
X121.575Y-50.25
X121.85Y-74.9
X122.4Y-53.6
X123.85Y-71.1
X123.85Y-71.65
X123.952Y-53.34
X124.0Y-147.0
X124.4Y-70.55
X124.4Y-71.1
X124.4Y-71.65
X124.95Y-51.75
X124.95Y-70.55
X124.95Y-71.1
X124.95Y-71.65
X125.1Y-55.25
X125.476Y-47.752
X125.476Y-57.912
X125.476Y-123.952
X125.476Y-129.032
X125.476Y-134.112
X125.476Y-154.432
X125.5Y-70.55
X125.5Y-149.35
X126.05Y-70.55
X126.6Y-70.55
X127.15Y-70.55
X127.4Y-67.0
X127.4Y-71.1
X127.4Y-71.65
X128.0Y-147.0
X129.15Y-71.75
X129.4Y-70.15
X129.7Y-71.75
X129.85Y-65.3
X130.0Y-142.6
X130.15Y-70.15
X130.25Y-71.75
X130.5Y-74.35
X130.55Y-129.05
X130.55Y-134.13
X130.556Y-42.672
X130.556Y-47.752
X130.556Y-154.432
X130.57Y-149.35
X130.75Y-139.15
X130.95Y-70.15
X131.575Y-50.425
X131.7Y-70.15
X132.2Y-53.4
X132.4Y-70.15
X133.4Y-69.15
X133.925Y-53.2
X133.975Y-65.325
X134.15Y-64.05
X134.6Y-71.75
X134.875Y-51.8
X135.0Y-147.0
X135.25Y-63.8
X135.25Y-64.5
X135.636Y-42.672
X135.636Y-52.832
X135.636Y-129.032
X135.636Y-154.432
X135.65Y-47.78
X135.65Y-57.9
X135.65Y-149.35
X135.77Y-134.1
X135.95Y-63.8
X135.95Y-64.5
X136.65Y-63.8
X136.65Y-64.5
X137.075Y-68.15
X137.35Y-63.8
X137.35Y-64.5
X138.0Y-147.0
X138.05Y-63.8
X138.176Y-66.802
X138.25Y-71.45
X138.7Y-56.9
X139.3Y-56.9
X139.35Y-68.75
X139.95Y-60.0
X139.95Y-60.7
X139.95Y-61.4
X140.47Y-56.92
X140.5Y-142.6
X140.716Y-42.672
X140.716Y-47.752
X140.716Y-154.432
X140.72Y-149.35
X141.0Y-54.0
X141.05Y-139.15
X141.075Y-56.925
X141.8Y-58.5
X141.8Y-59.2
X141.8Y-59.9
X142.0Y-65.0
X142.5Y-58.5
X142.5Y-59.2
X142.5Y-59.9
X143.2Y-58.5
X143.2Y-59.2
X143.2Y-59.9
X143.9Y-58.5
X143.9Y-59.2
X143.9Y-59.9
X144.0Y-64.0
X144.6Y-58.5
X144.6Y-59.2
X144.6Y-59.9
X145.0Y-147.0
X145.3Y-58.5
X145.3Y-59.2
X145.3Y-59.9
X145.796Y-42.672
X145.796Y-73.152
X145.796Y-154.432
X145.8Y-149.35
X145.9Y-134.1
X146.4Y-62.95
X150.6Y-137.5
X150.6Y-139.2
X150.6Y-144.272
X150.6Y-149.35
X150.7Y-154.432
X150.87Y-68.07
X150.876Y-42.672
X150.876Y-52.832
X150.876Y-57.912
X150.876Y-62.992
X150.876Y-73.152
X153.0Y-124.0
X155.95Y-73.15
X155.956Y-47.752
X155.956Y-52.832
X155.956Y-57.912
X155.956Y-62.992
X155.956Y-68.072
X155.956Y-78.232
X155.956Y-129.032
X155.956Y-134.112
X155.956Y-144.272
X155.956Y-154.432
X159.8Y-58.3
X159.8Y-59.0
X159.8Y-59.7
X160.5Y-58.3
X160.5Y-59.0
X160.5Y-59.7
X161.025Y-73.145
X161.025Y-78.225
X161.036Y-47.752
X161.036Y-52.832
X161.036Y-62.992
X161.036Y-123.952
X161.036Y-134.112
X161.036Y-139.192
X161.036Y-144.272
X161.036Y-149.352
X161.036Y-154.432
X161.2Y-58.3
X161.2Y-59.0
X161.2Y-59.7
X161.9Y-58.3
X161.9Y-59.0
X161.9Y-59.7
X162.6Y-58.3
X162.6Y-59.0
X162.6Y-59.7
X164.0Y-113.0
X166.1Y-68.05
X166.116Y-47.752
X166.116Y-52.832
X166.116Y-62.992
X166.116Y-73.152
X166.116Y-78.232
X166.116Y-88.392
X166.116Y-108.712
X166.116Y-118.872
X166.116Y-123.952
X166.116Y-129.032
X166.116Y-134.112
X166.116Y-139.192
X166.116Y-144.272
X166.12Y-83.325
X171.15Y-103.65
X171.196Y-52.832
X171.196Y-57.912
X171.196Y-62.992
X171.196Y-68.072
X171.196Y-78.232
X171.196Y-83.312
X171.196Y-93.472
X171.196Y-123.952
X171.196Y-129.032
X171.196Y-139.192
X171.196Y-144.272
X171.196Y-149.352
X171.2Y-73.15
X176.27Y-68.05
X176.276Y-57.912
X176.276Y-78.232
X176.276Y-93.472
X176.276Y-108.712
X176.276Y-118.872
X176.276Y-123.952
X176.276Y-129.032
X176.276Y-134.112
X176.276Y-144.272
X176.3Y-103.65
X181.35Y-103.65
X181.35Y-118.85
X181.356Y-62.992
X181.356Y-68.072
X181.356Y-83.312
X181.356Y-93.472
X181.356Y-108.712
X181.356Y-123.952
X181.356Y-134.112
X181.356Y-139.192
X186.436Y-68.072
X186.436Y-73.152
X186.436Y-78.232
X186.436Y-83.312
X186.436Y-93.472
X186.436Y-98.552
X186.436Y-103.632
X186.436Y-123.952
X186.436Y-129.032
X186.436Y-134.112
X189.1Y-110.275
X189.765Y-90.985
X191.3Y-118.8
X191.516Y-73.152
X191.516Y-78.232
X191.516Y-83.312
X191.516Y-98.552
X191.516Y-103.632
X191.516Y-108.712
X191.516Y-113.792
X191.516Y-123.952
X192.75Y-117.7
X196.596Y-93.472
X196.596Y-113.792
X197.0Y-110.6
T2
X94.855Y-74.695
X94.855Y-75.945
X96.105Y-74.695
X96.105Y-75.945
X98.05Y-131.275
X98.05Y-132.525
X99.3Y-131.275
X99.3Y-132.525
T3
X100.1Y-62.5
X100.1Y-137.5
X100.803Y-60.803
X100.803Y-64.197
X100.803Y-135.803
X100.803Y-139.197
X102.5Y-60.1
X102.5Y-64.9
X102.5Y-135.1
X102.5Y-139.9
X104.197Y-60.803
X104.197Y-64.197
X104.197Y-135.803
X104.197Y-139.197
X104.9Y-62.5
X104.9Y-137.5
X175.1Y-62.5
X175.1Y-137.5
X175.803Y-60.803
X175.803Y-64.197
X175.803Y-135.803
X175.803Y-139.197
X177.5Y-60.1
X177.5Y-64.9
X177.5Y-135.1
X177.5Y-139.9
X179.197Y-60.803
X179.197Y-64.197
X179.197Y-135.803
X179.197Y-139.197
X179.9Y-62.5
X179.9Y-137.5
T4
X139.954Y-45.72
X142.494Y-45.72
X171.33Y-117.6
X173.87Y-117.6
T5
X113.967Y-145.0
X116.467Y-145.0
X124.525Y-145.028
X127.025Y-145.028
X134.934Y-145.0
X137.434Y-145.0
X145.2Y-145.0
X145.65Y-129.6
X145.65Y-132.1
X147.7Y-145.0
X165.5Y-69.847
X168.0Y-69.847
X170.5Y-69.847
X170.62Y-87.7
X170.62Y-112.3
X173.0Y-69.847
X175.7Y-87.7
X175.7Y-112.3
X180.78Y-87.7
X180.78Y-112.3
X181.45Y-117.147
X183.95Y-117.147
X185.62Y-87.7
X185.62Y-112.3
X186.45Y-117.147
X188.95Y-117.147
X190.7Y-87.7
X190.7Y-112.3
X195.78Y-87.7
X195.78Y-112.3
T6
X109.65Y-68.5
X115.35Y-68.5
X121.05Y-68.5
X184.4Y-70.55
X184.4Y-76.25
X184.4Y-81.95
T7
X172.45Y-92.0
X172.45Y-108.0
X178.95Y-92.0
X178.95Y-108.0
X187.45Y-92.0
X187.45Y-108.0
X193.95Y-92.0
X193.95Y-108.0
T8
X102.5Y-62.5
X102.5Y-137.5
X177.5Y-62.5
X177.5Y-137.5
T0
M30
