%TF.GenerationSoftware,KiCad,Pcbnew,5.1.5+dfsg1-2build2*%
%TF.CreationDate,2021-12-22T23:08:46+01:00*%
%TF.ProjectId,uHoubolt_PCB_PMU,75486f75-626f-46c7-945f-5043425f504d,rev?*%
%TF.SameCoordinates,PX8583b00PY5f5e100*%
%TF.FileFunction,Soldermask,Bot*%
%TF.FilePolarity,Negative*%
%FSLAX46Y46*%
G04 Gerber Fmt 4.6, Leading zero omitted, Abs format (unit mm)*
G04 Created by KiCad (PCBNEW 5.1.5+dfsg1-2build2) date 2021-12-22 23:08:46*
%MOMM*%
%LPD*%
G04 APERTURE LIST*
%ADD10C,2.000000*%
%ADD11C,0.100000*%
%ADD12C,3.000000*%
%ADD13C,2.500000*%
%ADD14C,2.800000*%
%ADD15C,0.800000*%
%ADD16C,6.400000*%
%ADD17O,1.700000X1.700000*%
%ADD18R,1.700000X1.700000*%
%ADD19O,2.200000X1.700000*%
%ADD20C,1.300000*%
G04 APERTURE END LIST*
D10*
%TO.C,J8*%
X-14500000Y48730000D03*
X-14500000Y51270000D03*
%TD*%
D11*
%TO.C,JP1*%
G36*
X25949009Y33397592D02*
G01*
X25997545Y33390393D01*
X26045142Y33378470D01*
X26091342Y33361940D01*
X26135698Y33340961D01*
X26177785Y33315735D01*
X26217197Y33286505D01*
X26253553Y33253553D01*
X26286505Y33217197D01*
X26315735Y33177785D01*
X26340961Y33135698D01*
X26361940Y33091342D01*
X26378470Y33045142D01*
X26390393Y32997545D01*
X26397592Y32949009D01*
X26400000Y32900000D01*
X26400000Y31900000D01*
X26397592Y31850991D01*
X26390393Y31802455D01*
X26378470Y31754858D01*
X26361940Y31708658D01*
X26340961Y31664302D01*
X26315735Y31622215D01*
X26286505Y31582803D01*
X26253553Y31546447D01*
X26217197Y31513495D01*
X26177785Y31484265D01*
X26135698Y31459039D01*
X26091342Y31438060D01*
X26045142Y31421530D01*
X25997545Y31409607D01*
X25949009Y31402408D01*
X25900000Y31400000D01*
X20900000Y31400000D01*
X20850991Y31402408D01*
X20802455Y31409607D01*
X20754858Y31421530D01*
X20708658Y31438060D01*
X20664302Y31459039D01*
X20622215Y31484265D01*
X20582803Y31513495D01*
X20546447Y31546447D01*
X20513495Y31582803D01*
X20484265Y31622215D01*
X20459039Y31664302D01*
X20438060Y31708658D01*
X20421530Y31754858D01*
X20409607Y31802455D01*
X20402408Y31850991D01*
X20400000Y31900000D01*
X20400000Y32900000D01*
X20402408Y32949009D01*
X20409607Y32997545D01*
X20421530Y33045142D01*
X20438060Y33091342D01*
X20459039Y33135698D01*
X20484265Y33177785D01*
X20513495Y33217197D01*
X20546447Y33253553D01*
X20582803Y33286505D01*
X20622215Y33315735D01*
X20664302Y33340961D01*
X20708658Y33361940D01*
X20754858Y33378470D01*
X20802455Y33390393D01*
X20850991Y33397592D01*
X20900000Y33400000D01*
X25900000Y33400000D01*
X25949009Y33397592D01*
G37*
G36*
X25949009Y37997592D02*
G01*
X25997545Y37990393D01*
X26045142Y37978470D01*
X26091342Y37961940D01*
X26135698Y37940961D01*
X26177785Y37915735D01*
X26217197Y37886505D01*
X26253553Y37853553D01*
X26286505Y37817197D01*
X26315735Y37777785D01*
X26340961Y37735698D01*
X26361940Y37691342D01*
X26378470Y37645142D01*
X26390393Y37597545D01*
X26397592Y37549009D01*
X26400000Y37500000D01*
X26400000Y36500000D01*
X26397592Y36450991D01*
X26390393Y36402455D01*
X26378470Y36354858D01*
X26361940Y36308658D01*
X26340961Y36264302D01*
X26315735Y36222215D01*
X26286505Y36182803D01*
X26253553Y36146447D01*
X26217197Y36113495D01*
X26177785Y36084265D01*
X26135698Y36059039D01*
X26091342Y36038060D01*
X26045142Y36021530D01*
X25997545Y36009607D01*
X25949009Y36002408D01*
X25900000Y36000000D01*
X20900000Y36000000D01*
X20850991Y36002408D01*
X20802455Y36009607D01*
X20754858Y36021530D01*
X20708658Y36038060D01*
X20664302Y36059039D01*
X20622215Y36084265D01*
X20582803Y36113495D01*
X20546447Y36146447D01*
X20513495Y36182803D01*
X20484265Y36222215D01*
X20459039Y36264302D01*
X20438060Y36308658D01*
X20421530Y36354858D01*
X20409607Y36402455D01*
X20402408Y36450991D01*
X20400000Y36500000D01*
X20400000Y37500000D01*
X20402408Y37549009D01*
X20409607Y37597545D01*
X20421530Y37645142D01*
X20438060Y37691342D01*
X20459039Y37735698D01*
X20484265Y37777785D01*
X20513495Y37817197D01*
X20546447Y37853553D01*
X20582803Y37886505D01*
X20622215Y37915735D01*
X20664302Y37940961D01*
X20708658Y37961940D01*
X20754858Y37978470D01*
X20802455Y37990393D01*
X20850991Y37997592D01*
X20900000Y38000000D01*
X25900000Y38000000D01*
X25949009Y37997592D01*
G37*
G36*
X25949009Y35697592D02*
G01*
X25997545Y35690393D01*
X26045142Y35678470D01*
X26091342Y35661940D01*
X26135698Y35640961D01*
X26177785Y35615735D01*
X26217197Y35586505D01*
X26253553Y35553553D01*
X26286505Y35517197D01*
X26315735Y35477785D01*
X26340961Y35435698D01*
X26361940Y35391342D01*
X26378470Y35345142D01*
X26390393Y35297545D01*
X26397592Y35249009D01*
X26400000Y35200000D01*
X26400000Y34200000D01*
X26397592Y34150991D01*
X26390393Y34102455D01*
X26378470Y34054858D01*
X26361940Y34008658D01*
X26340961Y33964302D01*
X26315735Y33922215D01*
X26286505Y33882803D01*
X26253553Y33846447D01*
X26217197Y33813495D01*
X26177785Y33784265D01*
X26135698Y33759039D01*
X26091342Y33738060D01*
X26045142Y33721530D01*
X25997545Y33709607D01*
X25949009Y33702408D01*
X25900000Y33700000D01*
X20900000Y33700000D01*
X20850991Y33702408D01*
X20802455Y33709607D01*
X20754858Y33721530D01*
X20708658Y33738060D01*
X20664302Y33759039D01*
X20622215Y33784265D01*
X20582803Y33813495D01*
X20546447Y33846447D01*
X20513495Y33882803D01*
X20484265Y33922215D01*
X20459039Y33964302D01*
X20438060Y34008658D01*
X20421530Y34054858D01*
X20409607Y34102455D01*
X20402408Y34150991D01*
X20400000Y34200000D01*
X20400000Y35200000D01*
X20402408Y35249009D01*
X20409607Y35297545D01*
X20421530Y35345142D01*
X20438060Y35391342D01*
X20459039Y35435698D01*
X20484265Y35477785D01*
X20513495Y35517197D01*
X20546447Y35553553D01*
X20582803Y35586505D01*
X20622215Y35615735D01*
X20664302Y35640961D01*
X20708658Y35661940D01*
X20754858Y35678470D01*
X20802455Y35690393D01*
X20850991Y35697592D01*
X20900000Y35700000D01*
X25900000Y35700000D01*
X25949009Y35697592D01*
G37*
%TD*%
D12*
%TO.C,J3*%
X19500000Y47000000D03*
X25200000Y47000000D03*
X13800000Y47000000D03*
X22350000Y45660000D03*
X16650000Y45660000D03*
%TD*%
D13*
%TO.C,SW1*%
X40780000Y12300000D03*
X30620000Y12300000D03*
X35700000Y12300000D03*
D10*
X32450000Y8000000D03*
X38950000Y8000000D03*
%TD*%
D13*
%TO.C,SW3*%
X55780000Y12300000D03*
X45620000Y12300000D03*
X50700000Y12300000D03*
D10*
X47450000Y8000000D03*
X53950000Y8000000D03*
%TD*%
D13*
%TO.C,SW2*%
X30620000Y-12300000D03*
X40780000Y-12300000D03*
X35700000Y-12300000D03*
D10*
X32450000Y-8000000D03*
X38950000Y-8000000D03*
%TD*%
D13*
%TO.C,SW4*%
X45620000Y-12300000D03*
X55780000Y-12300000D03*
X50700000Y-12300000D03*
D10*
X47450000Y-8000000D03*
X53950000Y-8000000D03*
%TD*%
D14*
%TO.C,U5*%
X-25700000Y30500000D03*
X-20000000Y30500000D03*
X-14300000Y30500000D03*
D15*
X-5697056Y28302944D03*
X-2302944Y28302944D03*
X-5697056Y31697056D03*
X-6400000Y30000000D03*
X-4000000Y27600000D03*
X-1600000Y30000000D03*
X-4000000Y32400000D03*
D16*
X-4000000Y30000000D03*
D15*
X-2302944Y31697056D03*
X-5697056Y-33697056D03*
X-2302944Y-33697056D03*
X-5697056Y-30302944D03*
X-6400000Y-32000000D03*
X-4000000Y-34400000D03*
X-1600000Y-32000000D03*
X-4000000Y-29600000D03*
D16*
X-4000000Y-32000000D03*
D15*
X-2302944Y-30302944D03*
X-37697056Y-33697056D03*
X-34302944Y-33697056D03*
X-37697056Y-30302944D03*
X-38400000Y-32000000D03*
X-36000000Y-34400000D03*
X-33600000Y-32000000D03*
X-36000000Y-29600000D03*
D16*
X-36000000Y-32000000D03*
D15*
X-34302944Y-30302944D03*
X-37697056Y28302944D03*
X-34302944Y28302944D03*
X-37697056Y31697056D03*
X-38400000Y30000000D03*
X-36000000Y27600000D03*
X-33600000Y30000000D03*
X-36000000Y32400000D03*
D16*
X-36000000Y30000000D03*
D15*
X-34302944Y31697056D03*
%TD*%
D17*
%TO.C,TH1*%
X29200000Y23500000D03*
D18*
X26660000Y23500000D03*
%TD*%
D10*
%TO.C,J7*%
X-7350000Y37680000D03*
X-7350000Y40220000D03*
%TD*%
%TO.C,J6*%
X-350000Y37680000D03*
X-350000Y40220000D03*
%TD*%
%TO.C,J4*%
X6650000Y37680000D03*
X6650000Y40220000D03*
%TD*%
D11*
%TO.C,J2*%
G36*
X25901227Y26854804D02*
G01*
X25854329Y26869030D01*
X25811107Y26892133D01*
X25773223Y26923223D01*
X25742133Y26961107D01*
X25719030Y27004329D01*
X25704804Y27051227D01*
X25700000Y27100000D01*
X25700000Y28300000D01*
X25704804Y28348773D01*
X25719030Y28395671D01*
X25742133Y28438893D01*
X25773223Y28476777D01*
X25811107Y28507867D01*
X25854329Y28530970D01*
X25901227Y28545196D01*
X25950000Y28550000D01*
X27250000Y28550000D01*
X27298773Y28545196D01*
X27345671Y28530970D01*
X27388893Y28507867D01*
X27426777Y28476777D01*
X27826777Y28076777D01*
X27857867Y28038893D01*
X27880970Y27995671D01*
X27895196Y27948773D01*
X27900000Y27900000D01*
X27900000Y27100000D01*
X27895196Y27051227D01*
X27880970Y27004329D01*
X27857867Y26961107D01*
X27826777Y26923223D01*
X27788893Y26892133D01*
X27745671Y26869030D01*
X27698773Y26854804D01*
X27650000Y26850000D01*
X25950000Y26850000D01*
X25901227Y26854804D01*
G37*
D19*
X26800000Y30200000D03*
D20*
X28140000Y28950000D03*
%TD*%
D11*
%TO.C,J1*%
G36*
X-19251227Y50495196D02*
G01*
X-19204329Y50480970D01*
X-19161107Y50457867D01*
X-19123223Y50426777D01*
X-19092133Y50388893D01*
X-19069030Y50345671D01*
X-19054804Y50298773D01*
X-19050000Y50250000D01*
X-19050000Y49050000D01*
X-19054804Y49001227D01*
X-19069030Y48954329D01*
X-19092133Y48911107D01*
X-19123223Y48873223D01*
X-19161107Y48842133D01*
X-19204329Y48819030D01*
X-19251227Y48804804D01*
X-19300000Y48800000D01*
X-21000000Y48800000D01*
X-21048773Y48804804D01*
X-21095671Y48819030D01*
X-21138893Y48842133D01*
X-21176777Y48873223D01*
X-21207867Y48911107D01*
X-21230970Y48954329D01*
X-21245196Y49001227D01*
X-21250000Y49050000D01*
X-21250000Y49850000D01*
X-21245196Y49898773D01*
X-21230970Y49945671D01*
X-21207867Y49988893D01*
X-21176777Y50026777D01*
X-20776777Y50426777D01*
X-20738893Y50457867D01*
X-20695671Y50480970D01*
X-20648773Y50495196D01*
X-20600000Y50500000D01*
X-19300000Y50500000D01*
X-19251227Y50495196D01*
G37*
D19*
X-20150000Y52150000D03*
D20*
X-21490000Y50900000D03*
%TD*%
D15*
%TO.C,H4*%
X32697056Y-38302944D03*
X31000000Y-37600000D03*
X29302944Y-38302944D03*
X28600000Y-40000000D03*
X29302944Y-41697056D03*
X31000000Y-42400000D03*
X32697056Y-41697056D03*
X33400000Y-40000000D03*
D16*
X31000000Y-40000000D03*
%TD*%
D15*
%TO.C,H3*%
X-29302944Y-38302944D03*
X-31000000Y-37600000D03*
X-32697056Y-38302944D03*
X-33400000Y-40000000D03*
X-32697056Y-41697056D03*
X-31000000Y-42400000D03*
X-29302944Y-41697056D03*
X-28600000Y-40000000D03*
D16*
X-31000000Y-40000000D03*
%TD*%
D15*
%TO.C,H2*%
X32697056Y41697056D03*
X31000000Y42400000D03*
X29302944Y41697056D03*
X28600000Y40000000D03*
X29302944Y38302944D03*
X31000000Y37600000D03*
X32697056Y38302944D03*
X33400000Y40000000D03*
D16*
X31000000Y40000000D03*
%TD*%
D15*
%TO.C,H1*%
X-29302944Y41697056D03*
X-31000000Y42400000D03*
X-32697056Y41697056D03*
X-33400000Y40000000D03*
X-32697056Y38302944D03*
X-31000000Y37600000D03*
X-29302944Y38302944D03*
X-28600000Y40000000D03*
D16*
X-31000000Y40000000D03*
%TD*%
M02*
