G04 #@! TF.GenerationSoftware,KiCad,Pcbnew,(6.0.0)*
G04 #@! TF.CreationDate,2022-08-29T10:28:43+02:00*
G04 #@! TF.ProjectId,uHoubolt_PCB_PMU,75486f75-626f-46c7-945f-5043425f504d,rev?*
G04 #@! TF.SameCoordinates,Original*
G04 #@! TF.FileFunction,Paste,Top*
G04 #@! TF.FilePolarity,Positive*
%FSLAX46Y46*%
G04 Gerber Fmt 4.6, Leading zero omitted, Abs format (unit mm)*
G04 Created by KiCad (PCBNEW (6.0.0)) date 2022-08-29 10:28:43*
%MOMM*%
%LPD*%
G01*
G04 APERTURE LIST*
G04 Aperture macros list*
%AMRoundRect*
0 Rectangle with rounded corners*
0 $1 Rounding radius*
0 $2 $3 $4 $5 $6 $7 $8 $9 X,Y pos of 4 corners*
0 Add a 4 corners polygon primitive as box body*
4,1,4,$2,$3,$4,$5,$6,$7,$8,$9,$2,$3,0*
0 Add four circle primitives for the rounded corners*
1,1,$1+$1,$2,$3*
1,1,$1+$1,$4,$5*
1,1,$1+$1,$6,$7*
1,1,$1+$1,$8,$9*
0 Add four rect primitives between the rounded corners*
20,1,$1+$1,$2,$3,$4,$5,0*
20,1,$1+$1,$4,$5,$6,$7,0*
20,1,$1+$1,$6,$7,$8,$9,0*
20,1,$1+$1,$8,$9,$2,$3,0*%
G04 Aperture macros list end*
%ADD10RoundRect,0.075000X0.650000X0.075000X-0.650000X0.075000X-0.650000X-0.075000X0.650000X-0.075000X0*%
%ADD11RoundRect,0.218750X-0.256250X0.218750X-0.256250X-0.218750X0.256250X-0.218750X0.256250X0.218750X0*%
%ADD12RoundRect,0.150000X0.512500X0.150000X-0.512500X0.150000X-0.512500X-0.150000X0.512500X-0.150000X0*%
%ADD13RoundRect,0.218750X0.256250X-0.218750X0.256250X0.218750X-0.256250X0.218750X-0.256250X-0.218750X0*%
%ADD14RoundRect,0.147500X-0.172500X0.147500X-0.172500X-0.147500X0.172500X-0.147500X0.172500X0.147500X0*%
%ADD15RoundRect,0.243750X0.456250X-0.243750X0.456250X0.243750X-0.456250X0.243750X-0.456250X-0.243750X0*%
%ADD16R,1.100000X1.100000*%
%ADD17R,1.000000X0.340000*%
%ADD18R,0.500000X1.640000*%
%ADD19R,1.710000X2.290000*%
%ADD20RoundRect,0.218750X0.218750X0.256250X-0.218750X0.256250X-0.218750X-0.256250X0.218750X-0.256250X0*%
%ADD21RoundRect,0.218750X-0.218750X-0.256250X0.218750X-0.256250X0.218750X0.256250X-0.218750X0.256250X0*%
%ADD22RoundRect,0.250000X-0.625000X0.375000X-0.625000X-0.375000X0.625000X-0.375000X0.625000X0.375000X0*%
%ADD23R,1.640000X0.500000*%
%ADD24R,0.340000X1.000000*%
%ADD25R,2.290000X1.710000*%
%ADD26RoundRect,0.147500X0.147500X0.172500X-0.147500X0.172500X-0.147500X-0.172500X0.147500X-0.172500X0*%
%ADD27RoundRect,0.200000X-0.275000X0.200000X-0.275000X-0.200000X0.275000X-0.200000X0.275000X0.200000X0*%
%ADD28RoundRect,0.225000X0.250000X-0.225000X0.250000X0.225000X-0.250000X0.225000X-0.250000X-0.225000X0*%
%ADD29RoundRect,0.140000X0.170000X-0.140000X0.170000X0.140000X-0.170000X0.140000X-0.170000X-0.140000X0*%
%ADD30RoundRect,0.200000X0.200000X0.275000X-0.200000X0.275000X-0.200000X-0.275000X0.200000X-0.275000X0*%
%ADD31RoundRect,0.200000X0.275000X-0.200000X0.275000X0.200000X-0.275000X0.200000X-0.275000X-0.200000X0*%
%ADD32R,4.200000X2.000000*%
%ADD33RoundRect,0.250000X-0.250000X-0.475000X0.250000X-0.475000X0.250000X0.475000X-0.250000X0.475000X0*%
%ADD34RoundRect,0.200000X-0.200000X-0.275000X0.200000X-0.275000X0.200000X0.275000X-0.200000X0.275000X0*%
%ADD35RoundRect,0.225000X0.225000X0.250000X-0.225000X0.250000X-0.225000X-0.250000X0.225000X-0.250000X0*%
%ADD36R,0.990000X0.405000*%
%ADD37R,0.760000X0.405000*%
%ADD38R,1.725000X2.245000*%
%ADD39RoundRect,0.250000X-0.475000X0.250000X-0.475000X-0.250000X0.475000X-0.250000X0.475000X0.250000X0*%
%ADD40RoundRect,0.140000X0.140000X0.170000X-0.140000X0.170000X-0.140000X-0.170000X0.140000X-0.170000X0*%
%ADD41RoundRect,0.150000X-0.587500X-0.150000X0.587500X-0.150000X0.587500X0.150000X-0.587500X0.150000X0*%
%ADD42RoundRect,0.225000X-0.225000X-0.250000X0.225000X-0.250000X0.225000X0.250000X-0.225000X0.250000X0*%
%ADD43R,1.000000X0.500000*%
%ADD44R,3.500000X4.500000*%
%ADD45RoundRect,0.190000X-0.190000X0.190000X-0.190000X-0.190000X0.190000X-0.190000X0.190000X0.190000X0*%
%ADD46RoundRect,0.062500X-0.062500X0.325000X-0.062500X-0.325000X0.062500X-0.325000X0.062500X0.325000X0*%
%ADD47RoundRect,0.062500X-0.325000X0.062500X-0.325000X-0.062500X0.325000X-0.062500X0.325000X0.062500X0*%
%ADD48RoundRect,0.225000X-0.250000X0.225000X-0.250000X-0.225000X0.250000X-0.225000X0.250000X0.225000X0*%
%ADD49R,1.780000X1.500000*%
%ADD50R,1.400000X4.200000*%
%ADD51R,4.200000X1.400000*%
%ADD52RoundRect,0.050000X-0.150000X-0.230000X0.150000X-0.230000X0.150000X0.230000X-0.150000X0.230000X0*%
%ADD53RoundRect,0.150000X-0.150000X-0.700000X0.150000X-0.700000X0.150000X0.700000X-0.150000X0.700000X0*%
%ADD54RoundRect,0.250000X-0.250000X-1.150000X0.250000X-1.150000X0.250000X1.150000X-0.250000X1.150000X0*%
%ADD55RoundRect,0.100000X0.100000X-0.175000X0.100000X0.175000X-0.100000X0.175000X-0.100000X-0.175000X0*%
%ADD56RoundRect,0.100000X0.175000X-0.100000X0.175000X0.100000X-0.175000X0.100000X-0.175000X-0.100000X0*%
%ADD57R,0.600000X1.000000*%
%ADD58R,0.650000X0.350000*%
%ADD59RoundRect,0.250000X0.250000X0.475000X-0.250000X0.475000X-0.250000X-0.475000X0.250000X-0.475000X0*%
%ADD60RoundRect,0.190000X0.190000X0.190000X-0.190000X0.190000X-0.190000X-0.190000X0.190000X-0.190000X0*%
%ADD61RoundRect,0.062500X0.325000X0.062500X-0.325000X0.062500X-0.325000X-0.062500X0.325000X-0.062500X0*%
%ADD62RoundRect,0.062500X0.062500X0.325000X-0.062500X0.325000X-0.062500X-0.325000X0.062500X-0.325000X0*%
%ADD63R,1.270000X2.540000*%
%ADD64R,3.430000X1.650000*%
%ADD65R,2.540000X1.270000*%
%ADD66R,1.650000X3.430000*%
%ADD67RoundRect,0.140000X-0.140000X-0.170000X0.140000X-0.170000X0.140000X0.170000X-0.140000X0.170000X0*%
%ADD68R,0.405000X0.990000*%
%ADD69R,0.405000X0.760000*%
%ADD70R,2.245000X1.725000*%
%ADD71RoundRect,0.062500X-0.675000X-0.062500X0.675000X-0.062500X0.675000X0.062500X-0.675000X0.062500X0*%
%ADD72RoundRect,0.062500X-0.062500X-0.675000X0.062500X-0.675000X0.062500X0.675000X-0.062500X0.675000X0*%
%ADD73R,2.500000X5.000000*%
%ADD74R,5.000000X2.500000*%
%ADD75RoundRect,0.050000X-0.230000X0.150000X-0.230000X-0.150000X0.230000X-0.150000X0.230000X0.150000X0*%
%ADD76RoundRect,0.150000X0.150000X0.700000X-0.150000X0.700000X-0.150000X-0.700000X0.150000X-0.700000X0*%
%ADD77RoundRect,0.250000X0.250000X1.150000X-0.250000X1.150000X-0.250000X-1.150000X0.250000X-1.150000X0*%
%ADD78RoundRect,0.250000X-0.450000X0.350000X-0.450000X-0.350000X0.450000X-0.350000X0.450000X0.350000X0*%
%ADD79R,1.500000X1.780000*%
%ADD80R,1.000000X0.600000*%
%ADD81R,0.350000X0.650000*%
%ADD82R,1.400000X1.200000*%
%ADD83RoundRect,0.087500X0.087500X-0.187500X0.087500X0.187500X-0.087500X0.187500X-0.087500X-0.187500X0*%
%ADD84RoundRect,0.087500X0.187500X-0.087500X0.187500X0.087500X-0.187500X0.087500X-0.187500X-0.087500X0*%
G04 APERTURE END LIST*
D10*
X135850000Y-72750000D03*
X135850000Y-72250000D03*
X135850000Y-71750000D03*
X135850000Y-71250000D03*
X135850000Y-70750000D03*
X131450000Y-70750000D03*
X131450000Y-71250000D03*
X131450000Y-71750000D03*
X131450000Y-72250000D03*
X131450000Y-72750000D03*
D11*
X128250000Y-71912500D03*
X128250000Y-73487500D03*
D12*
X134187500Y-63500000D03*
X134187500Y-62550000D03*
X134187500Y-61600000D03*
X131912500Y-61600000D03*
X131912500Y-63500000D03*
D13*
X128250000Y-70487500D03*
X128250000Y-68912500D03*
D14*
X129650000Y-73005000D03*
X129650000Y-73975000D03*
D15*
X126300000Y-71537500D03*
X126300000Y-69662500D03*
D16*
X134900000Y-65500000D03*
X137700000Y-65500000D03*
D17*
X138645000Y-63025000D03*
X138645000Y-62375000D03*
X138645000Y-61725000D03*
D18*
X138395000Y-62375000D03*
D17*
X138645000Y-61075000D03*
X135745000Y-62375000D03*
D19*
X136900000Y-62050000D03*
D17*
X135745000Y-61075000D03*
X135745000Y-63025000D03*
X135745000Y-61725000D03*
D20*
X139247500Y-70620000D03*
X137672500Y-70620000D03*
D21*
X137672500Y-72100000D03*
X139247500Y-72100000D03*
D20*
X140337500Y-59050000D03*
X138762500Y-59050000D03*
D22*
X132750000Y-65250000D03*
X132750000Y-68050000D03*
D23*
X129975000Y-69010000D03*
D24*
X129325000Y-69260000D03*
X129975000Y-69260000D03*
X130625000Y-69260000D03*
X131275000Y-69260000D03*
X129325000Y-66360000D03*
X130625000Y-66360000D03*
D25*
X130300000Y-67515000D03*
D24*
X131275000Y-66360000D03*
X129975000Y-66360000D03*
D21*
X136212500Y-67550000D03*
X137787500Y-67550000D03*
D13*
X134700000Y-69087500D03*
X134700000Y-67512500D03*
D20*
X137787500Y-69100000D03*
X136212500Y-69100000D03*
D26*
X130285000Y-64800000D03*
X129315000Y-64800000D03*
D27*
X95750000Y-132000000D03*
X95750000Y-133650000D03*
D28*
X97250000Y-110275000D03*
X97250000Y-108725000D03*
D21*
X141850000Y-136452500D03*
X143425000Y-136452500D03*
D13*
X96300000Y-121287500D03*
X96300000Y-119712500D03*
D29*
X100025000Y-129280000D03*
X100025000Y-128320000D03*
D21*
X121187500Y-136480000D03*
X122762500Y-136480000D03*
D30*
X117075000Y-127650000D03*
X115425000Y-127650000D03*
D31*
X95720000Y-112935000D03*
X95720000Y-111285000D03*
D32*
X106441000Y-125900000D03*
X106441000Y-117900000D03*
D27*
X91500000Y-116675000D03*
X91500000Y-118325000D03*
D33*
X96825000Y-128725000D03*
X98725000Y-128725000D03*
D34*
X121150000Y-138080000D03*
X122800000Y-138080000D03*
D21*
X131584000Y-136452500D03*
X133159000Y-136452500D03*
D35*
X91350000Y-109512500D03*
X89800000Y-109512500D03*
D31*
X112500000Y-125425000D03*
X112500000Y-123775000D03*
D36*
X113787384Y-139242500D03*
D37*
X116772384Y-138582500D03*
X116772384Y-137262500D03*
D38*
X115779884Y-138252500D03*
D37*
X116772384Y-139242500D03*
X116772384Y-137922500D03*
D36*
X113787384Y-138582500D03*
X113787384Y-137262500D03*
X113787384Y-137922500D03*
D39*
X100780000Y-76870000D03*
X100780000Y-78770000D03*
D40*
X99405000Y-134700000D03*
X98445000Y-134700000D03*
D41*
X88826100Y-83276400D03*
X88826100Y-85176400D03*
X90701100Y-84226400D03*
D30*
X114075000Y-127650000D03*
X112425000Y-127650000D03*
D42*
X100190000Y-85598000D03*
X101740000Y-85598000D03*
D43*
X100262500Y-109967500D03*
X100262500Y-111237500D03*
X100262500Y-112507500D03*
X100262500Y-113777500D03*
X108262500Y-113777500D03*
X108262500Y-112507500D03*
X108262500Y-111237500D03*
X108262500Y-109967500D03*
D44*
X104262500Y-111872500D03*
D45*
X98235000Y-132340000D03*
X98235000Y-131460000D03*
X99115000Y-132340000D03*
X99115000Y-131460000D03*
D46*
X99425000Y-130437500D03*
X98925000Y-130437500D03*
X98425000Y-130437500D03*
X97925000Y-130437500D03*
D47*
X97212500Y-131150000D03*
X97212500Y-131650000D03*
X97212500Y-132150000D03*
X97212500Y-132650000D03*
D46*
X97925000Y-133362500D03*
X98425000Y-133362500D03*
X98925000Y-133362500D03*
X99425000Y-133362500D03*
D47*
X100137500Y-132650000D03*
X100137500Y-132150000D03*
X100137500Y-131650000D03*
X100137500Y-131150000D03*
D27*
X119650000Y-138075000D03*
X119650000Y-139725000D03*
X88300000Y-116675000D03*
X88300000Y-118325000D03*
X109017384Y-138027500D03*
X109017384Y-139677500D03*
D48*
X97764600Y-87083600D03*
X97764600Y-88633600D03*
D49*
X174380000Y-82765000D03*
X176920000Y-82765000D03*
X176920000Y-73235000D03*
X174380000Y-73235000D03*
D28*
X89300000Y-104325000D03*
X89300000Y-102775000D03*
D50*
X101675000Y-131775000D03*
X104475000Y-131775000D03*
D51*
X95380000Y-78420000D03*
X95380000Y-81220000D03*
D13*
X94700000Y-121287500D03*
X94700000Y-119712500D03*
D28*
X88175000Y-107887500D03*
X88175000Y-106337500D03*
D31*
X180000000Y-81925000D03*
X180000000Y-80275000D03*
D27*
X96300000Y-116675000D03*
X96300000Y-118325000D03*
D52*
X89414400Y-88011000D03*
X90214400Y-88011000D03*
D42*
X86625000Y-101212500D03*
X88175000Y-101212500D03*
D36*
X124345000Y-139270000D03*
D38*
X126337500Y-138280000D03*
D37*
X127330000Y-139270000D03*
X127330000Y-138610000D03*
X127330000Y-137950000D03*
X127330000Y-137290000D03*
D36*
X124345000Y-137950000D03*
X124345000Y-138610000D03*
X124345000Y-137290000D03*
D48*
X92506800Y-83984800D03*
X92506800Y-85534800D03*
D34*
X96225000Y-72400000D03*
X97875000Y-72400000D03*
X131559000Y-139652500D03*
X133209000Y-139652500D03*
D53*
X120325000Y-51750000D03*
X121575000Y-51750000D03*
X122825000Y-51750000D03*
X124075000Y-51750000D03*
D54*
X125925000Y-48400000D03*
X118475000Y-48400000D03*
D55*
X90225000Y-108037500D03*
X90825000Y-108037500D03*
D56*
X91450000Y-107712500D03*
X91450000Y-107112500D03*
X91450000Y-106512500D03*
D55*
X90825000Y-106187500D03*
X90225000Y-106187500D03*
D56*
X89600000Y-106512500D03*
X89600000Y-107112500D03*
X89600000Y-107712500D03*
D31*
X91500000Y-114225000D03*
X91500000Y-112575000D03*
D29*
X110525000Y-52505000D03*
X110525000Y-51545000D03*
D57*
X112812500Y-51200000D03*
X112812500Y-52400000D03*
X113587500Y-51200000D03*
X113587500Y-52400000D03*
D58*
X111650000Y-50825000D03*
X111650000Y-51475000D03*
X111650000Y-52125000D03*
X111650000Y-52775000D03*
X114750000Y-52775000D03*
X114750000Y-52125000D03*
X114750000Y-51475000D03*
X114750000Y-50825000D03*
D28*
X107252500Y-101675000D03*
X107252500Y-100125000D03*
D13*
X91500000Y-121275000D03*
X91500000Y-119700000D03*
D59*
X108075000Y-131000000D03*
X106175000Y-131000000D03*
D16*
X124375000Y-141480000D03*
X127175000Y-141480000D03*
D34*
X121150000Y-139680000D03*
X122800000Y-139680000D03*
D39*
X98780000Y-76870000D03*
X98780000Y-78770000D03*
D60*
X95040000Y-74880000D03*
X95920000Y-75760000D03*
X95040000Y-75760000D03*
X95920000Y-74880000D03*
D61*
X96942500Y-76070000D03*
X96942500Y-75570000D03*
X96942500Y-75070000D03*
X96942500Y-74570000D03*
D62*
X96230000Y-73857500D03*
X95730000Y-73857500D03*
X95230000Y-73857500D03*
X94730000Y-73857500D03*
D61*
X94017500Y-74570000D03*
X94017500Y-75070000D03*
X94017500Y-75570000D03*
X94017500Y-76070000D03*
D62*
X94730000Y-76782500D03*
X95230000Y-76782500D03*
X95730000Y-76782500D03*
X96230000Y-76782500D03*
D27*
X90000000Y-112575000D03*
X90000000Y-114225000D03*
D34*
X131559000Y-138052500D03*
X133209000Y-138052500D03*
D63*
X181980000Y-130140000D03*
X184980000Y-130140000D03*
D64*
X188865000Y-126720000D03*
X178095000Y-126720000D03*
D27*
X140250000Y-138027500D03*
X140250000Y-139677500D03*
D34*
X108075000Y-115900000D03*
X109725000Y-115900000D03*
D27*
X93100000Y-116675000D03*
X93100000Y-118325000D03*
X90100000Y-96425000D03*
X90100000Y-98075000D03*
D42*
X88988600Y-86766400D03*
X90538600Y-86766400D03*
D27*
X97900000Y-116675000D03*
X97900000Y-118325000D03*
D13*
X93100000Y-121287500D03*
X93100000Y-119712500D03*
D65*
X166430000Y-58150000D03*
X166430000Y-61150000D03*
D66*
X169850000Y-65035000D03*
X169850000Y-54265000D03*
D34*
X141825000Y-138052500D03*
X143475000Y-138052500D03*
D67*
X129320000Y-62800000D03*
X130280000Y-62800000D03*
D68*
X112551000Y-119370000D03*
D69*
X113871000Y-122355000D03*
X114531000Y-122355000D03*
D70*
X113541000Y-121362500D03*
D69*
X112551000Y-122355000D03*
X113211000Y-122355000D03*
D68*
X113871000Y-119370000D03*
X114531000Y-119370000D03*
X113211000Y-119370000D03*
D29*
X92530000Y-76100000D03*
X92530000Y-75140000D03*
D20*
X130587500Y-128500000D03*
X129012500Y-128500000D03*
D71*
X91912500Y-95312500D03*
X91912500Y-95812500D03*
X91912500Y-96312500D03*
X91912500Y-96812500D03*
X91912500Y-97312500D03*
X91912500Y-97812500D03*
X91912500Y-98312500D03*
X91912500Y-98812500D03*
X91912500Y-99312500D03*
X91912500Y-99812500D03*
X91912500Y-100312500D03*
X91912500Y-100812500D03*
X91912500Y-101312500D03*
X91912500Y-101812500D03*
X91912500Y-102312500D03*
X91912500Y-102812500D03*
X91912500Y-103312500D03*
X91912500Y-103812500D03*
X91912500Y-104312500D03*
X91912500Y-104812500D03*
D72*
X93850000Y-106750000D03*
X94350000Y-106750000D03*
X94850000Y-106750000D03*
X95350000Y-106750000D03*
X95850000Y-106750000D03*
X96350000Y-106750000D03*
X96850000Y-106750000D03*
X97350000Y-106750000D03*
X97850000Y-106750000D03*
X98350000Y-106750000D03*
X98850000Y-106750000D03*
X99350000Y-106750000D03*
X99850000Y-106750000D03*
X100350000Y-106750000D03*
X100850000Y-106750000D03*
X101350000Y-106750000D03*
X101850000Y-106750000D03*
X102350000Y-106750000D03*
X102850000Y-106750000D03*
X103350000Y-106750000D03*
D71*
X105287500Y-104812500D03*
X105287500Y-104312500D03*
X105287500Y-103812500D03*
X105287500Y-103312500D03*
X105287500Y-102812500D03*
X105287500Y-102312500D03*
X105287500Y-101812500D03*
X105287500Y-101312500D03*
X105287500Y-100812500D03*
X105287500Y-100312500D03*
X105287500Y-99812500D03*
X105287500Y-99312500D03*
X105287500Y-98812500D03*
X105287500Y-98312500D03*
X105287500Y-97812500D03*
X105287500Y-97312500D03*
X105287500Y-96812500D03*
X105287500Y-96312500D03*
X105287500Y-95812500D03*
X105287500Y-95312500D03*
D72*
X103350000Y-93375000D03*
X102850000Y-93375000D03*
X102350000Y-93375000D03*
X101850000Y-93375000D03*
X101350000Y-93375000D03*
X100850000Y-93375000D03*
X100350000Y-93375000D03*
X99850000Y-93375000D03*
X99350000Y-93375000D03*
X98850000Y-93375000D03*
X98350000Y-93375000D03*
X97850000Y-93375000D03*
X97350000Y-93375000D03*
X96850000Y-93375000D03*
X96350000Y-93375000D03*
X95850000Y-93375000D03*
X95350000Y-93375000D03*
X94850000Y-93375000D03*
X94350000Y-93375000D03*
X93850000Y-93375000D03*
D59*
X108075000Y-133000000D03*
X106175000Y-133000000D03*
D13*
X97900000Y-121293750D03*
X97900000Y-119718750D03*
D36*
X134754000Y-139242500D03*
D37*
X137739000Y-139242500D03*
X137739000Y-137922500D03*
X137739000Y-138582500D03*
D38*
X136746500Y-138252500D03*
D37*
X137739000Y-137262500D03*
D36*
X134754000Y-138582500D03*
X134754000Y-137262500D03*
X134754000Y-137922500D03*
D73*
X144933300Y-67700000D03*
D74*
X142800000Y-61485000D03*
X142800000Y-51335000D03*
D73*
X146958200Y-48700000D03*
X149883200Y-48700000D03*
X152833200Y-48700000D03*
X160733200Y-48700000D03*
D74*
X162800000Y-55385000D03*
D73*
X160683200Y-67700000D03*
X157658200Y-67700000D03*
D36*
X145020000Y-138582500D03*
X145020000Y-137922500D03*
X145020000Y-137262500D03*
D37*
X148005000Y-139242500D03*
D38*
X147012500Y-138252500D03*
D37*
X148005000Y-137262500D03*
X148005000Y-137922500D03*
X148005000Y-138582500D03*
D36*
X145020000Y-139242500D03*
D28*
X108852500Y-101675000D03*
X108852500Y-100125000D03*
D31*
X130600000Y-131650000D03*
X130600000Y-130000000D03*
D28*
X98780000Y-110275000D03*
X98780000Y-108725000D03*
D16*
X145050000Y-141452500D03*
X147850000Y-141452500D03*
D27*
X116200000Y-50975000D03*
X116200000Y-52625000D03*
D30*
X95825000Y-130525000D03*
X94175000Y-130525000D03*
D42*
X92565000Y-91390000D03*
X94115000Y-91390000D03*
D40*
X130280000Y-63800000D03*
X129320000Y-63800000D03*
D16*
X113817384Y-141452500D03*
X116617384Y-141452500D03*
D75*
X142100000Y-68750000D03*
X142100000Y-69550000D03*
D21*
X110629884Y-136452500D03*
X112204884Y-136452500D03*
D76*
X124075000Y-55250000D03*
X122825000Y-55250000D03*
X121575000Y-55250000D03*
X120325000Y-55250000D03*
D77*
X118475000Y-58600000D03*
X125925000Y-58600000D03*
D78*
X101780000Y-73120000D03*
X101780000Y-75120000D03*
D31*
X129050000Y-131650000D03*
X129050000Y-130000000D03*
D76*
X134075000Y-55250000D03*
X132825000Y-55250000D03*
X131575000Y-55250000D03*
X130325000Y-55250000D03*
D77*
X135925000Y-58600000D03*
X128475000Y-58600000D03*
D27*
X89900000Y-116675000D03*
X89900000Y-118325000D03*
D48*
X90100000Y-99550000D03*
X90100000Y-101100000D03*
D34*
X126525000Y-61750000D03*
X128175000Y-61750000D03*
D30*
X94825000Y-72400000D03*
X93175000Y-72400000D03*
D79*
X132485000Y-129480000D03*
X132485000Y-132020000D03*
X142015000Y-132020000D03*
X142015000Y-129480000D03*
D39*
X99780000Y-73370000D03*
X99780000Y-75270000D03*
D27*
X87000000Y-112575000D03*
X87000000Y-114225000D03*
D53*
X130325000Y-51750000D03*
X131575000Y-51750000D03*
X132825000Y-51750000D03*
X134075000Y-51750000D03*
D54*
X128475000Y-48400000D03*
X135925000Y-48400000D03*
D80*
X127650000Y-64312500D03*
X126450000Y-64312500D03*
X126450000Y-65087500D03*
X127650000Y-65087500D03*
D81*
X126075000Y-66250000D03*
X126725000Y-66250000D03*
X127375000Y-66250000D03*
X128025000Y-66250000D03*
X128025000Y-63150000D03*
X127375000Y-63150000D03*
X126725000Y-63150000D03*
X126075000Y-63150000D03*
D74*
X173225000Y-145266700D03*
D73*
X167010000Y-147400000D03*
X156860000Y-147400000D03*
D74*
X154225000Y-143241800D03*
X154225000Y-140316800D03*
X154225000Y-137366800D03*
X154225000Y-129466800D03*
D73*
X160910000Y-127400000D03*
D74*
X173225000Y-129516800D03*
X173225000Y-132541800D03*
D13*
X89900000Y-121287500D03*
X89900000Y-119712500D03*
D27*
X94200000Y-111295000D03*
X94200000Y-112945000D03*
D34*
X110592384Y-138052500D03*
X112242384Y-138052500D03*
X141825000Y-139652500D03*
X143475000Y-139652500D03*
D35*
X108175000Y-107800000D03*
X106625000Y-107800000D03*
D48*
X107300000Y-103537500D03*
X107300000Y-105087500D03*
D82*
X85130000Y-99512500D03*
X87670000Y-99512500D03*
X87670000Y-97312500D03*
X85130000Y-97312500D03*
D34*
X190775000Y-85100000D03*
X192425000Y-85100000D03*
X110592384Y-139652500D03*
X112242384Y-139652500D03*
D35*
X105677000Y-90703400D03*
X104127000Y-90703400D03*
D28*
X99288600Y-88633600D03*
X99288600Y-87083600D03*
D16*
X134784000Y-141452500D03*
X137584000Y-141452500D03*
D29*
X98280000Y-74800000D03*
X98280000Y-73840000D03*
D40*
X114630000Y-54125000D03*
X113670000Y-54125000D03*
D27*
X94700000Y-116675000D03*
X94700000Y-118325000D03*
D13*
X88300000Y-121287500D03*
X88300000Y-119712500D03*
D39*
X126250000Y-73200000D03*
X126250000Y-75100000D03*
D42*
X88525000Y-94612500D03*
X90075000Y-94612500D03*
D31*
X140800000Y-68725000D03*
X140800000Y-67075000D03*
D35*
X99301600Y-90119200D03*
X97751600Y-90119200D03*
D31*
X88500000Y-114225000D03*
X88500000Y-112575000D03*
D27*
X129984000Y-138027500D03*
X129984000Y-139677500D03*
D31*
X140800000Y-71825000D03*
X140800000Y-70175000D03*
D83*
X100828600Y-89363000D03*
X101328600Y-89363000D03*
X101828600Y-89363000D03*
X102328600Y-89363000D03*
X102828600Y-89363000D03*
D84*
X103053600Y-88638000D03*
X103053600Y-88138000D03*
X103053600Y-87638000D03*
D83*
X102828600Y-86913000D03*
X102328600Y-86913000D03*
X101828600Y-86913000D03*
X101328600Y-86913000D03*
X100828600Y-86913000D03*
D84*
X100603600Y-87638000D03*
X100603600Y-88138000D03*
X100603600Y-88638000D03*
M02*
