G04 #@! TF.GenerationSoftware,KiCad,Pcbnew,(6.0.0)*
G04 #@! TF.CreationDate,2022-08-29T10:28:43+02:00*
G04 #@! TF.ProjectId,uHoubolt_PCB_PMU,75486f75-626f-46c7-945f-5043425f504d,rev?*
G04 #@! TF.SameCoordinates,Original*
G04 #@! TF.FileFunction,Soldermask,Bot*
G04 #@! TF.FilePolarity,Negative*
%FSLAX46Y46*%
G04 Gerber Fmt 4.6, Leading zero omitted, Abs format (unit mm)*
G04 Created by KiCad (PCBNEW (6.0.0)) date 2022-08-29 10:28:43*
%MOMM*%
%LPD*%
G01*
G04 APERTURE LIST*
G04 Aperture macros list*
%AMRoundRect*
0 Rectangle with rounded corners*
0 $1 Rounding radius*
0 $2 $3 $4 $5 $6 $7 $8 $9 X,Y pos of 4 corners*
0 Add a 4 corners polygon primitive as box body*
4,1,4,$2,$3,$4,$5,$6,$7,$8,$9,$2,$3,0*
0 Add four circle primitives for the rounded corners*
1,1,$1+$1,$2,$3*
1,1,$1+$1,$4,$5*
1,1,$1+$1,$6,$7*
1,1,$1+$1,$8,$9*
0 Add four rect primitives between the rounded corners*
20,1,$1+$1,$2,$3,$4,$5,0*
20,1,$1+$1,$4,$5,$6,$7,0*
20,1,$1+$1,$6,$7,$8,$9,0*
20,1,$1+$1,$8,$9,$2,$3,0*%
%AMFreePoly0*
4,1,23,0.945671,0.830970,1.026777,0.776777,1.080970,0.695671,1.100000,0.600000,1.100000,-0.600000,1.080970,-0.695671,1.026777,-0.776777,0.945671,-0.830970,0.850000,-0.850000,-0.450000,-0.850000,-0.545671,-0.830970,-0.626777,-0.776777,-0.626779,-0.776774,-1.026777,-0.376777,-1.080970,-0.295671,-1.100000,-0.200000,-1.100000,0.600000,-1.080970,0.695671,-1.026777,0.776777,-0.945671,0.830970,
-0.850000,0.850000,0.850000,0.850000,0.945671,0.830970,0.945671,0.830970,$1*%
%AMFreePoly1*
4,1,22,0.500000,-0.750000,0.000000,-0.750000,0.000000,-0.745033,-0.079941,-0.743568,-0.215256,-0.701293,-0.333266,-0.622738,-0.424486,-0.514219,-0.481581,-0.384460,-0.499164,-0.250000,-0.500000,-0.250000,-0.500000,0.250000,-0.499164,0.250000,-0.499963,0.256109,-0.478152,0.396186,-0.417904,0.524511,-0.324060,0.630769,-0.204165,0.706417,-0.067858,0.745374,0.000000,0.744959,0.000000,0.750000,
0.500000,0.750000,0.500000,-0.750000,0.500000,-0.750000,$1*%
%AMFreePoly2*
4,1,20,0.000000,0.744959,0.073905,0.744508,0.209726,0.703889,0.328688,0.626782,0.421226,0.519385,0.479903,0.390333,0.500000,0.250000,0.500000,-0.250000,0.499851,-0.262216,0.476331,-0.402017,0.414519,-0.529596,0.319384,-0.634700,0.198574,-0.708877,0.061801,-0.746166,0.000000,-0.745033,0.000000,-0.750000,-0.500000,-0.750000,-0.500000,0.750000,0.000000,0.750000,0.000000,0.744959,
0.000000,0.744959,$1*%
G04 Aperture macros list end*
%ADD10C,1.300000*%
%ADD11RoundRect,0.250000X0.600000X-0.850000X0.600000X0.850000X-0.600000X0.850000X-0.600000X-0.850000X0*%
%ADD12O,1.700000X2.200000*%
%ADD13C,2.000000*%
%ADD14C,2.500000*%
%ADD15C,6.400000*%
%ADD16C,0.800000*%
%ADD17C,3.000000*%
%ADD18FreePoly0,180.000000*%
%ADD19O,2.200000X1.700000*%
%ADD20FreePoly0,90.000000*%
%ADD21RoundRect,0.150000X0.150000X0.700000X-0.150000X0.700000X-0.150000X-0.700000X0.150000X-0.700000X0*%
%ADD22RoundRect,0.250000X0.250000X1.150000X-0.250000X1.150000X-0.250000X-1.150000X0.250000X-1.150000X0*%
%ADD23RoundRect,0.150000X-0.150000X-0.700000X0.150000X-0.700000X0.150000X0.700000X-0.150000X0.700000X0*%
%ADD24RoundRect,0.250000X-0.250000X-1.150000X0.250000X-1.150000X0.250000X1.150000X-0.250000X1.150000X0*%
%ADD25FreePoly1,270.000000*%
%ADD26FreePoly2,270.000000*%
%ADD27R,2.400000X0.740000*%
%ADD28R,2.510000X1.000000*%
%ADD29R,1.270000X2.540000*%
%ADD30R,3.430000X1.650000*%
G04 APERTURE END LIST*
D10*
X169250000Y-71187500D03*
D11*
X165500000Y-69847500D03*
D12*
X168000000Y-69847500D03*
X170500000Y-69847500D03*
X173000000Y-69847500D03*
D13*
X172450000Y-92000000D03*
X178950000Y-92000000D03*
D14*
X170620000Y-87700000D03*
X180780000Y-87700000D03*
X175700000Y-87700000D03*
D13*
X178950000Y-108000000D03*
X172450000Y-108000000D03*
D14*
X170620000Y-112300000D03*
X180780000Y-112300000D03*
X175700000Y-112300000D03*
D13*
X187450000Y-92000000D03*
X193950000Y-92000000D03*
D14*
X185620000Y-87700000D03*
X195780000Y-87700000D03*
X190700000Y-87700000D03*
D13*
X193950000Y-108000000D03*
X187450000Y-108000000D03*
D14*
X185620000Y-112300000D03*
X195780000Y-112300000D03*
X190700000Y-112300000D03*
D15*
X102500000Y-62500000D03*
D16*
X104900000Y-62500000D03*
X104197056Y-60802944D03*
X102500000Y-60100000D03*
X100100000Y-62500000D03*
X100802944Y-60802944D03*
X100802944Y-64197056D03*
X102500000Y-64900000D03*
X104197056Y-64197056D03*
X175802944Y-64197056D03*
X177500000Y-64900000D03*
X179197056Y-60802944D03*
X179900000Y-62500000D03*
X175100000Y-62500000D03*
X175802944Y-60802944D03*
D15*
X177500000Y-62500000D03*
D16*
X179197056Y-64197056D03*
X177500000Y-60100000D03*
X102500000Y-135100000D03*
X104900000Y-137500000D03*
X104197056Y-139197056D03*
X100802944Y-135802944D03*
X100100000Y-137500000D03*
X102500000Y-139900000D03*
X100802944Y-139197056D03*
D15*
X102500000Y-137500000D03*
D16*
X104197056Y-135802944D03*
D17*
X112500000Y-69840000D03*
X118200000Y-69840000D03*
X121050000Y-68500000D03*
X115350000Y-68500000D03*
X109650000Y-68500000D03*
D16*
X175802944Y-135802944D03*
X175100000Y-137500000D03*
X175802944Y-139197056D03*
X177500000Y-135100000D03*
X179900000Y-137500000D03*
X179197056Y-139197056D03*
D15*
X177500000Y-137500000D03*
D16*
X179197056Y-135802944D03*
X177500000Y-139900000D03*
D10*
X146990000Y-130850000D03*
D18*
X145650000Y-132100000D03*
D19*
X145650000Y-129600000D03*
D10*
X146450000Y-146340000D03*
D20*
X145200000Y-145000000D03*
D12*
X147700000Y-145000000D03*
D10*
X136184000Y-146340000D03*
D20*
X134934000Y-145000000D03*
D12*
X137434000Y-145000000D03*
D10*
X125775000Y-146367500D03*
D20*
X124525000Y-145027500D03*
D12*
X127025000Y-145027500D03*
D13*
X139954000Y-45720000D03*
X142494000Y-45720000D03*
X171330000Y-117600000D03*
X173870000Y-117600000D03*
D10*
X185200000Y-118487500D03*
D11*
X181450000Y-117147500D03*
D12*
X183950000Y-117147500D03*
X186450000Y-117147500D03*
X188950000Y-117147500D03*
D10*
X115217384Y-146340000D03*
D20*
X113967384Y-145000000D03*
D12*
X116467384Y-145000000D03*
D17*
X183060000Y-79100000D03*
X183060000Y-73400000D03*
X184400000Y-70550000D03*
X184400000Y-76250000D03*
X184400000Y-81950000D03*
D21*
X124075000Y-51750000D03*
X122825000Y-51750000D03*
X121575000Y-51750000D03*
X120325000Y-51750000D03*
D22*
X118475000Y-48400000D03*
X125925000Y-48400000D03*
D23*
X130325000Y-55250000D03*
X131575000Y-55250000D03*
X132825000Y-55250000D03*
X134075000Y-55250000D03*
D24*
X128475000Y-58600000D03*
X135925000Y-58600000D03*
D25*
X196800000Y-99225000D03*
D26*
X196800000Y-100525000D03*
D21*
X134075000Y-51750000D03*
X132825000Y-51750000D03*
X131575000Y-51750000D03*
X130325000Y-51750000D03*
D22*
X128475000Y-48400000D03*
X135925000Y-48400000D03*
D23*
X120325000Y-55250000D03*
X121575000Y-55250000D03*
X122825000Y-55250000D03*
X124075000Y-55250000D03*
D24*
X125925000Y-58600000D03*
X118475000Y-58600000D03*
D25*
X193875000Y-99275000D03*
D26*
X193875000Y-100575000D03*
D27*
X116000000Y-75645000D03*
X112100000Y-75645000D03*
X116000000Y-76915000D03*
X112100000Y-76915000D03*
X116000000Y-78185000D03*
X112100000Y-78185000D03*
X116000000Y-79455000D03*
X112100000Y-79455000D03*
D28*
X107765000Y-71650000D03*
X104455000Y-74190000D03*
X107765000Y-76730000D03*
X104455000Y-79270000D03*
X107765000Y-81810000D03*
X104455000Y-84350000D03*
X107765000Y-86890000D03*
X104455000Y-89430000D03*
D29*
X161200000Y-56220000D03*
X158200000Y-56220000D03*
D30*
X154315000Y-52800000D03*
X165085000Y-52800000D03*
M02*
